M48
; DRILL file {KiCad 5.1.6} date Mon Sep  7 13:49:16 2020
; FORMAT={-:-/ absolute / inch / decimal}
; #@! TF.CreationDate,2020-09-07T13:49:16+01:00
; #@! TF.GenerationSoftware,Kicad,Pcbnew,5.1.6
; #@! TF.FileFunction,Plated,1,2,PTH
FMAT,2
INCH
T1C0.0157
T2C0.0320
T3C0.0394
T4C0.0500
T5C0.0512
%
G90
G05
T1
X4.0818Y-2.2141
X4.1826Y-2.3052
X5.0578Y-2.1732
X5.4784Y-2.3519
X5.4796Y-2.3917
T2
X5.0044Y-1.45
X5.0044Y-1.55
X5.0044Y-1.65
X5.0044Y-1.75
X5.0044Y-1.85
X5.0044Y-1.95
X5.0044Y-2.05
X5.0044Y-2.15
X5.0044Y-2.25
X5.0044Y-2.35
X5.0044Y-2.45
X5.0044Y-2.55
X5.6036Y-1.45
X5.6036Y-1.55
X5.6036Y-1.65
X5.6036Y-1.75
X5.6036Y-1.85
X5.6036Y-1.95
X5.6036Y-2.05
X5.6036Y-2.15
X5.6036Y-2.25
X5.6036Y-2.35
X5.6036Y-2.45
X5.6036Y-2.55
T4
X2.2441Y-1.9425
X2.4409Y-2.0252
X2.6378Y-1.9425
X1.5354Y-1.6102
X1.7323Y-1.6929
X1.9291Y-1.6102
X2.9528Y-1.8098
X3.1496Y-1.8925
X3.3465Y-1.8098
X2.9528Y-2.4791
X3.1496Y-2.5618
X3.3465Y-2.4791
X4.9961Y-3.3023
X5.2079Y-3.3292
X5.337Y-3.4992
X4.3701Y-2.0362
X4.5669Y-2.1189
X4.7638Y-2.0362
X3.6614Y-1.2732
X3.8583Y-1.3559
X4.0551Y-1.2732
X2.2441Y-2.612
X2.4409Y-2.6947
X2.6378Y-2.612
X1.5354Y-2.949
X1.7323Y-3.0317
X1.9291Y-2.949
X1.5354Y-2.2795
X1.7323Y-2.3622
X1.9291Y-2.2795
X2.9528Y-1.1409
X3.1496Y-1.2236
X3.3465Y-1.1409
X4.3701Y-2.7055
X4.5669Y-2.7882
X4.7638Y-2.7055
X2.2441Y-1.2732
X2.4409Y-1.3559
X2.6378Y-1.2732
X3.6614Y-2.612
X3.8583Y-2.6947
X4.0551Y-2.612
X3.6614Y-1.9425
X3.8583Y-2.0252
X4.0551Y-1.9425
X4.3701Y-1.3669
X4.5669Y-1.4496
X4.7638Y-1.3669
X4.1569Y-3.0712
X4.3651Y-3.024
X4.5446Y-3.1396
T5
X5.162Y-2.68
X5.418Y-2.68
T3
G00X5.1253Y-2.8646
M15
G01X5.1056Y-2.8646
M16
G05
G00X5.1253Y-2.961
M15
G01X5.1056Y-2.961
M16
G05
G00X5.1843Y-2.7957
M15
G01X5.1646Y-2.7957
M16
G05
G00X5.1843Y-3.0299
M15
G01X5.1646Y-3.0299
M16
G05
G00X5.3418Y-2.7957
M15
G01X5.3221Y-2.7957
M16
G05
G00X5.3418Y-3.0299
M15
G01X5.3221Y-3.0299
M16
G05
G00X5.4599Y-2.7957
M15
G01X5.4402Y-2.7957
M16
G05
G00X5.4599Y-3.0299
M15
G01X5.4402Y-3.0299
M16
G05
T0
M30
