M48
; DRILL file {KiCad 5.1.6} date Mon Sep  7 13:49:16 2020
; FORMAT={-:-/ absolute / inch / decimal}
; #@! TF.CreationDate,2020-09-07T13:49:16+01:00
; #@! TF.GenerationSoftware,Kicad,Pcbnew,5.1.6
; #@! TF.FileFunction,NonPlated,1,2,NPTH
FMAT,2
INCH
T1C0.0390
T2C0.0472
T3C0.0670
T4C0.1350
%
G90
G05
T1
X4.0937Y-3.3799
X4.4985Y-3.4513
X2.2354Y-1.6276
X2.6465Y-1.6276
X1.5268Y-1.2953
X1.9378Y-1.2953
X2.9441Y-1.4949
X3.3551Y-1.4949
X2.9441Y-2.1642
X3.3551Y-2.1642
X4.8311Y-3.5708
X5.187Y-3.7763
X4.3614Y-1.7213
X4.7724Y-1.7213
X3.6528Y-0.9583
X4.0638Y-0.9583
X2.2354Y-2.297
X2.6465Y-2.297
X1.5268Y-2.6341
X1.9378Y-2.6341
X1.5268Y-1.9646
X1.9378Y-1.9646
X2.9441Y-0.826
X3.3551Y-0.826
X4.3614Y-2.3906
X4.7724Y-2.3906
X2.2354Y-0.9583
X2.6465Y-0.9583
X3.6528Y-2.297
X4.0638Y-2.297
X3.6528Y-1.6276
X4.0638Y-1.6276
X4.3614Y-1.052
X4.7724Y-1.052
T2
X5.2454Y-2.8783
X5.2454Y-2.9472
X5.5209Y-2.8783
X5.5209Y-2.9472
T3
X4.3504Y-1.8866
X4.7835Y-1.8866
X3.6417Y-1.1236
X4.0748Y-1.1236
X2.2244Y-2.4624
X2.6575Y-2.4624
X1.5157Y-2.7994
X1.9488Y-2.7994
X1.5157Y-2.1299
X1.9488Y-2.1299
X2.9331Y-0.9913
X3.3661Y-0.9913
X4.3504Y-2.5559
X4.7835Y-2.5559
X2.2244Y-1.1236
X2.6575Y-1.1236
X3.6417Y-2.4624
X4.0748Y-2.4624
X3.6417Y-1.7929
X4.0748Y-1.7929
X4.3504Y-1.2173
X4.7835Y-1.2173
X4.1116Y-3.2152
X4.538Y-3.2904
X2.2244Y-1.7929
X2.6575Y-1.7929
X1.5157Y-1.4606
X1.9488Y-1.4606
X2.9331Y-1.6602
X3.3661Y-1.6602
X2.9331Y-2.3295
X3.3661Y-2.3295
X4.9042Y-3.422
X5.2793Y-3.6386
T4
X3.8583Y-2.4624
X3.8583Y-1.7929
X4.5669Y-1.2173
X4.3248Y-3.2528
X2.4409Y-1.7929
X1.7323Y-1.4606
X3.1496Y-1.6602
X3.1496Y-2.3295
X5.0917Y-3.5303
X4.5669Y-1.8866
X3.8583Y-1.1236
X2.4409Y-2.4624
X1.7323Y-2.7994
X1.7323Y-2.1299
X3.1496Y-0.9913
X4.5669Y-2.5559
X2.4409Y-1.1236
T0
M30
