G04 #@! TF.GenerationSoftware,KiCad,Pcbnew,5.1.6*
G04 #@! TF.CreationDate,2020-09-07T13:49:14+01:00*
G04 #@! TF.ProjectId,cradio,63726164-696f-42e6-9b69-6361645f7063,2.1*
G04 #@! TF.SameCoordinates,Original*
G04 #@! TF.FileFunction,Soldermask,Bot*
G04 #@! TF.FilePolarity,Negative*
%FSLAX46Y46*%
G04 Gerber Fmt 4.6, Leading zero omitted, Abs format (unit mm)*
G04 Created by KiCad (PCBNEW 5.1.6) date 2020-09-07 13:49:14*
%MOMM*%
%LPD*%
G01*
G04 APERTURE LIST*
%ADD10C,1.924000*%
%ADD11C,2.101800*%
%ADD12C,1.390600*%
%ADD13C,2.432000*%
%ADD14C,3.829000*%
%ADD15C,2.400000*%
%ADD16O,2.900000X2.100000*%
%ADD17C,1.600000*%
G04 APERTURE END LIST*
D10*
X127111400Y-36830000D03*
X127111400Y-39370000D03*
X127111400Y-41910000D03*
X127111400Y-44450000D03*
X127111400Y-46990000D03*
X127111400Y-49530000D03*
X127111400Y-52070000D03*
X127111400Y-54610000D03*
X127111400Y-57150000D03*
X127111400Y-59690000D03*
X127111400Y-62230000D03*
X127111400Y-64770000D03*
X142331400Y-64770000D03*
X142331400Y-62230000D03*
X142331400Y-59690000D03*
X142331400Y-57150000D03*
X142331400Y-54610000D03*
X142331400Y-52070000D03*
X142331400Y-49530000D03*
X142331400Y-46990000D03*
X142331400Y-44450000D03*
X142331400Y-41910000D03*
X142331400Y-39370000D03*
X142331400Y-36830000D03*
D11*
X104433557Y-81664935D03*
X115266443Y-83575065D03*
D12*
X114261374Y-87662636D03*
D13*
X110874524Y-76809634D03*
X105585824Y-78009490D03*
D14*
X109850000Y-82620000D03*
D13*
X115433902Y-79745971D03*
D12*
X103979981Y-85849749D03*
X110780000Y-60720000D03*
D13*
X121000000Y-68720000D03*
D14*
X116000000Y-64920000D03*
D13*
X111000000Y-68720000D03*
X116000000Y-70820000D03*
D12*
X121220000Y-60720000D03*
D11*
X121500000Y-64920000D03*
X110500000Y-64920000D03*
X124566860Y-86920000D03*
X134093140Y-92420000D03*
D12*
X131750653Y-95917307D03*
D13*
X132280000Y-84560450D03*
X126899873Y-83879103D03*
D14*
X129330000Y-89670000D03*
D13*
X135560127Y-88879103D03*
D12*
X122709347Y-90697307D03*
X92780000Y-58345000D03*
D13*
X103000000Y-66345000D03*
D14*
X98000000Y-62545000D03*
D13*
X93000000Y-66345000D03*
X98000000Y-68445000D03*
D12*
X103220000Y-58345000D03*
D11*
X103500000Y-62545000D03*
X92500000Y-62545000D03*
D12*
X74780000Y-54970000D03*
D13*
X85000000Y-62970000D03*
D14*
X80000000Y-59170000D03*
D13*
X75000000Y-62970000D03*
X80000000Y-65070000D03*
D12*
X85220000Y-54970000D03*
D11*
X85500000Y-59170000D03*
X74500000Y-59170000D03*
D12*
X56780000Y-58345000D03*
D13*
X67000000Y-66345000D03*
D14*
X62000000Y-62545000D03*
D13*
X57000000Y-66345000D03*
X62000000Y-68445000D03*
D12*
X67220000Y-58345000D03*
D11*
X67500000Y-62545000D03*
X56500000Y-62545000D03*
D12*
X38780000Y-66905000D03*
D13*
X49000000Y-74905000D03*
D14*
X44000000Y-71105000D03*
D13*
X39000000Y-74905000D03*
X44000000Y-77005000D03*
D12*
X49220000Y-66905000D03*
D11*
X49500000Y-71105000D03*
X38500000Y-71105000D03*
D12*
X110780000Y-43720000D03*
D13*
X121000000Y-51720000D03*
D14*
X116000000Y-47920000D03*
D13*
X111000000Y-51720000D03*
X116000000Y-53820000D03*
D12*
X121220000Y-43720000D03*
D11*
X121500000Y-47920000D03*
X110500000Y-47920000D03*
D12*
X92780000Y-41340000D03*
D13*
X103000000Y-49340000D03*
D14*
X98000000Y-45540000D03*
D13*
X93000000Y-49340000D03*
X98000000Y-51440000D03*
D12*
X103220000Y-41340000D03*
D11*
X103500000Y-45540000D03*
X92500000Y-45540000D03*
D12*
X74780000Y-37970000D03*
D13*
X85000000Y-45970000D03*
D14*
X80000000Y-42170000D03*
D13*
X75000000Y-45970000D03*
X80000000Y-48070000D03*
D12*
X85220000Y-37970000D03*
D11*
X85500000Y-42170000D03*
X74500000Y-42170000D03*
D12*
X56780000Y-41340000D03*
D13*
X67000000Y-49340000D03*
D14*
X62000000Y-45540000D03*
D13*
X57000000Y-49340000D03*
X62000000Y-51440000D03*
D12*
X67220000Y-41340000D03*
D11*
X67500000Y-45540000D03*
X56500000Y-45540000D03*
D12*
X38780000Y-49900000D03*
D13*
X49000000Y-57900000D03*
D14*
X44000000Y-54100000D03*
D13*
X39000000Y-57900000D03*
X44000000Y-60000000D03*
D12*
X49220000Y-49900000D03*
D11*
X49500000Y-54100000D03*
X38500000Y-54100000D03*
D12*
X110780000Y-26720000D03*
D13*
X121000000Y-34720000D03*
D14*
X116000000Y-30920000D03*
D13*
X111000000Y-34720000D03*
X116000000Y-36820000D03*
D12*
X121220000Y-26720000D03*
D11*
X121500000Y-30920000D03*
X110500000Y-30920000D03*
D12*
X92780000Y-24340000D03*
D13*
X103000000Y-32340000D03*
D14*
X98000000Y-28540000D03*
D13*
X93000000Y-32340000D03*
X98000000Y-34440000D03*
D12*
X103220000Y-24340000D03*
D11*
X103500000Y-28540000D03*
X92500000Y-28540000D03*
D12*
X74780000Y-20980000D03*
D13*
X85000000Y-28980000D03*
D14*
X80000000Y-25180000D03*
D13*
X75000000Y-28980000D03*
X80000000Y-31080000D03*
D12*
X85220000Y-20980000D03*
D11*
X85500000Y-25180000D03*
X74500000Y-25180000D03*
D12*
X38780000Y-32900000D03*
D13*
X49000000Y-40900000D03*
D14*
X44000000Y-37100000D03*
D13*
X39000000Y-40900000D03*
X44000000Y-43000000D03*
D12*
X49220000Y-32900000D03*
D11*
X49500000Y-37100000D03*
X38500000Y-37100000D03*
D12*
X56780000Y-24340000D03*
D13*
X67000000Y-32340000D03*
D14*
X62000000Y-28540000D03*
D13*
X57000000Y-32340000D03*
X62000000Y-34440000D03*
D12*
X67220000Y-24340000D03*
D11*
X67500000Y-28540000D03*
X56500000Y-28540000D03*
D15*
X137616000Y-68072000D03*
X131116000Y-68072000D03*
D16*
X129932000Y-72760000D03*
X131432000Y-76960000D03*
X135432000Y-76960000D03*
X138432000Y-76960000D03*
D17*
X133232000Y-74860000D03*
X140232000Y-74860000D03*
D16*
X135432000Y-71010000D03*
X138432000Y-71010000D03*
X129932000Y-75210000D03*
X131432000Y-71010000D03*
D17*
X140232000Y-73110000D03*
X133232000Y-73110000D03*
M02*
