M48
; DRILL file {KiCad (5.1.5-0-10_14)} date Tuesday, 05 May 2020 at 15:06:44
; FORMAT={-:-/ absolute / inch / decimal}
; #@! TF.CreationDate,2020-05-05T15:06:44+01:00
; #@! TF.GenerationSoftware,Kicad,Pcbnew,(5.1.5-0-10_14)
; #@! TF.FileFunction,Plated,1,2,PTH
FMAT,2
INCH
T1C0.0320
T2C0.0394
T3C0.0500
%
G90
G05
T1
X3.5Y-3.1819
X3.5Y-3.4181
X2.0894Y-1.774
X2.0894Y-2.0102
X4.1732Y-2.45
X4.1732Y-2.6862
X4.25Y-0.95
X4.25Y-1.1862
X3.5Y-2.1819
X3.5Y-2.4181
X4.1606Y-1.2862
X4.1732Y-1.05
X4.95Y-3.4319
X4.95Y-3.6681
X4.252Y-1.5963
X4.252Y-1.8325
X3.5Y-0.8819
X3.5Y-1.1181
X5.0004Y-1.0599
X5.0004Y-1.1599
X5.0004Y-1.2599
X5.0004Y-1.3599
X5.0004Y-1.4599
X5.0004Y-1.5599
X5.0004Y-1.6599
X5.0004Y-1.7599
X5.0004Y-1.8599
X5.0004Y-1.9599
X5.0004Y-2.0599
X5.0004Y-2.1599
X5.5997Y-1.0599
X5.5997Y-1.1599
X5.5997Y-1.2599
X5.5997Y-1.3599
X5.5997Y-1.4599
X5.5997Y-1.5599
X5.5997Y-1.6599
X5.5997Y-1.7599
X5.5997Y-1.8599
X5.5997Y-1.9599
X5.5997Y-2.0599
X5.5997Y-2.1599
X5.15Y-2.35
X5.25Y-2.35
X5.35Y-2.35
X5.45Y-2.35
X4.1732Y-1.75
X4.1732Y-1.9862
X4.252Y-2.3443
X4.252Y-2.5805
X2.8Y-2.3443
X2.8Y-2.5805
X4.25Y-3.2819
X4.25Y-3.5181
X2.8Y-0.8819
X2.8Y-1.1181
X3.5Y-1.5028
X3.5Y-1.739
X2.0697Y-2.4801
X2.0697Y-2.7163
X2.0803Y-1.2819
X2.0803Y-1.5181
X2.8Y-1.5963
X2.8Y-1.8325
T3
X3.6614Y-2.612
X3.8583Y-2.6947
X4.0551Y-2.612
X1.5354Y-2.2795
X1.7323Y-2.3622
X1.9291Y-2.2795
X5.1031Y-3.6504
X5.3Y-3.5677
X5.4969Y-3.6504
X4.3701Y-2.7055
X4.5669Y-2.7882
X4.7638Y-2.7055
X2.9528Y-1.1803
X3.1496Y-1.263
X3.3465Y-1.1803
X2.9528Y-2.5185
X3.1496Y-2.6012
X3.3465Y-2.5185
X4.3945Y-3.4504
X4.5913Y-3.3677
X4.7882Y-3.4504
X3.6614Y-1.2732
X3.8583Y-1.3559
X4.0551Y-1.2732
X2.9528Y-1.8492
X3.1496Y-1.9319
X3.3465Y-1.8492
X3.6614Y-1.9425
X3.8583Y-2.0252
X4.0551Y-1.9425
X2.2441Y-1.2732
X2.4409Y-1.3559
X2.6378Y-1.2732
X3.6858Y-3.2504
X3.8827Y-3.1677
X4.0795Y-3.2504
X2.2441Y-1.9425
X2.4409Y-2.0252
X2.6378Y-1.9425
X2.2441Y-2.612
X2.4409Y-2.6947
X2.6378Y-2.612
X1.5354Y-1.6102
X1.7323Y-1.6929
X1.9291Y-1.6102
X1.5354Y-2.6498
X1.7323Y-2.5671
X1.9291Y-2.6498
X4.3701Y-1.3669
X4.5669Y-1.4496
X4.7638Y-1.3669
X4.3701Y-2.0362
X4.5669Y-2.1189
X4.7638Y-2.0362
T2
G00X5.2453Y-2.5846
M15
G01X5.2256Y-2.5846
M16
G05
G00X5.2453Y-2.6811
M15
G01X5.2256Y-2.6811
M16
G05
G00X5.3043Y-2.5157
M15
G01X5.2846Y-2.5157
M16
G05
G00X5.3043Y-2.75
M15
G01X5.2846Y-2.75
M16
G05
G00X5.4618Y-2.5157
M15
G01X5.4421Y-2.5157
M16
G05
G00X5.4618Y-2.75
M15
G01X5.4421Y-2.75
M16
G05
G00X5.5799Y-2.5157
M15
G01X5.5602Y-2.5157
M16
G05
G00X5.5799Y-2.75
M15
G01X5.5602Y-2.75
M16
G05
T0
M30
