G04 #@! TF.GenerationSoftware,KiCad,Pcbnew,(5.1.5-0-10_14)*
G04 #@! TF.CreationDate,2020-05-05T15:06:42+01:00*
G04 #@! TF.ProjectId,beak,6265616b-2e6b-4696-9361-645f70636258,2.1*
G04 #@! TF.SameCoordinates,Original*
G04 #@! TF.FileFunction,Soldermask,Top*
G04 #@! TF.FilePolarity,Negative*
%FSLAX46Y46*%
G04 Gerber Fmt 4.6, Leading zero omitted, Abs format (unit mm)*
G04 Created by KiCad (PCBNEW (5.1.5-0-10_14)) date 2020-05-05 15:06:42*
%MOMM*%
%LPD*%
G04 APERTURE LIST*
%ADD10C,2.101800*%
%ADD11C,1.390600*%
%ADD12C,2.432000*%
%ADD13C,3.829000*%
%ADD14C,1.797000*%
%ADD15R,1.797000X1.797000*%
%ADD16C,1.924000*%
%ADD17O,2.900000X2.100000*%
%ADD18C,1.600000*%
G04 APERTURE END LIST*
D10*
X111120000Y-91440000D03*
X122120000Y-91440000D03*
D11*
X121840000Y-95640000D03*
D12*
X116620000Y-85540000D03*
X111620000Y-87640000D03*
D13*
X116620000Y-91440000D03*
D12*
X121620000Y-87640000D03*
D11*
X111400000Y-95640000D03*
D10*
X110500000Y-64920000D03*
X121500000Y-64920000D03*
D11*
X121220000Y-60720000D03*
D12*
X116000000Y-70820000D03*
X111000000Y-68720000D03*
D13*
X116000000Y-64920000D03*
D12*
X121000000Y-68720000D03*
D11*
X110780000Y-60720000D03*
D14*
X108000000Y-65545000D03*
D15*
X108000000Y-59545000D03*
D14*
X138430000Y-59690000D03*
X135890000Y-59690000D03*
X133350000Y-59690000D03*
X130810000Y-59690000D03*
D10*
X93120000Y-86360000D03*
X104120000Y-86360000D03*
D11*
X103840000Y-90560000D03*
D12*
X98620000Y-80460000D03*
X93620000Y-82560000D03*
D13*
X98620000Y-86360000D03*
D12*
X103620000Y-82560000D03*
D11*
X93400000Y-90560000D03*
X129400000Y-100720000D03*
D12*
X139620000Y-92720000D03*
D13*
X134620000Y-96520000D03*
D12*
X129620000Y-92720000D03*
X134620000Y-90620000D03*
D11*
X139840000Y-100720000D03*
D10*
X140120000Y-96520000D03*
X129120000Y-96520000D03*
D16*
X127011400Y-26922000D03*
X127011400Y-29462000D03*
X127011400Y-32002000D03*
X127011400Y-34542000D03*
X127011400Y-37082000D03*
X127011400Y-39622000D03*
X127011400Y-42162000D03*
X127011400Y-44702000D03*
X127011400Y-47242000D03*
X127011400Y-49782000D03*
X127011400Y-52322000D03*
X127011400Y-54862000D03*
X142231400Y-54862000D03*
X142231400Y-52322000D03*
X142231400Y-49782000D03*
X142231400Y-47242000D03*
X142231400Y-44702000D03*
X142231400Y-42162000D03*
X142231400Y-39622000D03*
X142231400Y-37082000D03*
X142231400Y-34542000D03*
X142231400Y-32002000D03*
X142231400Y-29462000D03*
X142231400Y-26922000D03*
D10*
X92500000Y-62545000D03*
X103500000Y-62545000D03*
D11*
X103220000Y-58345000D03*
D12*
X98000000Y-68445000D03*
X93000000Y-66345000D03*
D13*
X98000000Y-62545000D03*
D12*
X103000000Y-66345000D03*
D11*
X92780000Y-58345000D03*
D10*
X74500000Y-60170000D03*
X85500000Y-60170000D03*
D11*
X85220000Y-55970000D03*
D12*
X80000000Y-66070000D03*
X75000000Y-63970000D03*
D13*
X80000000Y-60170000D03*
D12*
X85000000Y-63970000D03*
D11*
X74780000Y-55970000D03*
D10*
X56500000Y-62545000D03*
X67500000Y-62545000D03*
D11*
X67220000Y-58345000D03*
D12*
X62000000Y-68445000D03*
X57000000Y-66345000D03*
D13*
X62000000Y-62545000D03*
D12*
X67000000Y-66345000D03*
D11*
X56780000Y-58345000D03*
X38780000Y-75305000D03*
D12*
X49000000Y-67305000D03*
D13*
X44000000Y-71105000D03*
D12*
X39000000Y-67305000D03*
X44000000Y-65205000D03*
D11*
X49220000Y-75305000D03*
D10*
X49500000Y-71105000D03*
X38500000Y-71105000D03*
X110500000Y-47920000D03*
X121500000Y-47920000D03*
D11*
X121220000Y-43720000D03*
D12*
X116000000Y-53820000D03*
X111000000Y-51720000D03*
D13*
X116000000Y-47920000D03*
D12*
X121000000Y-51720000D03*
D11*
X110780000Y-43720000D03*
D10*
X92500000Y-45540000D03*
X103500000Y-45540000D03*
D11*
X103220000Y-41340000D03*
D12*
X98000000Y-51440000D03*
X93000000Y-49340000D03*
D13*
X98000000Y-45540000D03*
D12*
X103000000Y-49340000D03*
D11*
X92780000Y-41340000D03*
D10*
X74500000Y-43170000D03*
X85500000Y-43170000D03*
D11*
X85220000Y-38970000D03*
D12*
X80000000Y-49070000D03*
X75000000Y-46970000D03*
D13*
X80000000Y-43170000D03*
D12*
X85000000Y-46970000D03*
D11*
X74780000Y-38970000D03*
D10*
X56500000Y-45540000D03*
X67500000Y-45540000D03*
D11*
X67220000Y-41340000D03*
D12*
X62000000Y-51440000D03*
X57000000Y-49340000D03*
D13*
X62000000Y-45540000D03*
D12*
X67000000Y-49340000D03*
D11*
X56780000Y-41340000D03*
X38780000Y-49900000D03*
D12*
X49000000Y-57900000D03*
D13*
X44000000Y-54100000D03*
D12*
X39000000Y-57900000D03*
X44000000Y-60000000D03*
D11*
X49220000Y-49900000D03*
D10*
X49500000Y-54100000D03*
X38500000Y-54100000D03*
X110500000Y-30920000D03*
X121500000Y-30920000D03*
D11*
X121220000Y-26720000D03*
D12*
X116000000Y-36820000D03*
X111000000Y-34720000D03*
D13*
X116000000Y-30920000D03*
D12*
X121000000Y-34720000D03*
D11*
X110780000Y-26720000D03*
D10*
X92500000Y-28540000D03*
X103500000Y-28540000D03*
D11*
X103220000Y-24340000D03*
D12*
X98000000Y-34440000D03*
X93000000Y-32340000D03*
D13*
X98000000Y-28540000D03*
D12*
X103000000Y-32340000D03*
D11*
X92780000Y-24340000D03*
X74780000Y-21980000D03*
D12*
X85000000Y-29980000D03*
D13*
X80000000Y-26180000D03*
D12*
X75000000Y-29980000D03*
X80000000Y-32080000D03*
D11*
X85220000Y-21980000D03*
D10*
X85500000Y-26180000D03*
X74500000Y-26180000D03*
X56500000Y-28540000D03*
X67500000Y-28540000D03*
D11*
X67220000Y-24340000D03*
D12*
X62000000Y-34440000D03*
X57000000Y-32340000D03*
D13*
X62000000Y-28540000D03*
D12*
X67000000Y-32340000D03*
D11*
X56780000Y-24340000D03*
X38780000Y-32900000D03*
D12*
X49000000Y-40900000D03*
D13*
X44000000Y-37100000D03*
D12*
X39000000Y-40900000D03*
X44000000Y-43000000D03*
D11*
X49220000Y-32900000D03*
D10*
X49500000Y-37100000D03*
X38500000Y-37100000D03*
D17*
X132980000Y-65650000D03*
X134480000Y-69850000D03*
X138480000Y-69850000D03*
X141480000Y-69850000D03*
D18*
X136280000Y-67750000D03*
X143280000Y-67750000D03*
D17*
X138480000Y-63900000D03*
X141480000Y-63900000D03*
X132980000Y-68100000D03*
X134480000Y-63900000D03*
D18*
X143280000Y-66000000D03*
X136280000Y-66000000D03*
D14*
X52840000Y-38560000D03*
D15*
X52840000Y-32560000D03*
X71120000Y-22400000D03*
D14*
X71120000Y-28400000D03*
X88900000Y-28400000D03*
D15*
X88900000Y-22400000D03*
D14*
X105680000Y-32670000D03*
D15*
X106000000Y-26670000D03*
D14*
X107950000Y-30130000D03*
D15*
X107950000Y-24130000D03*
D14*
X53070000Y-51060000D03*
D15*
X53070000Y-45060000D03*
X71120000Y-40545000D03*
D14*
X71120000Y-46545000D03*
X88900000Y-44170000D03*
D15*
X88900000Y-38170000D03*
D14*
X106000000Y-50450000D03*
D15*
X106000000Y-44450000D03*
D14*
X108000000Y-46545000D03*
D15*
X108000000Y-40545000D03*
D14*
X52570000Y-68995000D03*
D15*
X52570000Y-62995000D03*
D14*
X71120000Y-65545000D03*
D15*
X71120000Y-59545000D03*
X88900000Y-55420000D03*
D14*
X88900000Y-61420000D03*
X106000000Y-68230000D03*
D15*
X106000000Y-62230000D03*
D14*
X88900000Y-86820000D03*
D15*
X88900000Y-80820000D03*
D14*
X107950000Y-89360000D03*
D15*
X107950000Y-83360000D03*
D14*
X125730000Y-93170000D03*
D15*
X125730000Y-87170000D03*
M02*
