G04 #@! TF.GenerationSoftware,KiCad,Pcbnew,(5.1.5-0-10_14)*
G04 #@! TF.CreationDate,2020-05-05T15:06:42+01:00*
G04 #@! TF.ProjectId,beak,6265616b-2e6b-4696-9361-645f70636258,2.1*
G04 #@! TF.SameCoordinates,Original*
G04 #@! TF.FileFunction,Copper,L2,Bot*
G04 #@! TF.FilePolarity,Positive*
%FSLAX46Y46*%
G04 Gerber Fmt 4.6, Leading zero omitted, Abs format (unit mm)*
G04 Created by KiCad (PCBNEW (5.1.5-0-10_14)) date 2020-05-05 15:06:42*
%MOMM*%
%LPD*%
G04 APERTURE LIST*
%ADD10C,2.032000*%
%ADD11C,1.397000*%
%ADD12R,1.397000X1.397000*%
%ADD13C,1.524000*%
%ADD14O,2.500000X1.700000*%
%ADD15C,0.250000*%
G04 APERTURE END LIST*
D10*
X116620000Y-85540000D03*
X111620000Y-87640000D03*
X121620000Y-87640000D03*
X116000000Y-70820000D03*
X111000000Y-68720000D03*
X121000000Y-68720000D03*
D11*
X108000000Y-65545000D03*
D12*
X108000000Y-59545000D03*
D11*
X138430000Y-59690000D03*
X135890000Y-59690000D03*
X133350000Y-59690000D03*
X130810000Y-59690000D03*
D10*
X98620000Y-80460000D03*
X93620000Y-82560000D03*
X103620000Y-82560000D03*
X139620000Y-92720000D03*
X129620000Y-92720000D03*
X134620000Y-90620000D03*
D13*
X127011400Y-26922000D03*
X127011400Y-29462000D03*
X127011400Y-32002000D03*
X127011400Y-34542000D03*
X127011400Y-37082000D03*
X127011400Y-39622000D03*
X127011400Y-42162000D03*
X127011400Y-44702000D03*
X127011400Y-47242000D03*
X127011400Y-49782000D03*
X127011400Y-52322000D03*
X127011400Y-54862000D03*
X142231400Y-54862000D03*
X142231400Y-52322000D03*
X142231400Y-49782000D03*
X142231400Y-47242000D03*
X142231400Y-44702000D03*
X142231400Y-42162000D03*
X142231400Y-39622000D03*
X142231400Y-37082000D03*
X142231400Y-34542000D03*
X142231400Y-32002000D03*
X142231400Y-29462000D03*
X142231400Y-26922000D03*
D10*
X98000000Y-68445000D03*
X93000000Y-66345000D03*
X103000000Y-66345000D03*
X80000000Y-66070000D03*
X75000000Y-63970000D03*
X85000000Y-63970000D03*
X62000000Y-68445000D03*
X57000000Y-66345000D03*
X67000000Y-66345000D03*
X49000000Y-67305000D03*
X39000000Y-67305000D03*
X44000000Y-65205000D03*
X116000000Y-53820000D03*
X111000000Y-51720000D03*
X121000000Y-51720000D03*
X98000000Y-51440000D03*
X93000000Y-49340000D03*
X103000000Y-49340000D03*
X80000000Y-49070000D03*
X75000000Y-46970000D03*
X85000000Y-46970000D03*
X62000000Y-51440000D03*
X57000000Y-49340000D03*
X67000000Y-49340000D03*
X49000000Y-57900000D03*
X39000000Y-57900000D03*
X44000000Y-60000000D03*
X116000000Y-36820000D03*
X111000000Y-34720000D03*
X121000000Y-34720000D03*
X98000000Y-34440000D03*
X93000000Y-32340000D03*
X103000000Y-32340000D03*
X85000000Y-29980000D03*
X75000000Y-29980000D03*
X80000000Y-32080000D03*
X62000000Y-34440000D03*
X57000000Y-32340000D03*
X67000000Y-32340000D03*
X49000000Y-40900000D03*
X39000000Y-40900000D03*
X44000000Y-43000000D03*
D14*
X132980000Y-65650000D03*
X134480000Y-69850000D03*
X138480000Y-69850000D03*
X141480000Y-69850000D03*
X138480000Y-63900000D03*
X141480000Y-63900000D03*
X132980000Y-68100000D03*
X134480000Y-63900000D03*
D11*
X52840000Y-38560000D03*
D12*
X52840000Y-32560000D03*
X71120000Y-22400000D03*
D11*
X71120000Y-28400000D03*
X88900000Y-28400000D03*
D12*
X88900000Y-22400000D03*
D11*
X105680000Y-32670000D03*
D12*
X106000000Y-26670000D03*
D11*
X107950000Y-30130000D03*
D12*
X107950000Y-24130000D03*
D11*
X53070000Y-51060000D03*
D12*
X53070000Y-45060000D03*
X71120000Y-40545000D03*
D11*
X71120000Y-46545000D03*
X88900000Y-44170000D03*
D12*
X88900000Y-38170000D03*
D11*
X106000000Y-50450000D03*
D12*
X106000000Y-44450000D03*
D11*
X108000000Y-46545000D03*
D12*
X108000000Y-40545000D03*
D11*
X52570000Y-68995000D03*
D12*
X52570000Y-62995000D03*
D11*
X71120000Y-65545000D03*
D12*
X71120000Y-59545000D03*
X88900000Y-55420000D03*
D11*
X88900000Y-61420000D03*
X106000000Y-68230000D03*
D12*
X106000000Y-62230000D03*
D11*
X88900000Y-86820000D03*
D12*
X88900000Y-80820000D03*
D11*
X107950000Y-89360000D03*
D12*
X107950000Y-83360000D03*
D11*
X125730000Y-93170000D03*
D12*
X125730000Y-87170000D03*
D15*
X52840000Y-32560000D02*
X52840000Y-30459666D01*
X60899666Y-22400000D02*
X70171500Y-22400000D01*
X52840000Y-30459666D02*
X60899666Y-22400000D01*
X70171500Y-22400000D02*
X71120000Y-22400000D01*
X72468801Y-22800301D02*
X72068500Y-22400000D01*
X104221801Y-25160301D02*
X90711801Y-25160301D01*
X105731500Y-26670000D02*
X104221801Y-25160301D01*
X72068500Y-22400000D02*
X71120000Y-22400000D01*
X88900000Y-22400000D02*
X88900000Y-22860000D01*
X106000000Y-25721500D02*
X106000000Y-26670000D01*
X106000000Y-25131500D02*
X106000000Y-25721500D01*
X107001500Y-24130000D02*
X106000000Y-25131500D01*
X107950000Y-24130000D02*
X107001500Y-24130000D01*
X110490000Y-24130000D02*
X107950000Y-24130000D01*
X88900000Y-23348500D02*
X88900000Y-22400000D01*
X90711801Y-25160301D02*
X89290750Y-23739250D01*
X89290750Y-23739250D02*
X88900000Y-23348500D01*
X87951500Y-22400000D02*
X87491500Y-22860000D01*
X88900000Y-22400000D02*
X87951500Y-22400000D01*
X87491500Y-22860000D02*
X74930000Y-22860000D01*
X74930000Y-22860000D02*
X72468801Y-22800301D01*
X108898500Y-24130000D02*
X107950000Y-24130000D01*
X116450334Y-24130000D02*
X108898500Y-24130000D01*
X122869335Y-30549001D02*
X116450334Y-24130000D01*
X129540771Y-30549001D02*
X122869335Y-30549001D01*
X141153770Y-42162000D02*
X129540771Y-30549001D01*
X142231400Y-42162000D02*
X141153770Y-42162000D01*
X102940000Y-38170000D02*
X88900000Y-38170000D01*
X87951500Y-38170000D02*
X84071500Y-34290000D01*
X88900000Y-38170000D02*
X87951500Y-38170000D01*
X84071500Y-34290000D02*
X72390000Y-34290000D01*
X71120000Y-35560000D02*
X71120000Y-40545000D01*
X72390000Y-34290000D02*
X71120000Y-35560000D01*
X54018500Y-45060000D02*
X53070000Y-45060000D01*
X55578001Y-43500499D02*
X54018500Y-45060000D01*
X67216001Y-43500499D02*
X55578001Y-43500499D01*
X70171500Y-40545000D02*
X67216001Y-43500499D01*
X71120000Y-40545000D02*
X70171500Y-40545000D01*
X108000000Y-40545000D02*
X108000000Y-44078500D01*
X108948500Y-40545000D02*
X108000000Y-40545000D01*
X119259046Y-40545000D02*
X108948500Y-40545000D01*
X121963047Y-43249001D02*
X119259046Y-40545000D01*
X140823401Y-43249001D02*
X121963047Y-43249001D01*
X142276400Y-44702000D02*
X140823401Y-43249001D01*
X106000000Y-41230000D02*
X106000000Y-44450000D01*
X105410000Y-40640000D02*
X106000000Y-41230000D01*
X105410000Y-40640000D02*
X102940000Y-38170000D01*
X107628500Y-44450000D02*
X108000000Y-44078500D01*
X106000000Y-44450000D02*
X107628500Y-44450000D01*
X51340000Y-38560000D02*
X49000000Y-40900000D01*
X52840000Y-38560000D02*
X51340000Y-38560000D01*
X49000000Y-40900000D02*
X39000000Y-40900000D01*
X89848500Y-55420000D02*
X88900000Y-55420000D01*
X98921500Y-55420000D02*
X89848500Y-55420000D01*
X105731500Y-62230000D02*
X98921500Y-55420000D01*
X53518500Y-62995000D02*
X52570000Y-62995000D01*
X54244401Y-63720901D02*
X53518500Y-62995000D01*
X57805637Y-63720901D02*
X54244401Y-63720901D01*
X61981538Y-59545000D02*
X57805637Y-63720901D01*
X71120000Y-59545000D02*
X61981538Y-59545000D01*
X87951500Y-55420000D02*
X85871500Y-53340000D01*
X88900000Y-55420000D02*
X87951500Y-55420000D01*
X71120000Y-58596500D02*
X71120000Y-59545000D01*
X71120000Y-58415954D02*
X71120000Y-58596500D01*
X76195954Y-53340000D02*
X71120000Y-58415954D01*
X85871500Y-53340000D02*
X76195954Y-53340000D01*
X109220000Y-57150000D02*
X108000000Y-58370000D01*
X108000000Y-58370000D02*
X108000000Y-59545000D01*
X142276400Y-47242000D02*
X140970000Y-48548400D01*
X142276400Y-47242000D02*
X132368400Y-57150000D01*
X132368400Y-57150000D02*
X121920000Y-57150000D01*
X121920000Y-57150000D02*
X109220000Y-57150000D01*
X124460000Y-57150000D02*
X121920000Y-57150000D01*
X106000000Y-61281500D02*
X106000000Y-62230000D01*
X107051500Y-59545000D02*
X106000000Y-60596500D01*
X106000000Y-60596500D02*
X106000000Y-61281500D01*
X108000000Y-59545000D02*
X107051500Y-59545000D01*
X67000000Y-32340000D02*
X57000000Y-32340000D01*
X71120000Y-28400000D02*
X67180000Y-32340000D01*
X67180000Y-32340000D02*
X67000000Y-32340000D01*
X132515770Y-58420000D02*
X130565218Y-58420000D01*
X141153770Y-49782000D02*
X132515770Y-58420000D01*
X142231400Y-49782000D02*
X141153770Y-49782000D01*
X125730000Y-86221500D02*
X125730000Y-87170000D01*
X125730000Y-82550000D02*
X125730000Y-87170000D01*
X125730000Y-63255218D02*
X125730000Y-87170000D01*
X130565218Y-58420000D02*
X125730000Y-63255218D01*
X86580000Y-28400000D02*
X85000000Y-29980000D01*
X88900000Y-28400000D02*
X86580000Y-28400000D01*
X85000000Y-29980000D02*
X75000000Y-29980000D01*
X103330000Y-32670000D02*
X103000000Y-32340000D01*
X103000000Y-32340000D02*
X93000000Y-32340000D01*
X105350000Y-32340000D02*
X105680000Y-32670000D01*
X103000000Y-32340000D02*
X105350000Y-32340000D01*
X112015999Y-33704001D02*
X111000000Y-34720000D01*
X119984001Y-33704001D02*
X112015999Y-33704001D01*
X121000000Y-34720000D02*
X119984001Y-33704001D01*
X107950000Y-31670000D02*
X111000000Y-34720000D01*
X107950000Y-30130000D02*
X107950000Y-31670000D01*
X53070000Y-51060000D02*
X53070000Y-54840000D01*
X49000000Y-57900000D02*
X39000000Y-57900000D01*
X51025999Y-56884001D02*
X53070000Y-54840000D01*
X50015999Y-56884001D02*
X51025999Y-56884001D01*
X49000000Y-57900000D02*
X50015999Y-56884001D01*
X69795000Y-46545000D02*
X67000000Y-49340000D01*
X71120000Y-46545000D02*
X69795000Y-46545000D01*
X67000000Y-49340000D02*
X57000000Y-49340000D01*
X87800000Y-44170000D02*
X85000000Y-46970000D01*
X88900000Y-44170000D02*
X87800000Y-44170000D01*
X75000000Y-46970000D02*
X85000000Y-46970000D01*
X103000000Y-49340000D02*
X93000000Y-49340000D01*
X104890000Y-49340000D02*
X106000000Y-50450000D01*
X103000000Y-49340000D02*
X104890000Y-49340000D01*
X108000000Y-48720000D02*
X111000000Y-51720000D01*
X108000000Y-46545000D02*
X108000000Y-48720000D01*
X119563160Y-51720000D02*
X111000000Y-51720000D01*
X121000000Y-51720000D02*
X119563160Y-51720000D01*
X39000000Y-67305000D02*
X49000000Y-67305000D01*
X50880000Y-67305000D02*
X52570000Y-68995000D01*
X49000000Y-67305000D02*
X50880000Y-67305000D01*
X67000000Y-66345000D02*
X57000000Y-66345000D01*
X71120000Y-65545000D02*
X67800000Y-65545000D01*
X67800000Y-65545000D02*
X67000000Y-66345000D01*
X85000000Y-63970000D02*
X75000000Y-63970000D01*
X88900000Y-61420000D02*
X87550000Y-61420000D01*
X87550000Y-61420000D02*
X85000000Y-63970000D01*
X103000000Y-66345000D02*
X93000000Y-66345000D01*
X104115000Y-66345000D02*
X103000000Y-66345000D01*
X106000000Y-68230000D02*
X104115000Y-66345000D01*
X111000000Y-68720000D02*
X108000000Y-65720000D01*
X108000000Y-65720000D02*
X108000000Y-65545000D01*
X121000000Y-68720000D02*
X111000000Y-68720000D01*
X93160000Y-82560000D02*
X93620000Y-82560000D01*
X88900000Y-86820000D02*
X93160000Y-82560000D01*
X93620000Y-82560000D02*
X103620000Y-82560000D01*
X111760000Y-86880000D02*
X111760000Y-88090000D01*
X109670000Y-87640000D02*
X111620000Y-87640000D01*
X107950000Y-89360000D02*
X109670000Y-87640000D01*
X111620000Y-87640000D02*
X121620000Y-87640000D01*
X129170000Y-93170000D02*
X129620000Y-92720000D01*
X125730000Y-93170000D02*
X129170000Y-93170000D01*
X129620000Y-92720000D02*
X139620000Y-92720000D01*
X128089030Y-29462000D02*
X127011400Y-29462000D01*
X138613770Y-29462000D02*
X128089030Y-29462000D01*
X141153770Y-32002000D02*
X138613770Y-29462000D01*
X142231400Y-32002000D02*
X141153770Y-32002000D01*
X44000000Y-43000000D02*
X49350000Y-43000000D01*
X50980000Y-43000000D02*
X44000000Y-43000000D01*
X60279835Y-26500499D02*
X53863501Y-32916833D01*
X66273547Y-26500499D02*
X60279835Y-26500499D01*
X80968462Y-24130000D02*
X68644046Y-24130000D01*
X104393835Y-27693501D02*
X103200833Y-26500499D01*
X68644046Y-24130000D02*
X66273547Y-26500499D01*
X53863501Y-32916833D02*
X53863501Y-40116499D01*
X115958183Y-27693501D02*
X104393835Y-27693501D01*
X84194363Y-27355901D02*
X80968462Y-24130000D01*
X53863501Y-40116499D02*
X50980000Y-43000000D01*
X86919835Y-26500499D02*
X86064433Y-27355901D01*
X103200833Y-26500499D02*
X86919835Y-26500499D01*
X122675901Y-34411219D02*
X115958183Y-27693501D01*
X86064433Y-27355901D02*
X84194363Y-27355901D01*
X127056400Y-39622000D02*
X122675901Y-35241501D01*
X122675901Y-35241501D02*
X122675901Y-34411219D01*
X63436840Y-34440000D02*
X62000000Y-34440000D01*
X73283681Y-33681001D02*
X64195839Y-33681001D01*
X76225683Y-30738999D02*
X73283681Y-33681001D01*
X80643681Y-30738999D02*
X76225683Y-30738999D01*
X93643681Y-33681001D02*
X83585683Y-33681001D01*
X64195839Y-33681001D02*
X63436840Y-34440000D01*
X98564682Y-33020000D02*
X94304682Y-33020000D01*
X101605683Y-36061001D02*
X98564682Y-33020000D01*
X111643681Y-36061001D02*
X101605683Y-36061001D01*
X112225683Y-35478999D02*
X111643681Y-36061001D01*
X116643681Y-35478999D02*
X112225683Y-35478999D01*
X123326682Y-42162000D02*
X116643681Y-35478999D01*
X83585683Y-33681001D02*
X80643681Y-30738999D01*
X94304682Y-33020000D02*
X93643681Y-33681001D01*
X127056400Y-42162000D02*
X123326682Y-42162000D01*
X85514782Y-49070000D02*
X80000000Y-49070000D01*
X91119501Y-43500499D02*
X90170000Y-44450000D01*
X99720165Y-43500499D02*
X91119501Y-43500499D01*
X102935567Y-46715901D02*
X99720165Y-43500499D01*
X127056400Y-44702000D02*
X126284899Y-45473501D01*
X106314317Y-46715901D02*
X102935567Y-46715901D01*
X90170000Y-44450000D02*
X85514782Y-49070000D01*
X107556717Y-45473501D02*
X106314317Y-46715901D01*
X126284899Y-45473501D02*
X107556717Y-45473501D01*
X134048499Y-58991501D02*
X133350000Y-59690000D01*
X134373501Y-58666499D02*
X134048499Y-58991501D01*
X140035663Y-58666499D02*
X134373501Y-58666499D01*
X143318401Y-55383761D02*
X140035663Y-58666499D01*
X143318401Y-40709001D02*
X143318401Y-55383761D01*
X142231400Y-39622000D02*
X143318401Y-40709001D01*
X143768410Y-38619010D02*
X143768410Y-58161590D01*
X142231400Y-37082000D02*
X143768410Y-38619010D01*
X143768410Y-58161590D02*
X139700000Y-62230000D01*
X133350000Y-62230000D02*
X130810000Y-59690000D01*
X139700000Y-62230000D02*
X133350000Y-62230000D01*
M02*
