G04 #@! TF.GenerationSoftware,KiCad,Pcbnew,(5.1.5-0-10_14)*
G04 #@! TF.CreationDate,2020-05-05T15:06:42+01:00*
G04 #@! TF.ProjectId,beak,6265616b-2e6b-4696-9361-645f70636258,2.1*
G04 #@! TF.SameCoordinates,Original*
G04 #@! TF.FileFunction,Copper,L1,Top*
G04 #@! TF.FilePolarity,Positive*
%FSLAX46Y46*%
G04 Gerber Fmt 4.6, Leading zero omitted, Abs format (unit mm)*
G04 Created by KiCad (PCBNEW (5.1.5-0-10_14)) date 2020-05-05 15:06:42*
%MOMM*%
%LPD*%
G04 APERTURE LIST*
%ADD10C,2.032000*%
%ADD11C,1.397000*%
%ADD12R,1.397000X1.397000*%
%ADD13C,1.524000*%
%ADD14O,2.500000X1.700000*%
%ADD15C,0.250000*%
G04 APERTURE END LIST*
D10*
X116620000Y-85540000D03*
X111620000Y-87640000D03*
X121620000Y-87640000D03*
X116000000Y-70820000D03*
X111000000Y-68720000D03*
X121000000Y-68720000D03*
D11*
X108000000Y-65545000D03*
D12*
X108000000Y-59545000D03*
D11*
X138430000Y-59690000D03*
X135890000Y-59690000D03*
X133350000Y-59690000D03*
X130810000Y-59690000D03*
D10*
X98620000Y-80460000D03*
X93620000Y-82560000D03*
X103620000Y-82560000D03*
X139620000Y-92720000D03*
X129620000Y-92720000D03*
X134620000Y-90620000D03*
D13*
X127011400Y-26922000D03*
X127011400Y-29462000D03*
X127011400Y-32002000D03*
X127011400Y-34542000D03*
X127011400Y-37082000D03*
X127011400Y-39622000D03*
X127011400Y-42162000D03*
X127011400Y-44702000D03*
X127011400Y-47242000D03*
X127011400Y-49782000D03*
X127011400Y-52322000D03*
X127011400Y-54862000D03*
X142231400Y-54862000D03*
X142231400Y-52322000D03*
X142231400Y-49782000D03*
X142231400Y-47242000D03*
X142231400Y-44702000D03*
X142231400Y-42162000D03*
X142231400Y-39622000D03*
X142231400Y-37082000D03*
X142231400Y-34542000D03*
X142231400Y-32002000D03*
X142231400Y-29462000D03*
X142231400Y-26922000D03*
D10*
X98000000Y-68445000D03*
X93000000Y-66345000D03*
X103000000Y-66345000D03*
X80000000Y-66070000D03*
X75000000Y-63970000D03*
X85000000Y-63970000D03*
X62000000Y-68445000D03*
X57000000Y-66345000D03*
X67000000Y-66345000D03*
X49000000Y-67305000D03*
X39000000Y-67305000D03*
X44000000Y-65205000D03*
X116000000Y-53820000D03*
X111000000Y-51720000D03*
X121000000Y-51720000D03*
X98000000Y-51440000D03*
X93000000Y-49340000D03*
X103000000Y-49340000D03*
X80000000Y-49070000D03*
X75000000Y-46970000D03*
X85000000Y-46970000D03*
X62000000Y-51440000D03*
X57000000Y-49340000D03*
X67000000Y-49340000D03*
X49000000Y-57900000D03*
X39000000Y-57900000D03*
X44000000Y-60000000D03*
X116000000Y-36820000D03*
X111000000Y-34720000D03*
X121000000Y-34720000D03*
X98000000Y-34440000D03*
X93000000Y-32340000D03*
X103000000Y-32340000D03*
X85000000Y-29980000D03*
X75000000Y-29980000D03*
X80000000Y-32080000D03*
X62000000Y-34440000D03*
X57000000Y-32340000D03*
X67000000Y-32340000D03*
X49000000Y-40900000D03*
X39000000Y-40900000D03*
X44000000Y-43000000D03*
D14*
X132980000Y-65650000D03*
X134480000Y-69850000D03*
X138480000Y-69850000D03*
X141480000Y-69850000D03*
X138480000Y-63900000D03*
X141480000Y-63900000D03*
X132980000Y-68100000D03*
X134480000Y-63900000D03*
D11*
X52840000Y-38560000D03*
D12*
X52840000Y-32560000D03*
X71120000Y-22400000D03*
D11*
X71120000Y-28400000D03*
X88900000Y-28400000D03*
D12*
X88900000Y-22400000D03*
D11*
X105680000Y-32670000D03*
D12*
X106000000Y-26670000D03*
D11*
X107950000Y-30130000D03*
D12*
X107950000Y-24130000D03*
D11*
X53070000Y-51060000D03*
D12*
X53070000Y-45060000D03*
X71120000Y-40545000D03*
D11*
X71120000Y-46545000D03*
X88900000Y-44170000D03*
D12*
X88900000Y-38170000D03*
D11*
X106000000Y-50450000D03*
D12*
X106000000Y-44450000D03*
D11*
X108000000Y-46545000D03*
D12*
X108000000Y-40545000D03*
D11*
X52570000Y-68995000D03*
D12*
X52570000Y-62995000D03*
D11*
X71120000Y-65545000D03*
D12*
X71120000Y-59545000D03*
X88900000Y-55420000D03*
D11*
X88900000Y-61420000D03*
X106000000Y-68230000D03*
D12*
X106000000Y-62230000D03*
D11*
X88900000Y-86820000D03*
D12*
X88900000Y-80820000D03*
D11*
X107950000Y-89360000D03*
D12*
X107950000Y-83360000D03*
D11*
X125730000Y-93170000D03*
D12*
X125730000Y-87170000D03*
D15*
X123910499Y-86298999D02*
X124781500Y-87170000D01*
X120976319Y-86298999D02*
X123910499Y-86298999D01*
X120394317Y-86881001D02*
X120976319Y-86298999D01*
X115976319Y-86881001D02*
X120394317Y-86881001D01*
X112455318Y-83360000D02*
X115976319Y-86881001D01*
X124781500Y-87170000D02*
X125730000Y-87170000D01*
X107950000Y-83360000D02*
X112455318Y-83360000D01*
X102808999Y-81218999D02*
X106757499Y-81218999D01*
X102226997Y-81801001D02*
X102808999Y-81218999D01*
X88900000Y-80820000D02*
X93864682Y-80820000D01*
X107950000Y-82411500D02*
X107950000Y-83360000D01*
X106757499Y-81218999D02*
X107950000Y-82411500D01*
X102394317Y-81801001D02*
X102976319Y-81218999D01*
X97976319Y-81801001D02*
X102394317Y-81801001D01*
X102976319Y-81218999D02*
X106757499Y-81218999D01*
X96995318Y-80820000D02*
X97976319Y-81801001D01*
X88900000Y-80820000D02*
X96995318Y-80820000D01*
X142276400Y-34542000D02*
X142276400Y-32983600D01*
X142276400Y-32983600D02*
X142276400Y-33272000D01*
X142276400Y-32002000D02*
X142276400Y-32983600D01*
X138480000Y-59740000D02*
X138430000Y-59690000D01*
X138480000Y-63460000D02*
X138480000Y-59740000D01*
X138480000Y-63460000D02*
X138480000Y-69410000D01*
X142231400Y-34542000D02*
X140970000Y-35803400D01*
X140970000Y-57150000D02*
X138430000Y-59690000D01*
X140970000Y-35803400D02*
X140970000Y-57150000D01*
X127056400Y-34542000D02*
X128134030Y-34542000D01*
X134480000Y-58280000D02*
X135890000Y-59690000D01*
X135980000Y-62360000D02*
X134880000Y-63460000D01*
X135980000Y-62140000D02*
X135980000Y-62360000D01*
X135890000Y-62050000D02*
X135980000Y-62140000D01*
X134880000Y-63460000D02*
X134480000Y-63460000D01*
X135890000Y-59690000D02*
X135890000Y-62050000D01*
X134480000Y-64560000D02*
X134555010Y-64635010D01*
X134480000Y-63460000D02*
X134480000Y-64560000D01*
X135354999Y-67875001D02*
X134480000Y-68750000D01*
X134480000Y-68750000D02*
X134480000Y-69850000D01*
X135354999Y-65874999D02*
X135354999Y-67875001D01*
X134480000Y-65000000D02*
X135354999Y-65874999D01*
X134480000Y-63900000D02*
X134480000Y-65000000D01*
X128089030Y-34542000D02*
X128270000Y-34722970D01*
X127011400Y-34542000D02*
X128089030Y-34542000D01*
X128270000Y-52070000D02*
X135890000Y-59690000D01*
X128270000Y-34722970D02*
X128270000Y-52070000D01*
X45015999Y-59994001D02*
X44000000Y-61010000D01*
X46039501Y-59397339D02*
X46039501Y-58739501D01*
X46039501Y-58739501D02*
X46039501Y-58970499D01*
X45436840Y-60000000D02*
X46039501Y-59397339D01*
X44000000Y-60000000D02*
X45436840Y-60000000D01*
X46039501Y-46049501D02*
X46039501Y-58100499D01*
X46039501Y-59397339D02*
X46039501Y-58100499D01*
X46039501Y-58100499D02*
X46039501Y-58739501D01*
X46039501Y-45039501D02*
X44000000Y-43000000D01*
X46039501Y-46049501D02*
X46039501Y-45039501D01*
X44000000Y-60000000D02*
X44000000Y-61436840D01*
X44000000Y-60000000D02*
X44000000Y-65205000D01*
X64770000Y-37210000D02*
X63015999Y-35455999D01*
X63015999Y-35455999D02*
X62000000Y-34440000D01*
X64770000Y-48670000D02*
X64770000Y-37210000D01*
X62000000Y-51440000D02*
X64770000Y-48670000D01*
X64587500Y-52590660D02*
X64587500Y-65857500D01*
X62000000Y-51440000D02*
X63436840Y-51440000D01*
X63436840Y-51440000D02*
X64587500Y-52590660D01*
X62000000Y-68445000D02*
X64587500Y-65857500D01*
X82039501Y-34119501D02*
X81015999Y-33095999D01*
X81015999Y-33095999D02*
X80000000Y-32080000D01*
X82039501Y-47030499D02*
X82039501Y-34119501D01*
X80000000Y-49070000D02*
X82039501Y-47030499D01*
X80000000Y-49070000D02*
X82550000Y-51620000D01*
X82550000Y-63520000D02*
X80000000Y-66070000D01*
X82550000Y-51620000D02*
X82550000Y-63520000D01*
X98620000Y-79610000D02*
X98620000Y-80460000D01*
X84230000Y-66070000D02*
X98620000Y-80460000D01*
X80000000Y-66070000D02*
X84230000Y-66070000D01*
X99015999Y-35455999D02*
X98000000Y-34440000D01*
X100039501Y-36479501D02*
X99015999Y-35455999D01*
X100039501Y-49400499D02*
X100039501Y-36479501D01*
X98000000Y-51440000D02*
X100039501Y-49400499D01*
X98000000Y-51440000D02*
X100330000Y-53770000D01*
X100330000Y-66115000D02*
X98000000Y-68445000D01*
X100330000Y-53770000D02*
X100330000Y-66115000D01*
X127011400Y-47242000D02*
X125730000Y-45720000D01*
X99436840Y-34440000D02*
X98000000Y-34440000D01*
X105424782Y-34440000D02*
X99436840Y-34440000D01*
X106485783Y-33378999D02*
X105424782Y-34440000D01*
X124818999Y-33378999D02*
X106485783Y-33378999D01*
X125730000Y-34290000D02*
X124818999Y-33378999D01*
X125730000Y-45720000D02*
X125730000Y-34290000D01*
X116620000Y-84525000D02*
X116620000Y-85540000D01*
X99525000Y-68445000D02*
X116620000Y-85540000D01*
X98000000Y-68445000D02*
X99525000Y-68445000D01*
X118039501Y-68780499D02*
X118039501Y-55809501D01*
X116000000Y-70820000D02*
X118039501Y-68780499D01*
X117989501Y-55809501D02*
X116000000Y-53820000D01*
X118039501Y-55809501D02*
X117989501Y-55809501D01*
X118060000Y-55880000D02*
X116000000Y-53820000D01*
X116000000Y-36820000D02*
X121910000Y-36820000D01*
X121910000Y-36820000D02*
X124460000Y-39370000D01*
X126294401Y-49020001D02*
X127056400Y-49782000D01*
X125924399Y-48694999D02*
X125969399Y-48694999D01*
X125969399Y-48694999D02*
X126294401Y-49020001D01*
X124460000Y-39370000D02*
X124460000Y-47230600D01*
X124460000Y-47230600D02*
X125924399Y-48694999D01*
X117015999Y-52804001D02*
X116000000Y-53820000D01*
X118039501Y-51780499D02*
X117015999Y-52804001D01*
X118039501Y-38859501D02*
X118039501Y-51780499D01*
X116000000Y-36820000D02*
X118039501Y-38859501D01*
X134620000Y-89440000D02*
X134620000Y-90620000D01*
X116000000Y-70820000D02*
X134620000Y-89440000D01*
X141480000Y-64560000D02*
X141480000Y-69410000D01*
X141480000Y-63460000D02*
X141480000Y-64560000D01*
X142980000Y-63900000D02*
X141480000Y-63900000D01*
X143510000Y-63370000D02*
X142980000Y-63900000D01*
X143510000Y-30740600D02*
X143510000Y-63370000D01*
X142231400Y-29462000D02*
X143510000Y-30740600D01*
X132980000Y-65650000D02*
X132980000Y-68100000D01*
M02*
