M48
; DRILL file {KiCad (5.1.5-0-10_14)} date Tuesday, 05 May 2020 at 15:06:44
; FORMAT={-:-/ absolute / inch / decimal}
; #@! TF.CreationDate,2020-05-05T15:06:44+01:00
; #@! TF.GenerationSoftware,Kicad,Pcbnew,(5.1.5-0-10_14)
; #@! TF.FileFunction,NonPlated,1,2,NPTH
FMAT,2
INCH
T1C0.0390
T2C0.0472
T3C0.0670
T4C0.1350
%
G90
G05
T1
X2.9441Y-0.8654
X3.3551Y-0.8654
X2.9441Y-2.2035
X3.3551Y-2.2035
X4.3858Y-3.7654
X4.7969Y-3.7654
X3.6528Y-0.9583
X4.0638Y-0.9583
X2.9441Y-1.5343
X3.3551Y-1.5343
X3.6528Y-1.6276
X4.0638Y-1.6276
X2.2354Y-0.9583
X2.6465Y-0.9583
X3.6772Y-3.5654
X4.0882Y-3.5654
X2.2354Y-1.6276
X2.6465Y-1.6276
X2.2354Y-2.297
X2.6465Y-2.297
X1.5268Y-1.2953
X1.9378Y-1.2953
X1.5268Y-2.9648
X1.9378Y-2.9648
X4.3614Y-1.052
X4.7724Y-1.052
X4.3614Y-1.7213
X4.7724Y-1.7213
X3.6528Y-2.297
X4.0638Y-2.297
X1.5268Y-1.9646
X1.9378Y-1.9646
X5.0945Y-3.9654
X5.5055Y-3.9654
X4.3614Y-2.3906
X4.7724Y-2.3906
T2
X5.3654Y-2.5984
X5.3654Y-2.6673
X5.6409Y-2.5984
X5.6409Y-2.6673
T3
X4.3748Y-3.6
X4.8079Y-3.6
X3.6417Y-1.1236
X4.0748Y-1.1236
X2.9331Y-1.6996
X3.3661Y-1.6996
X3.6417Y-1.7929
X4.0748Y-1.7929
X2.2244Y-1.1236
X2.6575Y-1.1236
X3.6661Y-3.4
X4.0992Y-3.4
X2.2244Y-1.7929
X2.6575Y-1.7929
X2.2244Y-2.4624
X2.6575Y-2.4624
X1.5157Y-1.4606
X1.9488Y-1.4606
X1.5157Y-2.7994
X1.9488Y-2.7994
X4.3504Y-1.2173
X4.7835Y-1.2173
X4.3504Y-1.8866
X4.7835Y-1.8866
X3.6417Y-2.4624
X4.0748Y-2.4624
X1.5157Y-2.1299
X1.9488Y-2.1299
X5.0835Y-3.8
X5.5165Y-3.8
X4.3504Y-2.5559
X4.7835Y-2.5559
X2.9331Y-1.0307
X3.3661Y-1.0307
X2.9331Y-2.3689
X3.3661Y-2.3689
T4
X1.7323Y-2.7994
X4.5669Y-1.2173
X4.5669Y-1.8866
X3.8583Y-2.4624
X1.7323Y-2.1299
X5.3Y-3.8
X4.5669Y-2.5559
X3.1496Y-1.0307
X3.1496Y-2.3689
X4.5913Y-3.6
X3.8583Y-1.1236
X3.1496Y-1.6996
X3.8583Y-1.7929
X2.4409Y-1.1236
X3.8827Y-3.4
X2.4409Y-1.7929
X2.4409Y-2.4624
X1.7323Y-1.4606
T0
M30
