G04 #@! TF.GenerationSoftware,KiCad,Pcbnew,5.1.8*
G04 #@! TF.CreationDate,2020-11-23T10:56:14+00:00*
G04 #@! TF.ProjectId,cradio,63726164-696f-42e6-9b69-6361645f7063,2.1*
G04 #@! TF.SameCoordinates,Original*
G04 #@! TF.FileFunction,Soldermask,Top*
G04 #@! TF.FilePolarity,Negative*
%FSLAX46Y46*%
G04 Gerber Fmt 4.6, Leading zero omitted, Abs format (unit mm)*
G04 Created by KiCad (PCBNEW 5.1.8) date 2020-11-23 10:56:14*
%MOMM*%
%LPD*%
G01*
G04 APERTURE LIST*
%ADD10O,2.100000X2.100000*%
%ADD11C,1.924000*%
%ADD12C,2.101800*%
%ADD13C,1.390600*%
%ADD14C,2.432000*%
%ADD15C,3.829000*%
%ADD16C,2.400000*%
%ADD17O,2.900000X2.100000*%
%ADD18C,1.600000*%
G04 APERTURE END LIST*
D10*
X81210000Y-71450000D03*
X83750000Y-71450000D03*
G36*
G01*
X73065000Y-70400000D02*
X74115000Y-70400000D01*
G75*
G02*
X74640000Y-70925000I0J-525000D01*
G01*
X74640000Y-71975000D01*
G75*
G02*
X74115000Y-72500000I-525000J0D01*
G01*
X73065000Y-72500000D01*
G75*
G02*
X72540000Y-71975000I0J525000D01*
G01*
X72540000Y-70925000D01*
G75*
G02*
X73065000Y-70400000I525000J0D01*
G01*
G37*
X76130000Y-71450000D03*
X78670000Y-71450000D03*
X74930000Y-69850000D03*
X77470000Y-69850000D03*
X80010000Y-69850000D03*
X82550000Y-69850000D03*
G36*
G01*
X84565000Y-68800000D02*
X85615000Y-68800000D01*
G75*
G02*
X86140000Y-69325000I0J-525000D01*
G01*
X86140000Y-70375000D01*
G75*
G02*
X85615000Y-70900000I-525000J0D01*
G01*
X84565000Y-70900000D01*
G75*
G02*
X84040000Y-70375000I0J525000D01*
G01*
X84040000Y-69325000D01*
G75*
G02*
X84565000Y-68800000I525000J0D01*
G01*
G37*
D11*
X141732000Y-37846000D03*
X141732000Y-40386000D03*
X141732000Y-42926000D03*
X141732000Y-45466000D03*
X141732000Y-48006000D03*
X141732000Y-50546000D03*
X141732000Y-53086000D03*
X141732000Y-55626000D03*
X141732000Y-58166000D03*
X141732000Y-60706000D03*
X141732000Y-63246000D03*
X141732000Y-65786000D03*
X126492000Y-65786000D03*
X126492000Y-63246000D03*
X126492000Y-60706000D03*
X126492000Y-58166000D03*
X126492000Y-55626000D03*
X126492000Y-53086000D03*
X126492000Y-50546000D03*
X126492000Y-48006000D03*
X126492000Y-45466000D03*
X126492000Y-42926000D03*
X126492000Y-40386000D03*
X126492000Y-37846000D03*
X143038400Y-36576000D03*
X143038400Y-39116000D03*
X143038400Y-41656000D03*
X143038400Y-44196000D03*
X143038400Y-46736000D03*
X143038400Y-49276000D03*
X143038400Y-51816000D03*
X143038400Y-54356000D03*
X143038400Y-56896000D03*
X143038400Y-59436000D03*
X143038400Y-61976000D03*
X143038400Y-64516000D03*
X127818400Y-64516000D03*
X127818400Y-61976000D03*
X127818400Y-59436000D03*
X127818400Y-56896000D03*
X127818400Y-54356000D03*
X127818400Y-51816000D03*
X127818400Y-49276000D03*
X127818400Y-46736000D03*
X127818400Y-44196000D03*
X127818400Y-41656000D03*
X127818400Y-39116000D03*
X127818400Y-36576000D03*
D12*
X98707526Y-82297648D03*
X109600474Y-83828552D03*
D13*
X108738672Y-87948709D03*
D14*
X104975121Y-77220518D03*
X99731517Y-78604216D03*
D15*
X104154000Y-83063100D03*
D14*
X109634198Y-79995947D03*
D13*
X98400274Y-86495742D03*
D12*
X116510526Y-84860148D03*
X127403474Y-86391052D03*
D13*
X126541672Y-90511209D03*
D14*
X122778121Y-79783018D03*
X117534517Y-81166716D03*
D15*
X121957000Y-85625600D03*
D14*
X127437198Y-82558447D03*
D13*
X116203274Y-89058242D03*
X92780000Y-58345000D03*
D14*
X103000000Y-66345000D03*
D15*
X98000000Y-62545000D03*
D14*
X93000000Y-66345000D03*
X98000000Y-68445000D03*
D13*
X103220000Y-58345000D03*
D12*
X103500000Y-62545000D03*
X92500000Y-62545000D03*
D13*
X74780000Y-54770000D03*
D14*
X85000000Y-62770000D03*
D15*
X80000000Y-58970000D03*
D14*
X75000000Y-62770000D03*
X80000000Y-64870000D03*
D13*
X85220000Y-54770000D03*
D12*
X85500000Y-58970000D03*
X74500000Y-58970000D03*
D13*
X56263643Y-58200750D03*
D14*
X66888324Y-65654912D03*
D15*
X61696300Y-62121800D03*
D14*
X56902029Y-66178272D03*
X62005082Y-68013714D03*
D13*
X66689335Y-57654362D03*
D12*
X67188762Y-61833952D03*
X56203838Y-62409648D03*
D13*
X110780000Y-50070000D03*
D14*
X121000000Y-58070000D03*
D15*
X116000000Y-54270000D03*
D14*
X111000000Y-58070000D03*
X116000000Y-60170000D03*
D13*
X121220000Y-50070000D03*
D12*
X121500000Y-54270000D03*
X110500000Y-54270000D03*
D13*
X92780000Y-41340000D03*
D14*
X103000000Y-49340000D03*
D15*
X98000000Y-45540000D03*
D14*
X93000000Y-49340000D03*
X98000000Y-51440000D03*
D13*
X103220000Y-41340000D03*
D12*
X103500000Y-45540000D03*
X92500000Y-45540000D03*
D13*
X74780000Y-37770000D03*
D14*
X85000000Y-45770000D03*
D15*
X80000000Y-41970000D03*
D14*
X75000000Y-45770000D03*
X80000000Y-47870000D03*
D13*
X85220000Y-37770000D03*
D12*
X85500000Y-41970000D03*
X74500000Y-41970000D03*
D13*
X55373643Y-41219050D03*
D14*
X65998324Y-48673212D03*
D15*
X60806300Y-45140100D03*
D14*
X56012029Y-49196572D03*
X61115082Y-51032014D03*
D13*
X65799335Y-40672662D03*
D12*
X66298762Y-44852252D03*
X55313838Y-45427948D03*
D13*
X37422610Y-54715435D03*
D14*
X48300965Y-61794261D03*
D15*
X42988800Y-58444500D03*
D14*
X38339018Y-62665819D03*
X43503019Y-64322049D03*
D13*
X47822882Y-53805529D03*
D12*
X48467871Y-57965143D03*
X37509729Y-58923857D03*
D13*
X110780000Y-33070000D03*
D14*
X121000000Y-41070000D03*
D15*
X116000000Y-37270000D03*
D14*
X111000000Y-41070000D03*
X116000000Y-43170000D03*
D13*
X121220000Y-33070000D03*
D12*
X121500000Y-37270000D03*
X110500000Y-37270000D03*
D13*
X92780000Y-24340000D03*
D14*
X103000000Y-32340000D03*
D15*
X98000000Y-28540000D03*
D14*
X93000000Y-32340000D03*
X98000000Y-34440000D03*
D13*
X103220000Y-24340000D03*
D12*
X103500000Y-28540000D03*
X92500000Y-28540000D03*
D13*
X74780000Y-20780000D03*
D14*
X85000000Y-28780000D03*
D15*
X80000000Y-24980000D03*
D14*
X75000000Y-28780000D03*
X80000000Y-30880000D03*
D13*
X85220000Y-20780000D03*
D12*
X85500000Y-24980000D03*
X74500000Y-24980000D03*
D13*
X35940910Y-37780135D03*
D14*
X46819265Y-44858961D03*
D15*
X41507100Y-41509200D03*
D14*
X36857318Y-45730519D03*
X42021319Y-47386749D03*
D13*
X46341182Y-36870229D03*
D12*
X46986171Y-41029843D03*
X36028029Y-41988557D03*
D13*
X54483943Y-24242350D03*
D14*
X65108624Y-31696512D03*
D15*
X59916600Y-28163400D03*
D14*
X55122329Y-32219872D03*
X60225382Y-34055314D03*
D13*
X64909635Y-23695962D03*
D12*
X65409062Y-27875552D03*
X54424138Y-28451248D03*
D16*
X121412000Y-68886000D03*
X121412000Y-75386000D03*
D17*
X127646000Y-70544000D03*
X129146000Y-74744000D03*
X133146000Y-74744000D03*
X136146000Y-74744000D03*
D18*
X130946000Y-72644000D03*
X137946000Y-72644000D03*
D17*
X133146000Y-68794000D03*
X136146000Y-68794000D03*
X127646000Y-72994000D03*
X129146000Y-68794000D03*
D18*
X137946000Y-70894000D03*
X130946000Y-70894000D03*
M02*
