M48
; DRILL file {KiCad 5.1.8} date Mon Nov 23 10:56:16 2020
; FORMAT={-:-/ absolute / inch / decimal}
; #@! TF.CreationDate,2020-11-23T10:56:16+00:00
; #@! TF.GenerationSoftware,Kicad,Pcbnew,5.1.8
; #@! TF.FileFunction,Plated,1,2,PTH
FMAT,2
INCH
T1C0.0157
T2C0.0320
T3C0.0394
T4C0.0500
T5C0.0512
%
G90
G05
T1
X4.1104Y-2.3713
X4.167Y-2.3571
X4.4224Y-2.3965
X4.4745Y-2.3225
X4.6917Y-2.004
X4.8494Y-2.2824
X4.8786Y-2.5714
X4.8826Y-1.9223
X5.1039Y-2.14
X5.1104Y-2.34
X5.1132Y-2.44
X5.309Y-1.8535
X5.4474Y-1.99
X5.4977Y-2.09
X5.519Y-2.24
T2
X4.98Y-1.49
X4.98Y-1.59
X4.98Y-1.69
X4.98Y-1.79
X4.98Y-1.89
X4.98Y-1.99
X4.98Y-2.09
X4.98Y-2.19
X4.98Y-2.29
X4.98Y-2.39
X4.98Y-2.49
X4.98Y-2.59
X5.0322Y-1.44
X5.0322Y-1.54
X5.0322Y-1.64
X5.0322Y-1.74
X5.0322Y-1.84
X5.0322Y-1.94
X5.0322Y-2.04
X5.0322Y-2.14
X5.0322Y-2.24
X5.0322Y-2.34
X5.0322Y-2.44
X5.0322Y-2.54
X5.58Y-1.49
X5.58Y-1.59
X5.58Y-1.69
X5.58Y-1.79
X5.58Y-1.89
X5.58Y-1.99
X5.58Y-2.09
X5.58Y-2.19
X5.58Y-2.29
X5.58Y-2.39
X5.58Y-2.49
X5.58Y-2.59
X5.6314Y-1.44
X5.6314Y-1.54
X5.6314Y-1.64
X5.6314Y-1.74
X5.6314Y-1.84
X5.6314Y-1.94
X5.6314Y-2.04
X5.6314Y-2.14
X5.6314Y-2.24
X5.6314Y-2.34
X5.6314Y-2.44
X5.6314Y-2.54
T3
X2.8972Y-2.813
X2.95Y-2.75
X2.9972Y-2.813
X3.05Y-2.75
X3.0972Y-2.813
X3.15Y-2.75
X3.1972Y-2.813
X3.25Y-2.75
X3.2972Y-2.813
X3.35Y-2.75
T4
X4.3701Y-1.6169
X4.5669Y-1.6996
X4.7638Y-1.6169
X2.9528Y-1.802
X3.1496Y-1.8846
X3.3465Y-1.802
X3.6614Y-2.612
X3.8583Y-2.6947
X4.0551Y-2.612
X4.3701Y-2.2862
X4.5669Y-2.3689
X4.7638Y-2.2862
X2.1702Y-1.2685
X2.3711Y-1.3408
X2.5633Y-1.2479
X2.9528Y-2.4713
X3.1496Y-2.5539
X3.3465Y-2.4713
X2.2402Y-2.6054
X2.4411Y-2.6777
X2.6334Y-2.5848
X3.6614Y-1.9425
X3.8583Y-2.0252
X4.0551Y-1.9425
X2.9528Y-1.1331
X3.1496Y-1.2157
X3.3465Y-1.1331
X3.6614Y-1.2732
X3.8583Y-1.3559
X4.0551Y-1.2732
X1.4511Y-1.8004
X1.6544Y-1.8656
X1.8433Y-1.7661
X4.6273Y-3.1955
X4.8338Y-3.1411
X5.0172Y-3.2503
X1.5094Y-2.4672
X1.7127Y-2.5324
X1.9016Y-2.4328
X2.2052Y-1.9369
X2.4061Y-2.0091
X2.5984Y-1.9163
X3.9264Y-3.0947
X4.1329Y-3.0402
X4.3163Y-3.1494
T5
X4.78Y-2.712
X4.78Y-2.968
T3
G00X5.0353Y-2.7773
M15
G01X5.0156Y-2.7773
M16
G05
G00X5.0353Y-2.8738
M15
G01X5.0156Y-2.8738
M16
G05
G00X5.0943Y-2.7084
M15
G01X5.0746Y-2.7084
M16
G05
G00X5.0943Y-2.9427
M15
G01X5.0746Y-2.9427
M16
G05
G00X5.2518Y-2.7084
M15
G01X5.2321Y-2.7084
M16
G05
G00X5.2518Y-2.9427
M15
G01X5.2321Y-2.9427
M16
G05
G00X5.3699Y-2.7084
M15
G01X5.3502Y-2.7084
M16
G05
G00X5.3699Y-2.9427
M15
G01X5.3502Y-2.9427
M16
G05
T0
M30
