M48
; DRILL file {KiCad 5.1.8} date Mon Nov 23 10:56:16 2020
; FORMAT={-:-/ absolute / inch / decimal}
; #@! TF.CreationDate,2020-11-23T10:56:16+00:00
; #@! TF.GenerationSoftware,Kicad,Pcbnew,5.1.8
; #@! TF.FileFunction,NonPlated,1,2,NPTH
FMAT,2
INCH
T1C0.0390
T2C0.0472
T3C0.0670
T4C0.1350
%
G90
G05
T1
X2.9441Y-1.487
X3.3551Y-1.487
X3.6528Y-2.297
X4.0638Y-2.297
X4.3614Y-1.9713
X4.7724Y-1.9713
X2.145Y-0.9544
X2.5555Y-0.9329
X2.9441Y-2.1563
X3.3551Y-2.1563
X2.2151Y-2.2914
X2.6256Y-2.2699
X3.6528Y-1.6276
X4.0638Y-1.6276
X2.9441Y-0.8181
X3.3551Y-0.8181
X3.6528Y-0.9583
X4.0638Y-0.9583
X1.415Y-1.4874
X1.8245Y-1.4516
X4.5749Y-3.5062
X4.982Y-3.5634
X1.4733Y-2.1542
X1.8828Y-2.1183
X2.1801Y-1.6228
X2.5905Y-1.6013
X3.874Y-3.4053
X4.2811Y-3.4625
X4.3614Y-1.302
X4.7724Y-1.302
T2
X5.1554Y-2.7911
X5.1554Y-2.86
X5.4309Y-2.7911
X5.4309Y-2.86
T3
X2.1427Y-1.1201
X2.5752Y-1.0975
X2.9331Y-2.3217
X3.3661Y-2.3217
X2.2127Y-2.4571
X2.6452Y-2.4344
X3.6417Y-1.7929
X4.0748Y-1.7929
X2.9331Y-0.9835
X3.3661Y-0.9835
X3.6417Y-1.1236
X4.0748Y-1.1236
X1.4184Y-1.6531
X1.8498Y-1.6153
X4.587Y-3.341
X5.0159Y-3.4012
X1.4768Y-2.3198
X1.9082Y-2.2821
X2.1777Y-1.7885
X2.6102Y-1.7658
X3.8861Y-3.2401
X4.315Y-3.3003
X4.3504Y-1.4673
X4.7835Y-1.4673
X2.9331Y-1.6524
X3.3661Y-1.6524
X3.6417Y-2.4624
X4.0748Y-2.4624
X4.3504Y-2.1366
X4.7835Y-2.1366
T4
X3.1496Y-1.6524
X3.8583Y-2.4624
X4.5669Y-2.1366
X2.3589Y-1.1088
X3.1496Y-2.3217
X2.429Y-2.4457
X3.8583Y-1.7929
X3.1496Y-0.9835
X3.8583Y-1.1236
X1.6341Y-1.6342
X4.8015Y-3.3711
X1.6925Y-2.301
X2.3939Y-1.7772
X4.1006Y-3.2702
X4.5669Y-1.4673
T0
M30
