M48
; DRILL file {KiCad (5.1.5-0-10_14)} date Tuesday, 02 June 2020 at 16:03:15
; FORMAT={-:-/ absolute / inch / decimal}
; #@! TF.CreationDate,2020-06-02T16:03:15+01:00
; #@! TF.GenerationSoftware,Kicad,Pcbnew,(5.1.5-0-10_14)
; #@! TF.FileFunction,NonPlated,1,2,NPTH
FMAT,2
INCH
T1C0.0390
T2C0.0472
T3C0.0670
T4C0.1350
%
G90
G05
T1
X1.5268Y-1.2953
X1.9378Y-1.2953
X2.2354Y-0.9583
X2.6465Y-0.9583
X1.5268Y-1.9646
X1.9378Y-1.9646
X2.2354Y-2.297
X2.6465Y-2.297
X2.9441Y-2.2035
X3.3551Y-2.2035
X1.5268Y-2.9648
X1.9378Y-2.9648
X5.0701Y-3.6299
X5.4811Y-3.6299
X4.3614Y-1.052
X4.7724Y-1.052
X2.9441Y-1.5343
X3.3551Y-1.5343
X4.3614Y-1.7213
X4.7724Y-1.7213
X4.3614Y-2.3906
X4.7724Y-2.3906
X4.3614Y-3.5244
X4.7724Y-3.5244
X2.2354Y-1.6276
X2.6465Y-1.6276
X3.6528Y-2.297
X4.0638Y-2.297
X3.6528Y-0.9583
X4.0638Y-0.9583
X3.6528Y-3.4244
X4.0638Y-3.4244
X3.6528Y-1.6276
X4.0638Y-1.6276
X2.9441Y-0.8654
X3.3551Y-0.8654
T2
X5.374Y-2.5252
X5.374Y-2.5941
X5.6496Y-2.5252
X5.6496Y-2.5941
T3
X2.2244Y-2.4624
X2.6575Y-2.4624
X2.9331Y-2.3689
X3.3661Y-2.3689
X1.5157Y-2.7994
X1.9488Y-2.7994
X5.0591Y-3.4646
X5.4921Y-3.4646
X4.3504Y-1.2173
X4.7835Y-1.2173
X2.9331Y-1.6996
X3.3661Y-1.6996
X4.3504Y-1.8866
X4.7835Y-1.8866
X4.3504Y-2.5559
X4.7835Y-2.5559
X4.3504Y-3.3591
X4.7835Y-3.3591
X2.2244Y-1.7929
X2.6575Y-1.7929
X3.6417Y-2.4624
X4.0748Y-2.4624
X3.6417Y-1.1236
X4.0748Y-1.1236
X3.6417Y-3.2591
X4.0748Y-3.2591
X3.6417Y-1.7929
X4.0748Y-1.7929
X2.9331Y-1.0307
X3.3661Y-1.0307
X1.5157Y-1.4606
X1.9488Y-1.4606
X2.2244Y-1.1236
X2.6575Y-1.1236
X1.5157Y-2.1299
X1.9488Y-2.1299
T4
X1.7323Y-2.7994
X5.2756Y-3.4646
X4.5669Y-1.2173
X3.1496Y-1.6996
X4.5669Y-1.8866
X4.5669Y-2.5559
X4.5669Y-3.3591
X2.4409Y-1.7929
X3.8583Y-2.4624
X3.8583Y-1.1236
X3.8583Y-3.2591
X3.8583Y-1.7929
X3.1496Y-1.0307
X1.7323Y-1.4606
X2.4409Y-1.1236
X1.7323Y-2.1299
X2.4409Y-2.4624
X3.1496Y-2.3689
T0
M30
