M48
; DRILL file {KiCad (5.1.5-0-10_14)} date Tuesday, 02 June 2020 at 16:03:15
; FORMAT={-:-/ absolute / inch / decimal}
; #@! TF.CreationDate,2020-06-02T16:03:15+01:00
; #@! TF.GenerationSoftware,Kicad,Pcbnew,(5.1.5-0-10_14)
; #@! TF.FileFunction,Plated,1,2,PTH
FMAT,2
INCH
T1C0.0320
T2C0.0394
T3C0.0500
%
G90
G05
T1
X2.0803Y-1.2819
X2.0803Y-1.5181
X4.1732Y-2.45
X4.1732Y-2.6862
X5.0004Y-1.0599
X5.0004Y-1.1599
X5.0004Y-1.2599
X5.0004Y-1.3599
X5.0004Y-1.4599
X5.0004Y-1.5599
X5.0004Y-1.6599
X5.0004Y-1.7599
X5.0004Y-1.8599
X5.0004Y-1.9599
X5.0004Y-2.0599
X5.0004Y-2.1599
X5.5997Y-1.0599
X5.5997Y-1.1599
X5.5997Y-1.2599
X5.5997Y-1.3599
X5.5997Y-1.4599
X5.5997Y-1.5599
X5.5997Y-1.6599
X5.5997Y-1.7599
X5.5997Y-1.8599
X5.5997Y-1.9599
X5.5997Y-2.0599
X5.5997Y-2.1599
X3.5Y-2.1819
X3.5Y-2.4181
X3.5Y-0.8819
X3.5Y-1.1181
X2.8Y-1.5963
X2.8Y-1.8325
X2.8Y-2.3443
X2.8Y-2.5805
X2.8Y-0.8819
X2.8Y-1.1181
X2.0894Y-1.774
X2.0894Y-2.0102
X2.0697Y-2.4801
X2.0697Y-2.7163
X4.9Y-3.2591
X4.9Y-3.4953
X4.252Y-2.3443
X4.252Y-2.5805
X4.2Y-3.1909
X4.2Y-3.4272
X4.25Y-0.95
X4.25Y-1.1862
X4.252Y-1.5963
X4.252Y-1.8325
X4.1606Y-1.2862
X4.1732Y-1.05
X4.1732Y-1.75
X4.1732Y-1.9862
X3.5Y-3.1409
X3.5Y-3.3772
X3.5Y-1.5028
X3.5Y-1.739
T3
X2.2441Y-2.612
X2.4409Y-2.6947
X2.6378Y-2.612
X2.9528Y-2.5185
X3.1496Y-2.6012
X3.3465Y-2.5185
X1.5354Y-2.6498
X1.7323Y-2.5671
X1.9291Y-2.6498
X5.0787Y-3.315
X5.2756Y-3.2323
X5.4724Y-3.315
X4.3701Y-1.3669
X4.5669Y-1.4496
X4.7638Y-1.3669
X2.9528Y-1.8492
X3.1496Y-1.9319
X3.3465Y-1.8492
X4.3701Y-2.0362
X4.5669Y-2.1189
X4.7638Y-2.0362
X4.3701Y-2.7055
X4.5669Y-2.7882
X4.7638Y-2.7055
X4.3701Y-3.2094
X4.5669Y-3.1268
X4.7638Y-3.2094
X2.2441Y-1.9425
X2.4409Y-2.0252
X2.6378Y-1.9425
X3.6614Y-2.612
X3.8583Y-2.6947
X4.0551Y-2.612
X3.6614Y-1.2732
X3.8583Y-1.3559
X4.0551Y-1.2732
X3.6614Y-3.1094
X3.8583Y-3.0268
X4.0551Y-3.1094
X3.6614Y-1.9425
X3.8583Y-2.0252
X4.0551Y-1.9425
X2.9528Y-1.1803
X3.1496Y-1.263
X3.3465Y-1.1803
X1.5354Y-1.6102
X1.7323Y-1.6929
X1.9291Y-1.6102
X2.2441Y-1.2732
X2.4409Y-1.3559
X2.6378Y-1.2732
X1.5354Y-2.2795
X1.7323Y-2.3622
X1.9291Y-2.2795
T2
G00X5.2539Y-2.5114
M15
G01X5.2343Y-2.5114
M16
G05
G00X5.2539Y-2.6079
M15
G01X5.2343Y-2.6079
M16
G05
G00X5.313Y-2.4425
M15
G01X5.2933Y-2.4425
M16
G05
G00X5.313Y-2.6768
M15
G01X5.2933Y-2.6768
M16
G05
G00X5.4705Y-2.4425
M15
G01X5.4508Y-2.4425
M16
G05
G00X5.4705Y-2.6768
M15
G01X5.4508Y-2.6768
M16
G05
G00X5.5886Y-2.4425
M15
G01X5.5689Y-2.4425
M16
G05
G00X5.5886Y-2.6768
M15
G01X5.5689Y-2.6768
M16
G05
T0
M30
