M48
; DRILL file {KiCad 5.1.6} date Wed Sep 30 09:09:19 2020
; FORMAT={-:-/ absolute / inch / decimal}
; #@! TF.CreationDate,2020-09-30T09:09:19+01:00
; #@! TF.GenerationSoftware,Kicad,Pcbnew,5.1.6
; #@! TF.FileFunction,NonPlated,1,2,NPTH
FMAT,2
INCH
T1C0.0118
T2C0.0354
T3C0.0394
T4C0.0472
T5C0.2323
%
G90
G05
T2
X5.3047Y-1.3189
X5.4228Y-1.3189
T4
X5.2454Y-2.8783
X5.2454Y-2.9472
X5.5209Y-2.8783
X5.5209Y-2.9472
T1
G00X2.1329Y-1.235
M15
G01X2.121Y-1.0069
M16
G05
G00X2.2806Y-1.2686
M15
G01X2.2787Y-1.2332
M16
G05
G00X2.121Y-1.0069
M15
G01X2.5849Y-0.9826
M16
G05
G00X2.1329Y-1.235
M15
G01X2.5969Y-1.2107
M16
G05
G00X2.2806Y-1.2686
M15
G01X2.4536Y-1.2596
M16
G05
G00X2.4536Y-1.2596
M15
G01X2.4517Y-1.2242
M16
G05
G00X2.5969Y-1.2107
M15
G01X2.5849Y-0.9826
M16
G05
G00X4.3346Y-2.0008
M15
G01X4.3346Y-1.7724
M16
G05
G00X4.4803Y-2.0421
M15
G01X4.4803Y-2.0067
M16
G05
G00X4.3346Y-1.7724
M15
G01X4.7992Y-1.7724
M16
G05
G00X4.3346Y-2.0008
M15
G01X4.7992Y-2.0008
M16
G05
G00X4.4803Y-2.0421
M15
G01X4.6535Y-2.0421
M16
G05
G00X4.6535Y-2.0421
M15
G01X4.6535Y-2.0067
M16
G05
G00X4.7992Y-2.0008
M15
G01X4.7992Y-1.7724
M16
G05
G00X4.169Y-3.1122
M15
G01X4.1294Y-3.3371
M16
G05
G00X4.3197Y-3.0968
M15
G01X4.3135Y-3.1317
M16
G05
G00X4.1294Y-3.3371
M15
G01X4.5869Y-3.4177
M16
G05
G00X4.169Y-3.1122
M15
G01X4.6265Y-3.1929
M16
G05
G00X4.3197Y-3.0968
M15
G01X4.4903Y-3.1269
M16
G05
G00X4.4903Y-3.1269
M15
G01X4.4841Y-3.1617
M16
G05
G00X4.6265Y-3.1929
M15
G01X4.5869Y-3.4177
M16
G05
G00X4.9381Y-3.2763
M15
G01X4.86Y-3.4908
M16
G05
G00X4.86Y-3.4908
M15
G01X5.2965Y-3.6497
M16
G05
G00X5.0891Y-3.2872
M15
G01X5.077Y-3.3205
M16
G05
G00X4.9381Y-3.2763
M15
G01X5.3746Y-3.4351
M16
G05
G00X5.0891Y-3.2872
M15
G01X5.2519Y-3.3465
M16
G05
G00X5.2519Y-3.3465
M15
G01X5.2398Y-3.3798
M16
G05
G00X5.3746Y-3.4351
M15
G01X5.2965Y-3.6497
M16
G05
G00X1.4127Y-1.7682
M15
G01X1.3928Y-1.5407
M16
G05
G00X1.5614Y-1.7967
M15
G01X1.5583Y-1.7614
M16
G05
G00X1.3928Y-1.5407
M15
G01X1.8556Y-1.5002
M16
G05
G00X1.4127Y-1.7682
M15
G01X1.8755Y-1.7277
M16
G05
G00X1.5614Y-1.7967
M15
G01X1.734Y-1.7816
M16
G05
G00X1.734Y-1.7816
M15
G01X1.7309Y-1.7463
M16
G05
G00X1.8755Y-1.7277
M15
G01X1.8556Y-1.5002
M16
G05
G00X1.5294Y-3.1019
M15
G01X1.5095Y-2.8744
M16
G05
G00X1.6781Y-3.1304
M15
G01X1.675Y-3.0951
M16
G05
G00X1.5095Y-2.8744
M15
G01X1.9723Y-2.8339
M16
G05
G00X1.5294Y-3.1019
M15
G01X1.9922Y-3.0614
M16
G05
G00X1.6781Y-3.1304
M15
G01X1.8507Y-3.1153
M16
G05
G00X1.8507Y-3.1153
M15
G01X1.8476Y-3.08
M16
G05
G00X1.9922Y-3.0614
M15
G01X1.9723Y-2.8339
M16
G05
G00X2.9173Y-2.4358
M15
G01X2.9173Y-2.2075
M16
G05
G00X3.063Y-2.4772
M15
G01X3.063Y-2.4417
M16
G05
G00X2.9173Y-2.2075
M15
G01X3.3819Y-2.2075
M16
G05
G00X2.9173Y-2.4358
M15
G01X3.3819Y-2.4358
M16
G05
G00X3.063Y-2.4772
M15
G01X3.2362Y-2.4772
M16
G05
G00X3.2362Y-2.4772
M15
G01X3.2362Y-2.4417
M16
G05
G00X3.3819Y-2.4358
M15
G01X3.3819Y-2.2075
M16
G05
G00X3.626Y-2.5766
M15
G01X3.626Y-2.3482
M16
G05
G00X3.7717Y-2.6179
M15
G01X3.7717Y-2.5825
M16
G05
G00X3.626Y-2.3482
M15
G01X4.0906Y-2.3482
M16
G05
G00X3.626Y-2.5766
M15
G01X4.0906Y-2.5766
M16
G05
G00X3.7717Y-2.6179
M15
G01X3.9449Y-2.6179
M16
G05
G00X3.9449Y-2.6179
M15
G01X3.9449Y-2.5825
M16
G05
G00X4.0906Y-2.5766
M15
G01X4.0906Y-2.3482
M16
G05
G00X2.9173Y-1.0976
M15
G01X2.9173Y-0.8693
M16
G05
G00X3.063Y-1.139
M15
G01X3.063Y-1.1035
M16
G05
G00X2.9173Y-0.8693
M15
G01X3.3819Y-0.8693
M16
G05
G00X2.9173Y-1.0976
M15
G01X3.3819Y-1.0976
M16
G05
G00X3.063Y-1.139
M15
G01X3.2362Y-1.139
M16
G05
G00X3.2362Y-1.139
M15
G01X3.2362Y-1.1035
M16
G05
G00X3.3819Y-1.0976
M15
G01X3.3819Y-0.8693
M16
G05
G00X2.168Y-1.9033
M15
G01X2.156Y-1.6753
M16
G05
G00X2.3156Y-1.937
M15
G01X2.3137Y-1.9016
M16
G05
G00X2.156Y-1.6753
M15
G01X2.6199Y-1.651
M16
G05
G00X2.168Y-1.9033
M15
G01X2.6319Y-1.879
M16
G05
G00X2.3156Y-1.937
M15
G01X2.4886Y-1.9279
M16
G05
G00X2.4886Y-1.9279
M15
G01X2.4867Y-1.8926
M16
G05
G00X2.6319Y-1.879
M15
G01X2.6199Y-1.651
M16
G05
G00X3.626Y-1.9071
M15
G01X3.626Y-1.6787
M16
G05
G00X3.7717Y-1.9484
M15
G01X3.7717Y-1.913
M16
G05
G00X3.626Y-1.6787
M15
G01X4.0906Y-1.6787
M16
G05
G00X3.626Y-1.9071
M15
G01X4.0906Y-1.9071
M16
G05
G00X3.7717Y-1.9484
M15
G01X3.9449Y-1.9484
M16
G05
G00X3.9449Y-1.9484
M15
G01X3.9449Y-1.913
M16
G05
G00X4.0906Y-1.9071
M15
G01X4.0906Y-1.6787
M16
G05
G00X4.3346Y-2.6701
M15
G01X4.3346Y-2.4417
M16
G05
G00X4.4803Y-2.7114
M15
G01X4.4803Y-2.676
M16
G05
G00X4.3346Y-2.4417
M15
G01X4.7992Y-2.4417
M16
G05
G00X4.3346Y-2.6701
M15
G01X4.7992Y-2.6701
M16
G05
G00X4.4803Y-2.7114
M15
G01X4.6535Y-2.7114
M16
G05
G00X4.6535Y-2.7114
M15
G01X4.6535Y-2.676
M16
G05
G00X4.7992Y-2.6701
M15
G01X4.7992Y-2.4417
M16
G05
G00X1.471Y-2.4349
M15
G01X1.4511Y-2.2075
M16
G05
G00X1.6197Y-2.4634
M15
G01X1.6167Y-2.4281
M16
G05
G00X1.4511Y-2.2075
M15
G01X1.9139Y-2.167
M16
G05
G00X1.471Y-2.4349
M15
G01X1.9338Y-2.3945
M16
G05
G00X1.6197Y-2.4634
M15
G01X1.7923Y-2.4483
M16
G05
G00X1.7923Y-2.4483
M15
G01X1.7892Y-2.413
M16
G05
G00X1.9338Y-2.3945
M15
G01X1.9139Y-2.167
M16
G05
G00X4.3346Y-1.3315
M15
G01X4.3346Y-1.1031
M16
G05
G00X4.4803Y-1.3728
M15
G01X4.4803Y-1.3374
M16
G05
G00X4.3346Y-1.1031
M15
G01X4.7992Y-1.1031
M16
G05
G00X4.3346Y-1.3315
M15
G01X4.7992Y-1.3315
M16
G05
G00X4.4803Y-1.3728
M15
G01X4.6535Y-1.3728
M16
G05
G00X4.6535Y-1.3728
M15
G01X4.6535Y-1.3374
M16
G05
G00X4.7992Y-1.3315
M15
G01X4.7992Y-1.1031
M16
G05
G00X3.626Y-1.2378
M15
G01X3.626Y-1.0094
M16
G05
G00X3.7717Y-1.2791
M15
G01X3.7717Y-1.2437
M16
G05
G00X3.626Y-1.0094
M15
G01X4.0906Y-1.0094
M16
G05
G00X3.626Y-1.2378
M15
G01X4.0906Y-1.2378
M16
G05
G00X3.7717Y-1.2791
M15
G01X3.9449Y-1.2791
M16
G05
G00X3.9449Y-1.2791
M15
G01X3.9449Y-1.2437
M16
G05
G00X4.0906Y-1.2378
M15
G01X4.0906Y-1.0094
M16
G05
G00X2.203Y-2.5719
M15
G01X2.191Y-2.3439
M16
G05
G00X2.3506Y-2.6056
M15
G01X2.3488Y-2.5702
M16
G05
G00X2.191Y-2.3439
M15
G01X2.655Y-2.3196
M16
G05
G00X2.203Y-2.5719
M15
G01X2.6669Y-2.5476
M16
G05
G00X2.3506Y-2.6056
M15
G01X2.5236Y-2.5965
M16
G05
G00X2.5236Y-2.5965
M15
G01X2.5218Y-2.5611
M16
G05
G00X2.6669Y-2.5476
M15
G01X2.655Y-2.3196
M16
G05
G00X2.9173Y-1.7665
M15
G01X2.9173Y-1.5382
M16
G05
G00X3.063Y-1.8079
M15
G01X3.063Y-1.7724
M16
G05
G00X2.9173Y-1.5382
M15
G01X3.3819Y-1.5382
M16
G05
G00X2.9173Y-1.7665
M15
G01X3.3819Y-1.7665
M16
G05
G00X3.063Y-1.8079
M15
G01X3.2362Y-1.8079
M16
G05
G00X3.2362Y-1.8079
M15
G01X3.2362Y-1.7724
M16
G05
G00X3.3819Y-1.7665
M15
G01X3.3819Y-1.5382
M16
G05
T3
G00X2.1431Y-1.0235
M15
G01X2.1532Y-1.2162
M16
G05
G00X2.1734Y-1.0219
M15
G01X2.1835Y-1.2146
M16
G05
G00X2.1887Y-1.0211
M15
G01X2.1988Y-1.2138
M16
G05
G00X2.2934Y-1.2502
M15
G01X2.4389Y-1.2426
M16
G05
G00X2.519Y-1.0038
M15
G01X2.5291Y-1.1965
M16
G05
G00X2.5343Y-1.003
M15
G01X2.5444Y-1.1957
M16
G05
G00X2.5646Y-1.0014
M15
G01X2.5747Y-1.1941
M16
G05
G00X4.3559Y-1.7902
M15
G01X4.3559Y-1.9831
M16
G05
G00X4.3862Y-1.7902
M15
G01X4.3862Y-1.9831
M16
G05
G00X4.4016Y-1.7902
M15
G01X4.4016Y-1.9831
M16
G05
G00X4.4941Y-2.0244
M15
G01X4.6398Y-2.0244
M16
G05
G00X4.7323Y-1.7902
M15
G01X4.7323Y-1.9831
M16
G05
G00X4.7476Y-1.7902
M15
G01X4.7476Y-1.9831
M16
G05
G00X4.778Y-1.7902
M15
G01X4.778Y-1.9831
M16
G05
G00X4.1869Y-3.1333
M15
G01X4.1534Y-3.3233
M16
G05
G00X4.2167Y-3.1386
M15
G01X4.1832Y-3.3286
M16
G05
G00X4.2319Y-3.1413
M15
G01X4.1984Y-3.3312
M16
G05
G00X4.3302Y-3.1166
M15
G01X4.4736Y-3.1419
M16
G05
G00X4.5575Y-3.1987
M15
G01X4.524Y-3.3887
M16
G05
G00X4.5727Y-3.2013
M15
G01X4.5392Y-3.3913
M16
G05
G00X4.6025Y-3.2066
M15
G01X4.569Y-3.3966
M16
G05
G00X4.952Y-3.3002
M15
G01X4.886Y-3.4815
M16
G05
G00X4.9805Y-3.3105
M15
G01X4.9145Y-3.4918
M16
G05
G00X4.9949Y-3.3158
M15
G01X4.929Y-3.4971
M16
G05
G00X5.096Y-3.3086
M15
G01X5.2329Y-3.3584
M16
G05
G00X5.3057Y-3.4289
M15
G01X5.2397Y-3.6102
M16
G05
G00X5.3201Y-3.4342
M15
G01X5.2541Y-3.6154
M16
G05
G00X5.3486Y-3.4445
M15
G01X5.2826Y-3.6258
M16
G05
G00X1.4155Y-1.5565
M15
G01X1.4323Y-1.7487
M16
G05
G00X1.4457Y-1.5539
M15
G01X1.4625Y-1.7461
M16
G05
G00X1.461Y-1.5525
M15
G01X1.4778Y-1.7447
M16
G05
G00X1.5736Y-1.7778
M15
G01X1.7187Y-1.7651
M16
G05
G00X1.7905Y-1.5237
M15
G01X1.8073Y-1.7159
M16
G05
G00X1.8058Y-1.5224
M15
G01X1.8226Y-1.7146
M16
G05
G00X1.836Y-1.5197
M15
G01X1.8528Y-1.7119
M16
G05
G00X1.5322Y-2.8902
M15
G01X1.549Y-3.0824
M16
G05
G00X1.5624Y-2.8876
M15
G01X1.5792Y-3.0797
M16
G05
G00X1.5777Y-2.8862
M15
G01X1.5945Y-3.0784
M16
G05
G00X1.6903Y-3.1115
M15
G01X1.8354Y-3.0988
M16
G05
G00X1.9071Y-2.8574
M15
G01X1.924Y-3.0496
M16
G05
G00X1.9224Y-2.8561
M15
G01X1.9393Y-3.0482
M16
G05
G00X1.9526Y-2.8534
M15
G01X1.9695Y-3.0456
M16
G05
G00X2.9386Y-2.2252
M15
G01X2.9386Y-2.4181
M16
G05
G00X2.9689Y-2.2252
M15
G01X2.9689Y-2.4181
M16
G05
G00X2.9843Y-2.2252
M15
G01X2.9843Y-2.4181
M16
G05
G00X3.0768Y-2.4594
M15
G01X3.2224Y-2.4594
M16
G05
G00X3.315Y-2.2252
M15
G01X3.315Y-2.4181
M16
G05
G00X3.3303Y-2.2252
M15
G01X3.3303Y-2.4181
M16
G05
G00X3.3606Y-2.2252
M15
G01X3.3606Y-2.4181
M16
G05
G00X3.6472Y-2.3659
M15
G01X3.6472Y-2.5589
M16
G05
G00X3.6776Y-2.3659
M15
G01X3.6776Y-2.5589
M16
G05
G00X3.6929Y-2.3659
M15
G01X3.6929Y-2.5589
M16
G05
G00X3.7854Y-2.6002
M15
G01X3.9311Y-2.6002
M16
G05
G00X4.0236Y-2.3659
M15
G01X4.0236Y-2.5589
M16
G05
G00X4.039Y-2.3659
M15
G01X4.039Y-2.5589
M16
G05
G00X4.0693Y-2.3659
M15
G01X4.0693Y-2.5589
M16
G05
G00X2.9386Y-0.887
M15
G01X2.9386Y-1.0799
M16
G05
G00X2.9689Y-0.887
M15
G01X2.9689Y-1.0799
M16
G05
G00X2.9843Y-0.887
M15
G01X2.9843Y-1.0799
M16
G05
G00X3.0768Y-1.1213
M15
G01X3.2224Y-1.1213
M16
G05
G00X3.315Y-0.887
M15
G01X3.315Y-1.0799
M16
G05
G00X3.3303Y-0.887
M15
G01X3.3303Y-1.0799
M16
G05
G00X3.3606Y-0.887
M15
G01X3.3606Y-1.0799
M16
G05
G00X2.1782Y-1.6919
M15
G01X2.1883Y-1.8845
M16
G05
G00X2.2084Y-1.6903
M15
G01X2.2185Y-1.883
M16
G05
G00X2.2238Y-1.6895
M15
G01X2.2339Y-1.8821
M16
G05
G00X2.3284Y-1.9186
M15
G01X2.4739Y-1.911
M16
G05
G00X2.554Y-1.6722
M15
G01X2.5641Y-1.8648
M16
G05
G00X2.5694Y-1.6714
M15
G01X2.5795Y-1.864
M16
G05
G00X2.5996Y-1.6698
M15
G01X2.6097Y-1.8624
M16
G05
G00X3.6472Y-1.6965
M15
G01X3.6472Y-1.8894
M16
G05
G00X3.6776Y-1.6965
M15
G01X3.6776Y-1.8894
M16
G05
G00X3.6929Y-1.6965
M15
G01X3.6929Y-1.8894
M16
G05
G00X3.7854Y-1.9307
M15
G01X3.9311Y-1.9307
M16
G05
G00X4.0236Y-1.6965
M15
G01X4.0236Y-1.8894
M16
G05
G00X4.039Y-1.6965
M15
G01X4.039Y-1.8894
M16
G05
G00X4.0693Y-1.6965
M15
G01X4.0693Y-1.8894
M16
G05
G00X4.3559Y-2.4594
M15
G01X4.3559Y-2.6524
M16
G05
G00X4.3862Y-2.4594
M15
G01X4.3862Y-2.6524
M16
G05
G00X4.4016Y-2.4594
M15
G01X4.4016Y-2.6524
M16
G05
G00X4.4941Y-2.6937
M15
G01X4.6398Y-2.6937
M16
G05
G00X4.7323Y-2.4594
M15
G01X4.7323Y-2.6524
M16
G05
G00X4.7476Y-2.4594
M15
G01X4.7476Y-2.6524
M16
G05
G00X4.778Y-2.4594
M15
G01X4.778Y-2.6524
M16
G05
G00X1.4738Y-2.2233
M15
G01X1.4907Y-2.4154
M16
G05
G00X1.504Y-2.2206
M15
G01X1.5209Y-2.4128
M16
G05
G00X1.5193Y-2.2193
M15
G01X1.5362Y-2.4115
M16
G05
G00X1.6319Y-2.4446
M15
G01X1.777Y-2.4319
M16
G05
G00X1.8488Y-2.1905
M15
G01X1.8656Y-2.3826
M16
G05
G00X1.8641Y-2.1891
M15
G01X1.8809Y-2.3813
M16
G05
G00X1.8943Y-2.1865
M15
G01X1.9111Y-2.3787
M16
G05
G00X4.3559Y-1.1209
M15
G01X4.3559Y-1.3138
M16
G05
G00X4.3862Y-1.1209
M15
G01X4.3862Y-1.3138
M16
G05
G00X4.4016Y-1.1209
M15
G01X4.4016Y-1.3138
M16
G05
G00X4.4941Y-1.3551
M15
G01X4.6398Y-1.3551
M16
G05
G00X4.7323Y-1.1209
M15
G01X4.7323Y-1.3138
M16
G05
G00X4.7476Y-1.1209
M15
G01X4.7476Y-1.3138
M16
G05
G00X4.778Y-1.1209
M15
G01X4.778Y-1.3138
M16
G05
G00X3.6472Y-1.0272
M15
G01X3.6472Y-1.2201
M16
G05
G00X3.6776Y-1.0272
M15
G01X3.6776Y-1.2201
M16
G05
G00X3.6929Y-1.0272
M15
G01X3.6929Y-1.2201
M16
G05
G00X3.7854Y-1.2614
M15
G01X3.9311Y-1.2614
M16
G05
G00X4.0236Y-1.0272
M15
G01X4.0236Y-1.2201
M16
G05
G00X4.039Y-1.0272
M15
G01X4.039Y-1.2201
M16
G05
G00X4.0693Y-1.0272
M15
G01X4.0693Y-1.2201
M16
G05
G00X2.2132Y-2.3605
M15
G01X2.2233Y-2.5531
M16
G05
G00X2.2435Y-2.3589
M15
G01X2.2536Y-2.5515
M16
G05
G00X2.2588Y-2.3581
M15
G01X2.2689Y-2.5507
M16
G05
G00X2.3635Y-2.5872
M15
G01X2.5089Y-2.5795
M16
G05
G00X2.5891Y-2.3408
M15
G01X2.5992Y-2.5334
M16
G05
G00X2.6044Y-2.34
M15
G01X2.6145Y-2.5326
M16
G05
G00X2.6347Y-2.3384
M15
G01X2.6448Y-2.531
M16
G05
G00X2.9386Y-1.5559
M15
G01X2.9386Y-1.7488
M16
G05
G00X2.9689Y-1.5559
M15
G01X2.9689Y-1.7488
M16
G05
G00X2.9843Y-1.5559
M15
G01X2.9843Y-1.7488
M16
G05
G00X3.0768Y-1.7902
M15
G01X3.2224Y-1.7902
M16
G05
G00X3.315Y-1.5559
M15
G01X3.315Y-1.7488
M16
G05
G00X3.3303Y-1.5559
M15
G01X3.3303Y-1.7488
M16
G05
G00X3.3606Y-1.5559
M15
G01X3.3606Y-1.7488
M16
G05
T5
G00X3.7411Y-1.7929
M15
G01X3.9754Y-1.7929
M16
G05
G00X4.4498Y-2.5559
M15
G01X4.6841Y-2.5559
M16
G05
G00X1.5758Y-2.3112
M15
G01X1.8092Y-2.2908
M16
G05
G00X4.4498Y-1.2173
M15
G01X4.6841Y-1.2173
M16
G05
G00X3.7411Y-1.1236
M15
G01X3.9754Y-1.1236
M16
G05
G00X2.312Y-2.4519
M15
G01X2.546Y-2.4396
M16
G05
G00X3.0325Y-1.6524
M15
G01X3.2667Y-1.6524
M16
G05
G00X2.242Y-1.1149
M15
G01X2.4759Y-1.1027
M16
G05
G00X4.4498Y-1.8866
M15
G01X4.6841Y-1.8866
M16
G05
G00X4.2626Y-3.2446
M15
G01X4.4933Y-3.2853
M16
G05
G00X5.0073Y-3.4229
M15
G01X5.2274Y-3.5031
M16
G05
G00X1.5175Y-1.6444
M15
G01X1.7508Y-1.624
M16
G05
G00X1.6341Y-2.9781
M15
G01X1.8675Y-2.9577
M16
G05
G00X3.0325Y-2.3217
M15
G01X3.2667Y-2.3217
M16
G05
G00X3.7411Y-2.4624
M15
G01X3.9754Y-2.4624
M16
G05
G00X3.0325Y-0.9835
M15
G01X3.2667Y-0.9835
M16
G05
G00X2.277Y-1.7833
M15
G01X2.5109Y-1.771
M16
G05
T0
M30
