M48
; DRILL file {KiCad 5.1.6} date Wed Sep 30 09:09:19 2020
; FORMAT={-:-/ absolute / inch / decimal}
; #@! TF.CreationDate,2020-09-30T09:09:19+01:00
; #@! TF.GenerationSoftware,Kicad,Pcbnew,5.1.6
; #@! TF.FileFunction,Plated,1,2,PTH
FMAT,2
INCH
T1C0.0157
T2C0.0320
T3C0.0394
T4C0.0433
T5C0.0512
%
G90
G05
T1
X3.5972Y-2.1205
X4.2944Y-2.2495
X4.5156Y-2.2686
X4.8183Y-2.2471
X5.1335Y-2.0465
X5.199Y-1.9465
X5.199Y-2.0965
X5.199Y-2.1965
X5.199Y-2.2965
X5.2276Y-1.4177
X5.3058Y-1.6965
X5.3275Y-1.5465
X5.3831Y-1.4217
X5.402Y-1.4713
X5.5132Y-1.8183
X5.5291Y-2.4465
T2
X5.0051Y-1.4465
X5.0051Y-1.5465
X5.0051Y-1.6465
X5.0051Y-1.7465
X5.0051Y-1.8465
X5.0051Y-1.9465
X5.0051Y-2.0465
X5.0051Y-2.1465
X5.0051Y-2.2465
X5.0051Y-2.3465
X5.0051Y-2.4465
X5.0051Y-2.5465
X5.0573Y-1.3965
X5.0573Y-1.4965
X5.0573Y-1.5965
X5.0573Y-1.6965
X5.0573Y-1.7965
X5.0573Y-1.8965
X5.0573Y-1.9965
X5.0573Y-2.0965
X5.0573Y-2.1965
X5.0573Y-2.2965
X5.0573Y-2.3965
X5.0573Y-2.4965
X5.0629Y-1.291
X5.6051Y-1.4465
X5.6051Y-1.5465
X5.6051Y-1.6465
X5.6051Y-1.7465
X5.6051Y-1.8465
X5.6051Y-1.9465
X5.6051Y-2.0465
X5.6051Y-2.1465
X5.6051Y-2.2465
X5.6051Y-2.3465
X5.6051Y-2.4465
X5.6051Y-2.5465
X5.6566Y-1.3965
X5.6566Y-1.4965
X5.6566Y-1.5965
X5.6566Y-1.6965
X5.6566Y-1.7965
X5.6566Y-1.8965
X5.6566Y-1.9965
X5.6566Y-2.0965
X5.6566Y-2.1965
X5.6566Y-2.2965
X5.6566Y-2.3965
X5.6566Y-2.4965
X5.6621Y-1.291
T4
X4.3583Y-2.3689
X4.3866Y-2.7567
X4.4882Y-2.7685
X4.6457Y-2.7685
X4.7472Y-2.7567
X4.7756Y-2.3689
X1.4683Y-2.1329
X1.5303Y-2.5167
X1.6326Y-2.5196
X1.7894Y-2.5059
X1.884Y-2.0965
X1.8896Y-2.4853
X4.3583Y-1.0303
X4.3866Y-1.4181
X4.4882Y-1.4299
X4.6457Y-1.4299
X4.7472Y-1.4181
X4.7756Y-1.0303
X3.6496Y-0.9366
X3.678Y-1.3244
X3.7795Y-1.3362
X3.937Y-1.3362
X4.0386Y-1.3244
X4.0669Y-0.9366
X2.2108Y-2.2699
X2.2594Y-2.6557
X2.3615Y-2.6622
X2.5187Y-2.6539
X2.6196Y-2.6368
X2.6276Y-2.2481
X2.9409Y-1.4654
X2.9693Y-1.8531
X3.0709Y-1.865
X3.2283Y-1.865
X3.3299Y-1.8531
X3.3583Y-1.4654
X2.1408Y-0.933
X2.1894Y-1.3187
X2.2914Y-1.3252
X2.4487Y-1.317
X2.5495Y-1.2999
X2.5575Y-0.9111
X4.3583Y-1.6996
X4.3866Y-2.0874
X4.4882Y-2.0992
X4.6457Y-2.0992
X4.7472Y-2.0874
X4.7756Y-1.6996
X4.14Y-3.4129
X4.2352Y-3.0359
X4.3373Y-3.0419
X4.4924Y-3.0693
X4.551Y-3.4854
X4.5904Y-3.0985
X4.8573Y-3.5674
X5.0166Y-3.2126
X5.116Y-3.2363
X5.2494Y-3.7101
X5.264Y-3.2901
X5.3554Y-3.336
X1.41Y-1.4661
X1.472Y-1.85
X1.5742Y-1.8529
X1.7311Y-1.8391
X1.8257Y-1.4297
X1.8313Y-1.8185
X1.5267Y-2.7998
X1.5887Y-3.1836
X1.6909Y-3.1866
X1.8478Y-3.1728
X1.9424Y-2.7634
X1.948Y-3.1522
X2.9409Y-2.1346
X2.9693Y-2.5224
X3.0709Y-2.5343
X3.2283Y-2.5343
X3.3299Y-2.5224
X3.3583Y-2.1346
X3.6496Y-2.2754
X3.678Y-2.6632
X3.7795Y-2.675
X3.937Y-2.675
X4.0386Y-2.6632
X4.0669Y-2.2754
X2.9409Y-0.7965
X2.9693Y-1.1843
X3.0709Y-1.1961
X3.2283Y-1.1961
X3.3299Y-1.1843
X3.3583Y-0.7965
X2.1758Y-1.6013
X2.2244Y-1.9871
X2.3264Y-1.9936
X2.4837Y-1.9854
X2.5845Y-1.9682
X2.5925Y-1.5795
X3.6496Y-1.6059
X3.678Y-1.9937
X3.7795Y-2.0055
X3.937Y-2.0055
X4.0386Y-1.9937
X4.0669Y-1.6059
T5
X5.1807Y-2.6776
X5.4366Y-2.6776
T3
G00X5.1253Y-2.8646
M15
G01X5.1056Y-2.8646
M16
G05
G00X5.1253Y-2.961
M15
G01X5.1056Y-2.961
M16
G05
G00X5.1843Y-2.7957
M15
G01X5.1646Y-2.7957
M16
G05
G00X5.1843Y-3.0299
M15
G01X5.1646Y-3.0299
M16
G05
G00X5.3418Y-2.7957
M15
G01X5.3221Y-2.7957
M16
G05
G00X5.3418Y-3.0299
M15
G01X5.3221Y-3.0299
M16
G05
G00X5.4599Y-2.7957
M15
G01X5.4402Y-2.7957
M16
G05
G00X5.4599Y-3.0299
M15
G01X5.4402Y-3.0299
M16
G05
T0
M30
