M48
; DRILL file {KiCad (5.1.4-0-10_14)} date Thursday, 25 June 2020 at 09:28:48
; FORMAT={-:-/ absolute / inch / decimal}
; #@! TF.CreationDate,2020-06-25T09:28:48+01:00
; #@! TF.GenerationSoftware,Kicad,Pcbnew,(5.1.4-0-10_14)
; #@! TF.FileFunction,Plated,1,2,PTH
FMAT,2
INCH
T1C0.0157
T2C0.0320
T3C0.0394
T4C0.0500
T5C0.0512
%
G90
G05
T1
X5.0429Y-2.1094
X5.0957Y-2.0508
X5.2791Y-2.1591
X5.2933Y-2.402
X5.2969Y-2.2154
X5.3008Y-2.1004
T2
X2.8Y-1.5963
X2.8Y-1.8325
X3.5Y-0.8819
X3.5Y-1.1181
X2.0803Y-1.2819
X2.0803Y-1.5181
X4.2Y-3.1909
X4.1732Y-2.45
X4.1732Y-2.6862
X4.2Y-3.4272
X2.8Y-0.8819
X2.8Y-1.1181
X2.0894Y-1.774
X2.0894Y-2.0102
X2.0697Y-2.4801
X2.0697Y-2.7163
X4.1606Y-1.2862
X4.1732Y-1.05
X3.5Y-2.1819
X3.5Y-2.4181
X5.0004Y-1.0599
X5.0004Y-1.1599
X5.0004Y-1.2599
X5.0004Y-1.3599
X5.0004Y-1.4599
X5.0004Y-1.5599
X5.0004Y-1.6599
X5.0004Y-1.7599
X5.0004Y-1.8599
X5.0004Y-1.9599
X5.0004Y-2.0599
X5.0004Y-2.1599
X5.5997Y-1.0599
X5.5997Y-1.1599
X5.5997Y-1.2599
X5.5997Y-1.3599
X5.5997Y-1.4599
X5.5997Y-1.5599
X5.5997Y-1.6599
X5.5997Y-1.7599
X5.5997Y-1.8599
X5.5997Y-1.9599
X5.5997Y-2.0599
X5.5997Y-2.1599
X4.252Y-2.3443
X4.1732Y-1.75
X4.1732Y-1.9862
X4.9Y-3.2591
X4.9Y-3.4953
X3.5Y-3.1409
X3.5Y-3.3772
X2.8Y-2.3443
X2.8Y-2.5805
X4.252Y-1.5963
X4.252Y-1.8325
X3.5Y-1.5028
X4.252Y-2.5805
X4.25Y-0.95
X4.25Y-1.1862
X3.5Y-1.739
X5.1457Y-2.3406
X5.2457Y-2.3406
X5.3457Y-2.3406
X5.4457Y-2.3406
T4
X2.9528Y-2.5185
X3.1496Y-2.6012
X3.3465Y-2.5185
X4.3701Y-2.7055
X4.5669Y-2.7882
X4.7638Y-2.7055
X3.6614Y-1.9425
X3.8583Y-2.0252
X4.0551Y-1.9425
X3.6614Y-1.2732
X3.8583Y-1.3559
X4.0551Y-1.2732
X2.2441Y-2.612
X2.4409Y-2.6947
X2.6378Y-2.612
X2.2441Y-1.2732
X2.4409Y-1.3559
X2.6378Y-1.2732
X3.6614Y-3.1094
X3.8583Y-3.0268
X4.0551Y-3.1094
X1.7323Y-2.3622
X1.7323Y-2.5671
X1.5354Y-1.6102
X1.9291Y-1.6102
X1.5354Y-2.2795
X1.9291Y-2.2795
X1.5354Y-2.6498
X1.9291Y-2.6498
X5.0787Y-3.315
X5.4724Y-3.315
X1.7323Y-1.6929
X2.9528Y-1.8492
X3.1496Y-1.9319
X3.3465Y-1.8492
X3.1496Y-1.263
X5.2756Y-3.2323
X2.9528Y-1.1803
X3.3465Y-1.1803
X4.3701Y-2.0362
X4.5669Y-2.1189
X4.7638Y-2.0362
X4.7638Y-3.2094
X4.3701Y-3.2094
X4.5669Y-3.1268
X3.6614Y-2.612
X4.3701Y-1.3669
X4.5669Y-1.4496
X4.7638Y-1.3669
X3.8583Y-2.6947
X4.0551Y-2.612
X2.2441Y-1.9425
X2.4409Y-2.0252
X2.6378Y-1.9425
T5
X5.0154Y-2.524
X5.0154Y-2.7799
T3
G00X5.1697Y-2.6043
M15
G01X5.15Y-2.6043
M16
G05
G00X5.1697Y-2.7008
M15
G01X5.15Y-2.7008
M16
G05
G00X5.2287Y-2.5354
M15
G01X5.2091Y-2.5354
M16
G05
G00X5.2287Y-2.7697
M15
G01X5.2091Y-2.7697
M16
G05
G00X5.3862Y-2.5354
M15
G01X5.3665Y-2.5354
M16
G05
G00X5.3862Y-2.7697
M15
G01X5.3665Y-2.7697
M16
G05
G00X5.5043Y-2.5354
M15
G01X5.4846Y-2.5354
M16
G05
G00X5.5043Y-2.7697
M15
G01X5.4846Y-2.7697
M16
G05
T0
M30
