G04 #@! TF.GenerationSoftware,KiCad,Pcbnew,(5.1.4-0-10_14)*
G04 #@! TF.CreationDate,2020-06-25T09:28:44+01:00*
G04 #@! TF.ProjectId,crabby,63726162-6279-42e6-9b69-6361645f7063,2.1*
G04 #@! TF.SameCoordinates,Original*
G04 #@! TF.FileFunction,Copper,L2,Bot*
G04 #@! TF.FilePolarity,Positive*
%FSLAX46Y46*%
G04 Gerber Fmt 4.6, Leading zero omitted, Abs format (unit mm)*
G04 Created by KiCad (PCBNEW (5.1.4-0-10_14)) date 2020-06-25 09:28:44*
%MOMM*%
%LPD*%
G04 APERTURE LIST*
%ADD10C,2.032000*%
%ADD11C,2.000000*%
%ADD12R,1.143000X0.635000*%
%ADD13C,1.397000*%
%ADD14R,1.397000X1.397000*%
%ADD15C,1.524000*%
%ADD16O,2.500000X1.700000*%
%ADD17C,0.600000*%
%ADD18C,0.250000*%
G04 APERTURE END LIST*
D10*
X49000000Y-40900000D03*
X39000000Y-40900000D03*
X44000000Y-43000000D03*
X67000000Y-32340000D03*
X57000000Y-32340000D03*
X62000000Y-34440000D03*
X85000000Y-29980000D03*
X75000000Y-29980000D03*
X80000000Y-32080000D03*
X103000000Y-32340000D03*
X93000000Y-32340000D03*
X98000000Y-34440000D03*
X121000000Y-34720000D03*
X111000000Y-34720000D03*
X116000000Y-36820000D03*
X49000000Y-57900000D03*
X39000000Y-57900000D03*
X44000000Y-60000000D03*
X67000000Y-49340000D03*
X57000000Y-49340000D03*
X62000000Y-51440000D03*
X85000000Y-46970000D03*
X75000000Y-46970000D03*
X80000000Y-49070000D03*
X103000000Y-49340000D03*
X93000000Y-49340000D03*
X98000000Y-51440000D03*
X121000000Y-51720000D03*
X111000000Y-51720000D03*
X116000000Y-53820000D03*
X49000000Y-67305000D03*
X39000000Y-67305000D03*
X44000000Y-65205000D03*
X67000000Y-66345000D03*
X57000000Y-66345000D03*
X62000000Y-68445000D03*
X85000000Y-63970000D03*
X75000000Y-63970000D03*
X80000000Y-66070000D03*
X103000000Y-66345000D03*
X93000000Y-66345000D03*
X98000000Y-68445000D03*
X139000000Y-84200000D03*
X129000000Y-84200000D03*
X134000000Y-82100000D03*
X103000000Y-78980000D03*
X93000000Y-78980000D03*
X98000000Y-76880000D03*
X121000000Y-68720000D03*
X111000000Y-68720000D03*
X116000000Y-70820000D03*
X121000000Y-81520000D03*
X111000000Y-81520000D03*
X116000000Y-79420000D03*
D11*
X127390000Y-70610000D03*
X127390000Y-64110000D03*
D12*
X138410000Y-56269620D03*
X138410000Y-57270380D03*
X135830000Y-57290380D03*
X135830000Y-56289620D03*
X133250000Y-56319620D03*
X133250000Y-57320380D03*
X130700000Y-57350000D03*
X130700000Y-56349240D03*
D13*
X138320000Y-59450000D03*
X135780000Y-59450000D03*
X133240000Y-59450000D03*
X130700000Y-59450000D03*
X108000000Y-65545000D03*
D14*
X108000000Y-59545000D03*
D15*
X127011400Y-26922000D03*
X127011400Y-29462000D03*
X127011400Y-32002000D03*
X127011400Y-34542000D03*
X127011400Y-37082000D03*
X127011400Y-39622000D03*
X127011400Y-42162000D03*
X127011400Y-44702000D03*
X127011400Y-47242000D03*
X127011400Y-49782000D03*
X127011400Y-52322000D03*
X127011400Y-54862000D03*
X142231400Y-54862000D03*
X142231400Y-52322000D03*
X142231400Y-49782000D03*
X142231400Y-47242000D03*
X142231400Y-44702000D03*
X142231400Y-42162000D03*
X142231400Y-39622000D03*
X142231400Y-37082000D03*
X142231400Y-34542000D03*
X142231400Y-32002000D03*
X142231400Y-29462000D03*
X142231400Y-26922000D03*
D16*
X131060000Y-66150000D03*
X132560000Y-70350000D03*
X136560000Y-70350000D03*
X139560000Y-70350000D03*
X136560000Y-64400000D03*
X139560000Y-64400000D03*
X131060000Y-68600000D03*
X132560000Y-64400000D03*
D13*
X52840000Y-38560000D03*
D14*
X52840000Y-32560000D03*
X71120000Y-22400000D03*
D13*
X71120000Y-28400000D03*
X88900000Y-28400000D03*
D14*
X88900000Y-22400000D03*
D13*
X105680000Y-32670000D03*
D14*
X106000000Y-26670000D03*
D13*
X107950000Y-30130000D03*
D14*
X107950000Y-24130000D03*
D13*
X53070000Y-51060000D03*
D14*
X53070000Y-45060000D03*
X71120000Y-40545000D03*
D13*
X71120000Y-46545000D03*
X88900000Y-44170000D03*
D14*
X88900000Y-38170000D03*
D13*
X106000000Y-50450000D03*
D14*
X106000000Y-44450000D03*
D13*
X108000000Y-46545000D03*
D14*
X108000000Y-40545000D03*
D13*
X52570000Y-68995000D03*
D14*
X52570000Y-62995000D03*
D13*
X71120000Y-65545000D03*
D14*
X71120000Y-59545000D03*
X88900000Y-55420000D03*
D13*
X88900000Y-61420000D03*
X106000000Y-68230000D03*
D14*
X106000000Y-62230000D03*
D13*
X88900000Y-85780000D03*
D14*
X88900000Y-79780000D03*
D13*
X106680000Y-87050000D03*
D14*
X106680000Y-81050000D03*
D13*
X124460000Y-88780000D03*
D14*
X124460000Y-82780000D03*
D17*
X134640000Y-53350000D03*
X134540000Y-56270000D03*
X129430000Y-52090000D03*
X128090000Y-53580000D03*
X134090000Y-54840000D03*
X134450000Y-61010000D03*
D18*
X52840000Y-32560000D02*
X52840000Y-30459666D01*
X60899666Y-22400000D02*
X70171500Y-22400000D01*
X52840000Y-30459666D02*
X60899666Y-22400000D01*
X70171500Y-22400000D02*
X71120000Y-22400000D01*
X72468801Y-22800301D02*
X72068500Y-22400000D01*
X104221801Y-25160301D02*
X90711801Y-25160301D01*
X105731500Y-26670000D02*
X104221801Y-25160301D01*
X72068500Y-22400000D02*
X71120000Y-22400000D01*
X88900000Y-22400000D02*
X88900000Y-22860000D01*
X106000000Y-25721500D02*
X106000000Y-26670000D01*
X106000000Y-25131500D02*
X106000000Y-25721500D01*
X107001500Y-24130000D02*
X106000000Y-25131500D01*
X107950000Y-24130000D02*
X107001500Y-24130000D01*
X110490000Y-24130000D02*
X107950000Y-24130000D01*
X88900000Y-23348500D02*
X88900000Y-22400000D01*
X90711801Y-25160301D02*
X89290750Y-23739250D01*
X89290750Y-23739250D02*
X88900000Y-23348500D01*
X87951500Y-22400000D02*
X87491500Y-22860000D01*
X88900000Y-22400000D02*
X87951500Y-22400000D01*
X87491500Y-22860000D02*
X74930000Y-22860000D01*
X74930000Y-22860000D02*
X72468801Y-22800301D01*
X108898500Y-24130000D02*
X107950000Y-24130000D01*
X116450334Y-24130000D02*
X108898500Y-24130000D01*
X122869335Y-30549001D02*
X116450334Y-24130000D01*
X129540771Y-30549001D02*
X122869335Y-30549001D01*
X141153770Y-42162000D02*
X129540771Y-30549001D01*
X142231400Y-42162000D02*
X141153770Y-42162000D01*
X102940000Y-38170000D02*
X88900000Y-38170000D01*
X87951500Y-38170000D02*
X84071500Y-34290000D01*
X88900000Y-38170000D02*
X87951500Y-38170000D01*
X84071500Y-34290000D02*
X72390000Y-34290000D01*
X71120000Y-35560000D02*
X71120000Y-40545000D01*
X72390000Y-34290000D02*
X71120000Y-35560000D01*
X54018500Y-45060000D02*
X53070000Y-45060000D01*
X55578001Y-43500499D02*
X54018500Y-45060000D01*
X67216001Y-43500499D02*
X55578001Y-43500499D01*
X70171500Y-40545000D02*
X67216001Y-43500499D01*
X71120000Y-40545000D02*
X70171500Y-40545000D01*
X108000000Y-40545000D02*
X108000000Y-44078500D01*
X108948500Y-40545000D02*
X108000000Y-40545000D01*
X119259046Y-40545000D02*
X108948500Y-40545000D01*
X121963047Y-43249001D02*
X119259046Y-40545000D01*
X140823401Y-43249001D02*
X121963047Y-43249001D01*
X142276400Y-44702000D02*
X140823401Y-43249001D01*
X106000000Y-41230000D02*
X106000000Y-44450000D01*
X105410000Y-40640000D02*
X106000000Y-41230000D01*
X105410000Y-40640000D02*
X102940000Y-38170000D01*
X107628500Y-44450000D02*
X108000000Y-44078500D01*
X106000000Y-44450000D02*
X107628500Y-44450000D01*
X51340000Y-38560000D02*
X49000000Y-40900000D01*
X52840000Y-38560000D02*
X51340000Y-38560000D01*
X49000000Y-40900000D02*
X39000000Y-40900000D01*
X89848500Y-55420000D02*
X88900000Y-55420000D01*
X98921500Y-55420000D02*
X89848500Y-55420000D01*
X105731500Y-62230000D02*
X98921500Y-55420000D01*
X53518500Y-62995000D02*
X52570000Y-62995000D01*
X54244401Y-63720901D02*
X53518500Y-62995000D01*
X57805637Y-63720901D02*
X54244401Y-63720901D01*
X61981538Y-59545000D02*
X57805637Y-63720901D01*
X71120000Y-59545000D02*
X61981538Y-59545000D01*
X87951500Y-55420000D02*
X85871500Y-53340000D01*
X88900000Y-55420000D02*
X87951500Y-55420000D01*
X71120000Y-58596500D02*
X71120000Y-59545000D01*
X71120000Y-58415954D02*
X71120000Y-58596500D01*
X76195954Y-53340000D02*
X71120000Y-58415954D01*
X85871500Y-53340000D02*
X76195954Y-53340000D01*
X109220000Y-57150000D02*
X108000000Y-58370000D01*
X108000000Y-58370000D02*
X108000000Y-59545000D01*
X121920000Y-57150000D02*
X109220000Y-57150000D01*
X124460000Y-57150000D02*
X121920000Y-57150000D01*
X106000000Y-61281500D02*
X106000000Y-62230000D01*
X107051500Y-59545000D02*
X106000000Y-60596500D01*
X106000000Y-60596500D02*
X106000000Y-61281500D01*
X108000000Y-59545000D02*
X107051500Y-59545000D01*
X136598000Y-47242000D02*
X126730000Y-57110000D01*
X142231400Y-47242000D02*
X136598000Y-47242000D01*
X126730000Y-57110000D02*
X121920000Y-57150000D01*
X67000000Y-32340000D02*
X57000000Y-32340000D01*
X71120000Y-28400000D02*
X67180000Y-32340000D01*
X67180000Y-32340000D02*
X67000000Y-32340000D01*
X89848500Y-79780000D02*
X88900000Y-79780000D01*
X95679501Y-73948999D02*
X89848500Y-79780000D01*
X123630000Y-60990000D02*
X123630000Y-70040000D01*
X119848999Y-73948999D02*
X95679501Y-73948999D01*
X123630000Y-70040000D02*
X119848999Y-73948999D01*
X134838000Y-49782000D02*
X123630000Y-60990000D01*
X142231400Y-49782000D02*
X134838000Y-49782000D01*
X86580000Y-28400000D02*
X85000000Y-29980000D01*
X88900000Y-28400000D02*
X86580000Y-28400000D01*
X85000000Y-29980000D02*
X75000000Y-29980000D01*
X103330000Y-32670000D02*
X103000000Y-32340000D01*
X103000000Y-32340000D02*
X93000000Y-32340000D01*
X105350000Y-32340000D02*
X105680000Y-32670000D01*
X103000000Y-32340000D02*
X105350000Y-32340000D01*
X112015999Y-33704001D02*
X111000000Y-34720000D01*
X119984001Y-33704001D02*
X112015999Y-33704001D01*
X121000000Y-34720000D02*
X119984001Y-33704001D01*
X107950000Y-31670000D02*
X111000000Y-34720000D01*
X107950000Y-30130000D02*
X107950000Y-31670000D01*
X53070000Y-51060000D02*
X53070000Y-54840000D01*
X49000000Y-57900000D02*
X39000000Y-57900000D01*
X51025999Y-56884001D02*
X53070000Y-54840000D01*
X50015999Y-56884001D02*
X51025999Y-56884001D01*
X49000000Y-57900000D02*
X50015999Y-56884001D01*
X69795000Y-46545000D02*
X67000000Y-49340000D01*
X71120000Y-46545000D02*
X69795000Y-46545000D01*
X67000000Y-49340000D02*
X57000000Y-49340000D01*
X87800000Y-44170000D02*
X85000000Y-46970000D01*
X88900000Y-44170000D02*
X87800000Y-44170000D01*
X75000000Y-46970000D02*
X85000000Y-46970000D01*
X103000000Y-49340000D02*
X93000000Y-49340000D01*
X104890000Y-49340000D02*
X106000000Y-50450000D01*
X103000000Y-49340000D02*
X104890000Y-49340000D01*
X108000000Y-48720000D02*
X111000000Y-51720000D01*
X108000000Y-46545000D02*
X108000000Y-48720000D01*
X119563160Y-51720000D02*
X111000000Y-51720000D01*
X121000000Y-51720000D02*
X119563160Y-51720000D01*
X39000000Y-67305000D02*
X49000000Y-67305000D01*
X50880000Y-67305000D02*
X52570000Y-68995000D01*
X49000000Y-67305000D02*
X50880000Y-67305000D01*
X67000000Y-66345000D02*
X57000000Y-66345000D01*
X71120000Y-65545000D02*
X67800000Y-65545000D01*
X67800000Y-65545000D02*
X67000000Y-66345000D01*
X85000000Y-63970000D02*
X75000000Y-63970000D01*
X88900000Y-61420000D02*
X87550000Y-61420000D01*
X87550000Y-61420000D02*
X85000000Y-63970000D01*
X103000000Y-66345000D02*
X93000000Y-66345000D01*
X104115000Y-66345000D02*
X103000000Y-66345000D01*
X106000000Y-68230000D02*
X104115000Y-66345000D01*
X111000000Y-68720000D02*
X108000000Y-65720000D01*
X108000000Y-65720000D02*
X108000000Y-65545000D01*
X121000000Y-68720000D02*
X111000000Y-68720000D01*
X103000000Y-78980000D02*
X93000000Y-78980000D01*
X93000000Y-78980000D02*
X90170000Y-81810000D01*
X90170000Y-84510000D02*
X88900000Y-85780000D01*
X90170000Y-81810000D02*
X90170000Y-84510000D01*
X121000000Y-81520000D02*
X111000000Y-81520000D01*
X106680000Y-85840000D02*
X106680000Y-87050000D01*
X111000000Y-81520000D02*
X106680000Y-85840000D01*
X139000000Y-84200000D02*
X129000000Y-84200000D01*
X124460000Y-88740000D02*
X124460000Y-88780000D01*
X129000000Y-84200000D02*
X124460000Y-88740000D01*
X128089030Y-29462000D02*
X127011400Y-29462000D01*
X138613770Y-29462000D02*
X128089030Y-29462000D01*
X141153770Y-32002000D02*
X138613770Y-29462000D01*
X142231400Y-32002000D02*
X141153770Y-32002000D01*
X130700000Y-55781740D02*
X130700000Y-56349240D01*
X133131740Y-53350000D02*
X130700000Y-55781740D01*
X134640000Y-53350000D02*
X133131740Y-53350000D01*
X134980000Y-64400000D02*
X133224990Y-62644990D01*
X136480000Y-64400000D02*
X134980000Y-64400000D01*
X132604990Y-62644990D02*
X132323295Y-62644990D01*
X133224990Y-62644990D02*
X132604990Y-62644990D01*
X127390000Y-67428285D02*
X127390000Y-70610000D01*
X132173295Y-62644990D02*
X127390000Y-67428285D01*
X132604990Y-62644990D02*
X132173295Y-62644990D01*
X133299620Y-56270000D02*
X133250000Y-56319620D01*
X134540000Y-56270000D02*
X133299620Y-56270000D01*
X44000000Y-43000000D02*
X49350000Y-43000000D01*
X50980000Y-43000000D02*
X44000000Y-43000000D01*
X60279835Y-26500499D02*
X53863501Y-32916833D01*
X66273547Y-26500499D02*
X60279835Y-26500499D01*
X80968462Y-24130000D02*
X68644046Y-24130000D01*
X104393835Y-27693501D02*
X103200833Y-26500499D01*
X68644046Y-24130000D02*
X66273547Y-26500499D01*
X53863501Y-32916833D02*
X53863501Y-40116499D01*
X115958183Y-27693501D02*
X104393835Y-27693501D01*
X84194363Y-27355901D02*
X80968462Y-24130000D01*
X53863501Y-40116499D02*
X50980000Y-43000000D01*
X86919835Y-26500499D02*
X86064433Y-27355901D01*
X103200833Y-26500499D02*
X86919835Y-26500499D01*
X122675901Y-34411219D02*
X115958183Y-27693501D01*
X86064433Y-27355901D02*
X84194363Y-27355901D01*
X127056400Y-39622000D02*
X122675901Y-35241501D01*
X122675901Y-35241501D02*
X122675901Y-34411219D01*
X63436840Y-34440000D02*
X62000000Y-34440000D01*
X73283681Y-33681001D02*
X64195839Y-33681001D01*
X76225683Y-30738999D02*
X73283681Y-33681001D01*
X80643681Y-30738999D02*
X76225683Y-30738999D01*
X93643681Y-33681001D02*
X83585683Y-33681001D01*
X64195839Y-33681001D02*
X63436840Y-34440000D01*
X98564682Y-33020000D02*
X94304682Y-33020000D01*
X101605683Y-36061001D02*
X98564682Y-33020000D01*
X111643681Y-36061001D02*
X101605683Y-36061001D01*
X112225683Y-35478999D02*
X111643681Y-36061001D01*
X116643681Y-35478999D02*
X112225683Y-35478999D01*
X123326682Y-42162000D02*
X116643681Y-35478999D01*
X83585683Y-33681001D02*
X80643681Y-30738999D01*
X94304682Y-33020000D02*
X93643681Y-33681001D01*
X127056400Y-42162000D02*
X123326682Y-42162000D01*
X85514782Y-49070000D02*
X80000000Y-49070000D01*
X91119501Y-43500499D02*
X90170000Y-44450000D01*
X99720165Y-43500499D02*
X91119501Y-43500499D01*
X102935567Y-46715901D02*
X99720165Y-43500499D01*
X127056400Y-44702000D02*
X126284899Y-45473501D01*
X106314317Y-46715901D02*
X102935567Y-46715901D01*
X90170000Y-44450000D02*
X85514782Y-49070000D01*
X107556717Y-45473501D02*
X106314317Y-46715901D01*
X126284899Y-45473501D02*
X107556717Y-45473501D01*
X129430000Y-52200000D02*
X128000000Y-53630000D01*
X129430000Y-52090000D02*
X129430000Y-52200000D01*
X143318401Y-40709001D02*
X143318401Y-55383761D01*
X142231400Y-39622000D02*
X143318401Y-40709001D01*
X143318400Y-55421600D02*
X143318400Y-55410000D01*
X142790999Y-55949001D02*
X143318400Y-55421600D01*
X140540999Y-55949001D02*
X142790999Y-55949001D01*
X134380380Y-54840000D02*
X135830000Y-56289620D01*
X134090000Y-54840000D02*
X134380380Y-54840000D01*
X133705000Y-54455000D02*
X134090000Y-54840000D01*
X133710000Y-54460000D02*
X133705000Y-54455000D01*
X134025000Y-54145000D02*
X133710000Y-54460000D01*
X134785000Y-54145000D02*
X134025000Y-54145000D01*
X135255001Y-53674999D02*
X134785000Y-54145000D01*
X138334999Y-53674999D02*
X135255001Y-53674999D01*
X140540999Y-55880999D02*
X138334999Y-53674999D01*
X142231400Y-37082000D02*
X143768410Y-38619010D01*
X143768410Y-55958410D02*
X141816820Y-57910000D01*
X143768410Y-38619010D02*
X143768410Y-55958410D01*
X141816820Y-57910000D02*
X141816820Y-59303180D01*
X137296499Y-56561621D02*
X137588500Y-56269620D01*
X137296499Y-59448283D02*
X137296499Y-56561621D01*
X136271281Y-60473501D02*
X137296499Y-59448283D01*
X134562235Y-60473501D02*
X136271281Y-60473501D01*
X137588500Y-56269620D02*
X138410000Y-56269620D01*
X134450000Y-60585736D02*
X134562235Y-60473501D01*
X134450000Y-61010000D02*
X134450000Y-60585736D01*
X134450000Y-61010000D02*
X135480000Y-62040000D01*
X139080000Y-62040000D02*
X141800000Y-59320000D01*
X135480000Y-62040000D02*
X139080000Y-62040000D01*
X141800000Y-59320000D02*
X140110000Y-61010000D01*
X141816820Y-59303180D02*
X141800000Y-59320000D01*
X130700000Y-57350000D02*
X130700000Y-59450000D01*
X133250000Y-59440000D02*
X133240000Y-59450000D01*
X133250000Y-57320380D02*
X133250000Y-59440000D01*
X138410000Y-59360000D02*
X138320000Y-59450000D01*
X138410000Y-57270380D02*
X138410000Y-59360000D01*
X135830000Y-59400000D02*
X135780000Y-59450000D01*
X135830000Y-57290380D02*
X135830000Y-59400000D01*
M02*
