G04 #@! TF.GenerationSoftware,KiCad,Pcbnew,(5.1.4-0-10_14)*
G04 #@! TF.CreationDate,2020-06-25T09:28:44+01:00*
G04 #@! TF.ProjectId,crabby,63726162-6279-42e6-9b69-6361645f7063,2.1*
G04 #@! TF.SameCoordinates,Original*
G04 #@! TF.FileFunction,Copper,L1,Top*
G04 #@! TF.FilePolarity,Positive*
%FSLAX46Y46*%
G04 Gerber Fmt 4.6, Leading zero omitted, Abs format (unit mm)*
G04 Created by KiCad (PCBNEW (5.1.4-0-10_14)) date 2020-06-25 09:28:44*
%MOMM*%
%LPD*%
G04 APERTURE LIST*
%ADD10C,2.032000*%
%ADD11C,2.000000*%
%ADD12C,1.397000*%
%ADD13R,1.143000X0.635000*%
%ADD14R,1.397000X1.397000*%
%ADD15C,1.524000*%
%ADD16O,2.500000X1.700000*%
%ADD17C,0.600000*%
%ADD18C,0.250000*%
G04 APERTURE END LIST*
D10*
X49000000Y-40900000D03*
X39000000Y-40900000D03*
X44000000Y-43000000D03*
X67000000Y-32340000D03*
X57000000Y-32340000D03*
X62000000Y-34440000D03*
X85000000Y-29980000D03*
X75000000Y-29980000D03*
X80000000Y-32080000D03*
X103000000Y-32340000D03*
X93000000Y-32340000D03*
X98000000Y-34440000D03*
X121000000Y-34720000D03*
X111000000Y-34720000D03*
X116000000Y-36820000D03*
X49000000Y-57900000D03*
X39000000Y-57900000D03*
X44000000Y-60000000D03*
X67000000Y-49340000D03*
X57000000Y-49340000D03*
X62000000Y-51440000D03*
X85000000Y-46970000D03*
X75000000Y-46970000D03*
X80000000Y-49070000D03*
X103000000Y-49340000D03*
X93000000Y-49340000D03*
X98000000Y-51440000D03*
X121000000Y-51720000D03*
X111000000Y-51720000D03*
X116000000Y-53820000D03*
X49000000Y-67305000D03*
X39000000Y-67305000D03*
X44000000Y-65205000D03*
X67000000Y-66345000D03*
X57000000Y-66345000D03*
X62000000Y-68445000D03*
X85000000Y-63970000D03*
X75000000Y-63970000D03*
X80000000Y-66070000D03*
X103000000Y-66345000D03*
X93000000Y-66345000D03*
X98000000Y-68445000D03*
X139000000Y-84200000D03*
X129000000Y-84200000D03*
X134000000Y-82100000D03*
X103000000Y-78980000D03*
X93000000Y-78980000D03*
X98000000Y-76880000D03*
X121000000Y-68720000D03*
X111000000Y-68720000D03*
X116000000Y-70820000D03*
X121000000Y-81520000D03*
X111000000Y-81520000D03*
X116000000Y-79420000D03*
D11*
X127390000Y-70610000D03*
X127390000Y-64110000D03*
D12*
X138320000Y-59450000D03*
X135780000Y-59450000D03*
X133240000Y-59450000D03*
X130700000Y-59450000D03*
D13*
X138410000Y-56280000D03*
X138410000Y-57280760D03*
X135840000Y-57290380D03*
X135840000Y-56289620D03*
X133240000Y-56309620D03*
X133240000Y-57310380D03*
X130700000Y-57340380D03*
X130700000Y-56339620D03*
D12*
X108000000Y-65545000D03*
D14*
X108000000Y-59545000D03*
D15*
X127011400Y-26922000D03*
X127011400Y-29462000D03*
X127011400Y-32002000D03*
X127011400Y-34542000D03*
X127011400Y-37082000D03*
X127011400Y-39622000D03*
X127011400Y-42162000D03*
X127011400Y-44702000D03*
X127011400Y-47242000D03*
X127011400Y-49782000D03*
X127011400Y-52322000D03*
X127011400Y-54862000D03*
X142231400Y-54862000D03*
X142231400Y-52322000D03*
X142231400Y-49782000D03*
X142231400Y-47242000D03*
X142231400Y-44702000D03*
X142231400Y-42162000D03*
X142231400Y-39622000D03*
X142231400Y-37082000D03*
X142231400Y-34542000D03*
X142231400Y-32002000D03*
X142231400Y-29462000D03*
X142231400Y-26922000D03*
D16*
X131060000Y-66150000D03*
X132560000Y-70350000D03*
X136560000Y-70350000D03*
X139560000Y-70350000D03*
X136560000Y-64400000D03*
X139560000Y-64400000D03*
X131060000Y-68600000D03*
X132560000Y-64400000D03*
D12*
X52840000Y-38560000D03*
D14*
X52840000Y-32560000D03*
X71120000Y-22400000D03*
D12*
X71120000Y-28400000D03*
X88900000Y-28400000D03*
D14*
X88900000Y-22400000D03*
D12*
X105680000Y-32670000D03*
D14*
X106000000Y-26670000D03*
D12*
X107950000Y-30130000D03*
D14*
X107950000Y-24130000D03*
D12*
X53070000Y-51060000D03*
D14*
X53070000Y-45060000D03*
X71120000Y-40545000D03*
D12*
X71120000Y-46545000D03*
X88900000Y-44170000D03*
D14*
X88900000Y-38170000D03*
D12*
X106000000Y-50450000D03*
D14*
X106000000Y-44450000D03*
D12*
X108000000Y-46545000D03*
D14*
X108000000Y-40545000D03*
D12*
X52570000Y-68995000D03*
D14*
X52570000Y-62995000D03*
D12*
X71120000Y-65545000D03*
D14*
X71120000Y-59545000D03*
X88900000Y-55420000D03*
D12*
X88900000Y-61420000D03*
X106000000Y-68230000D03*
D14*
X106000000Y-62230000D03*
D12*
X88900000Y-85780000D03*
D14*
X88900000Y-79780000D03*
D12*
X106680000Y-87050000D03*
D14*
X106680000Y-81050000D03*
D12*
X124460000Y-88780000D03*
D14*
X124460000Y-82780000D03*
D17*
X134640000Y-53350000D03*
X134540000Y-56270000D03*
X129430000Y-52090000D03*
X128090000Y-53580000D03*
X134090000Y-54840000D03*
X134450000Y-61010000D03*
D18*
X105731500Y-81050000D02*
X106680000Y-81050000D01*
X105002501Y-80321001D02*
X105731500Y-81050000D01*
X89848500Y-79780000D02*
X90389501Y-80321001D01*
X90389501Y-80321001D02*
X105002501Y-80321001D01*
X88900000Y-79780000D02*
X89848500Y-79780000D01*
X109858999Y-83280499D02*
X123011001Y-83280499D01*
X123511500Y-82780000D02*
X124460000Y-82780000D01*
X107628500Y-81050000D02*
X109858999Y-83280499D01*
X123011001Y-83280499D02*
X123511500Y-82780000D01*
X106680000Y-81050000D02*
X107628500Y-81050000D01*
X142276400Y-34542000D02*
X142276400Y-32983600D01*
X142276400Y-32983600D02*
X142276400Y-33272000D01*
X142276400Y-32002000D02*
X142276400Y-32983600D01*
X142231400Y-34542000D02*
X140970000Y-35803400D01*
X140290000Y-53350000D02*
X140980000Y-52660000D01*
X134640000Y-53350000D02*
X140290000Y-53350000D01*
X140970000Y-35803400D02*
X140980000Y-52660000D01*
X137570000Y-56280000D02*
X138410000Y-56280000D01*
X134640000Y-53350000D02*
X137570000Y-56280000D01*
X136480000Y-64400000D02*
X136480000Y-70350000D01*
X140210000Y-56710000D02*
X140970000Y-55950000D01*
X140970000Y-55950000D02*
X140980000Y-52660000D01*
X136480000Y-63300000D02*
X140210000Y-59570000D01*
X140210000Y-59570000D02*
X140210000Y-56710000D01*
X136480000Y-64400000D02*
X136480000Y-63300000D01*
X127056400Y-34542000D02*
X128134030Y-34542000D01*
X128270000Y-34722970D02*
X128270000Y-52070000D01*
X128089030Y-34542000D02*
X128270000Y-34722970D01*
X127011400Y-34542000D02*
X128089030Y-34542000D01*
X134559620Y-56289620D02*
X134540000Y-56270000D01*
X135840000Y-56289620D02*
X134559620Y-56289620D01*
X134839999Y-54664997D02*
X134839999Y-55970001D01*
X134839999Y-55970001D02*
X134540000Y-56270000D01*
X133620001Y-53444999D02*
X134839999Y-54664997D01*
X129644999Y-53444999D02*
X133620001Y-53444999D01*
X128270000Y-52070000D02*
X128540000Y-52340000D01*
X128540000Y-52340000D02*
X129450000Y-53250000D01*
X129450000Y-53250000D02*
X129644999Y-53444999D01*
X132810000Y-63820000D02*
X133210000Y-63820000D01*
X132080000Y-64400000D02*
X132480000Y-64400000D01*
X129175000Y-61495000D02*
X132080000Y-64400000D01*
X129175000Y-53525000D02*
X129175000Y-61495000D01*
X129450000Y-53250000D02*
X129175000Y-53525000D01*
X132560000Y-69250000D02*
X132560000Y-70350000D01*
X132560000Y-65500000D02*
X132635010Y-65575010D01*
X132635010Y-69174990D02*
X132560000Y-69250000D01*
X132635010Y-65575010D02*
X132635010Y-69174990D01*
X132560000Y-64400000D02*
X132560000Y-65500000D01*
X45015999Y-59994001D02*
X44000000Y-61010000D01*
X46039501Y-59397339D02*
X46039501Y-58739501D01*
X46039501Y-58739501D02*
X46039501Y-58970499D01*
X45436840Y-60000000D02*
X46039501Y-59397339D01*
X44000000Y-60000000D02*
X45436840Y-60000000D01*
X46039501Y-46049501D02*
X46039501Y-58100499D01*
X46039501Y-59397339D02*
X46039501Y-58100499D01*
X46039501Y-58100499D02*
X46039501Y-58739501D01*
X46039501Y-45039501D02*
X44000000Y-43000000D01*
X46039501Y-46049501D02*
X46039501Y-45039501D01*
X44000000Y-60000000D02*
X44000000Y-61436840D01*
X44000000Y-60000000D02*
X44000000Y-65205000D01*
X64770000Y-37210000D02*
X63015999Y-35455999D01*
X63015999Y-35455999D02*
X62000000Y-34440000D01*
X64770000Y-48670000D02*
X64770000Y-37210000D01*
X62000000Y-51440000D02*
X64770000Y-48670000D01*
X64587500Y-52590660D02*
X64587500Y-65857500D01*
X62000000Y-51440000D02*
X63436840Y-51440000D01*
X63436840Y-51440000D02*
X64587500Y-52590660D01*
X62000000Y-68445000D02*
X64587500Y-65857500D01*
X82039501Y-34119501D02*
X81015999Y-33095999D01*
X81015999Y-33095999D02*
X80000000Y-32080000D01*
X82039501Y-47030499D02*
X82039501Y-34119501D01*
X80000000Y-49070000D02*
X82039501Y-47030499D01*
X80000000Y-49070000D02*
X82550000Y-51620000D01*
X82550000Y-63520000D02*
X80000000Y-66070000D01*
X82550000Y-51620000D02*
X82550000Y-63520000D01*
X87190000Y-66070000D02*
X98000000Y-76880000D01*
X80000000Y-66070000D02*
X87190000Y-66070000D01*
X99015999Y-35455999D02*
X98000000Y-34440000D01*
X100039501Y-36479501D02*
X99015999Y-35455999D01*
X100039501Y-49400499D02*
X100039501Y-36479501D01*
X98000000Y-51440000D02*
X100039501Y-49400499D01*
X98000000Y-51440000D02*
X100330000Y-53770000D01*
X100330000Y-66115000D02*
X98000000Y-68445000D01*
X100330000Y-53770000D02*
X100330000Y-66115000D01*
X127011400Y-47242000D02*
X125730000Y-45720000D01*
X98000000Y-68445000D02*
X105582500Y-76027500D01*
X99436840Y-34440000D02*
X98000000Y-34440000D01*
X105424782Y-34440000D02*
X99436840Y-34440000D01*
X106485783Y-33378999D02*
X105424782Y-34440000D01*
X124818999Y-33378999D02*
X106485783Y-33378999D01*
X125730000Y-34290000D02*
X124818999Y-33378999D01*
X125730000Y-45720000D02*
X125730000Y-34290000D01*
X98000000Y-68445000D02*
X107475000Y-77920000D01*
X108975000Y-79420000D02*
X116000000Y-79420000D01*
X98000000Y-68445000D02*
X108975000Y-79420000D01*
X118039501Y-68780499D02*
X118039501Y-55809501D01*
X116000000Y-70820000D02*
X118039501Y-68780499D01*
X117989501Y-55809501D02*
X116000000Y-53820000D01*
X118039501Y-55809501D02*
X117989501Y-55809501D01*
X118060000Y-55880000D02*
X116000000Y-53820000D01*
X116000000Y-36820000D02*
X121910000Y-36820000D01*
X121910000Y-36820000D02*
X124460000Y-39370000D01*
X126294401Y-49020001D02*
X127056400Y-49782000D01*
X125924399Y-48694999D02*
X125969399Y-48694999D01*
X125969399Y-48694999D02*
X126294401Y-49020001D01*
X124460000Y-39370000D02*
X124460000Y-47230600D01*
X124460000Y-47230600D02*
X125924399Y-48694999D01*
X117015999Y-52804001D02*
X116000000Y-53820000D01*
X118039501Y-51780499D02*
X117015999Y-52804001D01*
X118039501Y-38859501D02*
X118039501Y-51780499D01*
X116000000Y-36820000D02*
X118039501Y-38859501D01*
X132563160Y-82100000D02*
X134000000Y-82100000D01*
X125843160Y-82100000D02*
X132563160Y-82100000D01*
X116000000Y-72256840D02*
X125843160Y-82100000D01*
X116000000Y-70820000D02*
X116000000Y-72256840D01*
X142231400Y-29462000D02*
X143510000Y-30740600D01*
X139480000Y-64400000D02*
X139480000Y-70350000D01*
X143510000Y-59090000D02*
X139480000Y-63120000D01*
X139480000Y-63120000D02*
X139480000Y-64400000D01*
X143510000Y-30740600D02*
X143510000Y-59090000D01*
X129430000Y-34420600D02*
X129430000Y-52090000D01*
X127011400Y-32002000D02*
X129430000Y-34420600D01*
X128449999Y-54364263D02*
X128449999Y-62690001D01*
X128090000Y-54004264D02*
X128449999Y-54364263D01*
X128090000Y-53580000D02*
X128090000Y-54004264D01*
X128449999Y-63050001D02*
X127390000Y-64110000D01*
X128449999Y-62690001D02*
X128449999Y-63050001D01*
X134090000Y-55459620D02*
X133240000Y-56309620D01*
X134090000Y-54840000D02*
X134090000Y-55459620D01*
X129676499Y-56541621D02*
X129878500Y-56339620D01*
X129878500Y-56339620D02*
X130700000Y-56339620D01*
X129676499Y-59941281D02*
X129676499Y-56541621D01*
X130745218Y-61010000D02*
X129676499Y-59941281D01*
X134450000Y-61010000D02*
X130745218Y-61010000D01*
X130700000Y-57340380D02*
X130700000Y-59450000D01*
X130980000Y-66150000D02*
X130980000Y-68600000D01*
X133240000Y-57310380D02*
X133240000Y-59450000D01*
X138410000Y-59360000D02*
X138320000Y-59450000D01*
X138410000Y-57280760D02*
X138410000Y-59360000D01*
X135840000Y-59390000D02*
X135780000Y-59450000D01*
X135840000Y-57290380D02*
X135840000Y-59390000D01*
M02*
