M48
; DRILL file {KiCad 5.1.6} date Tue Sep  8 13:44:13 2020
; FORMAT={-:-/ absolute / inch / decimal}
; #@! TF.CreationDate,2020-09-08T13:44:13+01:00
; #@! TF.GenerationSoftware,Kicad,Pcbnew,5.1.6
; #@! TF.FileFunction,Plated,1,2,PTH
FMAT,2
INCH
T1C0.0157
T2C0.0320
T3C0.0394
T4C0.0433
T5C0.0512
%
G90
G05
T1
X4.2631Y-2.2999
X5.3812Y-2.2013
X5.477Y-2.2757
T2
X5.0044Y-1.45
X5.0044Y-1.55
X5.0044Y-1.65
X5.0044Y-1.75
X5.0044Y-1.85
X5.0044Y-1.95
X5.0044Y-2.05
X5.0044Y-2.15
X5.0044Y-2.25
X5.0044Y-2.35
X5.0044Y-2.45
X5.0044Y-2.55
X5.6036Y-1.45
X5.6036Y-1.55
X5.6036Y-1.65
X5.6036Y-1.75
X5.6036Y-1.85
X5.6036Y-1.95
X5.6036Y-2.05
X5.6036Y-2.15
X5.6036Y-2.25
X5.6036Y-2.35
X5.6036Y-2.45
X5.6036Y-2.55
T4
X4.0868Y-3.4007
X4.1821Y-3.0237
X4.2842Y-3.0297
X4.4393Y-3.0571
X4.4978Y-3.4732
X4.5372Y-3.0863
X1.5236Y-1.2736
X1.552Y-1.6614
X1.6535Y-1.6732
X1.811Y-1.6732
X1.9126Y-1.6614
X1.9409Y-1.2736
X2.2323Y-1.6059
X2.2606Y-1.9937
X2.3622Y-2.0055
X2.5197Y-2.0055
X2.6213Y-1.9937
X2.6496Y-1.6059
X4.8175Y-3.5879
X5.036Y-3.2663
X5.1298Y-3.3068
X5.1789Y-3.7966
X5.2662Y-3.3856
X5.3483Y-3.4466
X1.5236Y-2.6124
X1.552Y-3.0002
X1.6535Y-3.012
X1.811Y-3.012
X1.9126Y-3.0002
X1.9409Y-2.6124
X3.6496Y-1.6059
X3.678Y-1.9937
X3.7795Y-2.0055
X3.937Y-2.0055
X4.0386Y-1.9937
X4.0669Y-1.6059
X2.9409Y-0.8043
X2.9693Y-1.1921
X3.0709Y-1.2039
X3.2283Y-1.2039
X3.3299Y-1.1921
X3.3583Y-0.8043
X4.3583Y-1.0303
X4.3866Y-1.4181
X4.4882Y-1.4299
X4.6457Y-1.4299
X4.7472Y-1.4181
X4.7756Y-1.0303
X2.9409Y-2.1425
X2.9693Y-2.5303
X3.0709Y-2.5421
X3.2283Y-2.5421
X3.3299Y-2.5303
X3.3583Y-2.1425
X3.6496Y-0.9366
X3.678Y-1.3244
X3.7795Y-1.3362
X3.937Y-1.3362
X4.0386Y-1.3244
X4.0669Y-0.9366
X4.3583Y-1.6996
X4.3866Y-2.0874
X4.4882Y-2.0992
X4.6457Y-2.0992
X4.7472Y-2.0874
X4.7756Y-1.6996
X4.3583Y-2.3689
X4.3866Y-2.7567
X4.4882Y-2.7685
X4.6457Y-2.7685
X4.7472Y-2.7567
X4.7756Y-2.3689
X2.2323Y-0.9366
X2.2606Y-1.3244
X2.3622Y-1.3362
X2.5197Y-1.3362
X2.6213Y-1.3244
X2.6496Y-0.9366
X3.6496Y-2.2754
X3.678Y-2.6632
X3.7795Y-2.675
X3.937Y-2.675
X4.0386Y-2.6632
X4.0669Y-2.2754
X2.2323Y-2.2754
X2.2606Y-2.6632
X2.3622Y-2.675
X2.5197Y-2.675
X2.6213Y-2.6632
X2.6496Y-2.2754
X1.5236Y-1.9429
X1.552Y-2.3307
X1.6535Y-2.3425
X1.811Y-2.3425
X1.9126Y-2.3307
X1.9409Y-1.9429
X2.9409Y-1.4732
X2.9693Y-1.861
X3.0709Y-1.8728
X3.2283Y-1.8728
X3.3299Y-1.861
X3.3583Y-1.4732
T5
X5.162Y-2.68
X5.418Y-2.68
T3
G00X5.1253Y-2.8646
M15
G01X5.1056Y-2.8646
M16
G05
G00X5.1253Y-2.961
M15
G01X5.1056Y-2.961
M16
G05
G00X5.1843Y-2.7957
M15
G01X5.1646Y-2.7957
M16
G05
G00X5.1843Y-3.0299
M15
G01X5.1646Y-3.0299
M16
G05
G00X5.3418Y-2.7957
M15
G01X5.3221Y-2.7957
M16
G05
G00X5.3418Y-3.0299
M15
G01X5.3221Y-3.0299
M16
G05
G00X5.4599Y-2.7957
M15
G01X5.4402Y-2.7957
M16
G05
G00X5.4599Y-3.0299
M15
G01X5.4402Y-3.0299
M16
G05
T0
M30
