G04 #@! TF.GenerationSoftware,KiCad,Pcbnew,5.1.6*
G04 #@! TF.CreationDate,2020-09-08T13:44:10+01:00*
G04 #@! TF.ProjectId,cradio-pg1232,63726164-696f-42d7-9067-313233322e6b,2.1*
G04 #@! TF.SameCoordinates,Original*
G04 #@! TF.FileFunction,Copper,L2,Bot*
G04 #@! TF.FilePolarity,Positive*
%FSLAX46Y46*%
G04 Gerber Fmt 4.6, Leading zero omitted, Abs format (unit mm)*
G04 Created by KiCad (PCBNEW 5.1.6) date 2020-09-08 13:44:10*
%MOMM*%
%LPD*%
G01*
G04 APERTURE LIST*
G04 #@! TA.AperFunction,ComponentPad*
%ADD10C,1.600000*%
G04 #@! TD*
G04 #@! TA.AperFunction,ComponentPad*
%ADD11C,1.524000*%
G04 #@! TD*
G04 #@! TA.AperFunction,ComponentPad*
%ADD12C,2.000000*%
G04 #@! TD*
G04 #@! TA.AperFunction,ComponentPad*
%ADD13O,2.500000X1.700000*%
G04 #@! TD*
G04 #@! TA.AperFunction,ViaPad*
%ADD14C,0.600000*%
G04 #@! TD*
G04 #@! TA.AperFunction,Conductor*
%ADD15C,0.250000*%
G04 #@! TD*
G04 APERTURE END LIST*
D10*
X135846396Y-87543270D03*
X130297949Y-83993463D03*
X127913604Y-82963270D03*
X133762051Y-85993463D03*
X131544935Y-96433621D03*
X122365065Y-91133621D03*
X115246025Y-78392789D03*
X108818085Y-76954742D03*
X106225186Y-76802172D03*
X112757316Y-77649334D03*
X114244652Y-88218172D03*
X103805690Y-86377501D03*
X120580000Y-70020000D03*
X114000000Y-70320000D03*
X111420000Y-70020000D03*
X118000000Y-70320000D03*
X121300000Y-60170000D03*
X110700000Y-60170000D03*
X102580000Y-67645000D03*
X96000000Y-67945000D03*
X93420000Y-67645000D03*
X100000000Y-67945000D03*
X103300000Y-57795000D03*
X92700000Y-57795000D03*
X84580000Y-64270000D03*
X78000000Y-64570000D03*
X75420000Y-64270000D03*
X82000000Y-64570000D03*
X85300000Y-54420000D03*
X74700000Y-54420000D03*
X66580000Y-67645000D03*
X60000000Y-67945000D03*
X57420000Y-67645000D03*
X64000000Y-67945000D03*
X67300000Y-57795000D03*
X56700000Y-57795000D03*
X48580000Y-76205000D03*
X42000000Y-76505000D03*
X39420000Y-76205000D03*
X46000000Y-76505000D03*
X49300000Y-66355000D03*
X38700000Y-66355000D03*
X120580000Y-53020000D03*
X114000000Y-53320000D03*
X111420000Y-53020000D03*
X118000000Y-53320000D03*
X121300000Y-43170000D03*
X110700000Y-43170000D03*
X102580000Y-50640000D03*
X96000000Y-50940000D03*
X93420000Y-50640000D03*
X100000000Y-50940000D03*
X103300000Y-40790000D03*
X92700000Y-40790000D03*
X84580000Y-47270000D03*
X78000000Y-47570000D03*
X75420000Y-47270000D03*
X82000000Y-47570000D03*
X85300000Y-37420000D03*
X74700000Y-37420000D03*
X66580000Y-50640000D03*
X60000000Y-50940000D03*
X57420000Y-50640000D03*
X64000000Y-50940000D03*
X67300000Y-40790000D03*
X56700000Y-40790000D03*
X48580000Y-59200000D03*
X42000000Y-59500000D03*
X39420000Y-59200000D03*
X46000000Y-59500000D03*
X49300000Y-49350000D03*
X38700000Y-49350000D03*
X120580000Y-36020000D03*
X114000000Y-36320000D03*
X111420000Y-36020000D03*
X118000000Y-36320000D03*
X121300000Y-26170000D03*
X110700000Y-26170000D03*
X102580000Y-33640000D03*
X96000000Y-33940000D03*
X93420000Y-33640000D03*
X100000000Y-33940000D03*
X103300000Y-23790000D03*
X92700000Y-23790000D03*
X84580000Y-30280000D03*
X78000000Y-30580000D03*
X75420000Y-30280000D03*
X82000000Y-30580000D03*
X85300000Y-20430000D03*
X74700000Y-20430000D03*
X48580000Y-42200000D03*
X42000000Y-42500000D03*
X39420000Y-42200000D03*
X46000000Y-42500000D03*
X49300000Y-32350000D03*
X38700000Y-32350000D03*
X66580000Y-33640000D03*
X60000000Y-33940000D03*
X57420000Y-33640000D03*
X64000000Y-33940000D03*
X67300000Y-23790000D03*
X56700000Y-23790000D03*
D11*
X127111400Y-36830000D03*
X127111400Y-39370000D03*
X127111400Y-41910000D03*
X127111400Y-44450000D03*
X127111400Y-46990000D03*
X127111400Y-49530000D03*
X127111400Y-52070000D03*
X127111400Y-54610000D03*
X127111400Y-57150000D03*
X127111400Y-59690000D03*
X127111400Y-62230000D03*
X127111400Y-64770000D03*
X142331400Y-64770000D03*
X142331400Y-62230000D03*
X142331400Y-59690000D03*
X142331400Y-57150000D03*
X142331400Y-54610000D03*
X142331400Y-52070000D03*
X142331400Y-49530000D03*
X142331400Y-46990000D03*
X142331400Y-44450000D03*
X142331400Y-41910000D03*
X142331400Y-39370000D03*
X142331400Y-36830000D03*
D12*
X137616000Y-68072000D03*
X131116000Y-68072000D03*
D13*
X129932000Y-72760000D03*
X131432000Y-76960000D03*
X135432000Y-76960000D03*
X138432000Y-76960000D03*
X135432000Y-71010000D03*
X138432000Y-71010000D03*
X129932000Y-75210000D03*
X131432000Y-71010000D03*
D14*
X136682900Y-55912300D03*
X108283400Y-58417000D03*
X139115500Y-57803700D03*
D15*
X84580000Y-64270000D02*
X83089600Y-65760400D01*
X83089600Y-65760400D02*
X76910400Y-65760400D01*
X76910400Y-65760400D02*
X75420000Y-64270000D01*
X136682900Y-55912300D02*
X136682900Y-56255400D01*
X136682900Y-56255400D02*
X140117500Y-59690000D01*
X140117500Y-59690000D02*
X142331400Y-59690000D01*
X120580000Y-37481500D02*
X120580000Y-36020000D01*
X127111400Y-46990000D02*
X120580000Y-40458600D01*
X120580000Y-40458600D02*
X120580000Y-37481500D01*
X111420000Y-36020000D02*
X112881500Y-37481500D01*
X112881500Y-37481500D02*
X120580000Y-37481500D01*
X89848700Y-34811300D02*
X89848700Y-33955800D01*
X89848700Y-33955800D02*
X85043400Y-29150500D01*
X85043400Y-29150500D02*
X83429500Y-29150500D01*
X83429500Y-29150500D02*
X82000000Y-30580000D01*
X88508700Y-45559300D02*
X88508700Y-36151300D01*
X88508700Y-36151300D02*
X89848700Y-34811300D01*
X89848700Y-34811300D02*
X95128700Y-34811300D01*
X95128700Y-34811300D02*
X96000000Y-33940000D01*
X88508700Y-45559300D02*
X84010700Y-45559300D01*
X84010700Y-45559300D02*
X82000000Y-47570000D01*
X96000000Y-50940000D02*
X94115700Y-49055700D01*
X94115700Y-49055700D02*
X92005100Y-49055700D01*
X92005100Y-49055700D02*
X88508700Y-45559300D01*
X55186400Y-51805900D02*
X55186400Y-51686400D01*
X55186400Y-51686400D02*
X46000000Y-42500000D01*
X52719900Y-58027900D02*
X55186400Y-55561400D01*
X55186400Y-55561400D02*
X55186400Y-51805900D01*
X55186400Y-51805900D02*
X59134100Y-51805900D01*
X59134100Y-51805900D02*
X60000000Y-50940000D01*
X46000000Y-59500000D02*
X47472100Y-58027900D01*
X47472100Y-58027900D02*
X52719900Y-58027900D01*
X56439700Y-66474900D02*
X52719900Y-62755100D01*
X52719900Y-62755100D02*
X52719900Y-58027900D01*
X112757300Y-76954700D02*
X112757300Y-71562700D01*
X112757300Y-71562700D02*
X114000000Y-70320000D01*
X112757300Y-77649300D02*
X112757300Y-76954700D01*
X112757300Y-76954700D02*
X108818100Y-76954700D01*
X108818100Y-76954700D02*
X100000000Y-68136600D01*
X100000000Y-68136600D02*
X100000000Y-67945000D01*
X56439700Y-66474900D02*
X54910700Y-68003900D01*
X54910700Y-68003900D02*
X54910700Y-69687600D01*
X54910700Y-69687600D02*
X49977600Y-74620700D01*
X49977600Y-74620700D02*
X47884300Y-74620700D01*
X47884300Y-74620700D02*
X46000000Y-76505000D01*
X60000000Y-67945000D02*
X58529900Y-66474900D01*
X58529900Y-66474900D02*
X56439700Y-66474900D01*
X135432000Y-76960000D02*
X135432000Y-78135300D01*
X135432000Y-78135300D02*
X125815300Y-78135300D01*
X125815300Y-78135300D02*
X118000000Y-70320000D01*
X135432000Y-76960000D02*
X135432000Y-71010000D01*
X82000000Y-64570000D02*
X83464400Y-63105600D01*
X83464400Y-63105600D02*
X86938200Y-63105600D01*
X86938200Y-63105600D02*
X89893300Y-66060700D01*
X89893300Y-66060700D02*
X94115700Y-66060700D01*
X94115700Y-66060700D02*
X96000000Y-67945000D01*
X142331400Y-41910000D02*
X142331400Y-44450000D01*
X135432000Y-84323514D02*
X133762051Y-85993463D01*
X135432000Y-76960000D02*
X135432000Y-84323514D01*
X131762051Y-83993463D02*
X133762051Y-85993463D01*
X130297949Y-83993463D02*
X131762051Y-83993463D01*
X131432000Y-71010000D02*
X131432000Y-69834700D01*
X131432000Y-69834700D02*
X130991300Y-69834700D01*
X130991300Y-69834700D02*
X128750700Y-67594100D01*
X128750700Y-67594100D02*
X128750700Y-46089300D01*
X128750700Y-46089300D02*
X127111400Y-44450000D01*
X127111400Y-49530000D02*
X122001400Y-44420000D01*
X122001400Y-44420000D02*
X115617700Y-44420000D01*
X115617700Y-44420000D02*
X104837700Y-33640000D01*
X104837700Y-33640000D02*
X102580000Y-33640000D01*
X75420000Y-30280000D02*
X76928300Y-31788300D01*
X76928300Y-31788300D02*
X83071700Y-31788300D01*
X83071700Y-31788300D02*
X84580000Y-30280000D01*
X66580000Y-50640000D02*
X69234600Y-53294600D01*
X69234600Y-53294600D02*
X103161000Y-53294600D01*
X103161000Y-53294600D02*
X108283400Y-58417000D01*
X120580000Y-53020000D02*
X122800000Y-50800000D01*
X122800000Y-50800000D02*
X127416200Y-50800000D01*
X127416200Y-50800000D02*
X128235800Y-49980400D01*
X128235800Y-49980400D02*
X128235800Y-46544300D01*
X128235800Y-46544300D02*
X127411500Y-45720000D01*
X127411500Y-45720000D02*
X126828200Y-45720000D01*
X126828200Y-45720000D02*
X126017700Y-44909500D01*
X126017700Y-44909500D02*
X126017700Y-41449300D01*
X126017700Y-41449300D02*
X126827000Y-40640000D01*
X126827000Y-40640000D02*
X138521400Y-40640000D01*
X138521400Y-40640000D02*
X142331400Y-36830000D01*
X142331400Y-39370000D02*
X136057600Y-45643800D01*
X136057600Y-45643800D02*
X136057600Y-56306100D01*
X136057600Y-56306100D02*
X138953300Y-59201800D01*
X138953300Y-59201800D02*
X138953300Y-69313400D01*
X138953300Y-69313400D02*
X138432000Y-69834700D01*
X138432000Y-71010000D02*
X138432000Y-69834700D01*
X138432000Y-71010000D02*
X138432000Y-76960000D01*
X131116000Y-68072000D02*
X131116000Y-45914600D01*
X131116000Y-45914600D02*
X127111400Y-41910000D01*
X142331400Y-46990000D02*
X139115500Y-50205900D01*
X139115500Y-50205900D02*
X139115500Y-57803700D01*
X127111400Y-62230000D02*
X122574200Y-57692800D01*
X122574200Y-57692800D02*
X114501300Y-57692800D01*
X114501300Y-57692800D02*
X106267700Y-49459200D01*
X106267700Y-49459200D02*
X102147300Y-49459200D01*
X102147300Y-49459200D02*
X101359400Y-50247100D01*
X101359400Y-50247100D02*
X101359400Y-51270000D01*
X101359400Y-51270000D02*
X100564000Y-52065400D01*
X100564000Y-52065400D02*
X89375400Y-52065400D01*
X89375400Y-52065400D02*
X84580000Y-47270000D01*
X75420000Y-47270000D02*
X76930300Y-48780300D01*
X76930300Y-48780300D02*
X83069700Y-48780300D01*
X83069700Y-48780300D02*
X84580000Y-47270000D01*
X127111400Y-64770000D02*
X123886000Y-61544600D01*
X123886000Y-61544600D02*
X117716200Y-61544600D01*
X117716200Y-61544600D02*
X106811600Y-50640000D01*
X106811600Y-50640000D02*
X102580000Y-50640000D01*
X129932000Y-75210000D02*
X129932000Y-72760000D01*
M02*
