G04 #@! TF.GenerationSoftware,KiCad,Pcbnew,5.1.6*
G04 #@! TF.CreationDate,2020-09-08T13:44:10+01:00*
G04 #@! TF.ProjectId,cradio-pg1232,63726164-696f-42d7-9067-313233322e6b,2.1*
G04 #@! TF.SameCoordinates,Original*
G04 #@! TF.FileFunction,Copper,L1,Top*
G04 #@! TF.FilePolarity,Positive*
%FSLAX46Y46*%
G04 Gerber Fmt 4.6, Leading zero omitted, Abs format (unit mm)*
G04 Created by KiCad (PCBNEW 5.1.6) date 2020-09-08 13:44:10*
%MOMM*%
%LPD*%
G01*
G04 APERTURE LIST*
G04 #@! TA.AperFunction,ComponentPad*
%ADD10C,1.600000*%
G04 #@! TD*
G04 #@! TA.AperFunction,ComponentPad*
%ADD11C,1.524000*%
G04 #@! TD*
G04 #@! TA.AperFunction,ComponentPad*
%ADD12C,2.000000*%
G04 #@! TD*
G04 #@! TA.AperFunction,ComponentPad*
%ADD13O,2.500000X1.700000*%
G04 #@! TD*
G04 #@! TA.AperFunction,ViaPad*
%ADD14C,0.600000*%
G04 #@! TD*
G04 #@! TA.AperFunction,Conductor*
%ADD15C,0.250000*%
G04 #@! TD*
G04 APERTURE END LIST*
D10*
X135846396Y-87543270D03*
X130297949Y-83993463D03*
X127913604Y-82963270D03*
X133762051Y-85993463D03*
X131544935Y-96433621D03*
X122365065Y-91133621D03*
X115246025Y-78392789D03*
X108818085Y-76954742D03*
X106225186Y-76802172D03*
X112757316Y-77649334D03*
X114244652Y-88218172D03*
X103805690Y-86377501D03*
X120580000Y-70020000D03*
X114000000Y-70320000D03*
X111420000Y-70020000D03*
X118000000Y-70320000D03*
X121300000Y-60170000D03*
X110700000Y-60170000D03*
X102580000Y-67645000D03*
X96000000Y-67945000D03*
X93420000Y-67645000D03*
X100000000Y-67945000D03*
X103300000Y-57795000D03*
X92700000Y-57795000D03*
X84580000Y-64270000D03*
X78000000Y-64570000D03*
X75420000Y-64270000D03*
X82000000Y-64570000D03*
X85300000Y-54420000D03*
X74700000Y-54420000D03*
X66580000Y-67645000D03*
X60000000Y-67945000D03*
X57420000Y-67645000D03*
X64000000Y-67945000D03*
X67300000Y-57795000D03*
X56700000Y-57795000D03*
X48580000Y-76205000D03*
X42000000Y-76505000D03*
X39420000Y-76205000D03*
X46000000Y-76505000D03*
X49300000Y-66355000D03*
X38700000Y-66355000D03*
X120580000Y-53020000D03*
X114000000Y-53320000D03*
X111420000Y-53020000D03*
X118000000Y-53320000D03*
X121300000Y-43170000D03*
X110700000Y-43170000D03*
X102580000Y-50640000D03*
X96000000Y-50940000D03*
X93420000Y-50640000D03*
X100000000Y-50940000D03*
X103300000Y-40790000D03*
X92700000Y-40790000D03*
X84580000Y-47270000D03*
X78000000Y-47570000D03*
X75420000Y-47270000D03*
X82000000Y-47570000D03*
X85300000Y-37420000D03*
X74700000Y-37420000D03*
X66580000Y-50640000D03*
X60000000Y-50940000D03*
X57420000Y-50640000D03*
X64000000Y-50940000D03*
X67300000Y-40790000D03*
X56700000Y-40790000D03*
X48580000Y-59200000D03*
X42000000Y-59500000D03*
X39420000Y-59200000D03*
X46000000Y-59500000D03*
X49300000Y-49350000D03*
X38700000Y-49350000D03*
X120580000Y-36020000D03*
X114000000Y-36320000D03*
X111420000Y-36020000D03*
X118000000Y-36320000D03*
X121300000Y-26170000D03*
X110700000Y-26170000D03*
X102580000Y-33640000D03*
X96000000Y-33940000D03*
X93420000Y-33640000D03*
X100000000Y-33940000D03*
X103300000Y-23790000D03*
X92700000Y-23790000D03*
X84580000Y-30280000D03*
X78000000Y-30580000D03*
X75420000Y-30280000D03*
X82000000Y-30580000D03*
X85300000Y-20430000D03*
X74700000Y-20430000D03*
X48580000Y-42200000D03*
X42000000Y-42500000D03*
X39420000Y-42200000D03*
X46000000Y-42500000D03*
X49300000Y-32350000D03*
X38700000Y-32350000D03*
X66580000Y-33640000D03*
X60000000Y-33940000D03*
X57420000Y-33640000D03*
X64000000Y-33940000D03*
X67300000Y-23790000D03*
X56700000Y-23790000D03*
D11*
X127111400Y-36830000D03*
X127111400Y-39370000D03*
X127111400Y-41910000D03*
X127111400Y-44450000D03*
X127111400Y-46990000D03*
X127111400Y-49530000D03*
X127111400Y-52070000D03*
X127111400Y-54610000D03*
X127111400Y-57150000D03*
X127111400Y-59690000D03*
X127111400Y-62230000D03*
X127111400Y-64770000D03*
X142331400Y-64770000D03*
X142331400Y-62230000D03*
X142331400Y-59690000D03*
X142331400Y-57150000D03*
X142331400Y-54610000D03*
X142331400Y-52070000D03*
X142331400Y-49530000D03*
X142331400Y-46990000D03*
X142331400Y-44450000D03*
X142331400Y-41910000D03*
X142331400Y-39370000D03*
X142331400Y-36830000D03*
D12*
X137616000Y-68072000D03*
X131116000Y-68072000D03*
D13*
X129932000Y-72760000D03*
X131432000Y-76960000D03*
X135432000Y-76960000D03*
X138432000Y-76960000D03*
X135432000Y-71010000D03*
X138432000Y-71010000D03*
X129932000Y-75210000D03*
X131432000Y-71010000D03*
D14*
X136682900Y-55912300D03*
X108283400Y-58417000D03*
X139115500Y-57803700D03*
D15*
X142331400Y-52070000D02*
X133602000Y-60799400D01*
X133602000Y-60799400D02*
X124566300Y-60799400D01*
X124566300Y-60799400D02*
X122811600Y-59044700D01*
X122811600Y-59044700D02*
X91956800Y-59044700D01*
X91956800Y-59044700D02*
X86731500Y-64270000D01*
X86731500Y-64270000D02*
X84580000Y-64270000D01*
X142331400Y-54610000D02*
X140494300Y-54610000D01*
X140494300Y-54610000D02*
X131769400Y-63334900D01*
X131769400Y-63334900D02*
X123990400Y-63334900D01*
X123990400Y-63334900D02*
X122198200Y-61542700D01*
X122198200Y-61542700D02*
X108682300Y-61542700D01*
X108682300Y-61542700D02*
X102580000Y-67645000D01*
X93420000Y-67645000D02*
X94867000Y-69092000D01*
X94867000Y-69092000D02*
X101133000Y-69092000D01*
X101133000Y-69092000D02*
X102580000Y-67645000D01*
X142331400Y-57150000D02*
X138782400Y-57150000D01*
X138782400Y-57150000D02*
X130075100Y-65857300D01*
X130075100Y-65857300D02*
X124742700Y-65857300D01*
X124742700Y-65857300D02*
X120580000Y-70020000D01*
X120580000Y-70020000D02*
X119126000Y-71474000D01*
X119126000Y-71474000D02*
X112874000Y-71474000D01*
X112874000Y-71474000D02*
X111420000Y-70020000D01*
X48580000Y-43396200D02*
X48580000Y-42200000D01*
X136682900Y-55912300D02*
X126875900Y-55912300D01*
X126875900Y-55912300D02*
X126058400Y-55094800D01*
X126058400Y-55094800D02*
X97237900Y-55094800D01*
X97237900Y-55094800D02*
X94749900Y-52606800D01*
X94749900Y-52606800D02*
X57790600Y-52606800D01*
X57790600Y-52606800D02*
X48580000Y-43396200D01*
X39420000Y-42200000D02*
X40891100Y-43671100D01*
X40891100Y-43671100D02*
X48305100Y-43671100D01*
X48305100Y-43671100D02*
X48580000Y-43396200D01*
X46000000Y-76505000D02*
X42000000Y-76505000D01*
X135432000Y-71010000D02*
X135432000Y-69834700D01*
X135432000Y-69834700D02*
X135853300Y-69834700D01*
X135853300Y-69834700D02*
X137616000Y-68072000D01*
X78000000Y-64570000D02*
X82000000Y-64570000D01*
X64000000Y-33940000D02*
X60000000Y-33940000D01*
X78000000Y-30580000D02*
X76524300Y-32055700D01*
X76524300Y-32055700D02*
X65884300Y-32055700D01*
X65884300Y-32055700D02*
X64000000Y-33940000D01*
X64000000Y-67945000D02*
X65913600Y-66031400D01*
X65913600Y-66031400D02*
X76538600Y-66031400D01*
X76538600Y-66031400D02*
X78000000Y-64570000D01*
X60000000Y-67945000D02*
X64000000Y-67945000D01*
X64000000Y-50940000D02*
X60000000Y-50940000D01*
X78000000Y-47570000D02*
X76509200Y-49060800D01*
X76509200Y-49060800D02*
X65879200Y-49060800D01*
X65879200Y-49060800D02*
X64000000Y-50940000D01*
X114000000Y-36320000D02*
X111994800Y-34314800D01*
X111994800Y-34314800D02*
X106590000Y-34314800D01*
X106590000Y-34314800D02*
X104785700Y-32510500D01*
X104785700Y-32510500D02*
X101429500Y-32510500D01*
X101429500Y-32510500D02*
X100000000Y-33940000D01*
X118000000Y-36320000D02*
X114000000Y-36320000D01*
X82000000Y-30580000D02*
X78000000Y-30580000D01*
X118000000Y-70320000D02*
X114000000Y-70320000D01*
X100000000Y-67945000D02*
X96000000Y-67945000D01*
X100000000Y-50940000D02*
X96000000Y-50940000D01*
X118000000Y-53320000D02*
X114000000Y-53320000D01*
X100000000Y-50940000D02*
X101464400Y-49475600D01*
X101464400Y-49475600D02*
X105910300Y-49475600D01*
X105910300Y-49475600D02*
X107870400Y-51435700D01*
X107870400Y-51435700D02*
X112115700Y-51435700D01*
X112115700Y-51435700D02*
X114000000Y-53320000D01*
X82000000Y-47570000D02*
X78000000Y-47570000D01*
X46000000Y-59500000D02*
X42000000Y-59500000D01*
X100000000Y-33940000D02*
X96000000Y-33940000D01*
X127111400Y-39370000D02*
X121050000Y-39370000D01*
X121050000Y-39370000D02*
X118000000Y-36320000D01*
X46000000Y-42500000D02*
X42000000Y-42500000D01*
X142331400Y-41910000D02*
X139791400Y-39370000D01*
X139791400Y-39370000D02*
X127111400Y-39370000D01*
X131432000Y-76960000D02*
X131432000Y-75784700D01*
X131432000Y-71010000D02*
X131432000Y-72185300D01*
X131432000Y-72185300D02*
X131575600Y-72328900D01*
X131575600Y-72328900D02*
X131575600Y-75641100D01*
X131575600Y-75641100D02*
X131432000Y-75784700D01*
X102580000Y-33640000D02*
X101150000Y-35070000D01*
X101150000Y-35070000D02*
X94850000Y-35070000D01*
X94850000Y-35070000D02*
X93420000Y-33640000D01*
X127111400Y-52070000D02*
X126024000Y-50982600D01*
X126024000Y-50982600D02*
X126024000Y-46291100D01*
X126024000Y-46291100D02*
X117462900Y-37730000D01*
X117462900Y-37730000D02*
X92030000Y-37730000D01*
X92030000Y-37730000D02*
X84580000Y-30280000D01*
X127111400Y-54610000D02*
X123094100Y-50592700D01*
X123094100Y-50592700D02*
X123094100Y-45527000D01*
X123094100Y-45527000D02*
X122111700Y-44544600D01*
X122111700Y-44544600D02*
X114763800Y-44544600D01*
X114763800Y-44544600D02*
X108539300Y-38320100D01*
X108539300Y-38320100D02*
X89383100Y-38320100D01*
X89383100Y-38320100D02*
X84703000Y-33640000D01*
X84703000Y-33640000D02*
X66580000Y-33640000D01*
X57420000Y-33640000D02*
X58930300Y-35150300D01*
X58930300Y-35150300D02*
X65069700Y-35150300D01*
X65069700Y-35150300D02*
X66580000Y-33640000D01*
X48580000Y-59200000D02*
X51985400Y-55794600D01*
X51985400Y-55794600D02*
X125756000Y-55794600D01*
X125756000Y-55794600D02*
X127111400Y-57150000D01*
X39420000Y-59200000D02*
X40931300Y-60711300D01*
X40931300Y-60711300D02*
X47068700Y-60711300D01*
X47068700Y-60711300D02*
X48580000Y-59200000D01*
X66580000Y-50640000D02*
X65154500Y-52065500D01*
X65154500Y-52065500D02*
X58845500Y-52065500D01*
X58845500Y-52065500D02*
X57420000Y-50640000D01*
X127111400Y-59690000D02*
X124688500Y-59690000D01*
X124688500Y-59690000D02*
X123415500Y-58417000D01*
X123415500Y-58417000D02*
X108283400Y-58417000D01*
X120580000Y-53020000D02*
X119137400Y-54462600D01*
X119137400Y-54462600D02*
X112862600Y-54462600D01*
X112862600Y-54462600D02*
X111420000Y-53020000D01*
X66580000Y-67645000D02*
X80545100Y-67645000D01*
X80545100Y-67645000D02*
X83359700Y-64830400D01*
X83359700Y-64830400D02*
X83359700Y-63839400D01*
X83359700Y-63839400D02*
X84348800Y-62850300D01*
X84348800Y-62850300D02*
X85985000Y-62850300D01*
X85985000Y-62850300D02*
X92177600Y-56657700D01*
X92177600Y-56657700D02*
X123589700Y-56657700D01*
X123589700Y-56657700D02*
X125203400Y-58271400D01*
X125203400Y-58271400D02*
X135208200Y-58271400D01*
X135208200Y-58271400D02*
X137575600Y-55904000D01*
X137575600Y-55904000D02*
X137575600Y-54285800D01*
X137575600Y-54285800D02*
X142331400Y-49530000D01*
X57420000Y-67645000D02*
X58848200Y-69073200D01*
X58848200Y-69073200D02*
X65151800Y-69073200D01*
X65151800Y-69073200D02*
X66580000Y-67645000D01*
X139115500Y-57803700D02*
X128807200Y-68112000D01*
X128807200Y-68112000D02*
X124254700Y-68112000D01*
X124254700Y-68112000D02*
X117886300Y-74480400D01*
X50304600Y-74480400D02*
X48580000Y-76205000D01*
X48580000Y-76205000D02*
X47122800Y-77662200D01*
X47122800Y-77662200D02*
X40877200Y-77662200D01*
X40877200Y-77662200D02*
X39420000Y-76205000D01*
X51770400Y-74480400D02*
X50304600Y-74480400D01*
X51770400Y-74480400D02*
X51770400Y-72029600D01*
X51770400Y-72029600D02*
X53800000Y-70000000D01*
X53800000Y-70000000D02*
X69430000Y-70000000D01*
X71334990Y-68095010D02*
X90235010Y-68095010D01*
X69430000Y-70000000D02*
X71334990Y-68095010D01*
X90235010Y-68095010D02*
X92660000Y-70520000D01*
X109820000Y-70520000D02*
X113780400Y-74480400D01*
X92660000Y-70520000D02*
X109820000Y-70520000D01*
X117886300Y-74480400D02*
X113780400Y-74480400D01*
X102580000Y-50640000D02*
X101136300Y-52083700D01*
X101136300Y-52083700D02*
X94863700Y-52083700D01*
X94863700Y-52083700D02*
X93420000Y-50640000D01*
X142331400Y-64770000D02*
X142331400Y-82558600D01*
X137346730Y-87543270D02*
X135846396Y-87543270D01*
X142331400Y-82558600D02*
X137346730Y-87543270D01*
X131597767Y-82163271D02*
X128713603Y-82163271D01*
X128713603Y-82163271D02*
X127913604Y-82963270D01*
X135846396Y-86411900D02*
X131597767Y-82163271D01*
X135846396Y-87543270D02*
X135846396Y-86411900D01*
X115246000Y-78392800D02*
X123968300Y-69670500D01*
X123968300Y-69670500D02*
X133537200Y-69670500D01*
X133537200Y-69670500D02*
X140977700Y-62230000D01*
X140977700Y-62230000D02*
X142331400Y-62230000D01*
X115246000Y-78392800D02*
X112671200Y-75818000D01*
X112671200Y-75818000D02*
X107209400Y-75818000D01*
X107209400Y-75818000D02*
X106225200Y-76802200D01*
M02*
