M48
; DRILL file {KiCad 5.1.6} date Tue Sep  8 13:44:13 2020
; FORMAT={-:-/ absolute / inch / decimal}
; #@! TF.CreationDate,2020-09-08T13:44:13+01:00
; #@! TF.GenerationSoftware,Kicad,Pcbnew,5.1.6
; #@! TF.FileFunction,NonPlated,1,2,NPTH
FMAT,2
INCH
T1C0.0118
T2C0.0394
T3C0.0472
T4C0.2323
%
G90
G05
T3
X5.2454Y-2.8783
X5.2454Y-2.9472
X5.5209Y-2.8783
X5.5209Y-2.9472
T1
G00X1.5Y-2.2441
M15
G01X1.5Y-2.0157
M16
G05
G00X1.6457Y-2.2854
M15
G01X1.6457Y-2.25
M16
G05
G00X1.5Y-2.0157
M15
G01X1.9646Y-2.0157
M16
G05
G00X1.5Y-2.2441
M15
G01X1.9646Y-2.2441
M16
G05
G00X1.6457Y-2.2854
M15
G01X1.8189Y-2.2854
M16
G05
G00X1.8189Y-2.2854
M15
G01X1.8189Y-2.25
M16
G05
G00X1.9646Y-2.2441
M15
G01X1.9646Y-2.0157
M16
G05
G00X2.9173Y-1.7744
M15
G01X2.9173Y-1.5461
M16
G05
G00X3.063Y-1.8157
M15
G01X3.063Y-1.7803
M16
G05
G00X2.9173Y-1.5461
M15
G01X3.3819Y-1.5461
M16
G05
G00X2.9173Y-1.7744
M15
G01X3.3819Y-1.7744
M16
G05
G00X3.063Y-1.8157
M15
G01X3.2362Y-1.8157
M16
G05
G00X3.2362Y-1.8157
M15
G01X3.2362Y-1.7803
M16
G05
G00X3.3819Y-1.7744
M15
G01X3.3819Y-1.5461
M16
G05
G00X4.1159Y-3.1
M15
G01X4.0762Y-3.3249
M16
G05
G00X4.2665Y-3.0846
M15
G01X4.2604Y-3.1195
M16
G05
G00X4.0762Y-3.3249
M15
G01X4.5337Y-3.4055
M16
G05
G00X4.1159Y-3.1
M15
G01X4.5734Y-3.1807
M16
G05
G00X4.2665Y-3.0846
M15
G01X4.4371Y-3.1146
M16
G05
G00X4.4371Y-3.1146
M15
G01X4.431Y-3.1495
M16
G05
G00X4.5734Y-3.1807
M15
G01X4.5337Y-3.4055
M16
G05
G00X1.5Y-1.5748
M15
G01X1.5Y-1.3465
M16
G05
G00X1.6457Y-1.6161
M15
G01X1.6457Y-1.5807
M16
G05
G00X1.5Y-1.3465
M15
G01X1.9646Y-1.3465
M16
G05
G00X1.5Y-1.5748
M15
G01X1.9646Y-1.5748
M16
G05
G00X1.6457Y-1.6161
M15
G01X1.8189Y-1.6161
M16
G05
G00X1.8189Y-1.6161
M15
G01X1.8189Y-1.5807
M16
G05
G00X1.9646Y-1.5748
M15
G01X1.9646Y-1.3465
M16
G05
G00X2.2087Y-1.9071
M15
G01X2.2087Y-1.6787
M16
G05
G00X2.3543Y-1.9484
M15
G01X2.3543Y-1.913
M16
G05
G00X2.2087Y-1.6787
M15
G01X2.6732Y-1.6787
M16
G05
G00X2.2087Y-1.9071
M15
G01X2.6732Y-1.9071
M16
G05
G00X2.3543Y-1.9484
M15
G01X2.5276Y-1.9484
M16
G05
G00X2.5276Y-1.9484
M15
G01X2.5276Y-1.913
M16
G05
G00X2.6732Y-1.9071
M15
G01X2.6732Y-1.6787
M16
G05
G00X4.9477Y-3.3153
M15
G01X4.8335Y-3.5131
M16
G05
G00X4.8335Y-3.5131
M15
G01X5.2358Y-3.7453
M16
G05
G00X5.0945Y-3.3523
M15
G01X5.0768Y-3.383
M16
G05
G00X4.9477Y-3.3153
M15
G01X5.35Y-3.5476
M16
G05
G00X5.0945Y-3.3523
M15
G01X5.2445Y-3.4389
M16
G05
G00X5.2445Y-3.4389
M15
G01X5.2268Y-3.4696
M16
G05
G00X5.35Y-3.5476
M15
G01X5.2358Y-3.7453
M16
G05
G00X1.5Y-2.9136
M15
G01X1.5Y-2.6852
M16
G05
G00X1.6457Y-2.9549
M15
G01X1.6457Y-2.9195
M16
G05
G00X1.5Y-2.6852
M15
G01X1.9646Y-2.6852
M16
G05
G00X1.5Y-2.9136
M15
G01X1.9646Y-2.9136
M16
G05
G00X1.6457Y-2.9549
M15
G01X1.8189Y-2.9549
M16
G05
G00X1.8189Y-2.9549
M15
G01X1.8189Y-2.9195
M16
G05
G00X1.9646Y-2.9136
M15
G01X1.9646Y-2.6852
M16
G05
G00X3.626Y-1.9071
M15
G01X3.626Y-1.6787
M16
G05
G00X3.7717Y-1.9484
M15
G01X3.7717Y-1.913
M16
G05
G00X3.626Y-1.6787
M15
G01X4.0906Y-1.6787
M16
G05
G00X3.626Y-1.9071
M15
G01X4.0906Y-1.9071
M16
G05
G00X3.7717Y-1.9484
M15
G01X3.9449Y-1.9484
M16
G05
G00X3.9449Y-1.9484
M15
G01X3.9449Y-1.913
M16
G05
G00X4.0906Y-1.9071
M15
G01X4.0906Y-1.6787
M16
G05
G00X2.9173Y-1.1055
M15
G01X2.9173Y-0.8772
M16
G05
G00X3.063Y-1.1469
M15
G01X3.063Y-1.1114
M16
G05
G00X2.9173Y-0.8772
M15
G01X3.3819Y-0.8772
M16
G05
G00X2.9173Y-1.1055
M15
G01X3.3819Y-1.1055
M16
G05
G00X3.063Y-1.1469
M15
G01X3.2362Y-1.1469
M16
G05
G00X3.2362Y-1.1469
M15
G01X3.2362Y-1.1114
M16
G05
G00X3.3819Y-1.1055
M15
G01X3.3819Y-0.8772
M16
G05
G00X4.3346Y-1.3315
M15
G01X4.3346Y-1.1031
M16
G05
G00X4.4803Y-1.3728
M15
G01X4.4803Y-1.3374
M16
G05
G00X4.3346Y-1.1031
M15
G01X4.7992Y-1.1031
M16
G05
G00X4.3346Y-1.3315
M15
G01X4.7992Y-1.3315
M16
G05
G00X4.4803Y-1.3728
M15
G01X4.6535Y-1.3728
M16
G05
G00X4.6535Y-1.3728
M15
G01X4.6535Y-1.3374
M16
G05
G00X4.7992Y-1.3315
M15
G01X4.7992Y-1.1031
M16
G05
G00X2.9173Y-2.4437
M15
G01X2.9173Y-2.2154
M16
G05
G00X3.063Y-2.485
M15
G01X3.063Y-2.4496
M16
G05
G00X2.9173Y-2.2154
M15
G01X3.3819Y-2.2154
M16
G05
G00X2.9173Y-2.4437
M15
G01X3.3819Y-2.4437
M16
G05
G00X3.063Y-2.485
M15
G01X3.2362Y-2.485
M16
G05
G00X3.2362Y-2.485
M15
G01X3.2362Y-2.4496
M16
G05
G00X3.3819Y-2.4437
M15
G01X3.3819Y-2.2154
M16
G05
G00X3.626Y-1.2378
M15
G01X3.626Y-1.0094
M16
G05
G00X3.7717Y-1.2791
M15
G01X3.7717Y-1.2437
M16
G05
G00X3.626Y-1.0094
M15
G01X4.0906Y-1.0094
M16
G05
G00X3.626Y-1.2378
M15
G01X4.0906Y-1.2378
M16
G05
G00X3.7717Y-1.2791
M15
G01X3.9449Y-1.2791
M16
G05
G00X3.9449Y-1.2791
M15
G01X3.9449Y-1.2437
M16
G05
G00X4.0906Y-1.2378
M15
G01X4.0906Y-1.0094
M16
G05
G00X4.3346Y-2.0008
M15
G01X4.3346Y-1.7724
M16
G05
G00X4.4803Y-2.0421
M15
G01X4.4803Y-2.0067
M16
G05
G00X4.3346Y-1.7724
M15
G01X4.7992Y-1.7724
M16
G05
G00X4.3346Y-2.0008
M15
G01X4.7992Y-2.0008
M16
G05
G00X4.4803Y-2.0421
M15
G01X4.6535Y-2.0421
M16
G05
G00X4.6535Y-2.0421
M15
G01X4.6535Y-2.0067
M16
G05
G00X4.7992Y-2.0008
M15
G01X4.7992Y-1.7724
M16
G05
G00X4.3346Y-2.6701
M15
G01X4.3346Y-2.4417
M16
G05
G00X4.4803Y-2.7114
M15
G01X4.4803Y-2.676
M16
G05
G00X4.3346Y-2.4417
M15
G01X4.7992Y-2.4417
M16
G05
G00X4.3346Y-2.6701
M15
G01X4.7992Y-2.6701
M16
G05
G00X4.4803Y-2.7114
M15
G01X4.6535Y-2.7114
M16
G05
G00X4.6535Y-2.7114
M15
G01X4.6535Y-2.676
M16
G05
G00X4.7992Y-2.6701
M15
G01X4.7992Y-2.4417
M16
G05
G00X2.2087Y-1.2378
M15
G01X2.2087Y-1.0094
M16
G05
G00X2.3543Y-1.2791
M15
G01X2.3543Y-1.2437
M16
G05
G00X2.2087Y-1.0094
M15
G01X2.6732Y-1.0094
M16
G05
G00X2.2087Y-1.2378
M15
G01X2.6732Y-1.2378
M16
G05
G00X2.3543Y-1.2791
M15
G01X2.5276Y-1.2791
M16
G05
G00X2.5276Y-1.2791
M15
G01X2.5276Y-1.2437
M16
G05
G00X2.6732Y-1.2378
M15
G01X2.6732Y-1.0094
M16
G05
G00X3.626Y-2.5766
M15
G01X3.626Y-2.3482
M16
G05
G00X3.7717Y-2.6179
M15
G01X3.7717Y-2.5825
M16
G05
G00X3.626Y-2.3482
M15
G01X4.0906Y-2.3482
M16
G05
G00X3.626Y-2.5766
M15
G01X4.0906Y-2.5766
M16
G05
G00X3.7717Y-2.6179
M15
G01X3.9449Y-2.6179
M16
G05
G00X3.9449Y-2.6179
M15
G01X3.9449Y-2.5825
M16
G05
G00X4.0906Y-2.5766
M15
G01X4.0906Y-2.3482
M16
G05
G00X2.2087Y-2.5766
M15
G01X2.2087Y-2.3482
M16
G05
G00X2.3543Y-2.6179
M15
G01X2.3543Y-2.5825
M16
G05
G00X2.2087Y-2.3482
M15
G01X2.6732Y-2.3482
M16
G05
G00X2.2087Y-2.5766
M15
G01X2.6732Y-2.5766
M16
G05
G00X2.3543Y-2.6179
M15
G01X2.5276Y-2.6179
M16
G05
G00X2.5276Y-2.6179
M15
G01X2.5276Y-2.5825
M16
G05
G00X2.6732Y-2.5766
M15
G01X2.6732Y-2.3482
M16
G05
T2
G00X3.6472Y-2.3659
M15
G01X3.6472Y-2.5589
M16
G05
G00X3.6776Y-2.3659
M15
G01X3.6776Y-2.5589
M16
G05
G00X3.6929Y-2.3659
M15
G01X3.6929Y-2.5589
M16
G05
G00X3.7854Y-2.6002
M15
G01X3.9311Y-2.6002
M16
G05
G00X4.0236Y-2.3659
M15
G01X4.0236Y-2.5589
M16
G05
G00X4.039Y-2.3659
M15
G01X4.039Y-2.5589
M16
G05
G00X4.0693Y-2.3659
M15
G01X4.0693Y-2.5589
M16
G05
G00X2.2299Y-2.3659
M15
G01X2.2299Y-2.5589
M16
G05
G00X2.2602Y-2.3659
M15
G01X2.2602Y-2.5589
M16
G05
G00X2.2756Y-2.3659
M15
G01X2.2756Y-2.5589
M16
G05
G00X2.3681Y-2.6002
M15
G01X2.5138Y-2.6002
M16
G05
G00X2.6063Y-2.3659
M15
G01X2.6063Y-2.5589
M16
G05
G00X2.6217Y-2.3659
M15
G01X2.6217Y-2.5589
M16
G05
G00X2.652Y-2.3659
M15
G01X2.652Y-2.5589
M16
G05
G00X1.5213Y-2.0335
M15
G01X1.5213Y-2.2264
M16
G05
G00X1.5516Y-2.0335
M15
G01X1.5516Y-2.2264
M16
G05
G00X1.5669Y-2.0335
M15
G01X1.5669Y-2.2264
M16
G05
G00X1.6594Y-2.2677
M15
G01X1.8051Y-2.2677
M16
G05
G00X1.8976Y-2.0335
M15
G01X1.8976Y-2.2264
M16
G05
G00X1.913Y-2.0335
M15
G01X1.913Y-2.2264
M16
G05
G00X1.9433Y-2.0335
M15
G01X1.9433Y-2.2264
M16
G05
G00X2.9386Y-1.5638
M15
G01X2.9386Y-1.7567
M16
G05
G00X2.9689Y-1.5638
M15
G01X2.9689Y-1.7567
M16
G05
G00X2.9843Y-1.5638
M15
G01X2.9843Y-1.7567
M16
G05
G00X3.0768Y-1.798
M15
G01X3.2224Y-1.798
M16
G05
G00X3.315Y-1.5638
M15
G01X3.315Y-1.7567
M16
G05
G00X3.3303Y-1.5638
M15
G01X3.3303Y-1.7567
M16
G05
G00X3.3606Y-1.5638
M15
G01X3.3606Y-1.7567
M16
G05
G00X4.1337Y-3.1211
M15
G01X4.1002Y-3.3111
M16
G05
G00X4.1636Y-3.1264
M15
G01X4.1301Y-3.3164
M16
G05
G00X4.1787Y-3.1291
M15
G01X4.1452Y-3.319
M16
G05
G00X4.277Y-3.1044
M15
G01X4.4205Y-3.1297
M16
G05
G00X4.5044Y-3.1865
M15
G01X4.4709Y-3.3765
M16
G05
G00X4.5195Y-3.1891
M15
G01X4.486Y-3.3791
M16
G05
G00X4.5494Y-3.1944
M15
G01X4.5159Y-3.3844
M16
G05
G00X1.5213Y-1.3642
M15
G01X1.5213Y-1.5571
M16
G05
G00X1.5516Y-1.3642
M15
G01X1.5516Y-1.5571
M16
G05
G00X1.5669Y-1.3642
M15
G01X1.5669Y-1.5571
M16
G05
G00X1.6594Y-1.5984
M15
G01X1.8051Y-1.5984
M16
G05
G00X1.8976Y-1.3642
M15
G01X1.8976Y-1.5571
M16
G05
G00X1.913Y-1.3642
M15
G01X1.913Y-1.5571
M16
G05
G00X1.9433Y-1.3642
M15
G01X1.9433Y-1.5571
M16
G05
G00X2.2299Y-1.6965
M15
G01X2.2299Y-1.8894
M16
G05
G00X2.2602Y-1.6965
M15
G01X2.2602Y-1.8894
M16
G05
G00X2.2756Y-1.6965
M15
G01X2.2756Y-1.8894
M16
G05
G00X2.3681Y-1.9307
M15
G01X2.5138Y-1.9307
M16
G05
G00X2.6063Y-1.6965
M15
G01X2.6063Y-1.8894
M16
G05
G00X2.6217Y-1.6965
M15
G01X2.6217Y-1.8894
M16
G05
G00X2.652Y-1.6965
M15
G01X2.652Y-1.8894
M16
G05
G00X4.9572Y-3.3413
M15
G01X4.8608Y-3.5083
M16
G05
G00X4.9835Y-3.3564
M15
G01X4.887Y-3.5235
M16
G05
G00X4.9968Y-3.3641
M15
G01X4.9003Y-3.5312
M16
G05
G00X5.0976Y-3.3746
M15
G01X5.2237Y-3.4474
M16
G05
G00X5.2832Y-3.5295
M15
G01X5.1867Y-3.6965
M16
G05
G00X5.2965Y-3.5371
M15
G01X5.2Y-3.7042
M16
G05
G00X5.3227Y-3.5523
M15
G01X5.2263Y-3.7194
M16
G05
G00X1.5213Y-2.703
M15
G01X1.5213Y-2.8959
M16
G05
G00X1.5516Y-2.703
M15
G01X1.5516Y-2.8959
M16
G05
G00X1.5669Y-2.703
M15
G01X1.5669Y-2.8959
M16
G05
G00X1.6594Y-2.9372
M15
G01X1.8051Y-2.9372
M16
G05
G00X1.8976Y-2.703
M15
G01X1.8976Y-2.8959
M16
G05
G00X1.913Y-2.703
M15
G01X1.913Y-2.8959
M16
G05
G00X1.9433Y-2.703
M15
G01X1.9433Y-2.8959
M16
G05
G00X3.6472Y-1.6965
M15
G01X3.6472Y-1.8894
M16
G05
G00X3.6776Y-1.6965
M15
G01X3.6776Y-1.8894
M16
G05
G00X3.6929Y-1.6965
M15
G01X3.6929Y-1.8894
M16
G05
G00X3.7854Y-1.9307
M15
G01X3.9311Y-1.9307
M16
G05
G00X4.0236Y-1.6965
M15
G01X4.0236Y-1.8894
M16
G05
G00X4.039Y-1.6965
M15
G01X4.039Y-1.8894
M16
G05
G00X4.0693Y-1.6965
M15
G01X4.0693Y-1.8894
M16
G05
G00X2.9386Y-0.8949
M15
G01X2.9386Y-1.0878
M16
G05
G00X2.9689Y-0.8949
M15
G01X2.9689Y-1.0878
M16
G05
G00X2.9843Y-0.8949
M15
G01X2.9843Y-1.0878
M16
G05
G00X3.0768Y-1.1291
M15
G01X3.2224Y-1.1291
M16
G05
G00X3.315Y-0.8949
M15
G01X3.315Y-1.0878
M16
G05
G00X3.3303Y-0.8949
M15
G01X3.3303Y-1.0878
M16
G05
G00X3.3606Y-0.8949
M15
G01X3.3606Y-1.0878
M16
G05
G00X4.3559Y-1.1209
M15
G01X4.3559Y-1.3138
M16
G05
G00X4.3862Y-1.1209
M15
G01X4.3862Y-1.3138
M16
G05
G00X4.4016Y-1.1209
M15
G01X4.4016Y-1.3138
M16
G05
G00X4.4941Y-1.3551
M15
G01X4.6398Y-1.3551
M16
G05
G00X4.7323Y-1.1209
M15
G01X4.7323Y-1.3138
M16
G05
G00X4.7476Y-1.1209
M15
G01X4.7476Y-1.3138
M16
G05
G00X4.778Y-1.1209
M15
G01X4.778Y-1.3138
M16
G05
G00X2.9386Y-2.2331
M15
G01X2.9386Y-2.426
M16
G05
G00X2.9689Y-2.2331
M15
G01X2.9689Y-2.426
M16
G05
G00X2.9843Y-2.2331
M15
G01X2.9843Y-2.426
M16
G05
G00X3.0768Y-2.4673
M15
G01X3.2224Y-2.4673
M16
G05
G00X3.315Y-2.2331
M15
G01X3.315Y-2.426
M16
G05
G00X3.3303Y-2.2331
M15
G01X3.3303Y-2.426
M16
G05
G00X3.3606Y-2.2331
M15
G01X3.3606Y-2.426
M16
G05
G00X3.6472Y-1.0272
M15
G01X3.6472Y-1.2201
M16
G05
G00X3.6776Y-1.0272
M15
G01X3.6776Y-1.2201
M16
G05
G00X3.6929Y-1.0272
M15
G01X3.6929Y-1.2201
M16
G05
G00X3.7854Y-1.2614
M15
G01X3.9311Y-1.2614
M16
G05
G00X4.0236Y-1.0272
M15
G01X4.0236Y-1.2201
M16
G05
G00X4.039Y-1.0272
M15
G01X4.039Y-1.2201
M16
G05
G00X4.0693Y-1.0272
M15
G01X4.0693Y-1.2201
M16
G05
G00X4.3559Y-1.7902
M15
G01X4.3559Y-1.9831
M16
G05
G00X4.3862Y-1.7902
M15
G01X4.3862Y-1.9831
M16
G05
G00X4.4016Y-1.7902
M15
G01X4.4016Y-1.9831
M16
G05
G00X4.4941Y-2.0244
M15
G01X4.6398Y-2.0244
M16
G05
G00X4.7323Y-1.7902
M15
G01X4.7323Y-1.9831
M16
G05
G00X4.7476Y-1.7902
M15
G01X4.7476Y-1.9831
M16
G05
G00X4.778Y-1.7902
M15
G01X4.778Y-1.9831
M16
G05
G00X4.3559Y-2.4594
M15
G01X4.3559Y-2.6524
M16
G05
G00X4.3862Y-2.4594
M15
G01X4.3862Y-2.6524
M16
G05
G00X4.4016Y-2.4594
M15
G01X4.4016Y-2.6524
M16
G05
G00X4.4941Y-2.6937
M15
G01X4.6398Y-2.6937
M16
G05
G00X4.7323Y-2.4594
M15
G01X4.7323Y-2.6524
M16
G05
G00X4.7476Y-2.4594
M15
G01X4.7476Y-2.6524
M16
G05
G00X4.778Y-2.4594
M15
G01X4.778Y-2.6524
M16
G05
G00X2.2299Y-1.0272
M15
G01X2.2299Y-1.2201
M16
G05
G00X2.2602Y-1.0272
M15
G01X2.2602Y-1.2201
M16
G05
G00X2.2756Y-1.0272
M15
G01X2.2756Y-1.2201
M16
G05
G00X2.3681Y-1.2614
M15
G01X2.5138Y-1.2614
M16
G05
G00X2.6063Y-1.0272
M15
G01X2.6063Y-1.2201
M16
G05
G00X2.6217Y-1.0272
M15
G01X2.6217Y-1.2201
M16
G05
G00X2.652Y-1.0272
M15
G01X2.652Y-1.2201
M16
G05
T4
G00X3.0325Y-2.3295
M15
G01X3.2667Y-2.3295
M16
G05
G00X3.7411Y-1.1236
M15
G01X3.9754Y-1.1236
M16
G05
G00X4.4498Y-1.8866
M15
G01X4.6841Y-1.8866
M16
G05
G00X4.4498Y-2.5559
M15
G01X4.6841Y-2.5559
M16
G05
G00X2.3238Y-1.1236
M15
G01X2.5581Y-1.1236
M16
G05
G00X3.7411Y-2.4624
M15
G01X3.9754Y-2.4624
M16
G05
G00X2.3238Y-2.4624
M15
G01X2.5581Y-2.4624
M16
G05
G00X1.6152Y-2.1299
M15
G01X1.8494Y-2.1299
M16
G05
G00X3.0325Y-1.6602
M15
G01X3.2667Y-1.6602
M16
G05
G00X4.2095Y-3.2324
M15
G01X4.4401Y-3.2731
M16
G05
G00X1.6152Y-1.4606
M15
G01X1.8494Y-1.4606
M16
G05
G00X2.3238Y-1.7929
M15
G01X2.5581Y-1.7929
M16
G05
G00X4.9903Y-3.4718
M15
G01X5.1932Y-3.5889
M16
G05
G00X1.6152Y-2.7994
M15
G01X1.8494Y-2.7994
M16
G05
G00X3.7411Y-1.7929
M15
G01X3.9754Y-1.7929
M16
G05
G00X3.0325Y-0.9913
M15
G01X3.2667Y-0.9913
M16
G05
G00X4.4498Y-1.2173
M15
G01X4.6841Y-1.2173
M16
G05
T0
M30
