G04 #@! TF.GenerationSoftware,KiCad,Pcbnew,5.1.6*
G04 #@! TF.CreationDate,2020-09-08T14:16:16+01:00*
G04 #@! TF.ProjectId,noip,6e6f6970-2e6b-4696-9361-645f70636258,.1*
G04 #@! TF.SameCoordinates,Original*
G04 #@! TF.FileFunction,Legend,Bot*
G04 #@! TF.FilePolarity,Positive*
%FSLAX46Y46*%
G04 Gerber Fmt 4.6, Leading zero omitted, Abs format (unit mm)*
G04 Created by KiCad (PCBNEW 5.1.6) date 2020-09-08 14:16:16*
%MOMM*%
%LPD*%
G01*
G04 APERTURE LIST*
%ADD10C,0.150000*%
G04 APERTURE END LIST*
D10*
X116900000Y-97400000D02*
X116900000Y-98400000D01*
X117900000Y-97400000D02*
X116900000Y-97400000D01*
X130900000Y-97400000D02*
X129900000Y-97400000D01*
X130900000Y-98400000D02*
X130900000Y-97400000D01*
X130900000Y-111400000D02*
X130900000Y-110400000D01*
X129900000Y-111400000D02*
X130900000Y-111400000D01*
X116900000Y-111400000D02*
X117900000Y-111400000D01*
X116900000Y-110400000D02*
X116900000Y-111400000D01*
X181400000Y-98400000D02*
X181400000Y-97400000D01*
X181400000Y-97400000D02*
X180400000Y-97400000D01*
X168400000Y-97400000D02*
X167400000Y-97400000D01*
X167400000Y-97400000D02*
X167400000Y-98400000D01*
X167400000Y-110400000D02*
X167400000Y-111400000D01*
X167400000Y-111400000D02*
X168400000Y-111400000D01*
X180400000Y-111400000D02*
X181400000Y-111400000D01*
X181400000Y-111400000D02*
X181400000Y-110400000D01*
X244000000Y-58200000D02*
X244000000Y-59200000D01*
X243000000Y-58200000D02*
X244000000Y-58200000D01*
X244000000Y-72200000D02*
X243000000Y-72200000D01*
X244000000Y-71200000D02*
X244000000Y-72200000D01*
X230000000Y-72200000D02*
X230000000Y-71200000D01*
X231000000Y-72200000D02*
X230000000Y-72200000D01*
X230000000Y-58200000D02*
X231000000Y-58200000D01*
X230000000Y-59200000D02*
X230000000Y-58200000D01*
X226000000Y-45100000D02*
X226000000Y-46100000D01*
X225000000Y-45100000D02*
X226000000Y-45100000D01*
X226000000Y-59100000D02*
X225000000Y-59100000D01*
X226000000Y-58100000D02*
X226000000Y-59100000D01*
X212000000Y-59100000D02*
X212000000Y-58100000D01*
X213000000Y-59100000D02*
X212000000Y-59100000D01*
X212000000Y-45100000D02*
X213000000Y-45100000D01*
X212000000Y-46100000D02*
X212000000Y-45100000D01*
X208000000Y-41700000D02*
X208000000Y-42700000D01*
X207000000Y-41700000D02*
X208000000Y-41700000D01*
X208000000Y-55700000D02*
X207000000Y-55700000D01*
X208000000Y-54700000D02*
X208000000Y-55700000D01*
X194000000Y-55700000D02*
X194000000Y-54700000D01*
X195000000Y-55700000D02*
X194000000Y-55700000D01*
X194000000Y-41700000D02*
X195000000Y-41700000D01*
X194000000Y-42700000D02*
X194000000Y-41700000D01*
X190000000Y-47800000D02*
X190000000Y-48800000D01*
X189000000Y-47800000D02*
X190000000Y-47800000D01*
X190000000Y-61800000D02*
X189000000Y-61800000D01*
X190000000Y-60800000D02*
X190000000Y-61800000D01*
X176000000Y-61800000D02*
X176000000Y-60800000D01*
X177000000Y-61800000D02*
X176000000Y-61800000D01*
X176000000Y-47800000D02*
X177000000Y-47800000D01*
X176000000Y-48800000D02*
X176000000Y-47800000D01*
X121600000Y-47800000D02*
X121600000Y-48800000D01*
X120600000Y-47800000D02*
X121600000Y-47800000D01*
X121600000Y-61800000D02*
X120600000Y-61800000D01*
X121600000Y-60800000D02*
X121600000Y-61800000D01*
X107600000Y-61800000D02*
X107600000Y-60800000D01*
X108600000Y-61800000D02*
X107600000Y-61800000D01*
X107600000Y-47800000D02*
X108600000Y-47800000D01*
X107600000Y-48800000D02*
X107600000Y-47800000D01*
X103700000Y-41700000D02*
X103700000Y-42700000D01*
X102700000Y-41700000D02*
X103700000Y-41700000D01*
X103700000Y-55700000D02*
X102700000Y-55700000D01*
X103700000Y-54700000D02*
X103700000Y-55700000D01*
X89700000Y-55700000D02*
X89700000Y-54700000D01*
X90700000Y-55700000D02*
X89700000Y-55700000D01*
X89700000Y-41700000D02*
X90700000Y-41700000D01*
X89700000Y-42700000D02*
X89700000Y-41700000D01*
X71700000Y-46100000D02*
X71700000Y-45100000D01*
X71700000Y-45100000D02*
X72700000Y-45100000D01*
X72700000Y-59100000D02*
X71700000Y-59100000D01*
X71700000Y-59100000D02*
X71700000Y-58100000D01*
X85700000Y-58100000D02*
X85700000Y-59100000D01*
X85700000Y-59100000D02*
X84700000Y-59100000D01*
X84700000Y-45100000D02*
X85700000Y-45100000D01*
X85700000Y-45100000D02*
X85700000Y-46100000D01*
X67700000Y-58200000D02*
X67700000Y-59200000D01*
X66700000Y-58200000D02*
X67700000Y-58200000D01*
X67700000Y-72200000D02*
X66700000Y-72200000D01*
X67700000Y-71200000D02*
X67700000Y-72200000D01*
X53700000Y-72200000D02*
X53700000Y-71200000D01*
X54700000Y-72200000D02*
X53700000Y-72200000D01*
X53700000Y-58200000D02*
X54700000Y-58200000D01*
X53700000Y-59200000D02*
X53700000Y-58200000D01*
X238809523Y-57349761D02*
X238666666Y-57397380D01*
X238428571Y-57397380D01*
X238333333Y-57349761D01*
X238285714Y-57302142D01*
X238238095Y-57206904D01*
X238238095Y-57111666D01*
X238285714Y-57016428D01*
X238333333Y-56968809D01*
X238428571Y-56921190D01*
X238619047Y-56873571D01*
X238714285Y-56825952D01*
X238761904Y-56778333D01*
X238809523Y-56683095D01*
X238809523Y-56587857D01*
X238761904Y-56492619D01*
X238714285Y-56445000D01*
X238619047Y-56397380D01*
X238380952Y-56397380D01*
X238238095Y-56445000D01*
X237904761Y-56397380D02*
X237666666Y-57397380D01*
X237476190Y-56683095D01*
X237285714Y-57397380D01*
X237047619Y-56397380D01*
X236142857Y-57397380D02*
X236714285Y-57397380D01*
X236428571Y-57397380D02*
X236428571Y-56397380D01*
X236523809Y-56540238D01*
X236619047Y-56635476D01*
X236714285Y-56683095D01*
X235809523Y-56397380D02*
X235142857Y-56397380D01*
X235571428Y-57397380D01*
X220809523Y-44249761D02*
X220666666Y-44297380D01*
X220428571Y-44297380D01*
X220333333Y-44249761D01*
X220285714Y-44202142D01*
X220238095Y-44106904D01*
X220238095Y-44011666D01*
X220285714Y-43916428D01*
X220333333Y-43868809D01*
X220428571Y-43821190D01*
X220619047Y-43773571D01*
X220714285Y-43725952D01*
X220761904Y-43678333D01*
X220809523Y-43583095D01*
X220809523Y-43487857D01*
X220761904Y-43392619D01*
X220714285Y-43345000D01*
X220619047Y-43297380D01*
X220380952Y-43297380D01*
X220238095Y-43345000D01*
X219904761Y-43297380D02*
X219666666Y-44297380D01*
X219476190Y-43583095D01*
X219285714Y-44297380D01*
X219047619Y-43297380D01*
X218142857Y-44297380D02*
X218714285Y-44297380D01*
X218428571Y-44297380D02*
X218428571Y-43297380D01*
X218523809Y-43440238D01*
X218619047Y-43535476D01*
X218714285Y-43583095D01*
X217285714Y-43297380D02*
X217476190Y-43297380D01*
X217571428Y-43345000D01*
X217619047Y-43392619D01*
X217714285Y-43535476D01*
X217761904Y-43725952D01*
X217761904Y-44106904D01*
X217714285Y-44202142D01*
X217666666Y-44249761D01*
X217571428Y-44297380D01*
X217380952Y-44297380D01*
X217285714Y-44249761D01*
X217238095Y-44202142D01*
X217190476Y-44106904D01*
X217190476Y-43868809D01*
X217238095Y-43773571D01*
X217285714Y-43725952D01*
X217380952Y-43678333D01*
X217571428Y-43678333D01*
X217666666Y-43725952D01*
X217714285Y-43773571D01*
X217761904Y-43868809D01*
X202809523Y-40849761D02*
X202666666Y-40897380D01*
X202428571Y-40897380D01*
X202333333Y-40849761D01*
X202285714Y-40802142D01*
X202238095Y-40706904D01*
X202238095Y-40611666D01*
X202285714Y-40516428D01*
X202333333Y-40468809D01*
X202428571Y-40421190D01*
X202619047Y-40373571D01*
X202714285Y-40325952D01*
X202761904Y-40278333D01*
X202809523Y-40183095D01*
X202809523Y-40087857D01*
X202761904Y-39992619D01*
X202714285Y-39945000D01*
X202619047Y-39897380D01*
X202380952Y-39897380D01*
X202238095Y-39945000D01*
X201904761Y-39897380D02*
X201666666Y-40897380D01*
X201476190Y-40183095D01*
X201285714Y-40897380D01*
X201047619Y-39897380D01*
X200142857Y-40897380D02*
X200714285Y-40897380D01*
X200428571Y-40897380D02*
X200428571Y-39897380D01*
X200523809Y-40040238D01*
X200619047Y-40135476D01*
X200714285Y-40183095D01*
X199238095Y-39897380D02*
X199714285Y-39897380D01*
X199761904Y-40373571D01*
X199714285Y-40325952D01*
X199619047Y-40278333D01*
X199380952Y-40278333D01*
X199285714Y-40325952D01*
X199238095Y-40373571D01*
X199190476Y-40468809D01*
X199190476Y-40706904D01*
X199238095Y-40802142D01*
X199285714Y-40849761D01*
X199380952Y-40897380D01*
X199619047Y-40897380D01*
X199714285Y-40849761D01*
X199761904Y-40802142D01*
X184809523Y-46949761D02*
X184666666Y-46997380D01*
X184428571Y-46997380D01*
X184333333Y-46949761D01*
X184285714Y-46902142D01*
X184238095Y-46806904D01*
X184238095Y-46711666D01*
X184285714Y-46616428D01*
X184333333Y-46568809D01*
X184428571Y-46521190D01*
X184619047Y-46473571D01*
X184714285Y-46425952D01*
X184761904Y-46378333D01*
X184809523Y-46283095D01*
X184809523Y-46187857D01*
X184761904Y-46092619D01*
X184714285Y-46045000D01*
X184619047Y-45997380D01*
X184380952Y-45997380D01*
X184238095Y-46045000D01*
X183904761Y-45997380D02*
X183666666Y-46997380D01*
X183476190Y-46283095D01*
X183285714Y-46997380D01*
X183047619Y-45997380D01*
X182142857Y-46997380D02*
X182714285Y-46997380D01*
X182428571Y-46997380D02*
X182428571Y-45997380D01*
X182523809Y-46140238D01*
X182619047Y-46235476D01*
X182714285Y-46283095D01*
X181761904Y-46092619D02*
X181714285Y-46045000D01*
X181619047Y-45997380D01*
X181380952Y-45997380D01*
X181285714Y-46045000D01*
X181238095Y-46092619D01*
X181190476Y-46187857D01*
X181190476Y-46283095D01*
X181238095Y-46425952D01*
X181809523Y-46997380D01*
X181190476Y-46997380D01*
X115933333Y-46949761D02*
X115790476Y-46997380D01*
X115552380Y-46997380D01*
X115457142Y-46949761D01*
X115409523Y-46902142D01*
X115361904Y-46806904D01*
X115361904Y-46711666D01*
X115409523Y-46616428D01*
X115457142Y-46568809D01*
X115552380Y-46521190D01*
X115742857Y-46473571D01*
X115838095Y-46425952D01*
X115885714Y-46378333D01*
X115933333Y-46283095D01*
X115933333Y-46187857D01*
X115885714Y-46092619D01*
X115838095Y-46045000D01*
X115742857Y-45997380D01*
X115504761Y-45997380D01*
X115361904Y-46045000D01*
X115028571Y-45997380D02*
X114790476Y-46997380D01*
X114600000Y-46283095D01*
X114409523Y-46997380D01*
X114171428Y-45997380D01*
X113361904Y-45997380D02*
X113552380Y-45997380D01*
X113647619Y-46045000D01*
X113695238Y-46092619D01*
X113790476Y-46235476D01*
X113838095Y-46425952D01*
X113838095Y-46806904D01*
X113790476Y-46902142D01*
X113742857Y-46949761D01*
X113647619Y-46997380D01*
X113457142Y-46997380D01*
X113361904Y-46949761D01*
X113314285Y-46902142D01*
X113266666Y-46806904D01*
X113266666Y-46568809D01*
X113314285Y-46473571D01*
X113361904Y-46425952D01*
X113457142Y-46378333D01*
X113647619Y-46378333D01*
X113742857Y-46425952D01*
X113790476Y-46473571D01*
X113838095Y-46568809D01*
X98033333Y-40849761D02*
X97890476Y-40897380D01*
X97652380Y-40897380D01*
X97557142Y-40849761D01*
X97509523Y-40802142D01*
X97461904Y-40706904D01*
X97461904Y-40611666D01*
X97509523Y-40516428D01*
X97557142Y-40468809D01*
X97652380Y-40421190D01*
X97842857Y-40373571D01*
X97938095Y-40325952D01*
X97985714Y-40278333D01*
X98033333Y-40183095D01*
X98033333Y-40087857D01*
X97985714Y-39992619D01*
X97938095Y-39945000D01*
X97842857Y-39897380D01*
X97604761Y-39897380D01*
X97461904Y-39945000D01*
X97128571Y-39897380D02*
X96890476Y-40897380D01*
X96700000Y-40183095D01*
X96509523Y-40897380D01*
X96271428Y-39897380D01*
X95414285Y-39897380D02*
X95890476Y-39897380D01*
X95938095Y-40373571D01*
X95890476Y-40325952D01*
X95795238Y-40278333D01*
X95557142Y-40278333D01*
X95461904Y-40325952D01*
X95414285Y-40373571D01*
X95366666Y-40468809D01*
X95366666Y-40706904D01*
X95414285Y-40802142D01*
X95461904Y-40849761D01*
X95557142Y-40897380D01*
X95795238Y-40897380D01*
X95890476Y-40849761D01*
X95938095Y-40802142D01*
X80033333Y-44249761D02*
X79890476Y-44297380D01*
X79652380Y-44297380D01*
X79557142Y-44249761D01*
X79509523Y-44202142D01*
X79461904Y-44106904D01*
X79461904Y-44011666D01*
X79509523Y-43916428D01*
X79557142Y-43868809D01*
X79652380Y-43821190D01*
X79842857Y-43773571D01*
X79938095Y-43725952D01*
X79985714Y-43678333D01*
X80033333Y-43583095D01*
X80033333Y-43487857D01*
X79985714Y-43392619D01*
X79938095Y-43345000D01*
X79842857Y-43297380D01*
X79604761Y-43297380D01*
X79461904Y-43345000D01*
X79128571Y-43297380D02*
X78890476Y-44297380D01*
X78700000Y-43583095D01*
X78509523Y-44297380D01*
X78271428Y-43297380D01*
X77461904Y-43630714D02*
X77461904Y-44297380D01*
X77700000Y-43249761D02*
X77938095Y-43964047D01*
X77319047Y-43964047D01*
X62033333Y-57349761D02*
X61890476Y-57397380D01*
X61652380Y-57397380D01*
X61557142Y-57349761D01*
X61509523Y-57302142D01*
X61461904Y-57206904D01*
X61461904Y-57111666D01*
X61509523Y-57016428D01*
X61557142Y-56968809D01*
X61652380Y-56921190D01*
X61842857Y-56873571D01*
X61938095Y-56825952D01*
X61985714Y-56778333D01*
X62033333Y-56683095D01*
X62033333Y-56587857D01*
X61985714Y-56492619D01*
X61938095Y-56445000D01*
X61842857Y-56397380D01*
X61604761Y-56397380D01*
X61461904Y-56445000D01*
X61128571Y-56397380D02*
X60890476Y-57397380D01*
X60700000Y-56683095D01*
X60509523Y-57397380D01*
X60271428Y-56397380D01*
X59985714Y-56397380D02*
X59366666Y-56397380D01*
X59700000Y-56778333D01*
X59557142Y-56778333D01*
X59461904Y-56825952D01*
X59414285Y-56873571D01*
X59366666Y-56968809D01*
X59366666Y-57206904D01*
X59414285Y-57302142D01*
X59461904Y-57349761D01*
X59557142Y-57397380D01*
X59842857Y-57397380D01*
X59938095Y-57349761D01*
X59985714Y-57302142D01*
M02*
