M48
; DRILL file {KiCad 5.1.6} date Tue Sep  8 14:16:19 2020
; FORMAT={-:-/ absolute / inch / decimal}
; #@! TF.CreationDate,2020-09-08T14:16:19+01:00
; #@! TF.GenerationSoftware,Kicad,Pcbnew,5.1.6
; #@! TF.FileFunction,Plated,1,2,PTH
FMAT,2
INCH
T1C0.0394
T2C0.0500
T3C0.0866
%
G90
G05
T1
X5.5827Y-1.7776
X5.5827Y-1.8776
X5.5827Y-1.9776
X5.5827Y-2.0776
X5.5827Y-2.1776
X5.5827Y-2.2776
X5.5827Y-2.3776
X5.5827Y-2.4776
X5.5827Y-2.5776
X5.5827Y-2.6776
X5.5827Y-2.7776
X5.5827Y-2.8776
X5.6827Y-1.9776
X5.7827Y-1.9776
X5.8827Y-1.9776
X6.0817Y-1.9776
X6.1817Y-1.7776
X6.1817Y-1.8776
X6.1817Y-1.9776
X6.1817Y-2.0776
X6.1817Y-2.1776
X6.1817Y-2.2776
X6.1817Y-2.3776
X6.1817Y-2.4776
X6.1817Y-2.5776
X6.1817Y-2.6776
X6.1817Y-2.7776
X6.1817Y-2.8776
T2
X3.6102Y-2.0669
X3.8071Y-2.1496
X4.0039Y-2.0669
X7.0079Y-2.3071
X7.2047Y-2.3898
X7.4016Y-2.3071
X5.0276Y-3.9134
X5.0276Y-4.3071
X5.1102Y-4.1102
X4.315Y-2.3071
X4.5118Y-2.3898
X4.7087Y-2.3071
X8.4252Y-2.2008
X8.622Y-2.2835
X8.8189Y-2.2008
X2.1929Y-2.7165
X2.3898Y-2.7992
X2.5866Y-2.7165
X2.9016Y-2.2008
X3.0984Y-2.2835
X3.2953Y-2.2008
X7.7165Y-2.0669
X7.9134Y-2.1496
X8.1102Y-2.0669
X9.1339Y-2.7165
X9.3307Y-2.7992
X9.5276Y-2.7165
X6.6339Y-4.1102
X6.7165Y-3.9134
X6.7165Y-4.3071
T3
X5.6067Y-1.6663
X6.1577Y-1.6663
T0
M30
