G04 #@! TF.GenerationSoftware,KiCad,Pcbnew,5.1.6*
G04 #@! TF.CreationDate,2020-09-08T14:16:16+01:00*
G04 #@! TF.ProjectId,noip,6e6f6970-2e6b-4696-9361-645f70636258,.1*
G04 #@! TF.SameCoordinates,Original*
G04 #@! TF.FileFunction,Legend,Top*
G04 #@! TF.FilePolarity,Positive*
%FSLAX46Y46*%
G04 Gerber Fmt 4.6, Leading zero omitted, Abs format (unit mm)*
G04 Created by KiCad (PCBNEW 5.1.6) date 2020-09-08 14:16:16*
%MOMM*%
%LPD*%
G01*
G04 APERTURE LIST*
%ADD10C,0.150000*%
%ADD11C,0.125000*%
G04 APERTURE END LIST*
D10*
X141800000Y-74360000D02*
X142310000Y-74360000D01*
X158310000Y-73090000D02*
X158310000Y-41876000D01*
X140530000Y-41876000D02*
X140530000Y-73090000D01*
X141800000Y-40606000D02*
X157040000Y-40606000D01*
X150150000Y-60365000D02*
G75*
G03*
X150150000Y-60365000I-750000J0D01*
G01*
X156532000Y-74360000D02*
X157040000Y-74360000D01*
X157040000Y-74360000D02*
X141800000Y-74360000D01*
X158310000Y-41876000D02*
G75*
G03*
X157040000Y-40606000I-1270000J0D01*
G01*
X141800000Y-40606000D02*
G75*
G03*
X140530000Y-41876000I0J-1270000D01*
G01*
X157040000Y-74360000D02*
G75*
G03*
X158310000Y-73090000I0J1270000D01*
G01*
X140530000Y-73090000D02*
G75*
G03*
X141800000Y-74360000I1270000J0D01*
G01*
X116900000Y-111400000D02*
X117900000Y-111400000D01*
X116900000Y-110400000D02*
X116900000Y-111400000D01*
X130900000Y-111400000D02*
X130900000Y-110400000D01*
X129900000Y-111400000D02*
X130900000Y-111400000D01*
X130900000Y-97400000D02*
X129900000Y-97400000D01*
X130900000Y-98400000D02*
X130900000Y-97400000D01*
X116900000Y-97400000D02*
X116900000Y-98400000D01*
X117900000Y-97400000D02*
X116900000Y-97400000D01*
X180400000Y-111400000D02*
X181400000Y-111400000D01*
X181400000Y-111400000D02*
X181400000Y-110400000D01*
X167400000Y-110400000D02*
X167400000Y-111400000D01*
X167400000Y-111400000D02*
X168400000Y-111400000D01*
X168400000Y-97400000D02*
X167400000Y-97400000D01*
X167400000Y-97400000D02*
X167400000Y-98400000D01*
X181400000Y-98400000D02*
X181400000Y-97400000D01*
X181400000Y-97400000D02*
X180400000Y-97400000D01*
X230000000Y-58200000D02*
X231000000Y-58200000D01*
X230000000Y-59200000D02*
X230000000Y-58200000D01*
X230000000Y-72200000D02*
X230000000Y-71200000D01*
X231000000Y-72200000D02*
X230000000Y-72200000D01*
X244000000Y-72200000D02*
X243000000Y-72200000D01*
X244000000Y-71200000D02*
X244000000Y-72200000D01*
X244000000Y-58200000D02*
X244000000Y-59200000D01*
X243000000Y-58200000D02*
X244000000Y-58200000D01*
X212000000Y-45100000D02*
X213000000Y-45100000D01*
X212000000Y-46100000D02*
X212000000Y-45100000D01*
X212000000Y-59100000D02*
X212000000Y-58100000D01*
X213000000Y-59100000D02*
X212000000Y-59100000D01*
X226000000Y-59100000D02*
X225000000Y-59100000D01*
X226000000Y-58100000D02*
X226000000Y-59100000D01*
X226000000Y-45100000D02*
X226000000Y-46100000D01*
X225000000Y-45100000D02*
X226000000Y-45100000D01*
X194000000Y-41700000D02*
X195000000Y-41700000D01*
X194000000Y-42700000D02*
X194000000Y-41700000D01*
X194000000Y-55700000D02*
X194000000Y-54700000D01*
X195000000Y-55700000D02*
X194000000Y-55700000D01*
X208000000Y-55700000D02*
X207000000Y-55700000D01*
X208000000Y-54700000D02*
X208000000Y-55700000D01*
X208000000Y-41700000D02*
X208000000Y-42700000D01*
X207000000Y-41700000D02*
X208000000Y-41700000D01*
X176000000Y-47800000D02*
X177000000Y-47800000D01*
X176000000Y-48800000D02*
X176000000Y-47800000D01*
X176000000Y-61800000D02*
X176000000Y-60800000D01*
X177000000Y-61800000D02*
X176000000Y-61800000D01*
X190000000Y-61800000D02*
X189000000Y-61800000D01*
X190000000Y-60800000D02*
X190000000Y-61800000D01*
X190000000Y-47800000D02*
X190000000Y-48800000D01*
X189000000Y-47800000D02*
X190000000Y-47800000D01*
X107600000Y-47800000D02*
X108600000Y-47800000D01*
X107600000Y-48800000D02*
X107600000Y-47800000D01*
X107600000Y-61800000D02*
X107600000Y-60800000D01*
X108600000Y-61800000D02*
X107600000Y-61800000D01*
X121600000Y-61800000D02*
X120600000Y-61800000D01*
X121600000Y-60800000D02*
X121600000Y-61800000D01*
X121600000Y-47800000D02*
X121600000Y-48800000D01*
X120600000Y-47800000D02*
X121600000Y-47800000D01*
X89700000Y-41700000D02*
X90700000Y-41700000D01*
X89700000Y-42700000D02*
X89700000Y-41700000D01*
X89700000Y-55700000D02*
X89700000Y-54700000D01*
X90700000Y-55700000D02*
X89700000Y-55700000D01*
X103700000Y-55700000D02*
X102700000Y-55700000D01*
X103700000Y-54700000D02*
X103700000Y-55700000D01*
X103700000Y-41700000D02*
X103700000Y-42700000D01*
X102700000Y-41700000D02*
X103700000Y-41700000D01*
X84700000Y-45100000D02*
X85700000Y-45100000D01*
X85700000Y-45100000D02*
X85700000Y-46100000D01*
X85700000Y-58100000D02*
X85700000Y-59100000D01*
X85700000Y-59100000D02*
X84700000Y-59100000D01*
X72700000Y-59100000D02*
X71700000Y-59100000D01*
X71700000Y-59100000D02*
X71700000Y-58100000D01*
X71700000Y-46100000D02*
X71700000Y-45100000D01*
X71700000Y-45100000D02*
X72700000Y-45100000D01*
X53700000Y-58200000D02*
X54700000Y-58200000D01*
X53700000Y-59200000D02*
X53700000Y-58200000D01*
X53700000Y-72200000D02*
X53700000Y-71200000D01*
X54700000Y-72200000D02*
X53700000Y-72200000D01*
X67700000Y-72200000D02*
X66700000Y-72200000D01*
X67700000Y-71200000D02*
X67700000Y-72200000D01*
X67700000Y-58200000D02*
X67700000Y-59200000D01*
X66700000Y-58200000D02*
X67700000Y-58200000D01*
D11*
X139339261Y-46261285D02*
X139172595Y-45904142D01*
X139053547Y-46261285D02*
X139053547Y-45511285D01*
X139244023Y-45511285D01*
X139291642Y-45547000D01*
X139315452Y-45582714D01*
X139339261Y-45654142D01*
X139339261Y-45761285D01*
X139315452Y-45832714D01*
X139291642Y-45868428D01*
X139244023Y-45904142D01*
X139053547Y-45904142D01*
X139529738Y-46047000D02*
X139767833Y-46047000D01*
X139482119Y-46261285D02*
X139648785Y-45511285D01*
X139815452Y-46261285D01*
X139934500Y-45511285D02*
X140053547Y-46261285D01*
X140148785Y-45725571D01*
X140244023Y-46261285D01*
X140363071Y-45511285D01*
X153844523Y-53125000D02*
X153780714Y-53089285D01*
X153685000Y-53089285D01*
X153589285Y-53125000D01*
X153525476Y-53196428D01*
X153493571Y-53267857D01*
X153461666Y-53410714D01*
X153461666Y-53517857D01*
X153493571Y-53660714D01*
X153525476Y-53732142D01*
X153589285Y-53803571D01*
X153685000Y-53839285D01*
X153748809Y-53839285D01*
X153844523Y-53803571D01*
X153876428Y-53767857D01*
X153876428Y-53517857D01*
X153748809Y-53517857D01*
X154163571Y-53839285D02*
X154163571Y-53089285D01*
X154546428Y-53839285D01*
X154546428Y-53089285D01*
X154865476Y-53839285D02*
X154865476Y-53089285D01*
X155025000Y-53089285D01*
X155120714Y-53125000D01*
X155184523Y-53196428D01*
X155216428Y-53267857D01*
X155248333Y-53410714D01*
X155248333Y-53517857D01*
X155216428Y-53660714D01*
X155184523Y-53732142D01*
X155120714Y-53803571D01*
X155025000Y-53839285D01*
X154865476Y-53839285D01*
X139410690Y-51404785D02*
X139244023Y-51047642D01*
X139124976Y-51404785D02*
X139124976Y-50654785D01*
X139315452Y-50654785D01*
X139363071Y-50690500D01*
X139386880Y-50726214D01*
X139410690Y-50797642D01*
X139410690Y-50904785D01*
X139386880Y-50976214D01*
X139363071Y-51011928D01*
X139315452Y-51047642D01*
X139124976Y-51047642D01*
X139601166Y-51369071D02*
X139672595Y-51404785D01*
X139791642Y-51404785D01*
X139839261Y-51369071D01*
X139863071Y-51333357D01*
X139886880Y-51261928D01*
X139886880Y-51190500D01*
X139863071Y-51119071D01*
X139839261Y-51083357D01*
X139791642Y-51047642D01*
X139696404Y-51011928D01*
X139648785Y-50976214D01*
X139624976Y-50940500D01*
X139601166Y-50869071D01*
X139601166Y-50797642D01*
X139624976Y-50726214D01*
X139648785Y-50690500D01*
X139696404Y-50654785D01*
X139815452Y-50654785D01*
X139886880Y-50690500D01*
X140029738Y-50654785D02*
X140315452Y-50654785D01*
X140172595Y-51404785D02*
X140172595Y-50654785D01*
X139017833Y-53131285D02*
X139184500Y-53881285D01*
X139351166Y-53131285D01*
X139803547Y-53809857D02*
X139779738Y-53845571D01*
X139708309Y-53881285D01*
X139660690Y-53881285D01*
X139589261Y-53845571D01*
X139541642Y-53774142D01*
X139517833Y-53702714D01*
X139494023Y-53559857D01*
X139494023Y-53452714D01*
X139517833Y-53309857D01*
X139541642Y-53238428D01*
X139589261Y-53167000D01*
X139660690Y-53131285D01*
X139708309Y-53131285D01*
X139779738Y-53167000D01*
X139803547Y-53202714D01*
X140303547Y-53809857D02*
X140279738Y-53845571D01*
X140208309Y-53881285D01*
X140160690Y-53881285D01*
X140089261Y-53845571D01*
X140041642Y-53774142D01*
X140017833Y-53702714D01*
X139994023Y-53559857D01*
X139994023Y-53452714D01*
X140017833Y-53309857D01*
X140041642Y-53238428D01*
X140089261Y-53167000D01*
X140160690Y-53131285D01*
X140208309Y-53131285D01*
X140279738Y-53167000D01*
X140303547Y-53202714D01*
X143569285Y-56275000D02*
X143888333Y-56275000D01*
X143505476Y-56489285D02*
X143728809Y-55739285D01*
X143952142Y-56489285D01*
X144111666Y-55739285D02*
X144526428Y-55739285D01*
X144303095Y-56025000D01*
X144398809Y-56025000D01*
X144462619Y-56060714D01*
X144494523Y-56096428D01*
X144526428Y-56167857D01*
X144526428Y-56346428D01*
X144494523Y-56417857D01*
X144462619Y-56453571D01*
X144398809Y-56489285D01*
X144207380Y-56489285D01*
X144143571Y-56453571D01*
X144111666Y-56417857D01*
X145292142Y-55703571D02*
X144717857Y-56667857D01*
X145738809Y-56096428D02*
X145515476Y-56096428D01*
X145515476Y-56489285D02*
X145515476Y-55739285D01*
X145834523Y-55739285D01*
X146376904Y-55989285D02*
X146376904Y-56489285D01*
X146217380Y-55703571D02*
X146057857Y-56239285D01*
X146472619Y-56239285D01*
X143569285Y-58775000D02*
X143888333Y-58775000D01*
X143505476Y-58989285D02*
X143728809Y-58239285D01*
X143952142Y-58989285D01*
X144143571Y-58310714D02*
X144175476Y-58275000D01*
X144239285Y-58239285D01*
X144398809Y-58239285D01*
X144462619Y-58275000D01*
X144494523Y-58310714D01*
X144526428Y-58382142D01*
X144526428Y-58453571D01*
X144494523Y-58560714D01*
X144111666Y-58989285D01*
X144526428Y-58989285D01*
X145292142Y-58203571D02*
X144717857Y-59167857D01*
X145738809Y-58596428D02*
X145515476Y-58596428D01*
X145515476Y-58989285D02*
X145515476Y-58239285D01*
X145834523Y-58239285D01*
X146408809Y-58239285D02*
X146089761Y-58239285D01*
X146057857Y-58596428D01*
X146089761Y-58560714D01*
X146153571Y-58525000D01*
X146313095Y-58525000D01*
X146376904Y-58560714D01*
X146408809Y-58596428D01*
X146440714Y-58667857D01*
X146440714Y-58846428D01*
X146408809Y-58917857D01*
X146376904Y-58953571D01*
X146313095Y-58989285D01*
X146153571Y-58989285D01*
X146089761Y-58953571D01*
X146057857Y-58917857D01*
X143569285Y-61275000D02*
X143888333Y-61275000D01*
X143505476Y-61489285D02*
X143728809Y-60739285D01*
X143952142Y-61489285D01*
X144526428Y-61489285D02*
X144143571Y-61489285D01*
X144335000Y-61489285D02*
X144335000Y-60739285D01*
X144271190Y-60846428D01*
X144207380Y-60917857D01*
X144143571Y-60953571D01*
X145292142Y-60703571D02*
X144717857Y-61667857D01*
X145738809Y-61096428D02*
X145515476Y-61096428D01*
X145515476Y-61489285D02*
X145515476Y-60739285D01*
X145834523Y-60739285D01*
X146376904Y-60739285D02*
X146249285Y-60739285D01*
X146185476Y-60775000D01*
X146153571Y-60810714D01*
X146089761Y-60917857D01*
X146057857Y-61060714D01*
X146057857Y-61346428D01*
X146089761Y-61417857D01*
X146121666Y-61453571D01*
X146185476Y-61489285D01*
X146313095Y-61489285D01*
X146376904Y-61453571D01*
X146408809Y-61417857D01*
X146440714Y-61346428D01*
X146440714Y-61167857D01*
X146408809Y-61096428D01*
X146376904Y-61060714D01*
X146313095Y-61025000D01*
X146185476Y-61025000D01*
X146121666Y-61060714D01*
X146089761Y-61096428D01*
X146057857Y-61167857D01*
X143569285Y-63825000D02*
X143888333Y-63825000D01*
X143505476Y-64039285D02*
X143728809Y-63289285D01*
X143952142Y-64039285D01*
X144303095Y-63289285D02*
X144366904Y-63289285D01*
X144430714Y-63325000D01*
X144462619Y-63360714D01*
X144494523Y-63432142D01*
X144526428Y-63575000D01*
X144526428Y-63753571D01*
X144494523Y-63896428D01*
X144462619Y-63967857D01*
X144430714Y-64003571D01*
X144366904Y-64039285D01*
X144303095Y-64039285D01*
X144239285Y-64003571D01*
X144207380Y-63967857D01*
X144175476Y-63896428D01*
X144143571Y-63753571D01*
X144143571Y-63575000D01*
X144175476Y-63432142D01*
X144207380Y-63360714D01*
X144239285Y-63325000D01*
X144303095Y-63289285D01*
X145292142Y-63253571D02*
X144717857Y-64217857D01*
X145738809Y-63646428D02*
X145515476Y-63646428D01*
X145515476Y-64039285D02*
X145515476Y-63289285D01*
X145834523Y-63289285D01*
X146025952Y-63289285D02*
X146472619Y-63289285D01*
X146185476Y-64039285D01*
X143872380Y-66589285D02*
X143489523Y-66589285D01*
X143680952Y-66589285D02*
X143680952Y-65839285D01*
X143617142Y-65946428D01*
X143553333Y-66017857D01*
X143489523Y-66053571D01*
X144478571Y-65839285D02*
X144159523Y-65839285D01*
X144127619Y-66196428D01*
X144159523Y-66160714D01*
X144223333Y-66125000D01*
X144382857Y-66125000D01*
X144446666Y-66160714D01*
X144478571Y-66196428D01*
X144510476Y-66267857D01*
X144510476Y-66446428D01*
X144478571Y-66517857D01*
X144446666Y-66553571D01*
X144382857Y-66589285D01*
X144223333Y-66589285D01*
X144159523Y-66553571D01*
X144127619Y-66517857D01*
X145276190Y-65803571D02*
X144701904Y-66767857D01*
X145722857Y-66196428D02*
X145818571Y-66232142D01*
X145850476Y-66267857D01*
X145882380Y-66339285D01*
X145882380Y-66446428D01*
X145850476Y-66517857D01*
X145818571Y-66553571D01*
X145754761Y-66589285D01*
X145499523Y-66589285D01*
X145499523Y-65839285D01*
X145722857Y-65839285D01*
X145786666Y-65875000D01*
X145818571Y-65910714D01*
X145850476Y-65982142D01*
X145850476Y-66053571D01*
X145818571Y-66125000D01*
X145786666Y-66160714D01*
X145722857Y-66196428D01*
X145499523Y-66196428D01*
X146520476Y-66589285D02*
X146137619Y-66589285D01*
X146329047Y-66589285D02*
X146329047Y-65839285D01*
X146265238Y-65946428D01*
X146201428Y-66017857D01*
X146137619Y-66053571D01*
X143872380Y-69139285D02*
X143489523Y-69139285D01*
X143680952Y-69139285D02*
X143680952Y-68389285D01*
X143617142Y-68496428D01*
X143553333Y-68567857D01*
X143489523Y-68603571D01*
X144446666Y-68639285D02*
X144446666Y-69139285D01*
X144287142Y-68353571D02*
X144127619Y-68889285D01*
X144542380Y-68889285D01*
X145276190Y-68353571D02*
X144701904Y-69317857D01*
X145722857Y-68746428D02*
X145818571Y-68782142D01*
X145850476Y-68817857D01*
X145882380Y-68889285D01*
X145882380Y-68996428D01*
X145850476Y-69067857D01*
X145818571Y-69103571D01*
X145754761Y-69139285D01*
X145499523Y-69139285D01*
X145499523Y-68389285D01*
X145722857Y-68389285D01*
X145786666Y-68425000D01*
X145818571Y-68460714D01*
X145850476Y-68532142D01*
X145850476Y-68603571D01*
X145818571Y-68675000D01*
X145786666Y-68710714D01*
X145722857Y-68746428D01*
X145499523Y-68746428D01*
X146105714Y-68389285D02*
X146520476Y-68389285D01*
X146297142Y-68675000D01*
X146392857Y-68675000D01*
X146456666Y-68710714D01*
X146488571Y-68746428D01*
X146520476Y-68817857D01*
X146520476Y-68996428D01*
X146488571Y-69067857D01*
X146456666Y-69103571D01*
X146392857Y-69139285D01*
X146201428Y-69139285D01*
X146137619Y-69103571D01*
X146105714Y-69067857D01*
X143872380Y-74189285D02*
X143489523Y-74189285D01*
X143680952Y-74189285D02*
X143680952Y-73439285D01*
X143617142Y-73546428D01*
X143553333Y-73617857D01*
X143489523Y-73653571D01*
X144287142Y-73439285D02*
X144350952Y-73439285D01*
X144414761Y-73475000D01*
X144446666Y-73510714D01*
X144478571Y-73582142D01*
X144510476Y-73725000D01*
X144510476Y-73903571D01*
X144478571Y-74046428D01*
X144446666Y-74117857D01*
X144414761Y-74153571D01*
X144350952Y-74189285D01*
X144287142Y-74189285D01*
X144223333Y-74153571D01*
X144191428Y-74117857D01*
X144159523Y-74046428D01*
X144127619Y-73903571D01*
X144127619Y-73725000D01*
X144159523Y-73582142D01*
X144191428Y-73510714D01*
X144223333Y-73475000D01*
X144287142Y-73439285D01*
X145276190Y-73403571D02*
X144701904Y-74367857D01*
X145722857Y-73796428D02*
X145818571Y-73832142D01*
X145850476Y-73867857D01*
X145882380Y-73939285D01*
X145882380Y-74046428D01*
X145850476Y-74117857D01*
X145818571Y-74153571D01*
X145754761Y-74189285D01*
X145499523Y-74189285D01*
X145499523Y-73439285D01*
X145722857Y-73439285D01*
X145786666Y-73475000D01*
X145818571Y-73510714D01*
X145850476Y-73582142D01*
X145850476Y-73653571D01*
X145818571Y-73725000D01*
X145786666Y-73760714D01*
X145722857Y-73796428D01*
X145499523Y-73796428D01*
X146456666Y-73439285D02*
X146329047Y-73439285D01*
X146265238Y-73475000D01*
X146233333Y-73510714D01*
X146169523Y-73617857D01*
X146137619Y-73760714D01*
X146137619Y-74046428D01*
X146169523Y-74117857D01*
X146201428Y-74153571D01*
X146265238Y-74189285D01*
X146392857Y-74189285D01*
X146456666Y-74153571D01*
X146488571Y-74117857D01*
X146520476Y-74046428D01*
X146520476Y-73867857D01*
X146488571Y-73796428D01*
X146456666Y-73760714D01*
X146392857Y-73725000D01*
X146265238Y-73725000D01*
X146201428Y-73760714D01*
X146169523Y-73796428D01*
X146137619Y-73867857D01*
X143872380Y-71689285D02*
X143489523Y-71689285D01*
X143680952Y-71689285D02*
X143680952Y-70939285D01*
X143617142Y-71046428D01*
X143553333Y-71117857D01*
X143489523Y-71153571D01*
X144446666Y-70939285D02*
X144319047Y-70939285D01*
X144255238Y-70975000D01*
X144223333Y-71010714D01*
X144159523Y-71117857D01*
X144127619Y-71260714D01*
X144127619Y-71546428D01*
X144159523Y-71617857D01*
X144191428Y-71653571D01*
X144255238Y-71689285D01*
X144382857Y-71689285D01*
X144446666Y-71653571D01*
X144478571Y-71617857D01*
X144510476Y-71546428D01*
X144510476Y-71367857D01*
X144478571Y-71296428D01*
X144446666Y-71260714D01*
X144382857Y-71225000D01*
X144255238Y-71225000D01*
X144191428Y-71260714D01*
X144159523Y-71296428D01*
X144127619Y-71367857D01*
X145276190Y-70903571D02*
X144701904Y-71867857D01*
X145722857Y-71296428D02*
X145818571Y-71332142D01*
X145850476Y-71367857D01*
X145882380Y-71439285D01*
X145882380Y-71546428D01*
X145850476Y-71617857D01*
X145818571Y-71653571D01*
X145754761Y-71689285D01*
X145499523Y-71689285D01*
X145499523Y-70939285D01*
X145722857Y-70939285D01*
X145786666Y-70975000D01*
X145818571Y-71010714D01*
X145850476Y-71082142D01*
X145850476Y-71153571D01*
X145818571Y-71225000D01*
X145786666Y-71260714D01*
X145722857Y-71296428D01*
X145499523Y-71296428D01*
X146137619Y-71010714D02*
X146169523Y-70975000D01*
X146233333Y-70939285D01*
X146392857Y-70939285D01*
X146456666Y-70975000D01*
X146488571Y-71010714D01*
X146520476Y-71082142D01*
X146520476Y-71153571D01*
X146488571Y-71260714D01*
X146105714Y-71689285D01*
X146520476Y-71689285D01*
X152972380Y-68596428D02*
X153195714Y-68596428D01*
X153291428Y-68989285D02*
X152972380Y-68989285D01*
X152972380Y-68239285D01*
X153291428Y-68239285D01*
X153865714Y-68239285D02*
X153738095Y-68239285D01*
X153674285Y-68275000D01*
X153642380Y-68310714D01*
X153578571Y-68417857D01*
X153546666Y-68560714D01*
X153546666Y-68846428D01*
X153578571Y-68917857D01*
X153610476Y-68953571D01*
X153674285Y-68989285D01*
X153801904Y-68989285D01*
X153865714Y-68953571D01*
X153897619Y-68917857D01*
X153929523Y-68846428D01*
X153929523Y-68667857D01*
X153897619Y-68596428D01*
X153865714Y-68560714D01*
X153801904Y-68525000D01*
X153674285Y-68525000D01*
X153610476Y-68560714D01*
X153578571Y-68596428D01*
X153546666Y-68667857D01*
X154695238Y-68203571D02*
X154120952Y-69167857D01*
X154854761Y-68239285D02*
X155301428Y-68239285D01*
X155014285Y-68989285D01*
X152940476Y-66439285D02*
X152940476Y-65689285D01*
X153100000Y-65689285D01*
X153195714Y-65725000D01*
X153259523Y-65796428D01*
X153291428Y-65867857D01*
X153323333Y-66010714D01*
X153323333Y-66117857D01*
X153291428Y-66260714D01*
X153259523Y-66332142D01*
X153195714Y-66403571D01*
X153100000Y-66439285D01*
X152940476Y-66439285D01*
X153546666Y-65689285D02*
X153993333Y-65689285D01*
X153706190Y-66439285D01*
X154727142Y-65653571D02*
X154152857Y-66617857D01*
X155237619Y-65689285D02*
X155110000Y-65689285D01*
X155046190Y-65725000D01*
X155014285Y-65760714D01*
X154950476Y-65867857D01*
X154918571Y-66010714D01*
X154918571Y-66296428D01*
X154950476Y-66367857D01*
X154982380Y-66403571D01*
X155046190Y-66439285D01*
X155173809Y-66439285D01*
X155237619Y-66403571D01*
X155269523Y-66367857D01*
X155301428Y-66296428D01*
X155301428Y-66117857D01*
X155269523Y-66046428D01*
X155237619Y-66010714D01*
X155173809Y-65975000D01*
X155046190Y-65975000D01*
X154982380Y-66010714D01*
X154950476Y-66046428D01*
X154918571Y-66117857D01*
X151816190Y-46289285D02*
X151816190Y-45539285D01*
X151975714Y-45539285D01*
X152071428Y-45575000D01*
X152135238Y-45646428D01*
X152167142Y-45717857D01*
X152199047Y-45860714D01*
X152199047Y-45967857D01*
X152167142Y-46110714D01*
X152135238Y-46182142D01*
X152071428Y-46253571D01*
X151975714Y-46289285D01*
X151816190Y-46289285D01*
X152422380Y-45539285D02*
X152837142Y-45539285D01*
X152613809Y-45825000D01*
X152709523Y-45825000D01*
X152773333Y-45860714D01*
X152805238Y-45896428D01*
X152837142Y-45967857D01*
X152837142Y-46146428D01*
X152805238Y-46217857D01*
X152773333Y-46253571D01*
X152709523Y-46289285D01*
X152518095Y-46289285D01*
X152454285Y-46253571D01*
X152422380Y-46217857D01*
X153602857Y-45503571D02*
X153028571Y-46467857D01*
X153730476Y-45539285D02*
X154113333Y-45539285D01*
X153921904Y-46289285D02*
X153921904Y-45539285D01*
X154272857Y-45539285D02*
X154719523Y-46289285D01*
X154719523Y-45539285D02*
X154272857Y-46289285D01*
X155102380Y-45539285D02*
X155166190Y-45539285D01*
X155230000Y-45575000D01*
X155261904Y-45610714D01*
X155293809Y-45682142D01*
X155325714Y-45825000D01*
X155325714Y-46003571D01*
X155293809Y-46146428D01*
X155261904Y-46217857D01*
X155230000Y-46253571D01*
X155166190Y-46289285D01*
X155102380Y-46289285D01*
X155038571Y-46253571D01*
X155006666Y-46217857D01*
X154974761Y-46146428D01*
X154942857Y-46003571D01*
X154942857Y-45825000D01*
X154974761Y-45682142D01*
X155006666Y-45610714D01*
X155038571Y-45575000D01*
X155102380Y-45539285D01*
X152940476Y-61339285D02*
X152940476Y-60589285D01*
X153100000Y-60589285D01*
X153195714Y-60625000D01*
X153259523Y-60696428D01*
X153291428Y-60767857D01*
X153323333Y-60910714D01*
X153323333Y-61017857D01*
X153291428Y-61160714D01*
X153259523Y-61232142D01*
X153195714Y-61303571D01*
X153100000Y-61339285D01*
X152940476Y-61339285D01*
X153897619Y-60839285D02*
X153897619Y-61339285D01*
X153738095Y-60553571D02*
X153578571Y-61089285D01*
X153993333Y-61089285D01*
X154727142Y-60553571D02*
X154152857Y-61517857D01*
X155237619Y-60839285D02*
X155237619Y-61339285D01*
X155078095Y-60553571D02*
X154918571Y-61089285D01*
X155333333Y-61089285D01*
X150366428Y-56303571D02*
X150462142Y-56339285D01*
X150621666Y-56339285D01*
X150685476Y-56303571D01*
X150717380Y-56267857D01*
X150749285Y-56196428D01*
X150749285Y-56125000D01*
X150717380Y-56053571D01*
X150685476Y-56017857D01*
X150621666Y-55982142D01*
X150494047Y-55946428D01*
X150430238Y-55910714D01*
X150398333Y-55875000D01*
X150366428Y-55803571D01*
X150366428Y-55732142D01*
X150398333Y-55660714D01*
X150430238Y-55625000D01*
X150494047Y-55589285D01*
X150653571Y-55589285D01*
X150749285Y-55625000D01*
X151036428Y-56339285D02*
X151036428Y-55589285D01*
X151195952Y-55589285D01*
X151291666Y-55625000D01*
X151355476Y-55696428D01*
X151387380Y-55767857D01*
X151419285Y-55910714D01*
X151419285Y-56017857D01*
X151387380Y-56160714D01*
X151355476Y-56232142D01*
X151291666Y-56303571D01*
X151195952Y-56339285D01*
X151036428Y-56339285D01*
X151674523Y-56125000D02*
X151993571Y-56125000D01*
X151610714Y-56339285D02*
X151834047Y-55589285D01*
X152057380Y-56339285D01*
X152759285Y-55553571D02*
X152185000Y-56517857D01*
X152982619Y-56339285D02*
X152982619Y-55589285D01*
X153142142Y-55589285D01*
X153237857Y-55625000D01*
X153301666Y-55696428D01*
X153333571Y-55767857D01*
X153365476Y-55910714D01*
X153365476Y-56017857D01*
X153333571Y-56160714D01*
X153301666Y-56232142D01*
X153237857Y-56303571D01*
X153142142Y-56339285D01*
X152982619Y-56339285D01*
X154003571Y-56339285D02*
X153620714Y-56339285D01*
X153812142Y-56339285D02*
X153812142Y-55589285D01*
X153748333Y-55696428D01*
X153684523Y-55767857D01*
X153620714Y-55803571D01*
X154769285Y-55553571D02*
X154195000Y-56517857D01*
X154960714Y-55660714D02*
X154992619Y-55625000D01*
X155056428Y-55589285D01*
X155215952Y-55589285D01*
X155279761Y-55625000D01*
X155311666Y-55660714D01*
X155343571Y-55732142D01*
X155343571Y-55803571D01*
X155311666Y-55910714D01*
X154928809Y-56339285D01*
X155343571Y-56339285D01*
X150382380Y-58803571D02*
X150478095Y-58839285D01*
X150637619Y-58839285D01*
X150701428Y-58803571D01*
X150733333Y-58767857D01*
X150765238Y-58696428D01*
X150765238Y-58625000D01*
X150733333Y-58553571D01*
X150701428Y-58517857D01*
X150637619Y-58482142D01*
X150510000Y-58446428D01*
X150446190Y-58410714D01*
X150414285Y-58375000D01*
X150382380Y-58303571D01*
X150382380Y-58232142D01*
X150414285Y-58160714D01*
X150446190Y-58125000D01*
X150510000Y-58089285D01*
X150669523Y-58089285D01*
X150765238Y-58125000D01*
X151435238Y-58767857D02*
X151403333Y-58803571D01*
X151307619Y-58839285D01*
X151243809Y-58839285D01*
X151148095Y-58803571D01*
X151084285Y-58732142D01*
X151052380Y-58660714D01*
X151020476Y-58517857D01*
X151020476Y-58410714D01*
X151052380Y-58267857D01*
X151084285Y-58196428D01*
X151148095Y-58125000D01*
X151243809Y-58089285D01*
X151307619Y-58089285D01*
X151403333Y-58125000D01*
X151435238Y-58160714D01*
X152041428Y-58839285D02*
X151722380Y-58839285D01*
X151722380Y-58089285D01*
X152743333Y-58053571D02*
X152169047Y-59017857D01*
X152966666Y-58839285D02*
X152966666Y-58089285D01*
X153126190Y-58089285D01*
X153221904Y-58125000D01*
X153285714Y-58196428D01*
X153317619Y-58267857D01*
X153349523Y-58410714D01*
X153349523Y-58517857D01*
X153317619Y-58660714D01*
X153285714Y-58732142D01*
X153221904Y-58803571D01*
X153126190Y-58839285D01*
X152966666Y-58839285D01*
X153764285Y-58089285D02*
X153828095Y-58089285D01*
X153891904Y-58125000D01*
X153923809Y-58160714D01*
X153955714Y-58232142D01*
X153987619Y-58375000D01*
X153987619Y-58553571D01*
X153955714Y-58696428D01*
X153923809Y-58767857D01*
X153891904Y-58803571D01*
X153828095Y-58839285D01*
X153764285Y-58839285D01*
X153700476Y-58803571D01*
X153668571Y-58767857D01*
X153636666Y-58696428D01*
X153604761Y-58553571D01*
X153604761Y-58375000D01*
X153636666Y-58232142D01*
X153668571Y-58160714D01*
X153700476Y-58125000D01*
X153764285Y-58089285D01*
X154753333Y-58053571D02*
X154179047Y-59017857D01*
X154912857Y-58089285D02*
X155327619Y-58089285D01*
X155104285Y-58375000D01*
X155200000Y-58375000D01*
X155263809Y-58410714D01*
X155295714Y-58446428D01*
X155327619Y-58517857D01*
X155327619Y-58696428D01*
X155295714Y-58767857D01*
X155263809Y-58803571D01*
X155200000Y-58839285D01*
X155008571Y-58839285D01*
X154944761Y-58803571D01*
X154912857Y-58767857D01*
X153323333Y-63817857D02*
X153291428Y-63853571D01*
X153195714Y-63889285D01*
X153131904Y-63889285D01*
X153036190Y-63853571D01*
X152972380Y-63782142D01*
X152940476Y-63710714D01*
X152908571Y-63567857D01*
X152908571Y-63460714D01*
X152940476Y-63317857D01*
X152972380Y-63246428D01*
X153036190Y-63175000D01*
X153131904Y-63139285D01*
X153195714Y-63139285D01*
X153291428Y-63175000D01*
X153323333Y-63210714D01*
X153897619Y-63139285D02*
X153770000Y-63139285D01*
X153706190Y-63175000D01*
X153674285Y-63210714D01*
X153610476Y-63317857D01*
X153578571Y-63460714D01*
X153578571Y-63746428D01*
X153610476Y-63817857D01*
X153642380Y-63853571D01*
X153706190Y-63889285D01*
X153833809Y-63889285D01*
X153897619Y-63853571D01*
X153929523Y-63817857D01*
X153961428Y-63746428D01*
X153961428Y-63567857D01*
X153929523Y-63496428D01*
X153897619Y-63460714D01*
X153833809Y-63425000D01*
X153706190Y-63425000D01*
X153642380Y-63460714D01*
X153610476Y-63496428D01*
X153578571Y-63567857D01*
X154727142Y-63103571D02*
X154152857Y-64067857D01*
X155269523Y-63139285D02*
X154950476Y-63139285D01*
X154918571Y-63496428D01*
X154950476Y-63460714D01*
X155014285Y-63425000D01*
X155173809Y-63425000D01*
X155237619Y-63460714D01*
X155269523Y-63496428D01*
X155301428Y-63567857D01*
X155301428Y-63746428D01*
X155269523Y-63817857D01*
X155237619Y-63853571D01*
X155173809Y-63889285D01*
X155014285Y-63889285D01*
X154950476Y-63853571D01*
X154918571Y-63817857D01*
X153163809Y-73646428D02*
X153259523Y-73682142D01*
X153291428Y-73717857D01*
X153323333Y-73789285D01*
X153323333Y-73896428D01*
X153291428Y-73967857D01*
X153259523Y-74003571D01*
X153195714Y-74039285D01*
X152940476Y-74039285D01*
X152940476Y-73289285D01*
X153163809Y-73289285D01*
X153227619Y-73325000D01*
X153259523Y-73360714D01*
X153291428Y-73432142D01*
X153291428Y-73503571D01*
X153259523Y-73575000D01*
X153227619Y-73610714D01*
X153163809Y-73646428D01*
X152940476Y-73646428D01*
X153929523Y-73289285D02*
X153610476Y-73289285D01*
X153578571Y-73646428D01*
X153610476Y-73610714D01*
X153674285Y-73575000D01*
X153833809Y-73575000D01*
X153897619Y-73610714D01*
X153929523Y-73646428D01*
X153961428Y-73717857D01*
X153961428Y-73896428D01*
X153929523Y-73967857D01*
X153897619Y-74003571D01*
X153833809Y-74039285D01*
X153674285Y-74039285D01*
X153610476Y-74003571D01*
X153578571Y-73967857D01*
X154727142Y-73253571D02*
X154152857Y-74217857D01*
X154982380Y-74039285D02*
X155110000Y-74039285D01*
X155173809Y-74003571D01*
X155205714Y-73967857D01*
X155269523Y-73860714D01*
X155301428Y-73717857D01*
X155301428Y-73432142D01*
X155269523Y-73360714D01*
X155237619Y-73325000D01*
X155173809Y-73289285D01*
X155046190Y-73289285D01*
X154982380Y-73325000D01*
X154950476Y-73360714D01*
X154918571Y-73432142D01*
X154918571Y-73610714D01*
X154950476Y-73682142D01*
X154982380Y-73717857D01*
X155046190Y-73753571D01*
X155173809Y-73753571D01*
X155237619Y-73717857D01*
X155269523Y-73682142D01*
X155301428Y-73610714D01*
X151736428Y-48839285D02*
X151736428Y-48089285D01*
X151895952Y-48089285D01*
X151991666Y-48125000D01*
X152055476Y-48196428D01*
X152087380Y-48267857D01*
X152119285Y-48410714D01*
X152119285Y-48517857D01*
X152087380Y-48660714D01*
X152055476Y-48732142D01*
X151991666Y-48803571D01*
X151895952Y-48839285D01*
X151736428Y-48839285D01*
X152374523Y-48160714D02*
X152406428Y-48125000D01*
X152470238Y-48089285D01*
X152629761Y-48089285D01*
X152693571Y-48125000D01*
X152725476Y-48160714D01*
X152757380Y-48232142D01*
X152757380Y-48303571D01*
X152725476Y-48410714D01*
X152342619Y-48839285D01*
X152757380Y-48839285D01*
X153523095Y-48053571D02*
X152948809Y-49017857D01*
X154129285Y-48839285D02*
X153905952Y-48482142D01*
X153746428Y-48839285D02*
X153746428Y-48089285D01*
X154001666Y-48089285D01*
X154065476Y-48125000D01*
X154097380Y-48160714D01*
X154129285Y-48232142D01*
X154129285Y-48339285D01*
X154097380Y-48410714D01*
X154065476Y-48446428D01*
X154001666Y-48482142D01*
X153746428Y-48482142D01*
X154352619Y-48089285D02*
X154799285Y-48839285D01*
X154799285Y-48089285D02*
X154352619Y-48839285D01*
X155405476Y-48839285D02*
X155022619Y-48839285D01*
X155214047Y-48839285D02*
X155214047Y-48089285D01*
X155150238Y-48196428D01*
X155086428Y-48267857D01*
X155022619Y-48303571D01*
X153163809Y-71146428D02*
X153259523Y-71182142D01*
X153291428Y-71217857D01*
X153323333Y-71289285D01*
X153323333Y-71396428D01*
X153291428Y-71467857D01*
X153259523Y-71503571D01*
X153195714Y-71539285D01*
X152940476Y-71539285D01*
X152940476Y-70789285D01*
X153163809Y-70789285D01*
X153227619Y-70825000D01*
X153259523Y-70860714D01*
X153291428Y-70932142D01*
X153291428Y-71003571D01*
X153259523Y-71075000D01*
X153227619Y-71110714D01*
X153163809Y-71146428D01*
X152940476Y-71146428D01*
X153897619Y-71039285D02*
X153897619Y-71539285D01*
X153738095Y-70753571D02*
X153578571Y-71289285D01*
X153993333Y-71289285D01*
X154727142Y-70753571D02*
X154152857Y-71717857D01*
X155046190Y-71110714D02*
X154982380Y-71075000D01*
X154950476Y-71039285D01*
X154918571Y-70967857D01*
X154918571Y-70932142D01*
X154950476Y-70860714D01*
X154982380Y-70825000D01*
X155046190Y-70789285D01*
X155173809Y-70789285D01*
X155237619Y-70825000D01*
X155269523Y-70860714D01*
X155301428Y-70932142D01*
X155301428Y-70967857D01*
X155269523Y-71039285D01*
X155237619Y-71075000D01*
X155173809Y-71110714D01*
X155046190Y-71110714D01*
X154982380Y-71146428D01*
X154950476Y-71182142D01*
X154918571Y-71253571D01*
X154918571Y-71396428D01*
X154950476Y-71467857D01*
X154982380Y-71503571D01*
X155046190Y-71539285D01*
X155173809Y-71539285D01*
X155237619Y-71503571D01*
X155269523Y-71467857D01*
X155301428Y-71396428D01*
X155301428Y-71253571D01*
X155269523Y-71182142D01*
X155237619Y-71146428D01*
X155173809Y-71110714D01*
X154578571Y-46261285D02*
X154340476Y-46261285D01*
X154340476Y-45511285D01*
X154745238Y-45868428D02*
X154911904Y-45868428D01*
X154983333Y-46261285D02*
X154745238Y-46261285D01*
X154745238Y-45511285D01*
X154983333Y-45511285D01*
X155197619Y-46261285D02*
X155197619Y-45511285D01*
X155316666Y-45511285D01*
X155388095Y-45547000D01*
X155435714Y-45618428D01*
X155459523Y-45689857D01*
X155483333Y-45832714D01*
X155483333Y-45939857D01*
X155459523Y-46082714D01*
X155435714Y-46154142D01*
X155388095Y-46225571D01*
X155316666Y-46261285D01*
X155197619Y-46261285D01*
X154000000Y-48789285D02*
X154000000Y-48039285D01*
X154119047Y-48039285D01*
X154190476Y-48075000D01*
X154238095Y-48146428D01*
X154261904Y-48217857D01*
X154285714Y-48360714D01*
X154285714Y-48467857D01*
X154261904Y-48610714D01*
X154238095Y-48682142D01*
X154190476Y-48753571D01*
X154119047Y-48789285D01*
X154000000Y-48789285D01*
X154476190Y-48575000D02*
X154714285Y-48575000D01*
X154428571Y-48789285D02*
X154595238Y-48039285D01*
X154761904Y-48789285D01*
X154857142Y-48039285D02*
X155142857Y-48039285D01*
X155000000Y-48789285D02*
X155000000Y-48039285D01*
X155285714Y-48575000D02*
X155523809Y-48575000D01*
X155238095Y-48789285D02*
X155404761Y-48039285D01*
X155571428Y-48789285D01*
X138852380Y-64017857D02*
X138828571Y-64053571D01*
X138757142Y-64089285D01*
X138709523Y-64089285D01*
X138638095Y-64053571D01*
X138590476Y-63982142D01*
X138566666Y-63910714D01*
X138542857Y-63767857D01*
X138542857Y-63660714D01*
X138566666Y-63517857D01*
X138590476Y-63446428D01*
X138638095Y-63375000D01*
X138709523Y-63339285D01*
X138757142Y-63339285D01*
X138828571Y-63375000D01*
X138852380Y-63410714D01*
X139161904Y-63339285D02*
X139257142Y-63339285D01*
X139304761Y-63375000D01*
X139352380Y-63446428D01*
X139376190Y-63589285D01*
X139376190Y-63839285D01*
X139352380Y-63982142D01*
X139304761Y-64053571D01*
X139257142Y-64089285D01*
X139161904Y-64089285D01*
X139114285Y-64053571D01*
X139066666Y-63982142D01*
X139042857Y-63839285D01*
X139042857Y-63589285D01*
X139066666Y-63446428D01*
X139114285Y-63375000D01*
X139161904Y-63339285D01*
X139828571Y-64089285D02*
X139590476Y-64089285D01*
X139590476Y-63339285D01*
X139947619Y-63339285D02*
X140257142Y-63339285D01*
X140090476Y-63625000D01*
X140161904Y-63625000D01*
X140209523Y-63660714D01*
X140233333Y-63696428D01*
X140257142Y-63767857D01*
X140257142Y-63946428D01*
X140233333Y-64017857D01*
X140209523Y-64053571D01*
X140161904Y-64089285D01*
X140019047Y-64089285D01*
X139971428Y-64053571D01*
X139947619Y-64017857D01*
X153969047Y-61539285D02*
X153802380Y-61182142D01*
X153683333Y-61539285D02*
X153683333Y-60789285D01*
X153873809Y-60789285D01*
X153921428Y-60825000D01*
X153945238Y-60860714D01*
X153969047Y-60932142D01*
X153969047Y-61039285D01*
X153945238Y-61110714D01*
X153921428Y-61146428D01*
X153873809Y-61182142D01*
X153683333Y-61182142D01*
X154278571Y-60789285D02*
X154373809Y-60789285D01*
X154421428Y-60825000D01*
X154469047Y-60896428D01*
X154492857Y-61039285D01*
X154492857Y-61289285D01*
X154469047Y-61432142D01*
X154421428Y-61503571D01*
X154373809Y-61539285D01*
X154278571Y-61539285D01*
X154230952Y-61503571D01*
X154183333Y-61432142D01*
X154159523Y-61289285D01*
X154159523Y-61039285D01*
X154183333Y-60896428D01*
X154230952Y-60825000D01*
X154278571Y-60789285D01*
X154659523Y-60789285D02*
X154778571Y-61539285D01*
X154873809Y-61003571D01*
X154969047Y-61539285D01*
X155088095Y-60789285D01*
X155373809Y-60789285D02*
X155421428Y-60789285D01*
X155469047Y-60825000D01*
X155492857Y-60860714D01*
X155516666Y-60932142D01*
X155540476Y-61075000D01*
X155540476Y-61253571D01*
X155516666Y-61396428D01*
X155492857Y-61467857D01*
X155469047Y-61503571D01*
X155421428Y-61539285D01*
X155373809Y-61539285D01*
X155326190Y-61503571D01*
X155302380Y-61467857D01*
X155278571Y-61396428D01*
X155254761Y-61253571D01*
X155254761Y-61075000D01*
X155278571Y-60932142D01*
X155302380Y-60860714D01*
X155326190Y-60825000D01*
X155373809Y-60789285D01*
X138952380Y-61429857D02*
X138928571Y-61465571D01*
X138857142Y-61501285D01*
X138809523Y-61501285D01*
X138738095Y-61465571D01*
X138690476Y-61394142D01*
X138666666Y-61322714D01*
X138642857Y-61179857D01*
X138642857Y-61072714D01*
X138666666Y-60929857D01*
X138690476Y-60858428D01*
X138738095Y-60787000D01*
X138809523Y-60751285D01*
X138857142Y-60751285D01*
X138928571Y-60787000D01*
X138952380Y-60822714D01*
X139261904Y-60751285D02*
X139357142Y-60751285D01*
X139404761Y-60787000D01*
X139452380Y-60858428D01*
X139476190Y-61001285D01*
X139476190Y-61251285D01*
X139452380Y-61394142D01*
X139404761Y-61465571D01*
X139357142Y-61501285D01*
X139261904Y-61501285D01*
X139214285Y-61465571D01*
X139166666Y-61394142D01*
X139142857Y-61251285D01*
X139142857Y-61001285D01*
X139166666Y-60858428D01*
X139214285Y-60787000D01*
X139261904Y-60751285D01*
X139928571Y-61501285D02*
X139690476Y-61501285D01*
X139690476Y-60751285D01*
X140071428Y-60822714D02*
X140095238Y-60787000D01*
X140142857Y-60751285D01*
X140261904Y-60751285D01*
X140309523Y-60787000D01*
X140333333Y-60822714D01*
X140357142Y-60894142D01*
X140357142Y-60965571D01*
X140333333Y-61072714D01*
X140047619Y-61501285D01*
X140357142Y-61501285D01*
X154265761Y-58925571D02*
X154337190Y-58961285D01*
X154456238Y-58961285D01*
X154503857Y-58925571D01*
X154527666Y-58889857D01*
X154551476Y-58818428D01*
X154551476Y-58747000D01*
X154527666Y-58675571D01*
X154503857Y-58639857D01*
X154456238Y-58604142D01*
X154361000Y-58568428D01*
X154313380Y-58532714D01*
X154289571Y-58497000D01*
X154265761Y-58425571D01*
X154265761Y-58354142D01*
X154289571Y-58282714D01*
X154313380Y-58247000D01*
X154361000Y-58211285D01*
X154480047Y-58211285D01*
X154551476Y-58247000D01*
X155051476Y-58889857D02*
X155027666Y-58925571D01*
X154956238Y-58961285D01*
X154908619Y-58961285D01*
X154837190Y-58925571D01*
X154789571Y-58854142D01*
X154765761Y-58782714D01*
X154741952Y-58639857D01*
X154741952Y-58532714D01*
X154765761Y-58389857D01*
X154789571Y-58318428D01*
X154837190Y-58247000D01*
X154908619Y-58211285D01*
X154956238Y-58211285D01*
X155027666Y-58247000D01*
X155051476Y-58282714D01*
X155503857Y-58961285D02*
X155265761Y-58961285D01*
X155265761Y-58211285D01*
X139002380Y-58889857D02*
X138978571Y-58925571D01*
X138907142Y-58961285D01*
X138859523Y-58961285D01*
X138788095Y-58925571D01*
X138740476Y-58854142D01*
X138716666Y-58782714D01*
X138692857Y-58639857D01*
X138692857Y-58532714D01*
X138716666Y-58389857D01*
X138740476Y-58318428D01*
X138788095Y-58247000D01*
X138859523Y-58211285D01*
X138907142Y-58211285D01*
X138978571Y-58247000D01*
X139002380Y-58282714D01*
X139311904Y-58211285D02*
X139407142Y-58211285D01*
X139454761Y-58247000D01*
X139502380Y-58318428D01*
X139526190Y-58461285D01*
X139526190Y-58711285D01*
X139502380Y-58854142D01*
X139454761Y-58925571D01*
X139407142Y-58961285D01*
X139311904Y-58961285D01*
X139264285Y-58925571D01*
X139216666Y-58854142D01*
X139192857Y-58711285D01*
X139192857Y-58461285D01*
X139216666Y-58318428D01*
X139264285Y-58247000D01*
X139311904Y-58211285D01*
X139978571Y-58961285D02*
X139740476Y-58961285D01*
X139740476Y-58211285D01*
X140407142Y-58961285D02*
X140121428Y-58961285D01*
X140264285Y-58961285D02*
X140264285Y-58211285D01*
X140216666Y-58318428D01*
X140169047Y-58389857D01*
X140121428Y-58425571D01*
X154253857Y-56385571D02*
X154325285Y-56421285D01*
X154444333Y-56421285D01*
X154491952Y-56385571D01*
X154515761Y-56349857D01*
X154539571Y-56278428D01*
X154539571Y-56207000D01*
X154515761Y-56135571D01*
X154491952Y-56099857D01*
X154444333Y-56064142D01*
X154349095Y-56028428D01*
X154301476Y-55992714D01*
X154277666Y-55957000D01*
X154253857Y-55885571D01*
X154253857Y-55814142D01*
X154277666Y-55742714D01*
X154301476Y-55707000D01*
X154349095Y-55671285D01*
X154468142Y-55671285D01*
X154539571Y-55707000D01*
X154753857Y-56421285D02*
X154753857Y-55671285D01*
X154872904Y-55671285D01*
X154944333Y-55707000D01*
X154991952Y-55778428D01*
X155015761Y-55849857D01*
X155039571Y-55992714D01*
X155039571Y-56099857D01*
X155015761Y-56242714D01*
X154991952Y-56314142D01*
X154944333Y-56385571D01*
X154872904Y-56421285D01*
X154753857Y-56421285D01*
X155230047Y-56207000D02*
X155468142Y-56207000D01*
X155182428Y-56421285D02*
X155349095Y-55671285D01*
X155515761Y-56421285D01*
X138952380Y-56367857D02*
X138928571Y-56403571D01*
X138857142Y-56439285D01*
X138809523Y-56439285D01*
X138738095Y-56403571D01*
X138690476Y-56332142D01*
X138666666Y-56260714D01*
X138642857Y-56117857D01*
X138642857Y-56010714D01*
X138666666Y-55867857D01*
X138690476Y-55796428D01*
X138738095Y-55725000D01*
X138809523Y-55689285D01*
X138857142Y-55689285D01*
X138928571Y-55725000D01*
X138952380Y-55760714D01*
X139261904Y-55689285D02*
X139357142Y-55689285D01*
X139404761Y-55725000D01*
X139452380Y-55796428D01*
X139476190Y-55939285D01*
X139476190Y-56189285D01*
X139452380Y-56332142D01*
X139404761Y-56403571D01*
X139357142Y-56439285D01*
X139261904Y-56439285D01*
X139214285Y-56403571D01*
X139166666Y-56332142D01*
X139142857Y-56189285D01*
X139142857Y-55939285D01*
X139166666Y-55796428D01*
X139214285Y-55725000D01*
X139261904Y-55689285D01*
X139928571Y-56439285D02*
X139690476Y-56439285D01*
X139690476Y-55689285D01*
X140190476Y-55689285D02*
X140238095Y-55689285D01*
X140285714Y-55725000D01*
X140309523Y-55760714D01*
X140333333Y-55832142D01*
X140357142Y-55975000D01*
X140357142Y-56153571D01*
X140333333Y-56296428D01*
X140309523Y-56367857D01*
X140285714Y-56403571D01*
X140238095Y-56439285D01*
X140190476Y-56439285D01*
X140142857Y-56403571D01*
X140119047Y-56367857D01*
X140095238Y-56296428D01*
X140071428Y-56153571D01*
X140071428Y-55975000D01*
X140095238Y-55832142D01*
X140119047Y-55760714D01*
X140142857Y-55725000D01*
X140190476Y-55689285D01*
X139147619Y-73846428D02*
X139219047Y-73882142D01*
X139242857Y-73917857D01*
X139266666Y-73989285D01*
X139266666Y-74096428D01*
X139242857Y-74167857D01*
X139219047Y-74203571D01*
X139171428Y-74239285D01*
X138980952Y-74239285D01*
X138980952Y-73489285D01*
X139147619Y-73489285D01*
X139195238Y-73525000D01*
X139219047Y-73560714D01*
X139242857Y-73632142D01*
X139242857Y-73703571D01*
X139219047Y-73775000D01*
X139195238Y-73810714D01*
X139147619Y-73846428D01*
X138980952Y-73846428D01*
X139695238Y-73489285D02*
X139600000Y-73489285D01*
X139552380Y-73525000D01*
X139528571Y-73560714D01*
X139480952Y-73667857D01*
X139457142Y-73810714D01*
X139457142Y-74096428D01*
X139480952Y-74167857D01*
X139504761Y-74203571D01*
X139552380Y-74239285D01*
X139647619Y-74239285D01*
X139695238Y-74203571D01*
X139719047Y-74167857D01*
X139742857Y-74096428D01*
X139742857Y-73917857D01*
X139719047Y-73846428D01*
X139695238Y-73810714D01*
X139647619Y-73775000D01*
X139552380Y-73775000D01*
X139504761Y-73810714D01*
X139480952Y-73846428D01*
X139457142Y-73917857D01*
X154397619Y-73871928D02*
X154469047Y-73907642D01*
X154492857Y-73943357D01*
X154516666Y-74014785D01*
X154516666Y-74121928D01*
X154492857Y-74193357D01*
X154469047Y-74229071D01*
X154421428Y-74264785D01*
X154230952Y-74264785D01*
X154230952Y-73514785D01*
X154397619Y-73514785D01*
X154445238Y-73550500D01*
X154469047Y-73586214D01*
X154492857Y-73657642D01*
X154492857Y-73729071D01*
X154469047Y-73800500D01*
X154445238Y-73836214D01*
X154397619Y-73871928D01*
X154230952Y-73871928D01*
X154969047Y-73514785D02*
X154730952Y-73514785D01*
X154707142Y-73871928D01*
X154730952Y-73836214D01*
X154778571Y-73800500D01*
X154897619Y-73800500D01*
X154945238Y-73836214D01*
X154969047Y-73871928D01*
X154992857Y-73943357D01*
X154992857Y-74121928D01*
X154969047Y-74193357D01*
X154945238Y-74229071D01*
X154897619Y-74264785D01*
X154778571Y-74264785D01*
X154730952Y-74229071D01*
X154707142Y-74193357D01*
X154397619Y-71268428D02*
X154469047Y-71304142D01*
X154492857Y-71339857D01*
X154516666Y-71411285D01*
X154516666Y-71518428D01*
X154492857Y-71589857D01*
X154469047Y-71625571D01*
X154421428Y-71661285D01*
X154230952Y-71661285D01*
X154230952Y-70911285D01*
X154397619Y-70911285D01*
X154445238Y-70947000D01*
X154469047Y-70982714D01*
X154492857Y-71054142D01*
X154492857Y-71125571D01*
X154469047Y-71197000D01*
X154445238Y-71232714D01*
X154397619Y-71268428D01*
X154230952Y-71268428D01*
X154945238Y-71161285D02*
X154945238Y-71661285D01*
X154826190Y-70875571D02*
X154707142Y-71411285D01*
X155016666Y-71411285D01*
X139247619Y-71296428D02*
X139319047Y-71332142D01*
X139342857Y-71367857D01*
X139366666Y-71439285D01*
X139366666Y-71546428D01*
X139342857Y-71617857D01*
X139319047Y-71653571D01*
X139271428Y-71689285D01*
X139080952Y-71689285D01*
X139080952Y-70939285D01*
X139247619Y-70939285D01*
X139295238Y-70975000D01*
X139319047Y-71010714D01*
X139342857Y-71082142D01*
X139342857Y-71153571D01*
X139319047Y-71225000D01*
X139295238Y-71260714D01*
X139247619Y-71296428D01*
X139080952Y-71296428D01*
X139557142Y-71010714D02*
X139580952Y-70975000D01*
X139628571Y-70939285D01*
X139747619Y-70939285D01*
X139795238Y-70975000D01*
X139819047Y-71010714D01*
X139842857Y-71082142D01*
X139842857Y-71153571D01*
X139819047Y-71260714D01*
X139533333Y-71689285D01*
X139842857Y-71689285D01*
X153969047Y-69184785D02*
X153802380Y-68827642D01*
X153683333Y-69184785D02*
X153683333Y-68434785D01*
X153873809Y-68434785D01*
X153921428Y-68470500D01*
X153945238Y-68506214D01*
X153969047Y-68577642D01*
X153969047Y-68684785D01*
X153945238Y-68756214D01*
X153921428Y-68791928D01*
X153873809Y-68827642D01*
X153683333Y-68827642D01*
X154278571Y-68434785D02*
X154373809Y-68434785D01*
X154421428Y-68470500D01*
X154469047Y-68541928D01*
X154492857Y-68684785D01*
X154492857Y-68934785D01*
X154469047Y-69077642D01*
X154421428Y-69149071D01*
X154373809Y-69184785D01*
X154278571Y-69184785D01*
X154230952Y-69149071D01*
X154183333Y-69077642D01*
X154159523Y-68934785D01*
X154159523Y-68684785D01*
X154183333Y-68541928D01*
X154230952Y-68470500D01*
X154278571Y-68434785D01*
X154659523Y-68434785D02*
X154778571Y-69184785D01*
X154873809Y-68649071D01*
X154969047Y-69184785D01*
X155088095Y-68434785D01*
X155230952Y-68434785D02*
X155540476Y-68434785D01*
X155373809Y-68720500D01*
X155445238Y-68720500D01*
X155492857Y-68756214D01*
X155516666Y-68791928D01*
X155540476Y-68863357D01*
X155540476Y-69041928D01*
X155516666Y-69113357D01*
X155492857Y-69149071D01*
X155445238Y-69184785D01*
X155302380Y-69184785D01*
X155254761Y-69149071D01*
X155230952Y-69113357D01*
X138902380Y-69113357D02*
X138878571Y-69149071D01*
X138807142Y-69184785D01*
X138759523Y-69184785D01*
X138688095Y-69149071D01*
X138640476Y-69077642D01*
X138616666Y-69006214D01*
X138592857Y-68863357D01*
X138592857Y-68756214D01*
X138616666Y-68613357D01*
X138640476Y-68541928D01*
X138688095Y-68470500D01*
X138759523Y-68434785D01*
X138807142Y-68434785D01*
X138878571Y-68470500D01*
X138902380Y-68506214D01*
X139211904Y-68434785D02*
X139307142Y-68434785D01*
X139354761Y-68470500D01*
X139402380Y-68541928D01*
X139426190Y-68684785D01*
X139426190Y-68934785D01*
X139402380Y-69077642D01*
X139354761Y-69149071D01*
X139307142Y-69184785D01*
X139211904Y-69184785D01*
X139164285Y-69149071D01*
X139116666Y-69077642D01*
X139092857Y-68934785D01*
X139092857Y-68684785D01*
X139116666Y-68541928D01*
X139164285Y-68470500D01*
X139211904Y-68434785D01*
X139878571Y-69184785D02*
X139640476Y-69184785D01*
X139640476Y-68434785D01*
X140283333Y-68434785D02*
X140045238Y-68434785D01*
X140021428Y-68791928D01*
X140045238Y-68756214D01*
X140092857Y-68720500D01*
X140211904Y-68720500D01*
X140259523Y-68756214D01*
X140283333Y-68791928D01*
X140307142Y-68863357D01*
X140307142Y-69041928D01*
X140283333Y-69113357D01*
X140259523Y-69149071D01*
X140211904Y-69184785D01*
X140092857Y-69184785D01*
X140045238Y-69149071D01*
X140021428Y-69113357D01*
X153969047Y-66589285D02*
X153802380Y-66232142D01*
X153683333Y-66589285D02*
X153683333Y-65839285D01*
X153873809Y-65839285D01*
X153921428Y-65875000D01*
X153945238Y-65910714D01*
X153969047Y-65982142D01*
X153969047Y-66089285D01*
X153945238Y-66160714D01*
X153921428Y-66196428D01*
X153873809Y-66232142D01*
X153683333Y-66232142D01*
X154278571Y-65839285D02*
X154373809Y-65839285D01*
X154421428Y-65875000D01*
X154469047Y-65946428D01*
X154492857Y-66089285D01*
X154492857Y-66339285D01*
X154469047Y-66482142D01*
X154421428Y-66553571D01*
X154373809Y-66589285D01*
X154278571Y-66589285D01*
X154230952Y-66553571D01*
X154183333Y-66482142D01*
X154159523Y-66339285D01*
X154159523Y-66089285D01*
X154183333Y-65946428D01*
X154230952Y-65875000D01*
X154278571Y-65839285D01*
X154659523Y-65839285D02*
X154778571Y-66589285D01*
X154873809Y-66053571D01*
X154969047Y-66589285D01*
X155088095Y-65839285D01*
X155254761Y-65910714D02*
X155278571Y-65875000D01*
X155326190Y-65839285D01*
X155445238Y-65839285D01*
X155492857Y-65875000D01*
X155516666Y-65910714D01*
X155540476Y-65982142D01*
X155540476Y-66053571D01*
X155516666Y-66160714D01*
X155230952Y-66589285D01*
X155540476Y-66589285D01*
X138902380Y-66517857D02*
X138878571Y-66553571D01*
X138807142Y-66589285D01*
X138759523Y-66589285D01*
X138688095Y-66553571D01*
X138640476Y-66482142D01*
X138616666Y-66410714D01*
X138592857Y-66267857D01*
X138592857Y-66160714D01*
X138616666Y-66017857D01*
X138640476Y-65946428D01*
X138688095Y-65875000D01*
X138759523Y-65839285D01*
X138807142Y-65839285D01*
X138878571Y-65875000D01*
X138902380Y-65910714D01*
X139211904Y-65839285D02*
X139307142Y-65839285D01*
X139354761Y-65875000D01*
X139402380Y-65946428D01*
X139426190Y-66089285D01*
X139426190Y-66339285D01*
X139402380Y-66482142D01*
X139354761Y-66553571D01*
X139307142Y-66589285D01*
X139211904Y-66589285D01*
X139164285Y-66553571D01*
X139116666Y-66482142D01*
X139092857Y-66339285D01*
X139092857Y-66089285D01*
X139116666Y-65946428D01*
X139164285Y-65875000D01*
X139211904Y-65839285D01*
X139878571Y-66589285D02*
X139640476Y-66589285D01*
X139640476Y-65839285D01*
X140259523Y-66089285D02*
X140259523Y-66589285D01*
X140140476Y-65803571D02*
X140021428Y-66339285D01*
X140330952Y-66339285D01*
X154019047Y-64041285D02*
X153852380Y-63684142D01*
X153733333Y-64041285D02*
X153733333Y-63291285D01*
X153923809Y-63291285D01*
X153971428Y-63327000D01*
X153995238Y-63362714D01*
X154019047Y-63434142D01*
X154019047Y-63541285D01*
X153995238Y-63612714D01*
X153971428Y-63648428D01*
X153923809Y-63684142D01*
X153733333Y-63684142D01*
X154328571Y-63291285D02*
X154423809Y-63291285D01*
X154471428Y-63327000D01*
X154519047Y-63398428D01*
X154542857Y-63541285D01*
X154542857Y-63791285D01*
X154519047Y-63934142D01*
X154471428Y-64005571D01*
X154423809Y-64041285D01*
X154328571Y-64041285D01*
X154280952Y-64005571D01*
X154233333Y-63934142D01*
X154209523Y-63791285D01*
X154209523Y-63541285D01*
X154233333Y-63398428D01*
X154280952Y-63327000D01*
X154328571Y-63291285D01*
X154709523Y-63291285D02*
X154828571Y-64041285D01*
X154923809Y-63505571D01*
X155019047Y-64041285D01*
X155138095Y-63291285D01*
X155590476Y-64041285D02*
X155304761Y-64041285D01*
X155447619Y-64041285D02*
X155447619Y-63291285D01*
X155400000Y-63398428D01*
X155352380Y-63469857D01*
X155304761Y-63505571D01*
D10*
X116049761Y-106209523D02*
X116097380Y-106066666D01*
X116097380Y-105828571D01*
X116049761Y-105733333D01*
X116002142Y-105685714D01*
X115906904Y-105638095D01*
X115811666Y-105638095D01*
X115716428Y-105685714D01*
X115668809Y-105733333D01*
X115621190Y-105828571D01*
X115573571Y-106019047D01*
X115525952Y-106114285D01*
X115478333Y-106161904D01*
X115383095Y-106209523D01*
X115287857Y-106209523D01*
X115192619Y-106161904D01*
X115145000Y-106114285D01*
X115097380Y-106019047D01*
X115097380Y-105780952D01*
X115145000Y-105638095D01*
X115097380Y-105304761D02*
X116097380Y-105066666D01*
X115383095Y-104876190D01*
X116097380Y-104685714D01*
X115097380Y-104447619D01*
X115192619Y-104114285D02*
X115145000Y-104066666D01*
X115097380Y-103971428D01*
X115097380Y-103733333D01*
X115145000Y-103638095D01*
X115192619Y-103590476D01*
X115287857Y-103542857D01*
X115383095Y-103542857D01*
X115525952Y-103590476D01*
X116097380Y-104161904D01*
X116097380Y-103542857D01*
X115097380Y-102923809D02*
X115097380Y-102828571D01*
X115145000Y-102733333D01*
X115192619Y-102685714D01*
X115287857Y-102638095D01*
X115478333Y-102590476D01*
X115716428Y-102590476D01*
X115906904Y-102638095D01*
X116002142Y-102685714D01*
X116049761Y-102733333D01*
X116097380Y-102828571D01*
X116097380Y-102923809D01*
X116049761Y-103019047D01*
X116002142Y-103066666D01*
X115906904Y-103114285D01*
X115716428Y-103161904D01*
X115478333Y-103161904D01*
X115287857Y-103114285D01*
X115192619Y-103066666D01*
X115145000Y-103019047D01*
X115097380Y-102923809D01*
X183059761Y-105685714D02*
X183107380Y-105542857D01*
X183107380Y-105304761D01*
X183059761Y-105209523D01*
X183012142Y-105161904D01*
X182916904Y-105114285D01*
X182821666Y-105114285D01*
X182726428Y-105161904D01*
X182678809Y-105209523D01*
X182631190Y-105304761D01*
X182583571Y-105495238D01*
X182535952Y-105590476D01*
X182488333Y-105638095D01*
X182393095Y-105685714D01*
X182297857Y-105685714D01*
X182202619Y-105638095D01*
X182155000Y-105590476D01*
X182107380Y-105495238D01*
X182107380Y-105257142D01*
X182155000Y-105114285D01*
X182107380Y-104780952D02*
X183107380Y-104542857D01*
X182393095Y-104352380D01*
X183107380Y-104161904D01*
X182107380Y-103923809D01*
X183059761Y-103161904D02*
X183107380Y-103257142D01*
X183107380Y-103447619D01*
X183059761Y-103542857D01*
X182964523Y-103590476D01*
X182583571Y-103590476D01*
X182488333Y-103542857D01*
X182440714Y-103447619D01*
X182440714Y-103257142D01*
X182488333Y-103161904D01*
X182583571Y-103114285D01*
X182678809Y-103114285D01*
X182774047Y-103590476D01*
M02*
