G04 #@! TF.GenerationSoftware,KiCad,Pcbnew,5.1.6*
G04 #@! TF.CreationDate,2020-09-08T14:16:16+01:00*
G04 #@! TF.ProjectId,noip,6e6f6970-2e6b-4696-9361-645f70636258,.1*
G04 #@! TF.SameCoordinates,Original*
G04 #@! TF.FileFunction,Copper,L2,Bot*
G04 #@! TF.FilePolarity,Positive*
%FSLAX46Y46*%
G04 Gerber Fmt 4.6, Leading zero omitted, Abs format (unit mm)*
G04 Created by KiCad (PCBNEW 5.1.6) date 2020-09-08 14:16:16*
%MOMM*%
%LPD*%
G01*
G04 APERTURE LIST*
G04 #@! TA.AperFunction,ComponentPad*
%ADD10C,1.700000*%
G04 #@! TD*
G04 #@! TA.AperFunction,ComponentPad*
%ADD11C,2.200000*%
G04 #@! TD*
G04 #@! TA.AperFunction,ComponentPad*
%ADD12C,2.032000*%
G04 #@! TD*
G04 #@! TA.AperFunction,Conductor*
%ADD13C,0.250000*%
G04 #@! TD*
G04 APERTURE END LIST*
D10*
X157015000Y-45150000D03*
X141800000Y-47690000D03*
D11*
X156405000Y-42325200D03*
X142409600Y-42325200D03*
D10*
X141800000Y-45150000D03*
X144340000Y-50230000D03*
X141800000Y-50230000D03*
X141800000Y-52770000D03*
X141800000Y-55310000D03*
X141800000Y-57850000D03*
X146880000Y-50230000D03*
X149420000Y-50230000D03*
X141800000Y-60390000D03*
X141800000Y-62930000D03*
X141800000Y-65470000D03*
X141800000Y-68010000D03*
X141800000Y-70550000D03*
X141800000Y-73090000D03*
X157015000Y-47690000D03*
X157015000Y-50230000D03*
X157015000Y-55310000D03*
X154475000Y-50230000D03*
X157015000Y-52770000D03*
X157015000Y-57850000D03*
X157015000Y-60390000D03*
X157015000Y-62930000D03*
X157015000Y-68010000D03*
X157015000Y-70550000D03*
X157015000Y-65470000D03*
X157015000Y-73090000D03*
D12*
X129800000Y-104400000D03*
X127700000Y-99400000D03*
X127700000Y-109400000D03*
X170600000Y-99400000D03*
X170600000Y-109400000D03*
X168500000Y-104400000D03*
X237000000Y-71100000D03*
X232000000Y-69000000D03*
X242000000Y-69000000D03*
X219000000Y-58000000D03*
X214000000Y-55900000D03*
X224000000Y-55900000D03*
X201000000Y-54600000D03*
X196000000Y-52500000D03*
X206000000Y-52500000D03*
X183000000Y-60700000D03*
X178000000Y-58600000D03*
X188000000Y-58600000D03*
X114600000Y-60700000D03*
X109600000Y-58600000D03*
X119600000Y-58600000D03*
X96700000Y-54600000D03*
X91700000Y-52500000D03*
X101700000Y-52500000D03*
X83700000Y-55900000D03*
X73700000Y-55900000D03*
X78700000Y-58000000D03*
X60700000Y-71100000D03*
X55700000Y-69000000D03*
X65700000Y-69000000D03*
D13*
X157015000Y-47690000D02*
X151890000Y-47690000D01*
X141800000Y-51432081D02*
X141800000Y-52770000D01*
X141800000Y-50230000D02*
X141800000Y-51432081D01*
X144340000Y-47690000D02*
X141800000Y-50230000D01*
X157015000Y-47690000D02*
X144340000Y-47690000D01*
X196000000Y-52500000D02*
X197436840Y-52500000D01*
X101700000Y-52500000D02*
X100263160Y-52500000D01*
X155839999Y-48865001D02*
X157015000Y-47690000D01*
X155839999Y-51460001D02*
X155839999Y-48865001D01*
X153220000Y-54080000D02*
X155839999Y-51460001D01*
X153220000Y-77700000D02*
X153220000Y-54080000D01*
X170600000Y-109400000D02*
X170600000Y-99400000D01*
X164500000Y-99400000D02*
X153200000Y-88100000D01*
X153200000Y-88100000D02*
X153220000Y-88220000D01*
X170600000Y-99400000D02*
X164500000Y-99400000D01*
X153220000Y-77700000D02*
X153200000Y-88100000D01*
X127700000Y-109400000D02*
X127700000Y-99400000D01*
X142040000Y-99400000D02*
X153220000Y-88220000D01*
X127700000Y-99400000D02*
X142040000Y-99400000D01*
X125430000Y-52770000D02*
X119600000Y-58600000D01*
X141800000Y-52770000D02*
X125430000Y-52770000D01*
X119600000Y-58600000D02*
X109600000Y-58600000D01*
X107800000Y-58600000D02*
X101700000Y-52500000D01*
X109600000Y-58600000D02*
X107800000Y-58600000D01*
X101700000Y-52500000D02*
X91700000Y-52500000D01*
X87100000Y-52500000D02*
X83700000Y-55900000D01*
X91700000Y-52500000D02*
X87100000Y-52500000D01*
X83700000Y-55900000D02*
X73700000Y-55900000D01*
X65700000Y-67440334D02*
X65700000Y-69000000D01*
X73700000Y-59440334D02*
X65700000Y-67440334D01*
X73700000Y-55900000D02*
X73700000Y-59440334D01*
X65700000Y-69000000D02*
X55700000Y-69000000D01*
X157015000Y-47690000D02*
X159830000Y-50505000D01*
X159830000Y-50505000D02*
X159830000Y-52920000D01*
X165510000Y-58600000D02*
X178000000Y-58600000D01*
X159830000Y-52920000D02*
X165510000Y-58600000D01*
X178000000Y-58600000D02*
X188000000Y-58600000D01*
X189900000Y-58600000D02*
X196000000Y-52500000D01*
X188000000Y-58600000D02*
X189900000Y-58600000D01*
X196000000Y-52500000D02*
X206000000Y-52500000D01*
X211615999Y-53515999D02*
X214000000Y-55900000D01*
X207015999Y-53515999D02*
X211615999Y-53515999D01*
X206000000Y-52500000D02*
X207015999Y-53515999D01*
X214000000Y-55900000D02*
X224000000Y-55900000D01*
X224000000Y-61000000D02*
X232000000Y-69000000D01*
X224000000Y-55900000D02*
X224000000Y-61000000D01*
X232000000Y-69000000D02*
X242000000Y-69000000D01*
M02*
