M48
; DRILL file {KiCad 5.1.6} date Tue Sep  8 14:16:19 2020
; FORMAT={-:-/ absolute / inch / decimal}
; #@! TF.CreationDate,2020-09-08T14:16:19+01:00
; #@! TF.GenerationSoftware,Kicad,Pcbnew,5.1.6
; #@! TF.FileFunction,NonPlated,1,2,NPTH
FMAT,2
INCH
T1C0.0390
T2C0.0670
T3C0.1350
%
G90
G05
T1
X3.3039Y-1.8858
X9.1252Y-2.4016
X9.5362Y-2.4016
X7.0315Y-4.3157
X6.9992Y-1.9921
X7.4102Y-1.9921
X4.7126Y-3.9047
X4.7126Y-4.3157
X4.3063Y-1.9921
X4.7173Y-1.9921
X8.4165Y-1.8858
X8.8276Y-1.8858
X2.1843Y-2.4016
X2.5953Y-2.4016
X2.8929Y-1.8858
X7.7079Y-1.752
X8.1189Y-1.752
X7.0315Y-3.9047
X3.6016Y-1.752
X4.0126Y-1.752
T2
X2.8819Y-2.0512
X3.315Y-2.0512
X7.6969Y-1.9173
X8.1299Y-1.9173
X9.1142Y-2.5669
X9.5472Y-2.5669
X6.8661Y-3.8937
X6.8661Y-4.3268
X3.5906Y-1.9173
X4.0236Y-1.9173
X6.9882Y-2.1575
X7.4213Y-2.1575
X4.878Y-3.8937
X4.878Y-4.3268
X4.2953Y-2.1575
X4.7283Y-2.1575
X8.4055Y-2.0512
X8.8386Y-2.0512
X2.1732Y-2.5669
X2.6063Y-2.5669
T3
X7.2047Y-2.1575
X4.5118Y-2.1575
X8.622Y-2.0512
X3.0984Y-2.0512
X7.9134Y-1.9173
X9.3307Y-2.5669
X6.8661Y-4.1102
X3.8071Y-1.9173
X4.878Y-4.1102
X2.3898Y-2.5669
T0
M30
