G04 #@! TF.GenerationSoftware,KiCad,Pcbnew,5.1.6*
G04 #@! TF.CreationDate,2020-09-08T14:16:16+01:00*
G04 #@! TF.ProjectId,noip,6e6f6970-2e6b-4696-9361-645f70636258,.1*
G04 #@! TF.SameCoordinates,Original*
G04 #@! TF.FileFunction,Copper,L1,Top*
G04 #@! TF.FilePolarity,Positive*
%FSLAX46Y46*%
G04 Gerber Fmt 4.6, Leading zero omitted, Abs format (unit mm)*
G04 Created by KiCad (PCBNEW 5.1.6) date 2020-09-08 14:16:16*
%MOMM*%
%LPD*%
G01*
G04 APERTURE LIST*
G04 #@! TA.AperFunction,ComponentPad*
%ADD10C,1.700000*%
G04 #@! TD*
G04 #@! TA.AperFunction,ComponentPad*
%ADD11C,2.200000*%
G04 #@! TD*
G04 #@! TA.AperFunction,ComponentPad*
%ADD12C,2.032000*%
G04 #@! TD*
G04 #@! TA.AperFunction,Conductor*
%ADD13C,0.250000*%
G04 #@! TD*
G04 #@! TA.AperFunction,NonConductor*
%ADD14C,0.254000*%
G04 #@! TD*
G04 APERTURE END LIST*
D10*
X157015000Y-45150000D03*
X141800000Y-47690000D03*
D11*
X156405000Y-42325200D03*
X142409600Y-42325200D03*
D10*
X141800000Y-45150000D03*
X144340000Y-50230000D03*
X141800000Y-50230000D03*
X141800000Y-52770000D03*
X141800000Y-55310000D03*
X141800000Y-57850000D03*
X146880000Y-50230000D03*
X149420000Y-50230000D03*
X141800000Y-60390000D03*
X141800000Y-62930000D03*
X141800000Y-65470000D03*
X141800000Y-68010000D03*
X141800000Y-70550000D03*
X141800000Y-73090000D03*
X157015000Y-47690000D03*
X157015000Y-50230000D03*
X157015000Y-55310000D03*
X154475000Y-50230000D03*
X157015000Y-52770000D03*
X157015000Y-57850000D03*
X157015000Y-60390000D03*
X157015000Y-62930000D03*
X157015000Y-68010000D03*
X157015000Y-70550000D03*
X157015000Y-65470000D03*
X157015000Y-73090000D03*
D12*
X129800000Y-104400000D03*
X127700000Y-99400000D03*
X127700000Y-109400000D03*
X170600000Y-99400000D03*
X170600000Y-109400000D03*
X168500000Y-104400000D03*
X237000000Y-71100000D03*
X232000000Y-69000000D03*
X242000000Y-69000000D03*
X219000000Y-58000000D03*
X214000000Y-55900000D03*
X224000000Y-55900000D03*
X201000000Y-54600000D03*
X196000000Y-52500000D03*
X206000000Y-52500000D03*
X183000000Y-60700000D03*
X178000000Y-58600000D03*
X188000000Y-58600000D03*
X114600000Y-60700000D03*
X109600000Y-58600000D03*
X119600000Y-58600000D03*
X96700000Y-54600000D03*
X91700000Y-52500000D03*
X101700000Y-52500000D03*
X83700000Y-55900000D03*
X73700000Y-55900000D03*
X78700000Y-58000000D03*
X60700000Y-71100000D03*
X55700000Y-69000000D03*
X65700000Y-69000000D03*
D13*
X136710000Y-73100000D02*
X141800000Y-68010000D01*
X162105000Y-73100000D02*
X157015000Y-68010000D01*
X157015000Y-52770000D02*
X155812919Y-52770000D01*
X192670000Y-62930000D02*
X201000000Y-54600000D01*
X157015000Y-62930000D02*
X192670000Y-62930000D01*
X105030000Y-62930000D02*
X96700000Y-54600000D01*
X141800000Y-62930000D02*
X105030000Y-62930000D01*
X141800000Y-92400000D02*
X129800000Y-104400000D01*
X141800000Y-73090000D02*
X141800000Y-92400000D01*
X157015000Y-92915000D02*
X168500000Y-104400000D01*
X157015000Y-73090000D02*
X157015000Y-92915000D01*
X114910000Y-60390000D02*
X114600000Y-60700000D01*
X141800000Y-60390000D02*
X114910000Y-60390000D01*
X182690000Y-60390000D02*
X183000000Y-60700000D01*
X157015000Y-60390000D02*
X182690000Y-60390000D01*
X219000000Y-60000000D02*
X213530000Y-65470000D01*
X213530000Y-65470000D02*
X157015000Y-65470000D01*
X219000000Y-58000000D02*
X219000000Y-60000000D01*
X84170000Y-65470000D02*
X141800000Y-65470000D01*
X78700000Y-60000000D02*
X84170000Y-65470000D01*
X78700000Y-58000000D02*
X78700000Y-60000000D01*
X62700000Y-73100000D02*
X64010000Y-73100000D01*
X60700000Y-71100000D02*
X62700000Y-73100000D01*
X64010000Y-73100000D02*
X136710000Y-73100000D01*
X235000000Y-73100000D02*
X234420000Y-73100000D01*
X237000000Y-71100000D02*
X235000000Y-73100000D01*
X234420000Y-73100000D02*
X162105000Y-73100000D01*
D14*
G36*
X236920591Y-39284205D02*
G01*
X238154106Y-39502817D01*
X239353690Y-39863851D01*
X240502953Y-40362372D01*
X241586208Y-40991577D01*
X242588662Y-41742873D01*
X243496606Y-42605987D01*
X244297656Y-43569144D01*
X244980856Y-44619172D01*
X245536889Y-45741753D01*
X245958151Y-46921530D01*
X246238891Y-48142407D01*
X246376438Y-49398349D01*
X246389995Y-50007644D01*
X246369975Y-76684344D01*
X246370289Y-76687558D01*
X246390562Y-79115998D01*
X246257806Y-81550208D01*
X245972462Y-83971314D01*
X245535663Y-86369699D01*
X244949128Y-88735934D01*
X244215174Y-91060670D01*
X243336700Y-93334724D01*
X242317165Y-95549141D01*
X241160609Y-97695152D01*
X239871570Y-99764335D01*
X238455155Y-101748486D01*
X236916957Y-103639776D01*
X235263021Y-105430768D01*
X233499917Y-107114349D01*
X231634557Y-108683922D01*
X229674338Y-110133260D01*
X227626973Y-111456661D01*
X225500545Y-112648898D01*
X223303460Y-113705259D01*
X221044392Y-114621576D01*
X218732234Y-115394239D01*
X216376122Y-116020197D01*
X213985357Y-116496978D01*
X211559709Y-116824004D01*
X211298256Y-116849885D01*
X92174405Y-116946424D01*
X92171739Y-116946689D01*
X89743858Y-116966957D01*
X87309649Y-116834201D01*
X84888543Y-116548857D01*
X82490158Y-116112058D01*
X80123923Y-115525523D01*
X77799187Y-114791569D01*
X75525133Y-113913095D01*
X73310716Y-112893560D01*
X71164705Y-111737004D01*
X69095522Y-110447965D01*
X67779741Y-109508675D01*
X118569700Y-109508675D01*
X118569700Y-109731325D01*
X118613137Y-109949696D01*
X118698341Y-110155398D01*
X118822039Y-110340524D01*
X118979476Y-110497961D01*
X119164602Y-110621659D01*
X119370304Y-110706863D01*
X119588675Y-110750300D01*
X119811325Y-110750300D01*
X120029696Y-110706863D01*
X120235398Y-110621659D01*
X120420524Y-110497961D01*
X120577961Y-110340524D01*
X120701659Y-110155398D01*
X120786863Y-109949696D01*
X120825858Y-109753652D01*
X122414100Y-109753652D01*
X122414100Y-110046348D01*
X122471202Y-110333421D01*
X122583212Y-110603838D01*
X122745826Y-110847206D01*
X122952794Y-111054174D01*
X123196162Y-111216788D01*
X123466579Y-111328798D01*
X123753652Y-111385900D01*
X124046348Y-111385900D01*
X124333421Y-111328798D01*
X124603838Y-111216788D01*
X124847206Y-111054174D01*
X125054174Y-110847206D01*
X125216788Y-110603838D01*
X125328798Y-110333421D01*
X125385900Y-110046348D01*
X125385900Y-109753652D01*
X125328798Y-109466579D01*
X125233866Y-109237391D01*
X126049000Y-109237391D01*
X126049000Y-109562609D01*
X126112447Y-109881579D01*
X126236903Y-110182042D01*
X126417585Y-110452451D01*
X126647549Y-110682415D01*
X126917958Y-110863097D01*
X127218421Y-110987553D01*
X127537391Y-111051000D01*
X127862609Y-111051000D01*
X128181579Y-110987553D01*
X128482042Y-110863097D01*
X128752451Y-110682415D01*
X128982415Y-110452451D01*
X129163097Y-110182042D01*
X129287553Y-109881579D01*
X129351000Y-109562609D01*
X129351000Y-109237391D01*
X168949000Y-109237391D01*
X168949000Y-109562609D01*
X169012447Y-109881579D01*
X169136903Y-110182042D01*
X169317585Y-110452451D01*
X169547549Y-110682415D01*
X169817958Y-110863097D01*
X170118421Y-110987553D01*
X170437391Y-111051000D01*
X170762609Y-111051000D01*
X171081579Y-110987553D01*
X171382042Y-110863097D01*
X171652451Y-110682415D01*
X171882415Y-110452451D01*
X172063097Y-110182042D01*
X172187553Y-109881579D01*
X172212999Y-109753652D01*
X172914100Y-109753652D01*
X172914100Y-110046348D01*
X172971202Y-110333421D01*
X173083212Y-110603838D01*
X173245826Y-110847206D01*
X173452794Y-111054174D01*
X173696162Y-111216788D01*
X173966579Y-111328798D01*
X174253652Y-111385900D01*
X174546348Y-111385900D01*
X174833421Y-111328798D01*
X175103838Y-111216788D01*
X175347206Y-111054174D01*
X175554174Y-110847206D01*
X175716788Y-110603838D01*
X175828798Y-110333421D01*
X175885900Y-110046348D01*
X175885900Y-109753652D01*
X175837172Y-109508675D01*
X177469700Y-109508675D01*
X177469700Y-109731325D01*
X177513137Y-109949696D01*
X177598341Y-110155398D01*
X177722039Y-110340524D01*
X177879476Y-110497961D01*
X178064602Y-110621659D01*
X178270304Y-110706863D01*
X178488675Y-110750300D01*
X178711325Y-110750300D01*
X178929696Y-110706863D01*
X179135398Y-110621659D01*
X179320524Y-110497961D01*
X179477961Y-110340524D01*
X179601659Y-110155398D01*
X179686863Y-109949696D01*
X179730300Y-109731325D01*
X179730300Y-109508675D01*
X179686863Y-109290304D01*
X179601659Y-109084602D01*
X179477961Y-108899476D01*
X179320524Y-108742039D01*
X179135398Y-108618341D01*
X178929696Y-108533137D01*
X178711325Y-108489700D01*
X178488675Y-108489700D01*
X178270304Y-108533137D01*
X178064602Y-108618341D01*
X177879476Y-108742039D01*
X177722039Y-108899476D01*
X177598341Y-109084602D01*
X177513137Y-109290304D01*
X177469700Y-109508675D01*
X175837172Y-109508675D01*
X175828798Y-109466579D01*
X175716788Y-109196162D01*
X175554174Y-108952794D01*
X175347206Y-108745826D01*
X175103838Y-108583212D01*
X174833421Y-108471202D01*
X174546348Y-108414100D01*
X174253652Y-108414100D01*
X173966579Y-108471202D01*
X173696162Y-108583212D01*
X173452794Y-108745826D01*
X173245826Y-108952794D01*
X173083212Y-109196162D01*
X172971202Y-109466579D01*
X172914100Y-109753652D01*
X172212999Y-109753652D01*
X172251000Y-109562609D01*
X172251000Y-109237391D01*
X172187553Y-108918421D01*
X172063097Y-108617958D01*
X171882415Y-108347549D01*
X171652451Y-108117585D01*
X171382042Y-107936903D01*
X171081579Y-107812447D01*
X170762609Y-107749000D01*
X170437391Y-107749000D01*
X170118421Y-107812447D01*
X169817958Y-107936903D01*
X169547549Y-108117585D01*
X169317585Y-108347549D01*
X169136903Y-108617958D01*
X169012447Y-108918421D01*
X168949000Y-109237391D01*
X129351000Y-109237391D01*
X129287553Y-108918421D01*
X129163097Y-108617958D01*
X128982415Y-108347549D01*
X128752451Y-108117585D01*
X128482042Y-107936903D01*
X128181579Y-107812447D01*
X127862609Y-107749000D01*
X127537391Y-107749000D01*
X127218421Y-107812447D01*
X126917958Y-107936903D01*
X126647549Y-108117585D01*
X126417585Y-108347549D01*
X126236903Y-108617958D01*
X126112447Y-108918421D01*
X126049000Y-109237391D01*
X125233866Y-109237391D01*
X125216788Y-109196162D01*
X125054174Y-108952794D01*
X124847206Y-108745826D01*
X124603838Y-108583212D01*
X124333421Y-108471202D01*
X124046348Y-108414100D01*
X123753652Y-108414100D01*
X123466579Y-108471202D01*
X123196162Y-108583212D01*
X122952794Y-108745826D01*
X122745826Y-108952794D01*
X122583212Y-109196162D01*
X122471202Y-109466579D01*
X122414100Y-109753652D01*
X120825858Y-109753652D01*
X120830300Y-109731325D01*
X120830300Y-109508675D01*
X120786863Y-109290304D01*
X120701659Y-109084602D01*
X120577961Y-108899476D01*
X120420524Y-108742039D01*
X120235398Y-108618341D01*
X120029696Y-108533137D01*
X119811325Y-108489700D01*
X119588675Y-108489700D01*
X119370304Y-108533137D01*
X119164602Y-108618341D01*
X118979476Y-108742039D01*
X118822039Y-108899476D01*
X118698341Y-109084602D01*
X118613137Y-109290304D01*
X118569700Y-109508675D01*
X67779741Y-109508675D01*
X67111371Y-109031550D01*
X65220081Y-107493352D01*
X63429089Y-105839416D01*
X61833628Y-104168594D01*
X121550500Y-104168594D01*
X121550500Y-104631406D01*
X121640790Y-105085324D01*
X121817900Y-105512905D01*
X122075024Y-105897719D01*
X122402281Y-106224976D01*
X122787095Y-106482100D01*
X123214676Y-106659210D01*
X123668594Y-106749500D01*
X124131406Y-106749500D01*
X124585324Y-106659210D01*
X125012905Y-106482100D01*
X125397719Y-106224976D01*
X125724976Y-105897719D01*
X125982100Y-105512905D01*
X126159210Y-105085324D01*
X126249500Y-104631406D01*
X126249500Y-104168594D01*
X126159210Y-103714676D01*
X125982100Y-103287095D01*
X125724976Y-102902281D01*
X125397719Y-102575024D01*
X125012905Y-102317900D01*
X124585324Y-102140790D01*
X124131406Y-102050500D01*
X123668594Y-102050500D01*
X123214676Y-102140790D01*
X122787095Y-102317900D01*
X122402281Y-102575024D01*
X122075024Y-102902281D01*
X121817900Y-103287095D01*
X121640790Y-103714676D01*
X121550500Y-104168594D01*
X61833628Y-104168594D01*
X61745508Y-104076312D01*
X60175935Y-102210952D01*
X58726597Y-100250733D01*
X57962524Y-99068675D01*
X118569700Y-99068675D01*
X118569700Y-99291325D01*
X118613137Y-99509696D01*
X118698341Y-99715398D01*
X118822039Y-99900524D01*
X118979476Y-100057961D01*
X119164602Y-100181659D01*
X119370304Y-100266863D01*
X119588675Y-100310300D01*
X119811325Y-100310300D01*
X120029696Y-100266863D01*
X120235398Y-100181659D01*
X120420524Y-100057961D01*
X120577961Y-99900524D01*
X120701659Y-99715398D01*
X120786863Y-99509696D01*
X120830300Y-99291325D01*
X120830300Y-99068675D01*
X120786863Y-98850304D01*
X120746829Y-98753652D01*
X122414100Y-98753652D01*
X122414100Y-99046348D01*
X122471202Y-99333421D01*
X122583212Y-99603838D01*
X122745826Y-99847206D01*
X122952794Y-100054174D01*
X123196162Y-100216788D01*
X123466579Y-100328798D01*
X123753652Y-100385900D01*
X124046348Y-100385900D01*
X124333421Y-100328798D01*
X124603838Y-100216788D01*
X124847206Y-100054174D01*
X125054174Y-99847206D01*
X125216788Y-99603838D01*
X125328798Y-99333421D01*
X125347899Y-99237391D01*
X126049000Y-99237391D01*
X126049000Y-99562609D01*
X126112447Y-99881579D01*
X126236903Y-100182042D01*
X126417585Y-100452451D01*
X126647549Y-100682415D01*
X126917958Y-100863097D01*
X127218421Y-100987553D01*
X127537391Y-101051000D01*
X127862609Y-101051000D01*
X128181579Y-100987553D01*
X128482042Y-100863097D01*
X128752451Y-100682415D01*
X128982415Y-100452451D01*
X129163097Y-100182042D01*
X129287553Y-99881579D01*
X129351000Y-99562609D01*
X129351000Y-99237391D01*
X129287553Y-98918421D01*
X129163097Y-98617958D01*
X128982415Y-98347549D01*
X128752451Y-98117585D01*
X128482042Y-97936903D01*
X128181579Y-97812447D01*
X127862609Y-97749000D01*
X127537391Y-97749000D01*
X127218421Y-97812447D01*
X126917958Y-97936903D01*
X126647549Y-98117585D01*
X126417585Y-98347549D01*
X126236903Y-98617958D01*
X126112447Y-98918421D01*
X126049000Y-99237391D01*
X125347899Y-99237391D01*
X125385900Y-99046348D01*
X125385900Y-98753652D01*
X125328798Y-98466579D01*
X125216788Y-98196162D01*
X125054174Y-97952794D01*
X124847206Y-97745826D01*
X124603838Y-97583212D01*
X124333421Y-97471202D01*
X124046348Y-97414100D01*
X123753652Y-97414100D01*
X123466579Y-97471202D01*
X123196162Y-97583212D01*
X122952794Y-97745826D01*
X122745826Y-97952794D01*
X122583212Y-98196162D01*
X122471202Y-98466579D01*
X122414100Y-98753652D01*
X120746829Y-98753652D01*
X120701659Y-98644602D01*
X120577961Y-98459476D01*
X120420524Y-98302039D01*
X120235398Y-98178341D01*
X120029696Y-98093137D01*
X119811325Y-98049700D01*
X119588675Y-98049700D01*
X119370304Y-98093137D01*
X119164602Y-98178341D01*
X118979476Y-98302039D01*
X118822039Y-98459476D01*
X118698341Y-98644602D01*
X118613137Y-98850304D01*
X118569700Y-99068675D01*
X57962524Y-99068675D01*
X57403196Y-98203368D01*
X56210959Y-96076940D01*
X55154598Y-93879855D01*
X54238281Y-91620787D01*
X53465618Y-89308629D01*
X52839660Y-86952517D01*
X52362879Y-84561752D01*
X52035853Y-82136104D01*
X52010032Y-81875266D01*
X52020209Y-70937391D01*
X59049000Y-70937391D01*
X59049000Y-71262609D01*
X59112447Y-71581579D01*
X59236903Y-71882042D01*
X59417585Y-72152451D01*
X59647549Y-72382415D01*
X59917958Y-72563097D01*
X60218421Y-72687553D01*
X60537391Y-72751000D01*
X60862609Y-72751000D01*
X61181579Y-72687553D01*
X61203621Y-72678423D01*
X62136201Y-73611003D01*
X62159999Y-73640001D01*
X62188997Y-73663799D01*
X62275723Y-73734974D01*
X62385050Y-73793411D01*
X62407753Y-73805546D01*
X62551014Y-73849003D01*
X62662667Y-73860000D01*
X62662676Y-73860000D01*
X62699999Y-73863676D01*
X62737322Y-73860000D01*
X136672678Y-73860000D01*
X136710000Y-73863676D01*
X136747322Y-73860000D01*
X136747333Y-73860000D01*
X136858986Y-73849003D01*
X137002247Y-73805546D01*
X137134276Y-73734974D01*
X137250001Y-73640001D01*
X137273804Y-73610997D01*
X140315000Y-70569802D01*
X140315000Y-70696260D01*
X140372068Y-70983158D01*
X140484010Y-71253411D01*
X140646525Y-71496632D01*
X140853368Y-71703475D01*
X141027760Y-71820000D01*
X140853368Y-71936525D01*
X140646525Y-72143368D01*
X140484010Y-72386589D01*
X140372068Y-72656842D01*
X140315000Y-72943740D01*
X140315000Y-73236260D01*
X140372068Y-73523158D01*
X140484010Y-73793411D01*
X140646525Y-74036632D01*
X140853368Y-74243475D01*
X141040000Y-74368179D01*
X141040001Y-92085197D01*
X130303622Y-102821577D01*
X130281579Y-102812447D01*
X129962609Y-102749000D01*
X129637391Y-102749000D01*
X129318421Y-102812447D01*
X129017958Y-102936903D01*
X128747549Y-103117585D01*
X128517585Y-103347549D01*
X128336903Y-103617958D01*
X128212447Y-103918421D01*
X128149000Y-104237391D01*
X128149000Y-104562609D01*
X128212447Y-104881579D01*
X128336903Y-105182042D01*
X128517585Y-105452451D01*
X128747549Y-105682415D01*
X129017958Y-105863097D01*
X129318421Y-105987553D01*
X129637391Y-106051000D01*
X129962609Y-106051000D01*
X130281579Y-105987553D01*
X130582042Y-105863097D01*
X130852451Y-105682415D01*
X131082415Y-105452451D01*
X131263097Y-105182042D01*
X131387553Y-104881579D01*
X131451000Y-104562609D01*
X131451000Y-104237391D01*
X131387553Y-103918421D01*
X131378423Y-103896378D01*
X142311003Y-92963799D01*
X142340001Y-92940001D01*
X142434974Y-92824276D01*
X142505546Y-92692247D01*
X142549003Y-92548986D01*
X142560000Y-92437333D01*
X142560000Y-92437325D01*
X142563676Y-92400000D01*
X142560000Y-92362675D01*
X142560000Y-74368178D01*
X142746632Y-74243475D01*
X142953475Y-74036632D01*
X143115990Y-73793411D01*
X143227932Y-73523158D01*
X143285000Y-73236260D01*
X143285000Y-72943740D01*
X143227932Y-72656842D01*
X143115990Y-72386589D01*
X142953475Y-72143368D01*
X142746632Y-71936525D01*
X142572240Y-71820000D01*
X142746632Y-71703475D01*
X142953475Y-71496632D01*
X143115990Y-71253411D01*
X143227932Y-70983158D01*
X143285000Y-70696260D01*
X143285000Y-70403740D01*
X143227932Y-70116842D01*
X143115990Y-69846589D01*
X142953475Y-69603368D01*
X142746632Y-69396525D01*
X142572240Y-69280000D01*
X142746632Y-69163475D01*
X142953475Y-68956632D01*
X143115990Y-68713411D01*
X143227932Y-68443158D01*
X143285000Y-68156260D01*
X143285000Y-67863740D01*
X143227932Y-67576842D01*
X143115990Y-67306589D01*
X142953475Y-67063368D01*
X142746632Y-66856525D01*
X142572240Y-66740000D01*
X142746632Y-66623475D01*
X142953475Y-66416632D01*
X143115990Y-66173411D01*
X143227932Y-65903158D01*
X143285000Y-65616260D01*
X143285000Y-65323740D01*
X143227932Y-65036842D01*
X143115990Y-64766589D01*
X142953475Y-64523368D01*
X142746632Y-64316525D01*
X142572240Y-64200000D01*
X142746632Y-64083475D01*
X142953475Y-63876632D01*
X143115990Y-63633411D01*
X143227932Y-63363158D01*
X143285000Y-63076260D01*
X143285000Y-62783740D01*
X143227932Y-62496842D01*
X143115990Y-62226589D01*
X142953475Y-61983368D01*
X142746632Y-61776525D01*
X142572240Y-61660000D01*
X142746632Y-61543475D01*
X142953475Y-61336632D01*
X143115990Y-61093411D01*
X143227932Y-60823158D01*
X143285000Y-60536260D01*
X143285000Y-60243740D01*
X143227932Y-59956842D01*
X143115990Y-59686589D01*
X142953475Y-59443368D01*
X142746632Y-59236525D01*
X142572240Y-59120000D01*
X142746632Y-59003475D01*
X142953475Y-58796632D01*
X143115990Y-58553411D01*
X143227932Y-58283158D01*
X143285000Y-57996260D01*
X143285000Y-57703740D01*
X143227932Y-57416842D01*
X143115990Y-57146589D01*
X142953475Y-56903368D01*
X142746632Y-56696525D01*
X142572240Y-56580000D01*
X142746632Y-56463475D01*
X142953475Y-56256632D01*
X143115990Y-56013411D01*
X143227932Y-55743158D01*
X143285000Y-55456260D01*
X143285000Y-55163740D01*
X143227932Y-54876842D01*
X143115990Y-54606589D01*
X142953475Y-54363368D01*
X142746632Y-54156525D01*
X142572240Y-54040000D01*
X142746632Y-53923475D01*
X142953475Y-53716632D01*
X143115990Y-53473411D01*
X143227932Y-53203158D01*
X143285000Y-52916260D01*
X143285000Y-52623740D01*
X143227932Y-52336842D01*
X143115990Y-52066589D01*
X142953475Y-51823368D01*
X142746632Y-51616525D01*
X142572240Y-51500000D01*
X142746632Y-51383475D01*
X142953475Y-51176632D01*
X143070000Y-51002240D01*
X143186525Y-51176632D01*
X143393368Y-51383475D01*
X143636589Y-51545990D01*
X143906842Y-51657932D01*
X144193740Y-51715000D01*
X144486260Y-51715000D01*
X144773158Y-51657932D01*
X145043411Y-51545990D01*
X145286632Y-51383475D01*
X145493475Y-51176632D01*
X145610000Y-51002240D01*
X145726525Y-51176632D01*
X145933368Y-51383475D01*
X146176589Y-51545990D01*
X146446842Y-51657932D01*
X146733740Y-51715000D01*
X147026260Y-51715000D01*
X147313158Y-51657932D01*
X147583411Y-51545990D01*
X147826632Y-51383475D01*
X148033475Y-51176632D01*
X148150000Y-51002240D01*
X148266525Y-51176632D01*
X148473368Y-51383475D01*
X148716589Y-51545990D01*
X148986842Y-51657932D01*
X149273740Y-51715000D01*
X149566260Y-51715000D01*
X149853158Y-51657932D01*
X150123411Y-51545990D01*
X150366632Y-51383475D01*
X150573475Y-51176632D01*
X150735990Y-50933411D01*
X150847932Y-50663158D01*
X150905000Y-50376260D01*
X150905000Y-50083740D01*
X152990000Y-50083740D01*
X152990000Y-50376260D01*
X153047068Y-50663158D01*
X153159010Y-50933411D01*
X153321525Y-51176632D01*
X153528368Y-51383475D01*
X153771589Y-51545990D01*
X154041842Y-51657932D01*
X154328740Y-51715000D01*
X154621260Y-51715000D01*
X154908158Y-51657932D01*
X155178411Y-51545990D01*
X155421632Y-51383475D01*
X155628475Y-51176632D01*
X155745000Y-51002240D01*
X155861525Y-51176632D01*
X156068368Y-51383475D01*
X156242760Y-51500000D01*
X156068368Y-51616525D01*
X155861525Y-51823368D01*
X155734091Y-52014087D01*
X155663933Y-52020997D01*
X155520672Y-52064454D01*
X155388643Y-52135026D01*
X155272918Y-52229999D01*
X155177945Y-52345724D01*
X155107373Y-52477753D01*
X155063916Y-52621014D01*
X155049242Y-52770000D01*
X155063916Y-52918986D01*
X155107373Y-53062247D01*
X155177945Y-53194276D01*
X155272918Y-53310001D01*
X155388643Y-53404974D01*
X155520672Y-53475546D01*
X155663933Y-53519003D01*
X155734091Y-53525913D01*
X155861525Y-53716632D01*
X156068368Y-53923475D01*
X156242760Y-54040000D01*
X156068368Y-54156525D01*
X155861525Y-54363368D01*
X155699010Y-54606589D01*
X155587068Y-54876842D01*
X155530000Y-55163740D01*
X155530000Y-55456260D01*
X155587068Y-55743158D01*
X155699010Y-56013411D01*
X155861525Y-56256632D01*
X156068368Y-56463475D01*
X156242760Y-56580000D01*
X156068368Y-56696525D01*
X155861525Y-56903368D01*
X155699010Y-57146589D01*
X155587068Y-57416842D01*
X155530000Y-57703740D01*
X155530000Y-57996260D01*
X155587068Y-58283158D01*
X155699010Y-58553411D01*
X155861525Y-58796632D01*
X156068368Y-59003475D01*
X156242760Y-59120000D01*
X156068368Y-59236525D01*
X155861525Y-59443368D01*
X155699010Y-59686589D01*
X155587068Y-59956842D01*
X155530000Y-60243740D01*
X155530000Y-60536260D01*
X155587068Y-60823158D01*
X155699010Y-61093411D01*
X155861525Y-61336632D01*
X156068368Y-61543475D01*
X156242760Y-61660000D01*
X156068368Y-61776525D01*
X155861525Y-61983368D01*
X155699010Y-62226589D01*
X155587068Y-62496842D01*
X155530000Y-62783740D01*
X155530000Y-63076260D01*
X155587068Y-63363158D01*
X155699010Y-63633411D01*
X155861525Y-63876632D01*
X156068368Y-64083475D01*
X156242760Y-64200000D01*
X156068368Y-64316525D01*
X155861525Y-64523368D01*
X155699010Y-64766589D01*
X155587068Y-65036842D01*
X155530000Y-65323740D01*
X155530000Y-65616260D01*
X155587068Y-65903158D01*
X155699010Y-66173411D01*
X155861525Y-66416632D01*
X156068368Y-66623475D01*
X156242760Y-66740000D01*
X156068368Y-66856525D01*
X155861525Y-67063368D01*
X155699010Y-67306589D01*
X155587068Y-67576842D01*
X155530000Y-67863740D01*
X155530000Y-68156260D01*
X155587068Y-68443158D01*
X155699010Y-68713411D01*
X155861525Y-68956632D01*
X156068368Y-69163475D01*
X156242760Y-69280000D01*
X156068368Y-69396525D01*
X155861525Y-69603368D01*
X155699010Y-69846589D01*
X155587068Y-70116842D01*
X155530000Y-70403740D01*
X155530000Y-70696260D01*
X155587068Y-70983158D01*
X155699010Y-71253411D01*
X155861525Y-71496632D01*
X156068368Y-71703475D01*
X156242760Y-71820000D01*
X156068368Y-71936525D01*
X155861525Y-72143368D01*
X155699010Y-72386589D01*
X155587068Y-72656842D01*
X155530000Y-72943740D01*
X155530000Y-73236260D01*
X155587068Y-73523158D01*
X155699010Y-73793411D01*
X155861525Y-74036632D01*
X156068368Y-74243475D01*
X156255000Y-74368179D01*
X156255001Y-92877667D01*
X156251324Y-92915000D01*
X156255001Y-92952333D01*
X156265998Y-93063986D01*
X156276284Y-93097895D01*
X156309454Y-93207246D01*
X156380026Y-93339276D01*
X156427916Y-93397629D01*
X156475000Y-93455001D01*
X156503998Y-93478799D01*
X166921577Y-103896379D01*
X166912447Y-103918421D01*
X166849000Y-104237391D01*
X166849000Y-104562609D01*
X166912447Y-104881579D01*
X167036903Y-105182042D01*
X167217585Y-105452451D01*
X167447549Y-105682415D01*
X167717958Y-105863097D01*
X168018421Y-105987553D01*
X168337391Y-106051000D01*
X168662609Y-106051000D01*
X168981579Y-105987553D01*
X169282042Y-105863097D01*
X169552451Y-105682415D01*
X169782415Y-105452451D01*
X169963097Y-105182042D01*
X170087553Y-104881579D01*
X170151000Y-104562609D01*
X170151000Y-104237391D01*
X170137316Y-104168594D01*
X172050500Y-104168594D01*
X172050500Y-104631406D01*
X172140790Y-105085324D01*
X172317900Y-105512905D01*
X172575024Y-105897719D01*
X172902281Y-106224976D01*
X173287095Y-106482100D01*
X173714676Y-106659210D01*
X174168594Y-106749500D01*
X174631406Y-106749500D01*
X175085324Y-106659210D01*
X175512905Y-106482100D01*
X175897719Y-106224976D01*
X176224976Y-105897719D01*
X176482100Y-105512905D01*
X176659210Y-105085324D01*
X176749500Y-104631406D01*
X176749500Y-104168594D01*
X176659210Y-103714676D01*
X176482100Y-103287095D01*
X176224976Y-102902281D01*
X175897719Y-102575024D01*
X175512905Y-102317900D01*
X175085324Y-102140790D01*
X174631406Y-102050500D01*
X174168594Y-102050500D01*
X173714676Y-102140790D01*
X173287095Y-102317900D01*
X172902281Y-102575024D01*
X172575024Y-102902281D01*
X172317900Y-103287095D01*
X172140790Y-103714676D01*
X172050500Y-104168594D01*
X170137316Y-104168594D01*
X170087553Y-103918421D01*
X169963097Y-103617958D01*
X169782415Y-103347549D01*
X169552451Y-103117585D01*
X169282042Y-102936903D01*
X168981579Y-102812447D01*
X168662609Y-102749000D01*
X168337391Y-102749000D01*
X168018421Y-102812447D01*
X167996379Y-102821577D01*
X164412193Y-99237391D01*
X168949000Y-99237391D01*
X168949000Y-99562609D01*
X169012447Y-99881579D01*
X169136903Y-100182042D01*
X169317585Y-100452451D01*
X169547549Y-100682415D01*
X169817958Y-100863097D01*
X170118421Y-100987553D01*
X170437391Y-101051000D01*
X170762609Y-101051000D01*
X171081579Y-100987553D01*
X171382042Y-100863097D01*
X171652451Y-100682415D01*
X171882415Y-100452451D01*
X172063097Y-100182042D01*
X172187553Y-99881579D01*
X172251000Y-99562609D01*
X172251000Y-99237391D01*
X172187553Y-98918421D01*
X172119304Y-98753652D01*
X172914100Y-98753652D01*
X172914100Y-99046348D01*
X172971202Y-99333421D01*
X173083212Y-99603838D01*
X173245826Y-99847206D01*
X173452794Y-100054174D01*
X173696162Y-100216788D01*
X173966579Y-100328798D01*
X174253652Y-100385900D01*
X174546348Y-100385900D01*
X174833421Y-100328798D01*
X175103838Y-100216788D01*
X175347206Y-100054174D01*
X175554174Y-99847206D01*
X175716788Y-99603838D01*
X175828798Y-99333421D01*
X175881458Y-99068675D01*
X177469700Y-99068675D01*
X177469700Y-99291325D01*
X177513137Y-99509696D01*
X177598341Y-99715398D01*
X177722039Y-99900524D01*
X177879476Y-100057961D01*
X178064602Y-100181659D01*
X178270304Y-100266863D01*
X178488675Y-100310300D01*
X178711325Y-100310300D01*
X178929696Y-100266863D01*
X179135398Y-100181659D01*
X179320524Y-100057961D01*
X179477961Y-99900524D01*
X179601659Y-99715398D01*
X179686863Y-99509696D01*
X179730300Y-99291325D01*
X179730300Y-99068675D01*
X179686863Y-98850304D01*
X179601659Y-98644602D01*
X179477961Y-98459476D01*
X179320524Y-98302039D01*
X179135398Y-98178341D01*
X178929696Y-98093137D01*
X178711325Y-98049700D01*
X178488675Y-98049700D01*
X178270304Y-98093137D01*
X178064602Y-98178341D01*
X177879476Y-98302039D01*
X177722039Y-98459476D01*
X177598341Y-98644602D01*
X177513137Y-98850304D01*
X177469700Y-99068675D01*
X175881458Y-99068675D01*
X175885900Y-99046348D01*
X175885900Y-98753652D01*
X175828798Y-98466579D01*
X175716788Y-98196162D01*
X175554174Y-97952794D01*
X175347206Y-97745826D01*
X175103838Y-97583212D01*
X174833421Y-97471202D01*
X174546348Y-97414100D01*
X174253652Y-97414100D01*
X173966579Y-97471202D01*
X173696162Y-97583212D01*
X173452794Y-97745826D01*
X173245826Y-97952794D01*
X173083212Y-98196162D01*
X172971202Y-98466579D01*
X172914100Y-98753652D01*
X172119304Y-98753652D01*
X172063097Y-98617958D01*
X171882415Y-98347549D01*
X171652451Y-98117585D01*
X171382042Y-97936903D01*
X171081579Y-97812447D01*
X170762609Y-97749000D01*
X170437391Y-97749000D01*
X170118421Y-97812447D01*
X169817958Y-97936903D01*
X169547549Y-98117585D01*
X169317585Y-98347549D01*
X169136903Y-98617958D01*
X169012447Y-98918421D01*
X168949000Y-99237391D01*
X164412193Y-99237391D01*
X157775000Y-92600199D01*
X157775000Y-74368178D01*
X157961632Y-74243475D01*
X158168475Y-74036632D01*
X158330990Y-73793411D01*
X158442932Y-73523158D01*
X158500000Y-73236260D01*
X158500000Y-72943740D01*
X158442932Y-72656842D01*
X158330990Y-72386589D01*
X158168475Y-72143368D01*
X157961632Y-71936525D01*
X157787240Y-71820000D01*
X157961632Y-71703475D01*
X158168475Y-71496632D01*
X158330990Y-71253411D01*
X158442932Y-70983158D01*
X158500000Y-70696260D01*
X158500000Y-70569801D01*
X161541201Y-73611003D01*
X161564999Y-73640001D01*
X161593997Y-73663799D01*
X161680723Y-73734974D01*
X161790050Y-73793411D01*
X161812753Y-73805546D01*
X161956014Y-73849003D01*
X162067667Y-73860000D01*
X162067676Y-73860000D01*
X162104999Y-73863676D01*
X162142322Y-73860000D01*
X234962678Y-73860000D01*
X235000000Y-73863676D01*
X235037322Y-73860000D01*
X235037333Y-73860000D01*
X235148986Y-73849003D01*
X235292247Y-73805546D01*
X235424276Y-73734974D01*
X235540001Y-73640001D01*
X235563804Y-73610997D01*
X236496379Y-72678423D01*
X236518421Y-72687553D01*
X236837391Y-72751000D01*
X237162609Y-72751000D01*
X237481579Y-72687553D01*
X237782042Y-72563097D01*
X238052451Y-72382415D01*
X238282415Y-72152451D01*
X238463097Y-71882042D01*
X238587553Y-71581579D01*
X238651000Y-71262609D01*
X238651000Y-70937391D01*
X238587553Y-70618421D01*
X238463097Y-70317958D01*
X238282415Y-70047549D01*
X238052451Y-69817585D01*
X237782042Y-69636903D01*
X237481579Y-69512447D01*
X237162609Y-69449000D01*
X236837391Y-69449000D01*
X236518421Y-69512447D01*
X236217958Y-69636903D01*
X235947549Y-69817585D01*
X235717585Y-70047549D01*
X235536903Y-70317958D01*
X235412447Y-70618421D01*
X235349000Y-70937391D01*
X235349000Y-71262609D01*
X235412447Y-71581579D01*
X235421577Y-71603621D01*
X234685199Y-72340000D01*
X162419802Y-72340000D01*
X158917193Y-68837391D01*
X230349000Y-68837391D01*
X230349000Y-69162609D01*
X230412447Y-69481579D01*
X230536903Y-69782042D01*
X230717585Y-70052451D01*
X230947549Y-70282415D01*
X231217958Y-70463097D01*
X231518421Y-70587553D01*
X231837391Y-70651000D01*
X232162609Y-70651000D01*
X232481579Y-70587553D01*
X232782042Y-70463097D01*
X233052451Y-70282415D01*
X233282415Y-70052451D01*
X233463097Y-69782042D01*
X233587553Y-69481579D01*
X233651000Y-69162609D01*
X233651000Y-68837391D01*
X240349000Y-68837391D01*
X240349000Y-69162609D01*
X240412447Y-69481579D01*
X240536903Y-69782042D01*
X240717585Y-70052451D01*
X240947549Y-70282415D01*
X241217958Y-70463097D01*
X241518421Y-70587553D01*
X241837391Y-70651000D01*
X242162609Y-70651000D01*
X242481579Y-70587553D01*
X242782042Y-70463097D01*
X243052451Y-70282415D01*
X243282415Y-70052451D01*
X243463097Y-69782042D01*
X243587553Y-69481579D01*
X243651000Y-69162609D01*
X243651000Y-68837391D01*
X243587553Y-68518421D01*
X243463097Y-68217958D01*
X243282415Y-67947549D01*
X243052451Y-67717585D01*
X242782042Y-67536903D01*
X242481579Y-67412447D01*
X242162609Y-67349000D01*
X241837391Y-67349000D01*
X241518421Y-67412447D01*
X241217958Y-67536903D01*
X240947549Y-67717585D01*
X240717585Y-67947549D01*
X240536903Y-68217958D01*
X240412447Y-68518421D01*
X240349000Y-68837391D01*
X233651000Y-68837391D01*
X233587553Y-68518421D01*
X233463097Y-68217958D01*
X233282415Y-67947549D01*
X233052451Y-67717585D01*
X232782042Y-67536903D01*
X232481579Y-67412447D01*
X232162609Y-67349000D01*
X231837391Y-67349000D01*
X231518421Y-67412447D01*
X231217958Y-67536903D01*
X230947549Y-67717585D01*
X230717585Y-67947549D01*
X230536903Y-68217958D01*
X230412447Y-68518421D01*
X230349000Y-68837391D01*
X158917193Y-68837391D01*
X158456209Y-68376408D01*
X158500000Y-68156260D01*
X158500000Y-67863740D01*
X158442932Y-67576842D01*
X158330990Y-67306589D01*
X158168475Y-67063368D01*
X157961632Y-66856525D01*
X157787240Y-66740000D01*
X157961632Y-66623475D01*
X158168475Y-66416632D01*
X158293178Y-66230000D01*
X213492678Y-66230000D01*
X213530000Y-66233676D01*
X213567322Y-66230000D01*
X213567333Y-66230000D01*
X213678986Y-66219003D01*
X213822247Y-66175546D01*
X213954276Y-66104974D01*
X214070001Y-66010001D01*
X214093804Y-65980997D01*
X215021149Y-65053652D01*
X230014100Y-65053652D01*
X230014100Y-65346348D01*
X230071202Y-65633421D01*
X230183212Y-65903838D01*
X230345826Y-66147206D01*
X230552794Y-66354174D01*
X230796162Y-66516788D01*
X231066579Y-66628798D01*
X231353652Y-66685900D01*
X231646348Y-66685900D01*
X231933421Y-66628798D01*
X232203838Y-66516788D01*
X232447206Y-66354174D01*
X232654174Y-66147206D01*
X232816788Y-65903838D01*
X232928798Y-65633421D01*
X232985900Y-65346348D01*
X232985900Y-65053652D01*
X232968982Y-64968594D01*
X234650500Y-64968594D01*
X234650500Y-65431406D01*
X234740790Y-65885324D01*
X234917900Y-66312905D01*
X235175024Y-66697719D01*
X235502281Y-67024976D01*
X235887095Y-67282100D01*
X236314676Y-67459210D01*
X236768594Y-67549500D01*
X237231406Y-67549500D01*
X237685324Y-67459210D01*
X238112905Y-67282100D01*
X238497719Y-67024976D01*
X238824976Y-66697719D01*
X239082100Y-66312905D01*
X239259210Y-65885324D01*
X239349500Y-65431406D01*
X239349500Y-65053652D01*
X241014100Y-65053652D01*
X241014100Y-65346348D01*
X241071202Y-65633421D01*
X241183212Y-65903838D01*
X241345826Y-66147206D01*
X241552794Y-66354174D01*
X241796162Y-66516788D01*
X242066579Y-66628798D01*
X242353652Y-66685900D01*
X242646348Y-66685900D01*
X242933421Y-66628798D01*
X243203838Y-66516788D01*
X243447206Y-66354174D01*
X243654174Y-66147206D01*
X243816788Y-65903838D01*
X243928798Y-65633421D01*
X243985900Y-65346348D01*
X243985900Y-65053652D01*
X243928798Y-64766579D01*
X243816788Y-64496162D01*
X243654174Y-64252794D01*
X243447206Y-64045826D01*
X243203838Y-63883212D01*
X242933421Y-63771202D01*
X242646348Y-63714100D01*
X242353652Y-63714100D01*
X242066579Y-63771202D01*
X241796162Y-63883212D01*
X241552794Y-64045826D01*
X241345826Y-64252794D01*
X241183212Y-64496162D01*
X241071202Y-64766579D01*
X241014100Y-65053652D01*
X239349500Y-65053652D01*
X239349500Y-64968594D01*
X239259210Y-64514676D01*
X239082100Y-64087095D01*
X238824976Y-63702281D01*
X238497719Y-63375024D01*
X238112905Y-63117900D01*
X237685324Y-62940790D01*
X237231406Y-62850500D01*
X236768594Y-62850500D01*
X236314676Y-62940790D01*
X235887095Y-63117900D01*
X235502281Y-63375024D01*
X235175024Y-63702281D01*
X234917900Y-64087095D01*
X234740790Y-64514676D01*
X234650500Y-64968594D01*
X232968982Y-64968594D01*
X232928798Y-64766579D01*
X232816788Y-64496162D01*
X232654174Y-64252794D01*
X232447206Y-64045826D01*
X232203838Y-63883212D01*
X231933421Y-63771202D01*
X231646348Y-63714100D01*
X231353652Y-63714100D01*
X231066579Y-63771202D01*
X230796162Y-63883212D01*
X230552794Y-64045826D01*
X230345826Y-64252794D01*
X230183212Y-64496162D01*
X230071202Y-64766579D01*
X230014100Y-65053652D01*
X215021149Y-65053652D01*
X219186126Y-60888675D01*
X230649700Y-60888675D01*
X230649700Y-61111325D01*
X230693137Y-61329696D01*
X230778341Y-61535398D01*
X230902039Y-61720524D01*
X231059476Y-61877961D01*
X231244602Y-62001659D01*
X231450304Y-62086863D01*
X231668675Y-62130300D01*
X231891325Y-62130300D01*
X232109696Y-62086863D01*
X232315398Y-62001659D01*
X232500524Y-61877961D01*
X232657961Y-61720524D01*
X232781659Y-61535398D01*
X232866863Y-61329696D01*
X232910300Y-61111325D01*
X232910300Y-60888675D01*
X241089700Y-60888675D01*
X241089700Y-61111325D01*
X241133137Y-61329696D01*
X241218341Y-61535398D01*
X241342039Y-61720524D01*
X241499476Y-61877961D01*
X241684602Y-62001659D01*
X241890304Y-62086863D01*
X242108675Y-62130300D01*
X242331325Y-62130300D01*
X242549696Y-62086863D01*
X242755398Y-62001659D01*
X242940524Y-61877961D01*
X243097961Y-61720524D01*
X243221659Y-61535398D01*
X243306863Y-61329696D01*
X243350300Y-61111325D01*
X243350300Y-60888675D01*
X243306863Y-60670304D01*
X243221659Y-60464602D01*
X243097961Y-60279476D01*
X242940524Y-60122039D01*
X242755398Y-59998341D01*
X242549696Y-59913137D01*
X242331325Y-59869700D01*
X242108675Y-59869700D01*
X241890304Y-59913137D01*
X241684602Y-59998341D01*
X241499476Y-60122039D01*
X241342039Y-60279476D01*
X241218341Y-60464602D01*
X241133137Y-60670304D01*
X241089700Y-60888675D01*
X232910300Y-60888675D01*
X232866863Y-60670304D01*
X232781659Y-60464602D01*
X232657961Y-60279476D01*
X232500524Y-60122039D01*
X232315398Y-59998341D01*
X232109696Y-59913137D01*
X231891325Y-59869700D01*
X231668675Y-59869700D01*
X231450304Y-59913137D01*
X231244602Y-59998341D01*
X231059476Y-60122039D01*
X230902039Y-60279476D01*
X230778341Y-60464602D01*
X230693137Y-60670304D01*
X230649700Y-60888675D01*
X219186126Y-60888675D01*
X219511003Y-60563799D01*
X219540001Y-60540001D01*
X219634974Y-60424276D01*
X219705546Y-60292247D01*
X219749003Y-60148986D01*
X219760000Y-60037333D01*
X219760000Y-60037324D01*
X219763676Y-60000001D01*
X219760000Y-59962678D01*
X219760000Y-59472227D01*
X219782042Y-59463097D01*
X220052451Y-59282415D01*
X220282415Y-59052451D01*
X220463097Y-58782042D01*
X220587553Y-58481579D01*
X220651000Y-58162609D01*
X220651000Y-57837391D01*
X220587553Y-57518421D01*
X220463097Y-57217958D01*
X220282415Y-56947549D01*
X220052451Y-56717585D01*
X219782042Y-56536903D01*
X219481579Y-56412447D01*
X219162609Y-56349000D01*
X218837391Y-56349000D01*
X218518421Y-56412447D01*
X218217958Y-56536903D01*
X217947549Y-56717585D01*
X217717585Y-56947549D01*
X217536903Y-57217958D01*
X217412447Y-57518421D01*
X217349000Y-57837391D01*
X217349000Y-58162609D01*
X217412447Y-58481579D01*
X217536903Y-58782042D01*
X217717585Y-59052451D01*
X217947549Y-59282415D01*
X218217958Y-59463097D01*
X218240001Y-59472227D01*
X218240001Y-59685197D01*
X213215199Y-64710000D01*
X158293178Y-64710000D01*
X158168475Y-64523368D01*
X157961632Y-64316525D01*
X157787240Y-64200000D01*
X157961632Y-64083475D01*
X158168475Y-63876632D01*
X158293178Y-63690000D01*
X192632678Y-63690000D01*
X192670000Y-63693676D01*
X192707322Y-63690000D01*
X192707333Y-63690000D01*
X192818986Y-63679003D01*
X192962247Y-63635546D01*
X193094276Y-63564974D01*
X193210001Y-63470001D01*
X193233804Y-63440997D01*
X200496379Y-56178423D01*
X200518421Y-56187553D01*
X200837391Y-56251000D01*
X201162609Y-56251000D01*
X201481579Y-56187553D01*
X201782042Y-56063097D01*
X202052451Y-55882415D01*
X202197475Y-55737391D01*
X212349000Y-55737391D01*
X212349000Y-56062609D01*
X212412447Y-56381579D01*
X212536903Y-56682042D01*
X212717585Y-56952451D01*
X212947549Y-57182415D01*
X213217958Y-57363097D01*
X213518421Y-57487553D01*
X213837391Y-57551000D01*
X214162609Y-57551000D01*
X214481579Y-57487553D01*
X214782042Y-57363097D01*
X215052451Y-57182415D01*
X215282415Y-56952451D01*
X215463097Y-56682042D01*
X215587553Y-56381579D01*
X215651000Y-56062609D01*
X215651000Y-55737391D01*
X222349000Y-55737391D01*
X222349000Y-56062609D01*
X222412447Y-56381579D01*
X222536903Y-56682042D01*
X222717585Y-56952451D01*
X222947549Y-57182415D01*
X223217958Y-57363097D01*
X223518421Y-57487553D01*
X223837391Y-57551000D01*
X224162609Y-57551000D01*
X224481579Y-57487553D01*
X224782042Y-57363097D01*
X225052451Y-57182415D01*
X225282415Y-56952451D01*
X225463097Y-56682042D01*
X225587553Y-56381579D01*
X225651000Y-56062609D01*
X225651000Y-55737391D01*
X225587553Y-55418421D01*
X225463097Y-55117958D01*
X225282415Y-54847549D01*
X225052451Y-54617585D01*
X224782042Y-54436903D01*
X224481579Y-54312447D01*
X224162609Y-54249000D01*
X223837391Y-54249000D01*
X223518421Y-54312447D01*
X223217958Y-54436903D01*
X222947549Y-54617585D01*
X222717585Y-54847549D01*
X222536903Y-55117958D01*
X222412447Y-55418421D01*
X222349000Y-55737391D01*
X215651000Y-55737391D01*
X215587553Y-55418421D01*
X215463097Y-55117958D01*
X215282415Y-54847549D01*
X215052451Y-54617585D01*
X214782042Y-54436903D01*
X214481579Y-54312447D01*
X214162609Y-54249000D01*
X213837391Y-54249000D01*
X213518421Y-54312447D01*
X213217958Y-54436903D01*
X212947549Y-54617585D01*
X212717585Y-54847549D01*
X212536903Y-55117958D01*
X212412447Y-55418421D01*
X212349000Y-55737391D01*
X202197475Y-55737391D01*
X202282415Y-55652451D01*
X202463097Y-55382042D01*
X202587553Y-55081579D01*
X202651000Y-54762609D01*
X202651000Y-54437391D01*
X202587553Y-54118421D01*
X202463097Y-53817958D01*
X202282415Y-53547549D01*
X202052451Y-53317585D01*
X201782042Y-53136903D01*
X201481579Y-53012447D01*
X201162609Y-52949000D01*
X200837391Y-52949000D01*
X200518421Y-53012447D01*
X200217958Y-53136903D01*
X199947549Y-53317585D01*
X199717585Y-53547549D01*
X199536903Y-53817958D01*
X199412447Y-54118421D01*
X199349000Y-54437391D01*
X199349000Y-54762609D01*
X199412447Y-55081579D01*
X199421577Y-55103621D01*
X192355199Y-62170000D01*
X183765377Y-62170000D01*
X183782042Y-62163097D01*
X184052451Y-61982415D01*
X184282415Y-61752451D01*
X184463097Y-61482042D01*
X184587553Y-61181579D01*
X184651000Y-60862609D01*
X184651000Y-60537391D01*
X184587553Y-60218421D01*
X184463097Y-59917958D01*
X184282415Y-59647549D01*
X184052451Y-59417585D01*
X183782042Y-59236903D01*
X183481579Y-59112447D01*
X183162609Y-59049000D01*
X182837391Y-59049000D01*
X182518421Y-59112447D01*
X182217958Y-59236903D01*
X181947549Y-59417585D01*
X181735134Y-59630000D01*
X179297416Y-59630000D01*
X179463097Y-59382042D01*
X179587553Y-59081579D01*
X179651000Y-58762609D01*
X179651000Y-58437391D01*
X186349000Y-58437391D01*
X186349000Y-58762609D01*
X186412447Y-59081579D01*
X186536903Y-59382042D01*
X186717585Y-59652451D01*
X186947549Y-59882415D01*
X187217958Y-60063097D01*
X187518421Y-60187553D01*
X187837391Y-60251000D01*
X188162609Y-60251000D01*
X188481579Y-60187553D01*
X188782042Y-60063097D01*
X189052451Y-59882415D01*
X189282415Y-59652451D01*
X189463097Y-59382042D01*
X189587553Y-59081579D01*
X189651000Y-58762609D01*
X189651000Y-58437391D01*
X189587553Y-58118421D01*
X189463097Y-57817958D01*
X189282415Y-57547549D01*
X189052451Y-57317585D01*
X188782042Y-57136903D01*
X188481579Y-57012447D01*
X188162609Y-56949000D01*
X187837391Y-56949000D01*
X187518421Y-57012447D01*
X187217958Y-57136903D01*
X186947549Y-57317585D01*
X186717585Y-57547549D01*
X186536903Y-57817958D01*
X186412447Y-58118421D01*
X186349000Y-58437391D01*
X179651000Y-58437391D01*
X179587553Y-58118421D01*
X179463097Y-57817958D01*
X179282415Y-57547549D01*
X179052451Y-57317585D01*
X178782042Y-57136903D01*
X178481579Y-57012447D01*
X178162609Y-56949000D01*
X177837391Y-56949000D01*
X177518421Y-57012447D01*
X177217958Y-57136903D01*
X176947549Y-57317585D01*
X176717585Y-57547549D01*
X176536903Y-57817958D01*
X176412447Y-58118421D01*
X176349000Y-58437391D01*
X176349000Y-58762609D01*
X176412447Y-59081579D01*
X176536903Y-59382042D01*
X176702584Y-59630000D01*
X158293178Y-59630000D01*
X158168475Y-59443368D01*
X157961632Y-59236525D01*
X157787240Y-59120000D01*
X157961632Y-59003475D01*
X158168475Y-58796632D01*
X158330990Y-58553411D01*
X158442932Y-58283158D01*
X158500000Y-57996260D01*
X158500000Y-57703740D01*
X158442932Y-57416842D01*
X158330990Y-57146589D01*
X158168475Y-56903368D01*
X157961632Y-56696525D01*
X157787240Y-56580000D01*
X157961632Y-56463475D01*
X158168475Y-56256632D01*
X158330990Y-56013411D01*
X158442932Y-55743158D01*
X158500000Y-55456260D01*
X158500000Y-55163740D01*
X158442932Y-54876842D01*
X158350485Y-54653652D01*
X176014100Y-54653652D01*
X176014100Y-54946348D01*
X176071202Y-55233421D01*
X176183212Y-55503838D01*
X176345826Y-55747206D01*
X176552794Y-55954174D01*
X176796162Y-56116788D01*
X177066579Y-56228798D01*
X177353652Y-56285900D01*
X177646348Y-56285900D01*
X177933421Y-56228798D01*
X178203838Y-56116788D01*
X178447206Y-55954174D01*
X178654174Y-55747206D01*
X178816788Y-55503838D01*
X178928798Y-55233421D01*
X178985900Y-54946348D01*
X178985900Y-54653652D01*
X178968982Y-54568594D01*
X180650500Y-54568594D01*
X180650500Y-55031406D01*
X180740790Y-55485324D01*
X180917900Y-55912905D01*
X181175024Y-56297719D01*
X181502281Y-56624976D01*
X181887095Y-56882100D01*
X182314676Y-57059210D01*
X182768594Y-57149500D01*
X183231406Y-57149500D01*
X183685324Y-57059210D01*
X184112905Y-56882100D01*
X184497719Y-56624976D01*
X184824976Y-56297719D01*
X185082100Y-55912905D01*
X185259210Y-55485324D01*
X185349500Y-55031406D01*
X185349500Y-54653652D01*
X187014100Y-54653652D01*
X187014100Y-54946348D01*
X187071202Y-55233421D01*
X187183212Y-55503838D01*
X187345826Y-55747206D01*
X187552794Y-55954174D01*
X187796162Y-56116788D01*
X188066579Y-56228798D01*
X188353652Y-56285900D01*
X188646348Y-56285900D01*
X188933421Y-56228798D01*
X189203838Y-56116788D01*
X189447206Y-55954174D01*
X189654174Y-55747206D01*
X189816788Y-55503838D01*
X189928798Y-55233421D01*
X189985900Y-54946348D01*
X189985900Y-54653652D01*
X189928798Y-54366579D01*
X189816788Y-54096162D01*
X189654174Y-53852794D01*
X189447206Y-53645826D01*
X189203838Y-53483212D01*
X188933421Y-53371202D01*
X188646348Y-53314100D01*
X188353652Y-53314100D01*
X188066579Y-53371202D01*
X187796162Y-53483212D01*
X187552794Y-53645826D01*
X187345826Y-53852794D01*
X187183212Y-54096162D01*
X187071202Y-54366579D01*
X187014100Y-54653652D01*
X185349500Y-54653652D01*
X185349500Y-54568594D01*
X185259210Y-54114676D01*
X185082100Y-53687095D01*
X184824976Y-53302281D01*
X184497719Y-52975024D01*
X184112905Y-52717900D01*
X183685324Y-52540790D01*
X183231406Y-52450500D01*
X182768594Y-52450500D01*
X182314676Y-52540790D01*
X181887095Y-52717900D01*
X181502281Y-52975024D01*
X181175024Y-53302281D01*
X180917900Y-53687095D01*
X180740790Y-54114676D01*
X180650500Y-54568594D01*
X178968982Y-54568594D01*
X178928798Y-54366579D01*
X178816788Y-54096162D01*
X178654174Y-53852794D01*
X178447206Y-53645826D01*
X178203838Y-53483212D01*
X177933421Y-53371202D01*
X177646348Y-53314100D01*
X177353652Y-53314100D01*
X177066579Y-53371202D01*
X176796162Y-53483212D01*
X176552794Y-53645826D01*
X176345826Y-53852794D01*
X176183212Y-54096162D01*
X176071202Y-54366579D01*
X176014100Y-54653652D01*
X158350485Y-54653652D01*
X158330990Y-54606589D01*
X158168475Y-54363368D01*
X157961632Y-54156525D01*
X157787240Y-54040000D01*
X157961632Y-53923475D01*
X158168475Y-53716632D01*
X158330990Y-53473411D01*
X158442932Y-53203158D01*
X158500000Y-52916260D01*
X158500000Y-52623740D01*
X158443042Y-52337391D01*
X194349000Y-52337391D01*
X194349000Y-52662609D01*
X194412447Y-52981579D01*
X194536903Y-53282042D01*
X194717585Y-53552451D01*
X194947549Y-53782415D01*
X195217958Y-53963097D01*
X195518421Y-54087553D01*
X195837391Y-54151000D01*
X196162609Y-54151000D01*
X196481579Y-54087553D01*
X196782042Y-53963097D01*
X197052451Y-53782415D01*
X197282415Y-53552451D01*
X197463097Y-53282042D01*
X197587553Y-52981579D01*
X197651000Y-52662609D01*
X197651000Y-52337391D01*
X204349000Y-52337391D01*
X204349000Y-52662609D01*
X204412447Y-52981579D01*
X204536903Y-53282042D01*
X204717585Y-53552451D01*
X204947549Y-53782415D01*
X205217958Y-53963097D01*
X205518421Y-54087553D01*
X205837391Y-54151000D01*
X206162609Y-54151000D01*
X206481579Y-54087553D01*
X206782042Y-53963097D01*
X207052451Y-53782415D01*
X207282415Y-53552451D01*
X207463097Y-53282042D01*
X207587553Y-52981579D01*
X207651000Y-52662609D01*
X207651000Y-52337391D01*
X207587553Y-52018421D01*
X207560725Y-51953652D01*
X212014100Y-51953652D01*
X212014100Y-52246348D01*
X212071202Y-52533421D01*
X212183212Y-52803838D01*
X212345826Y-53047206D01*
X212552794Y-53254174D01*
X212796162Y-53416788D01*
X213066579Y-53528798D01*
X213353652Y-53585900D01*
X213646348Y-53585900D01*
X213933421Y-53528798D01*
X214203838Y-53416788D01*
X214447206Y-53254174D01*
X214654174Y-53047206D01*
X214816788Y-52803838D01*
X214928798Y-52533421D01*
X214985900Y-52246348D01*
X214985900Y-51953652D01*
X214968982Y-51868594D01*
X216650500Y-51868594D01*
X216650500Y-52331406D01*
X216740790Y-52785324D01*
X216917900Y-53212905D01*
X217175024Y-53597719D01*
X217502281Y-53924976D01*
X217887095Y-54182100D01*
X218314676Y-54359210D01*
X218768594Y-54449500D01*
X219231406Y-54449500D01*
X219685324Y-54359210D01*
X220112905Y-54182100D01*
X220497719Y-53924976D01*
X220824976Y-53597719D01*
X221082100Y-53212905D01*
X221259210Y-52785324D01*
X221349500Y-52331406D01*
X221349500Y-51953652D01*
X223014100Y-51953652D01*
X223014100Y-52246348D01*
X223071202Y-52533421D01*
X223183212Y-52803838D01*
X223345826Y-53047206D01*
X223552794Y-53254174D01*
X223796162Y-53416788D01*
X224066579Y-53528798D01*
X224353652Y-53585900D01*
X224646348Y-53585900D01*
X224933421Y-53528798D01*
X225203838Y-53416788D01*
X225447206Y-53254174D01*
X225654174Y-53047206D01*
X225816788Y-52803838D01*
X225928798Y-52533421D01*
X225985900Y-52246348D01*
X225985900Y-51953652D01*
X225928798Y-51666579D01*
X225816788Y-51396162D01*
X225654174Y-51152794D01*
X225447206Y-50945826D01*
X225203838Y-50783212D01*
X224933421Y-50671202D01*
X224646348Y-50614100D01*
X224353652Y-50614100D01*
X224066579Y-50671202D01*
X223796162Y-50783212D01*
X223552794Y-50945826D01*
X223345826Y-51152794D01*
X223183212Y-51396162D01*
X223071202Y-51666579D01*
X223014100Y-51953652D01*
X221349500Y-51953652D01*
X221349500Y-51868594D01*
X221259210Y-51414676D01*
X221082100Y-50987095D01*
X220824976Y-50602281D01*
X220497719Y-50275024D01*
X220112905Y-50017900D01*
X219685324Y-49840790D01*
X219231406Y-49750500D01*
X218768594Y-49750500D01*
X218314676Y-49840790D01*
X217887095Y-50017900D01*
X217502281Y-50275024D01*
X217175024Y-50602281D01*
X216917900Y-50987095D01*
X216740790Y-51414676D01*
X216650500Y-51868594D01*
X214968982Y-51868594D01*
X214928798Y-51666579D01*
X214816788Y-51396162D01*
X214654174Y-51152794D01*
X214447206Y-50945826D01*
X214203838Y-50783212D01*
X213933421Y-50671202D01*
X213646348Y-50614100D01*
X213353652Y-50614100D01*
X213066579Y-50671202D01*
X212796162Y-50783212D01*
X212552794Y-50945826D01*
X212345826Y-51152794D01*
X212183212Y-51396162D01*
X212071202Y-51666579D01*
X212014100Y-51953652D01*
X207560725Y-51953652D01*
X207463097Y-51717958D01*
X207282415Y-51447549D01*
X207052451Y-51217585D01*
X206782042Y-51036903D01*
X206481579Y-50912447D01*
X206162609Y-50849000D01*
X205837391Y-50849000D01*
X205518421Y-50912447D01*
X205217958Y-51036903D01*
X204947549Y-51217585D01*
X204717585Y-51447549D01*
X204536903Y-51717958D01*
X204412447Y-52018421D01*
X204349000Y-52337391D01*
X197651000Y-52337391D01*
X197587553Y-52018421D01*
X197463097Y-51717958D01*
X197282415Y-51447549D01*
X197052451Y-51217585D01*
X196782042Y-51036903D01*
X196481579Y-50912447D01*
X196162609Y-50849000D01*
X195837391Y-50849000D01*
X195518421Y-50912447D01*
X195217958Y-51036903D01*
X194947549Y-51217585D01*
X194717585Y-51447549D01*
X194536903Y-51717958D01*
X194412447Y-52018421D01*
X194349000Y-52337391D01*
X158443042Y-52337391D01*
X158442932Y-52336842D01*
X158330990Y-52066589D01*
X158168475Y-51823368D01*
X157961632Y-51616525D01*
X157787240Y-51500000D01*
X157961632Y-51383475D01*
X158168475Y-51176632D01*
X158330990Y-50933411D01*
X158442932Y-50663158D01*
X158477639Y-50488675D01*
X176649700Y-50488675D01*
X176649700Y-50711325D01*
X176693137Y-50929696D01*
X176778341Y-51135398D01*
X176902039Y-51320524D01*
X177059476Y-51477961D01*
X177244602Y-51601659D01*
X177450304Y-51686863D01*
X177668675Y-51730300D01*
X177891325Y-51730300D01*
X178109696Y-51686863D01*
X178315398Y-51601659D01*
X178500524Y-51477961D01*
X178657961Y-51320524D01*
X178781659Y-51135398D01*
X178866863Y-50929696D01*
X178910300Y-50711325D01*
X178910300Y-50488675D01*
X187089700Y-50488675D01*
X187089700Y-50711325D01*
X187133137Y-50929696D01*
X187218341Y-51135398D01*
X187342039Y-51320524D01*
X187499476Y-51477961D01*
X187684602Y-51601659D01*
X187890304Y-51686863D01*
X188108675Y-51730300D01*
X188331325Y-51730300D01*
X188549696Y-51686863D01*
X188755398Y-51601659D01*
X188940524Y-51477961D01*
X189097961Y-51320524D01*
X189221659Y-51135398D01*
X189306863Y-50929696D01*
X189350300Y-50711325D01*
X189350300Y-50488675D01*
X189306863Y-50270304D01*
X189221659Y-50064602D01*
X189097961Y-49879476D01*
X188940524Y-49722039D01*
X188755398Y-49598341D01*
X188549696Y-49513137D01*
X188331325Y-49469700D01*
X188108675Y-49469700D01*
X187890304Y-49513137D01*
X187684602Y-49598341D01*
X187499476Y-49722039D01*
X187342039Y-49879476D01*
X187218341Y-50064602D01*
X187133137Y-50270304D01*
X187089700Y-50488675D01*
X178910300Y-50488675D01*
X178866863Y-50270304D01*
X178781659Y-50064602D01*
X178657961Y-49879476D01*
X178500524Y-49722039D01*
X178315398Y-49598341D01*
X178109696Y-49513137D01*
X177891325Y-49469700D01*
X177668675Y-49469700D01*
X177450304Y-49513137D01*
X177244602Y-49598341D01*
X177059476Y-49722039D01*
X176902039Y-49879476D01*
X176778341Y-50064602D01*
X176693137Y-50270304D01*
X176649700Y-50488675D01*
X158477639Y-50488675D01*
X158500000Y-50376260D01*
X158500000Y-50083740D01*
X158442932Y-49796842D01*
X158330990Y-49526589D01*
X158168475Y-49283368D01*
X157961632Y-49076525D01*
X157787240Y-48960000D01*
X157961632Y-48843475D01*
X158168475Y-48636632D01*
X158223920Y-48553652D01*
X194014100Y-48553652D01*
X194014100Y-48846348D01*
X194071202Y-49133421D01*
X194183212Y-49403838D01*
X194345826Y-49647206D01*
X194552794Y-49854174D01*
X194796162Y-50016788D01*
X195066579Y-50128798D01*
X195353652Y-50185900D01*
X195646348Y-50185900D01*
X195933421Y-50128798D01*
X196203838Y-50016788D01*
X196447206Y-49854174D01*
X196654174Y-49647206D01*
X196816788Y-49403838D01*
X196928798Y-49133421D01*
X196985900Y-48846348D01*
X196985900Y-48553652D01*
X196968982Y-48468594D01*
X198650500Y-48468594D01*
X198650500Y-48931406D01*
X198740790Y-49385324D01*
X198917900Y-49812905D01*
X199175024Y-50197719D01*
X199502281Y-50524976D01*
X199887095Y-50782100D01*
X200314676Y-50959210D01*
X200768594Y-51049500D01*
X201231406Y-51049500D01*
X201685324Y-50959210D01*
X202112905Y-50782100D01*
X202497719Y-50524976D01*
X202824976Y-50197719D01*
X203082100Y-49812905D01*
X203259210Y-49385324D01*
X203349500Y-48931406D01*
X203349500Y-48553652D01*
X205014100Y-48553652D01*
X205014100Y-48846348D01*
X205071202Y-49133421D01*
X205183212Y-49403838D01*
X205345826Y-49647206D01*
X205552794Y-49854174D01*
X205796162Y-50016788D01*
X206066579Y-50128798D01*
X206353652Y-50185900D01*
X206646348Y-50185900D01*
X206933421Y-50128798D01*
X207203838Y-50016788D01*
X207447206Y-49854174D01*
X207654174Y-49647206D01*
X207816788Y-49403838D01*
X207928798Y-49133421D01*
X207985900Y-48846348D01*
X207985900Y-48553652D01*
X207928798Y-48266579D01*
X207816788Y-47996162D01*
X207678150Y-47788675D01*
X212649700Y-47788675D01*
X212649700Y-48011325D01*
X212693137Y-48229696D01*
X212778341Y-48435398D01*
X212902039Y-48620524D01*
X213059476Y-48777961D01*
X213244602Y-48901659D01*
X213450304Y-48986863D01*
X213668675Y-49030300D01*
X213891325Y-49030300D01*
X214109696Y-48986863D01*
X214315398Y-48901659D01*
X214500524Y-48777961D01*
X214657961Y-48620524D01*
X214781659Y-48435398D01*
X214866863Y-48229696D01*
X214910300Y-48011325D01*
X214910300Y-47788675D01*
X223089700Y-47788675D01*
X223089700Y-48011325D01*
X223133137Y-48229696D01*
X223218341Y-48435398D01*
X223342039Y-48620524D01*
X223499476Y-48777961D01*
X223684602Y-48901659D01*
X223890304Y-48986863D01*
X224108675Y-49030300D01*
X224331325Y-49030300D01*
X224549696Y-48986863D01*
X224755398Y-48901659D01*
X224940524Y-48777961D01*
X225097961Y-48620524D01*
X225221659Y-48435398D01*
X225306863Y-48229696D01*
X225350300Y-48011325D01*
X225350300Y-47788675D01*
X225306863Y-47570304D01*
X225221659Y-47364602D01*
X225097961Y-47179476D01*
X224940524Y-47022039D01*
X224755398Y-46898341D01*
X224549696Y-46813137D01*
X224331325Y-46769700D01*
X224108675Y-46769700D01*
X223890304Y-46813137D01*
X223684602Y-46898341D01*
X223499476Y-47022039D01*
X223342039Y-47179476D01*
X223218341Y-47364602D01*
X223133137Y-47570304D01*
X223089700Y-47788675D01*
X214910300Y-47788675D01*
X214866863Y-47570304D01*
X214781659Y-47364602D01*
X214657961Y-47179476D01*
X214500524Y-47022039D01*
X214315398Y-46898341D01*
X214109696Y-46813137D01*
X213891325Y-46769700D01*
X213668675Y-46769700D01*
X213450304Y-46813137D01*
X213244602Y-46898341D01*
X213059476Y-47022039D01*
X212902039Y-47179476D01*
X212778341Y-47364602D01*
X212693137Y-47570304D01*
X212649700Y-47788675D01*
X207678150Y-47788675D01*
X207654174Y-47752794D01*
X207447206Y-47545826D01*
X207203838Y-47383212D01*
X206933421Y-47271202D01*
X206646348Y-47214100D01*
X206353652Y-47214100D01*
X206066579Y-47271202D01*
X205796162Y-47383212D01*
X205552794Y-47545826D01*
X205345826Y-47752794D01*
X205183212Y-47996162D01*
X205071202Y-48266579D01*
X205014100Y-48553652D01*
X203349500Y-48553652D01*
X203349500Y-48468594D01*
X203259210Y-48014676D01*
X203082100Y-47587095D01*
X202824976Y-47202281D01*
X202497719Y-46875024D01*
X202112905Y-46617900D01*
X201685324Y-46440790D01*
X201231406Y-46350500D01*
X200768594Y-46350500D01*
X200314676Y-46440790D01*
X199887095Y-46617900D01*
X199502281Y-46875024D01*
X199175024Y-47202281D01*
X198917900Y-47587095D01*
X198740790Y-48014676D01*
X198650500Y-48468594D01*
X196968982Y-48468594D01*
X196928798Y-48266579D01*
X196816788Y-47996162D01*
X196654174Y-47752794D01*
X196447206Y-47545826D01*
X196203838Y-47383212D01*
X195933421Y-47271202D01*
X195646348Y-47214100D01*
X195353652Y-47214100D01*
X195066579Y-47271202D01*
X194796162Y-47383212D01*
X194552794Y-47545826D01*
X194345826Y-47752794D01*
X194183212Y-47996162D01*
X194071202Y-48266579D01*
X194014100Y-48553652D01*
X158223920Y-48553652D01*
X158330990Y-48393411D01*
X158442932Y-48123158D01*
X158500000Y-47836260D01*
X158500000Y-47543740D01*
X158442932Y-47256842D01*
X158330990Y-46986589D01*
X158168475Y-46743368D01*
X157961632Y-46536525D01*
X157787240Y-46420000D01*
X157961632Y-46303475D01*
X158168475Y-46096632D01*
X158330990Y-45853411D01*
X158442932Y-45583158D01*
X158500000Y-45296260D01*
X158500000Y-45003740D01*
X158442932Y-44716842D01*
X158330990Y-44446589D01*
X158292294Y-44388675D01*
X194649700Y-44388675D01*
X194649700Y-44611325D01*
X194693137Y-44829696D01*
X194778341Y-45035398D01*
X194902039Y-45220524D01*
X195059476Y-45377961D01*
X195244602Y-45501659D01*
X195450304Y-45586863D01*
X195668675Y-45630300D01*
X195891325Y-45630300D01*
X196109696Y-45586863D01*
X196315398Y-45501659D01*
X196500524Y-45377961D01*
X196657961Y-45220524D01*
X196781659Y-45035398D01*
X196866863Y-44829696D01*
X196910300Y-44611325D01*
X196910300Y-44388675D01*
X205089700Y-44388675D01*
X205089700Y-44611325D01*
X205133137Y-44829696D01*
X205218341Y-45035398D01*
X205342039Y-45220524D01*
X205499476Y-45377961D01*
X205684602Y-45501659D01*
X205890304Y-45586863D01*
X206108675Y-45630300D01*
X206331325Y-45630300D01*
X206549696Y-45586863D01*
X206755398Y-45501659D01*
X206940524Y-45377961D01*
X207097961Y-45220524D01*
X207221659Y-45035398D01*
X207306863Y-44829696D01*
X207350300Y-44611325D01*
X207350300Y-44388675D01*
X207306863Y-44170304D01*
X207221659Y-43964602D01*
X207097961Y-43779476D01*
X206940524Y-43622039D01*
X206755398Y-43498341D01*
X206549696Y-43413137D01*
X206331325Y-43369700D01*
X206108675Y-43369700D01*
X205890304Y-43413137D01*
X205684602Y-43498341D01*
X205499476Y-43622039D01*
X205342039Y-43779476D01*
X205218341Y-43964602D01*
X205133137Y-44170304D01*
X205089700Y-44388675D01*
X196910300Y-44388675D01*
X196866863Y-44170304D01*
X196781659Y-43964602D01*
X196657961Y-43779476D01*
X196500524Y-43622039D01*
X196315398Y-43498341D01*
X196109696Y-43413137D01*
X195891325Y-43369700D01*
X195668675Y-43369700D01*
X195450304Y-43413137D01*
X195244602Y-43498341D01*
X195059476Y-43622039D01*
X194902039Y-43779476D01*
X194778341Y-43964602D01*
X194693137Y-44170304D01*
X194649700Y-44388675D01*
X158292294Y-44388675D01*
X158168475Y-44203368D01*
X157961632Y-43996525D01*
X157718411Y-43834010D01*
X157448158Y-43722068D01*
X157439835Y-43720412D01*
X157510998Y-43672863D01*
X157752663Y-43431198D01*
X157942537Y-43147031D01*
X158073325Y-42831281D01*
X158140000Y-42496083D01*
X158140000Y-42154317D01*
X158073325Y-41819119D01*
X157942537Y-41503369D01*
X157752663Y-41219202D01*
X157510998Y-40977537D01*
X157226831Y-40787663D01*
X156911081Y-40656875D01*
X156575883Y-40590200D01*
X156234117Y-40590200D01*
X155898919Y-40656875D01*
X155583169Y-40787663D01*
X155299002Y-40977537D01*
X155057337Y-41219202D01*
X154867463Y-41503369D01*
X154736675Y-41819119D01*
X154670000Y-42154317D01*
X154670000Y-42496083D01*
X154736675Y-42831281D01*
X154867463Y-43147031D01*
X155057337Y-43431198D01*
X155299002Y-43672863D01*
X155583169Y-43862737D01*
X155898919Y-43993525D01*
X156042757Y-44022136D01*
X155861525Y-44203368D01*
X155699010Y-44446589D01*
X155587068Y-44716842D01*
X155530000Y-45003740D01*
X155530000Y-45296260D01*
X155587068Y-45583158D01*
X155699010Y-45853411D01*
X155861525Y-46096632D01*
X156068368Y-46303475D01*
X156242760Y-46420000D01*
X156068368Y-46536525D01*
X155861525Y-46743368D01*
X155699010Y-46986589D01*
X155587068Y-47256842D01*
X155530000Y-47543740D01*
X155530000Y-47836260D01*
X155587068Y-48123158D01*
X155699010Y-48393411D01*
X155861525Y-48636632D01*
X156068368Y-48843475D01*
X156242760Y-48960000D01*
X156068368Y-49076525D01*
X155861525Y-49283368D01*
X155745000Y-49457760D01*
X155628475Y-49283368D01*
X155421632Y-49076525D01*
X155178411Y-48914010D01*
X154908158Y-48802068D01*
X154621260Y-48745000D01*
X154328740Y-48745000D01*
X154041842Y-48802068D01*
X153771589Y-48914010D01*
X153528368Y-49076525D01*
X153321525Y-49283368D01*
X153159010Y-49526589D01*
X153047068Y-49796842D01*
X152990000Y-50083740D01*
X150905000Y-50083740D01*
X150847932Y-49796842D01*
X150735990Y-49526589D01*
X150573475Y-49283368D01*
X150366632Y-49076525D01*
X150123411Y-48914010D01*
X149853158Y-48802068D01*
X149566260Y-48745000D01*
X149273740Y-48745000D01*
X148986842Y-48802068D01*
X148716589Y-48914010D01*
X148473368Y-49076525D01*
X148266525Y-49283368D01*
X148150000Y-49457760D01*
X148033475Y-49283368D01*
X147826632Y-49076525D01*
X147583411Y-48914010D01*
X147313158Y-48802068D01*
X147026260Y-48745000D01*
X146733740Y-48745000D01*
X146446842Y-48802068D01*
X146176589Y-48914010D01*
X145933368Y-49076525D01*
X145726525Y-49283368D01*
X145610000Y-49457760D01*
X145493475Y-49283368D01*
X145286632Y-49076525D01*
X145043411Y-48914010D01*
X144773158Y-48802068D01*
X144486260Y-48745000D01*
X144193740Y-48745000D01*
X143906842Y-48802068D01*
X143636589Y-48914010D01*
X143393368Y-49076525D01*
X143186525Y-49283368D01*
X143070000Y-49457760D01*
X142953475Y-49283368D01*
X142746632Y-49076525D01*
X142572240Y-48960000D01*
X142746632Y-48843475D01*
X142953475Y-48636632D01*
X143115990Y-48393411D01*
X143227932Y-48123158D01*
X143285000Y-47836260D01*
X143285000Y-47543740D01*
X143227932Y-47256842D01*
X143115990Y-46986589D01*
X142953475Y-46743368D01*
X142746632Y-46536525D01*
X142572240Y-46420000D01*
X142746632Y-46303475D01*
X142953475Y-46096632D01*
X143115990Y-45853411D01*
X143227932Y-45583158D01*
X143285000Y-45296260D01*
X143285000Y-45003740D01*
X143227932Y-44716842D01*
X143115990Y-44446589D01*
X142953475Y-44203368D01*
X142772177Y-44022070D01*
X142915681Y-43993525D01*
X143231431Y-43862737D01*
X143515598Y-43672863D01*
X143757263Y-43431198D01*
X143947137Y-43147031D01*
X144077925Y-42831281D01*
X144144600Y-42496083D01*
X144144600Y-42154317D01*
X144077925Y-41819119D01*
X143947137Y-41503369D01*
X143757263Y-41219202D01*
X143515598Y-40977537D01*
X143231431Y-40787663D01*
X142915681Y-40656875D01*
X142580483Y-40590200D01*
X142238717Y-40590200D01*
X141903519Y-40656875D01*
X141587769Y-40787663D01*
X141303602Y-40977537D01*
X141061937Y-41219202D01*
X140872063Y-41503369D01*
X140741275Y-41819119D01*
X140674600Y-42154317D01*
X140674600Y-42496083D01*
X140741275Y-42831281D01*
X140872063Y-43147031D01*
X141061937Y-43431198D01*
X141303602Y-43672863D01*
X141374857Y-43720474D01*
X141366842Y-43722068D01*
X141096589Y-43834010D01*
X140853368Y-43996525D01*
X140646525Y-44203368D01*
X140484010Y-44446589D01*
X140372068Y-44716842D01*
X140315000Y-45003740D01*
X140315000Y-45296260D01*
X140372068Y-45583158D01*
X140484010Y-45853411D01*
X140646525Y-46096632D01*
X140853368Y-46303475D01*
X141027760Y-46420000D01*
X140853368Y-46536525D01*
X140646525Y-46743368D01*
X140484010Y-46986589D01*
X140372068Y-47256842D01*
X140315000Y-47543740D01*
X140315000Y-47836260D01*
X140372068Y-48123158D01*
X140484010Y-48393411D01*
X140646525Y-48636632D01*
X140853368Y-48843475D01*
X141027760Y-48960000D01*
X140853368Y-49076525D01*
X140646525Y-49283368D01*
X140484010Y-49526589D01*
X140372068Y-49796842D01*
X140315000Y-50083740D01*
X140315000Y-50376260D01*
X140372068Y-50663158D01*
X140484010Y-50933411D01*
X140646525Y-51176632D01*
X140853368Y-51383475D01*
X141027760Y-51500000D01*
X140853368Y-51616525D01*
X140646525Y-51823368D01*
X140484010Y-52066589D01*
X140372068Y-52336842D01*
X140315000Y-52623740D01*
X140315000Y-52916260D01*
X140372068Y-53203158D01*
X140484010Y-53473411D01*
X140646525Y-53716632D01*
X140853368Y-53923475D01*
X141027760Y-54040000D01*
X140853368Y-54156525D01*
X140646525Y-54363368D01*
X140484010Y-54606589D01*
X140372068Y-54876842D01*
X140315000Y-55163740D01*
X140315000Y-55456260D01*
X140372068Y-55743158D01*
X140484010Y-56013411D01*
X140646525Y-56256632D01*
X140853368Y-56463475D01*
X141027760Y-56580000D01*
X140853368Y-56696525D01*
X140646525Y-56903368D01*
X140484010Y-57146589D01*
X140372068Y-57416842D01*
X140315000Y-57703740D01*
X140315000Y-57996260D01*
X140372068Y-58283158D01*
X140484010Y-58553411D01*
X140646525Y-58796632D01*
X140853368Y-59003475D01*
X141027760Y-59120000D01*
X140853368Y-59236525D01*
X140646525Y-59443368D01*
X140521822Y-59630000D01*
X120897416Y-59630000D01*
X121063097Y-59382042D01*
X121187553Y-59081579D01*
X121251000Y-58762609D01*
X121251000Y-58437391D01*
X121187553Y-58118421D01*
X121063097Y-57817958D01*
X120882415Y-57547549D01*
X120652451Y-57317585D01*
X120382042Y-57136903D01*
X120081579Y-57012447D01*
X119762609Y-56949000D01*
X119437391Y-56949000D01*
X119118421Y-57012447D01*
X118817958Y-57136903D01*
X118547549Y-57317585D01*
X118317585Y-57547549D01*
X118136903Y-57817958D01*
X118012447Y-58118421D01*
X117949000Y-58437391D01*
X117949000Y-58762609D01*
X118012447Y-59081579D01*
X118136903Y-59382042D01*
X118302584Y-59630000D01*
X115864866Y-59630000D01*
X115652451Y-59417585D01*
X115382042Y-59236903D01*
X115081579Y-59112447D01*
X114762609Y-59049000D01*
X114437391Y-59049000D01*
X114118421Y-59112447D01*
X113817958Y-59236903D01*
X113547549Y-59417585D01*
X113317585Y-59647549D01*
X113136903Y-59917958D01*
X113012447Y-60218421D01*
X112949000Y-60537391D01*
X112949000Y-60862609D01*
X113012447Y-61181579D01*
X113136903Y-61482042D01*
X113317585Y-61752451D01*
X113547549Y-61982415D01*
X113817958Y-62163097D01*
X113834623Y-62170000D01*
X105344802Y-62170000D01*
X101612193Y-58437391D01*
X107949000Y-58437391D01*
X107949000Y-58762609D01*
X108012447Y-59081579D01*
X108136903Y-59382042D01*
X108317585Y-59652451D01*
X108547549Y-59882415D01*
X108817958Y-60063097D01*
X109118421Y-60187553D01*
X109437391Y-60251000D01*
X109762609Y-60251000D01*
X110081579Y-60187553D01*
X110382042Y-60063097D01*
X110652451Y-59882415D01*
X110882415Y-59652451D01*
X111063097Y-59382042D01*
X111187553Y-59081579D01*
X111251000Y-58762609D01*
X111251000Y-58437391D01*
X111187553Y-58118421D01*
X111063097Y-57817958D01*
X110882415Y-57547549D01*
X110652451Y-57317585D01*
X110382042Y-57136903D01*
X110081579Y-57012447D01*
X109762609Y-56949000D01*
X109437391Y-56949000D01*
X109118421Y-57012447D01*
X108817958Y-57136903D01*
X108547549Y-57317585D01*
X108317585Y-57547549D01*
X108136903Y-57817958D01*
X108012447Y-58118421D01*
X107949000Y-58437391D01*
X101612193Y-58437391D01*
X98278423Y-55103622D01*
X98287553Y-55081579D01*
X98351000Y-54762609D01*
X98351000Y-54653652D01*
X107614100Y-54653652D01*
X107614100Y-54946348D01*
X107671202Y-55233421D01*
X107783212Y-55503838D01*
X107945826Y-55747206D01*
X108152794Y-55954174D01*
X108396162Y-56116788D01*
X108666579Y-56228798D01*
X108953652Y-56285900D01*
X109246348Y-56285900D01*
X109533421Y-56228798D01*
X109803838Y-56116788D01*
X110047206Y-55954174D01*
X110254174Y-55747206D01*
X110416788Y-55503838D01*
X110528798Y-55233421D01*
X110585900Y-54946348D01*
X110585900Y-54653652D01*
X110568982Y-54568594D01*
X112250500Y-54568594D01*
X112250500Y-55031406D01*
X112340790Y-55485324D01*
X112517900Y-55912905D01*
X112775024Y-56297719D01*
X113102281Y-56624976D01*
X113487095Y-56882100D01*
X113914676Y-57059210D01*
X114368594Y-57149500D01*
X114831406Y-57149500D01*
X115285324Y-57059210D01*
X115712905Y-56882100D01*
X116097719Y-56624976D01*
X116424976Y-56297719D01*
X116682100Y-55912905D01*
X116859210Y-55485324D01*
X116949500Y-55031406D01*
X116949500Y-54653652D01*
X118614100Y-54653652D01*
X118614100Y-54946348D01*
X118671202Y-55233421D01*
X118783212Y-55503838D01*
X118945826Y-55747206D01*
X119152794Y-55954174D01*
X119396162Y-56116788D01*
X119666579Y-56228798D01*
X119953652Y-56285900D01*
X120246348Y-56285900D01*
X120533421Y-56228798D01*
X120803838Y-56116788D01*
X121047206Y-55954174D01*
X121254174Y-55747206D01*
X121416788Y-55503838D01*
X121528798Y-55233421D01*
X121585900Y-54946348D01*
X121585900Y-54653652D01*
X121528798Y-54366579D01*
X121416788Y-54096162D01*
X121254174Y-53852794D01*
X121047206Y-53645826D01*
X120803838Y-53483212D01*
X120533421Y-53371202D01*
X120246348Y-53314100D01*
X119953652Y-53314100D01*
X119666579Y-53371202D01*
X119396162Y-53483212D01*
X119152794Y-53645826D01*
X118945826Y-53852794D01*
X118783212Y-54096162D01*
X118671202Y-54366579D01*
X118614100Y-54653652D01*
X116949500Y-54653652D01*
X116949500Y-54568594D01*
X116859210Y-54114676D01*
X116682100Y-53687095D01*
X116424976Y-53302281D01*
X116097719Y-52975024D01*
X115712905Y-52717900D01*
X115285324Y-52540790D01*
X114831406Y-52450500D01*
X114368594Y-52450500D01*
X113914676Y-52540790D01*
X113487095Y-52717900D01*
X113102281Y-52975024D01*
X112775024Y-53302281D01*
X112517900Y-53687095D01*
X112340790Y-54114676D01*
X112250500Y-54568594D01*
X110568982Y-54568594D01*
X110528798Y-54366579D01*
X110416788Y-54096162D01*
X110254174Y-53852794D01*
X110047206Y-53645826D01*
X109803838Y-53483212D01*
X109533421Y-53371202D01*
X109246348Y-53314100D01*
X108953652Y-53314100D01*
X108666579Y-53371202D01*
X108396162Y-53483212D01*
X108152794Y-53645826D01*
X107945826Y-53852794D01*
X107783212Y-54096162D01*
X107671202Y-54366579D01*
X107614100Y-54653652D01*
X98351000Y-54653652D01*
X98351000Y-54437391D01*
X98287553Y-54118421D01*
X98163097Y-53817958D01*
X97982415Y-53547549D01*
X97752451Y-53317585D01*
X97482042Y-53136903D01*
X97181579Y-53012447D01*
X96862609Y-52949000D01*
X96537391Y-52949000D01*
X96218421Y-53012447D01*
X95917958Y-53136903D01*
X95647549Y-53317585D01*
X95417585Y-53547549D01*
X95236903Y-53817958D01*
X95112447Y-54118421D01*
X95049000Y-54437391D01*
X95049000Y-54762609D01*
X95112447Y-55081579D01*
X95236903Y-55382042D01*
X95417585Y-55652451D01*
X95647549Y-55882415D01*
X95917958Y-56063097D01*
X96218421Y-56187553D01*
X96537391Y-56251000D01*
X96862609Y-56251000D01*
X97181579Y-56187553D01*
X97203622Y-56178423D01*
X104466201Y-63441003D01*
X104489999Y-63470001D01*
X104518997Y-63493799D01*
X104605723Y-63564974D01*
X104733759Y-63633411D01*
X104737753Y-63635546D01*
X104881014Y-63679003D01*
X104992667Y-63690000D01*
X104992677Y-63690000D01*
X105030000Y-63693676D01*
X105067323Y-63690000D01*
X140521822Y-63690000D01*
X140646525Y-63876632D01*
X140853368Y-64083475D01*
X141027760Y-64200000D01*
X140853368Y-64316525D01*
X140646525Y-64523368D01*
X140521822Y-64710000D01*
X84484802Y-64710000D01*
X79460000Y-59685199D01*
X79460000Y-59472227D01*
X79482042Y-59463097D01*
X79752451Y-59282415D01*
X79982415Y-59052451D01*
X80163097Y-58782042D01*
X80287553Y-58481579D01*
X80351000Y-58162609D01*
X80351000Y-57837391D01*
X80287553Y-57518421D01*
X80163097Y-57217958D01*
X79982415Y-56947549D01*
X79752451Y-56717585D01*
X79482042Y-56536903D01*
X79181579Y-56412447D01*
X78862609Y-56349000D01*
X78537391Y-56349000D01*
X78218421Y-56412447D01*
X77917958Y-56536903D01*
X77647549Y-56717585D01*
X77417585Y-56947549D01*
X77236903Y-57217958D01*
X77112447Y-57518421D01*
X77049000Y-57837391D01*
X77049000Y-58162609D01*
X77112447Y-58481579D01*
X77236903Y-58782042D01*
X77417585Y-59052451D01*
X77647549Y-59282415D01*
X77917958Y-59463097D01*
X77940001Y-59472227D01*
X77940001Y-59962668D01*
X77936324Y-60000000D01*
X77940001Y-60037333D01*
X77950998Y-60148986D01*
X77962697Y-60187553D01*
X77994454Y-60292246D01*
X78065026Y-60424276D01*
X78136201Y-60511002D01*
X78160000Y-60540001D01*
X78188998Y-60563799D01*
X83606201Y-65981003D01*
X83629999Y-66010001D01*
X83745724Y-66104974D01*
X83877753Y-66175546D01*
X84021014Y-66219003D01*
X84132667Y-66230000D01*
X84132676Y-66230000D01*
X84169999Y-66233676D01*
X84207322Y-66230000D01*
X140521822Y-66230000D01*
X140646525Y-66416632D01*
X140853368Y-66623475D01*
X141027760Y-66740000D01*
X140853368Y-66856525D01*
X140646525Y-67063368D01*
X140484010Y-67306589D01*
X140372068Y-67576842D01*
X140315000Y-67863740D01*
X140315000Y-68156260D01*
X140358790Y-68376408D01*
X136395199Y-72340000D01*
X63014802Y-72340000D01*
X62278423Y-71603621D01*
X62287553Y-71581579D01*
X62351000Y-71262609D01*
X62351000Y-70937391D01*
X62287553Y-70618421D01*
X62163097Y-70317958D01*
X61982415Y-70047549D01*
X61752451Y-69817585D01*
X61482042Y-69636903D01*
X61181579Y-69512447D01*
X60862609Y-69449000D01*
X60537391Y-69449000D01*
X60218421Y-69512447D01*
X59917958Y-69636903D01*
X59647549Y-69817585D01*
X59417585Y-70047549D01*
X59236903Y-70317958D01*
X59112447Y-70618421D01*
X59049000Y-70937391D01*
X52020209Y-70937391D01*
X52022163Y-68837391D01*
X54049000Y-68837391D01*
X54049000Y-69162609D01*
X54112447Y-69481579D01*
X54236903Y-69782042D01*
X54417585Y-70052451D01*
X54647549Y-70282415D01*
X54917958Y-70463097D01*
X55218421Y-70587553D01*
X55537391Y-70651000D01*
X55862609Y-70651000D01*
X56181579Y-70587553D01*
X56482042Y-70463097D01*
X56752451Y-70282415D01*
X56982415Y-70052451D01*
X57163097Y-69782042D01*
X57287553Y-69481579D01*
X57351000Y-69162609D01*
X57351000Y-68837391D01*
X64049000Y-68837391D01*
X64049000Y-69162609D01*
X64112447Y-69481579D01*
X64236903Y-69782042D01*
X64417585Y-70052451D01*
X64647549Y-70282415D01*
X64917958Y-70463097D01*
X65218421Y-70587553D01*
X65537391Y-70651000D01*
X65862609Y-70651000D01*
X66181579Y-70587553D01*
X66482042Y-70463097D01*
X66752451Y-70282415D01*
X66982415Y-70052451D01*
X67163097Y-69782042D01*
X67287553Y-69481579D01*
X67351000Y-69162609D01*
X67351000Y-68837391D01*
X67287553Y-68518421D01*
X67163097Y-68217958D01*
X66982415Y-67947549D01*
X66752451Y-67717585D01*
X66482042Y-67536903D01*
X66181579Y-67412447D01*
X65862609Y-67349000D01*
X65537391Y-67349000D01*
X65218421Y-67412447D01*
X64917958Y-67536903D01*
X64647549Y-67717585D01*
X64417585Y-67947549D01*
X64236903Y-68217958D01*
X64112447Y-68518421D01*
X64049000Y-68837391D01*
X57351000Y-68837391D01*
X57287553Y-68518421D01*
X57163097Y-68217958D01*
X56982415Y-67947549D01*
X56752451Y-67717585D01*
X56482042Y-67536903D01*
X56181579Y-67412447D01*
X55862609Y-67349000D01*
X55537391Y-67349000D01*
X55218421Y-67412447D01*
X54917958Y-67536903D01*
X54647549Y-67717585D01*
X54417585Y-67947549D01*
X54236903Y-68217958D01*
X54112447Y-68518421D01*
X54049000Y-68837391D01*
X52022163Y-68837391D01*
X52025684Y-65053652D01*
X53714100Y-65053652D01*
X53714100Y-65346348D01*
X53771202Y-65633421D01*
X53883212Y-65903838D01*
X54045826Y-66147206D01*
X54252794Y-66354174D01*
X54496162Y-66516788D01*
X54766579Y-66628798D01*
X55053652Y-66685900D01*
X55346348Y-66685900D01*
X55633421Y-66628798D01*
X55903838Y-66516788D01*
X56147206Y-66354174D01*
X56354174Y-66147206D01*
X56516788Y-65903838D01*
X56628798Y-65633421D01*
X56685900Y-65346348D01*
X56685900Y-65053652D01*
X56668982Y-64968594D01*
X58350500Y-64968594D01*
X58350500Y-65431406D01*
X58440790Y-65885324D01*
X58617900Y-66312905D01*
X58875024Y-66697719D01*
X59202281Y-67024976D01*
X59587095Y-67282100D01*
X60014676Y-67459210D01*
X60468594Y-67549500D01*
X60931406Y-67549500D01*
X61385324Y-67459210D01*
X61812905Y-67282100D01*
X62197719Y-67024976D01*
X62524976Y-66697719D01*
X62782100Y-66312905D01*
X62959210Y-65885324D01*
X63049500Y-65431406D01*
X63049500Y-65053652D01*
X64714100Y-65053652D01*
X64714100Y-65346348D01*
X64771202Y-65633421D01*
X64883212Y-65903838D01*
X65045826Y-66147206D01*
X65252794Y-66354174D01*
X65496162Y-66516788D01*
X65766579Y-66628798D01*
X66053652Y-66685900D01*
X66346348Y-66685900D01*
X66633421Y-66628798D01*
X66903838Y-66516788D01*
X67147206Y-66354174D01*
X67354174Y-66147206D01*
X67516788Y-65903838D01*
X67628798Y-65633421D01*
X67685900Y-65346348D01*
X67685900Y-65053652D01*
X67628798Y-64766579D01*
X67516788Y-64496162D01*
X67354174Y-64252794D01*
X67147206Y-64045826D01*
X66903838Y-63883212D01*
X66633421Y-63771202D01*
X66346348Y-63714100D01*
X66053652Y-63714100D01*
X65766579Y-63771202D01*
X65496162Y-63883212D01*
X65252794Y-64045826D01*
X65045826Y-64252794D01*
X64883212Y-64496162D01*
X64771202Y-64766579D01*
X64714100Y-65053652D01*
X63049500Y-65053652D01*
X63049500Y-64968594D01*
X62959210Y-64514676D01*
X62782100Y-64087095D01*
X62524976Y-63702281D01*
X62197719Y-63375024D01*
X61812905Y-63117900D01*
X61385324Y-62940790D01*
X60931406Y-62850500D01*
X60468594Y-62850500D01*
X60014676Y-62940790D01*
X59587095Y-63117900D01*
X59202281Y-63375024D01*
X58875024Y-63702281D01*
X58617900Y-64087095D01*
X58440790Y-64514676D01*
X58350500Y-64968594D01*
X56668982Y-64968594D01*
X56628798Y-64766579D01*
X56516788Y-64496162D01*
X56354174Y-64252794D01*
X56147206Y-64045826D01*
X55903838Y-63883212D01*
X55633421Y-63771202D01*
X55346348Y-63714100D01*
X55053652Y-63714100D01*
X54766579Y-63771202D01*
X54496162Y-63883212D01*
X54252794Y-64045826D01*
X54045826Y-64252794D01*
X53883212Y-64496162D01*
X53771202Y-64766579D01*
X53714100Y-65053652D01*
X52025684Y-65053652D01*
X52029559Y-60888675D01*
X54349700Y-60888675D01*
X54349700Y-61111325D01*
X54393137Y-61329696D01*
X54478341Y-61535398D01*
X54602039Y-61720524D01*
X54759476Y-61877961D01*
X54944602Y-62001659D01*
X55150304Y-62086863D01*
X55368675Y-62130300D01*
X55591325Y-62130300D01*
X55809696Y-62086863D01*
X56015398Y-62001659D01*
X56200524Y-61877961D01*
X56357961Y-61720524D01*
X56481659Y-61535398D01*
X56566863Y-61329696D01*
X56610300Y-61111325D01*
X56610300Y-60888675D01*
X64789700Y-60888675D01*
X64789700Y-61111325D01*
X64833137Y-61329696D01*
X64918341Y-61535398D01*
X65042039Y-61720524D01*
X65199476Y-61877961D01*
X65384602Y-62001659D01*
X65590304Y-62086863D01*
X65808675Y-62130300D01*
X66031325Y-62130300D01*
X66249696Y-62086863D01*
X66455398Y-62001659D01*
X66640524Y-61877961D01*
X66797961Y-61720524D01*
X66921659Y-61535398D01*
X67006863Y-61329696D01*
X67050300Y-61111325D01*
X67050300Y-60888675D01*
X67006863Y-60670304D01*
X66921659Y-60464602D01*
X66797961Y-60279476D01*
X66640524Y-60122039D01*
X66455398Y-59998341D01*
X66249696Y-59913137D01*
X66031325Y-59869700D01*
X65808675Y-59869700D01*
X65590304Y-59913137D01*
X65384602Y-59998341D01*
X65199476Y-60122039D01*
X65042039Y-60279476D01*
X64918341Y-60464602D01*
X64833137Y-60670304D01*
X64789700Y-60888675D01*
X56610300Y-60888675D01*
X56566863Y-60670304D01*
X56481659Y-60464602D01*
X56357961Y-60279476D01*
X56200524Y-60122039D01*
X56015398Y-59998341D01*
X55809696Y-59913137D01*
X55591325Y-59869700D01*
X55368675Y-59869700D01*
X55150304Y-59913137D01*
X54944602Y-59998341D01*
X54759476Y-60122039D01*
X54602039Y-60279476D01*
X54478341Y-60464602D01*
X54393137Y-60670304D01*
X54349700Y-60888675D01*
X52029559Y-60888675D01*
X52034352Y-55737391D01*
X72049000Y-55737391D01*
X72049000Y-56062609D01*
X72112447Y-56381579D01*
X72236903Y-56682042D01*
X72417585Y-56952451D01*
X72647549Y-57182415D01*
X72917958Y-57363097D01*
X73218421Y-57487553D01*
X73537391Y-57551000D01*
X73862609Y-57551000D01*
X74181579Y-57487553D01*
X74482042Y-57363097D01*
X74752451Y-57182415D01*
X74982415Y-56952451D01*
X75163097Y-56682042D01*
X75287553Y-56381579D01*
X75351000Y-56062609D01*
X75351000Y-55737391D01*
X82049000Y-55737391D01*
X82049000Y-56062609D01*
X82112447Y-56381579D01*
X82236903Y-56682042D01*
X82417585Y-56952451D01*
X82647549Y-57182415D01*
X82917958Y-57363097D01*
X83218421Y-57487553D01*
X83537391Y-57551000D01*
X83862609Y-57551000D01*
X84181579Y-57487553D01*
X84482042Y-57363097D01*
X84752451Y-57182415D01*
X84982415Y-56952451D01*
X85163097Y-56682042D01*
X85287553Y-56381579D01*
X85351000Y-56062609D01*
X85351000Y-55737391D01*
X85287553Y-55418421D01*
X85163097Y-55117958D01*
X84982415Y-54847549D01*
X84752451Y-54617585D01*
X84482042Y-54436903D01*
X84181579Y-54312447D01*
X83862609Y-54249000D01*
X83537391Y-54249000D01*
X83218421Y-54312447D01*
X82917958Y-54436903D01*
X82647549Y-54617585D01*
X82417585Y-54847549D01*
X82236903Y-55117958D01*
X82112447Y-55418421D01*
X82049000Y-55737391D01*
X75351000Y-55737391D01*
X75287553Y-55418421D01*
X75163097Y-55117958D01*
X74982415Y-54847549D01*
X74752451Y-54617585D01*
X74482042Y-54436903D01*
X74181579Y-54312447D01*
X73862609Y-54249000D01*
X73537391Y-54249000D01*
X73218421Y-54312447D01*
X72917958Y-54436903D01*
X72647549Y-54617585D01*
X72417585Y-54847549D01*
X72236903Y-55117958D01*
X72112447Y-55418421D01*
X72049000Y-55737391D01*
X52034352Y-55737391D01*
X52037874Y-51953652D01*
X71714100Y-51953652D01*
X71714100Y-52246348D01*
X71771202Y-52533421D01*
X71883212Y-52803838D01*
X72045826Y-53047206D01*
X72252794Y-53254174D01*
X72496162Y-53416788D01*
X72766579Y-53528798D01*
X73053652Y-53585900D01*
X73346348Y-53585900D01*
X73633421Y-53528798D01*
X73903838Y-53416788D01*
X74147206Y-53254174D01*
X74354174Y-53047206D01*
X74516788Y-52803838D01*
X74628798Y-52533421D01*
X74685900Y-52246348D01*
X74685900Y-51953652D01*
X74668982Y-51868594D01*
X76350500Y-51868594D01*
X76350500Y-52331406D01*
X76440790Y-52785324D01*
X76617900Y-53212905D01*
X76875024Y-53597719D01*
X77202281Y-53924976D01*
X77587095Y-54182100D01*
X78014676Y-54359210D01*
X78468594Y-54449500D01*
X78931406Y-54449500D01*
X79385324Y-54359210D01*
X79812905Y-54182100D01*
X80197719Y-53924976D01*
X80524976Y-53597719D01*
X80782100Y-53212905D01*
X80959210Y-52785324D01*
X81049500Y-52331406D01*
X81049500Y-51953652D01*
X82714100Y-51953652D01*
X82714100Y-52246348D01*
X82771202Y-52533421D01*
X82883212Y-52803838D01*
X83045826Y-53047206D01*
X83252794Y-53254174D01*
X83496162Y-53416788D01*
X83766579Y-53528798D01*
X84053652Y-53585900D01*
X84346348Y-53585900D01*
X84633421Y-53528798D01*
X84903838Y-53416788D01*
X85147206Y-53254174D01*
X85354174Y-53047206D01*
X85516788Y-52803838D01*
X85628798Y-52533421D01*
X85667790Y-52337391D01*
X90049000Y-52337391D01*
X90049000Y-52662609D01*
X90112447Y-52981579D01*
X90236903Y-53282042D01*
X90417585Y-53552451D01*
X90647549Y-53782415D01*
X90917958Y-53963097D01*
X91218421Y-54087553D01*
X91537391Y-54151000D01*
X91862609Y-54151000D01*
X92181579Y-54087553D01*
X92482042Y-53963097D01*
X92752451Y-53782415D01*
X92982415Y-53552451D01*
X93163097Y-53282042D01*
X93287553Y-52981579D01*
X93351000Y-52662609D01*
X93351000Y-52337391D01*
X100049000Y-52337391D01*
X100049000Y-52662609D01*
X100112447Y-52981579D01*
X100236903Y-53282042D01*
X100417585Y-53552451D01*
X100647549Y-53782415D01*
X100917958Y-53963097D01*
X101218421Y-54087553D01*
X101537391Y-54151000D01*
X101862609Y-54151000D01*
X102181579Y-54087553D01*
X102482042Y-53963097D01*
X102752451Y-53782415D01*
X102982415Y-53552451D01*
X103163097Y-53282042D01*
X103287553Y-52981579D01*
X103351000Y-52662609D01*
X103351000Y-52337391D01*
X103287553Y-52018421D01*
X103163097Y-51717958D01*
X102982415Y-51447549D01*
X102752451Y-51217585D01*
X102482042Y-51036903D01*
X102181579Y-50912447D01*
X101862609Y-50849000D01*
X101537391Y-50849000D01*
X101218421Y-50912447D01*
X100917958Y-51036903D01*
X100647549Y-51217585D01*
X100417585Y-51447549D01*
X100236903Y-51717958D01*
X100112447Y-52018421D01*
X100049000Y-52337391D01*
X93351000Y-52337391D01*
X93287553Y-52018421D01*
X93163097Y-51717958D01*
X92982415Y-51447549D01*
X92752451Y-51217585D01*
X92482042Y-51036903D01*
X92181579Y-50912447D01*
X91862609Y-50849000D01*
X91537391Y-50849000D01*
X91218421Y-50912447D01*
X90917958Y-51036903D01*
X90647549Y-51217585D01*
X90417585Y-51447549D01*
X90236903Y-51717958D01*
X90112447Y-52018421D01*
X90049000Y-52337391D01*
X85667790Y-52337391D01*
X85685900Y-52246348D01*
X85685900Y-51953652D01*
X85628798Y-51666579D01*
X85516788Y-51396162D01*
X85354174Y-51152794D01*
X85147206Y-50945826D01*
X84903838Y-50783212D01*
X84633421Y-50671202D01*
X84346348Y-50614100D01*
X84053652Y-50614100D01*
X83766579Y-50671202D01*
X83496162Y-50783212D01*
X83252794Y-50945826D01*
X83045826Y-51152794D01*
X82883212Y-51396162D01*
X82771202Y-51666579D01*
X82714100Y-51953652D01*
X81049500Y-51953652D01*
X81049500Y-51868594D01*
X80959210Y-51414676D01*
X80782100Y-50987095D01*
X80524976Y-50602281D01*
X80197719Y-50275024D01*
X79812905Y-50017900D01*
X79385324Y-49840790D01*
X78931406Y-49750500D01*
X78468594Y-49750500D01*
X78014676Y-49840790D01*
X77587095Y-50017900D01*
X77202281Y-50275024D01*
X76875024Y-50602281D01*
X76617900Y-50987095D01*
X76440790Y-51414676D01*
X76350500Y-51868594D01*
X74668982Y-51868594D01*
X74628798Y-51666579D01*
X74516788Y-51396162D01*
X74354174Y-51152794D01*
X74147206Y-50945826D01*
X73903838Y-50783212D01*
X73633421Y-50671202D01*
X73346348Y-50614100D01*
X73053652Y-50614100D01*
X72766579Y-50671202D01*
X72496162Y-50783212D01*
X72252794Y-50945826D01*
X72045826Y-51152794D01*
X71883212Y-51396162D01*
X71771202Y-51666579D01*
X71714100Y-51953652D01*
X52037874Y-51953652D01*
X52039766Y-49921099D01*
X52113999Y-48652907D01*
X52267164Y-47788675D01*
X72349700Y-47788675D01*
X72349700Y-48011325D01*
X72393137Y-48229696D01*
X72478341Y-48435398D01*
X72602039Y-48620524D01*
X72759476Y-48777961D01*
X72944602Y-48901659D01*
X73150304Y-48986863D01*
X73368675Y-49030300D01*
X73591325Y-49030300D01*
X73809696Y-48986863D01*
X74015398Y-48901659D01*
X74200524Y-48777961D01*
X74357961Y-48620524D01*
X74481659Y-48435398D01*
X74566863Y-48229696D01*
X74610300Y-48011325D01*
X74610300Y-47788675D01*
X82789700Y-47788675D01*
X82789700Y-48011325D01*
X82833137Y-48229696D01*
X82918341Y-48435398D01*
X83042039Y-48620524D01*
X83199476Y-48777961D01*
X83384602Y-48901659D01*
X83590304Y-48986863D01*
X83808675Y-49030300D01*
X84031325Y-49030300D01*
X84249696Y-48986863D01*
X84455398Y-48901659D01*
X84640524Y-48777961D01*
X84797961Y-48620524D01*
X84842643Y-48553652D01*
X89714100Y-48553652D01*
X89714100Y-48846348D01*
X89771202Y-49133421D01*
X89883212Y-49403838D01*
X90045826Y-49647206D01*
X90252794Y-49854174D01*
X90496162Y-50016788D01*
X90766579Y-50128798D01*
X91053652Y-50185900D01*
X91346348Y-50185900D01*
X91633421Y-50128798D01*
X91903838Y-50016788D01*
X92147206Y-49854174D01*
X92354174Y-49647206D01*
X92516788Y-49403838D01*
X92628798Y-49133421D01*
X92685900Y-48846348D01*
X92685900Y-48553652D01*
X92668982Y-48468594D01*
X94350500Y-48468594D01*
X94350500Y-48931406D01*
X94440790Y-49385324D01*
X94617900Y-49812905D01*
X94875024Y-50197719D01*
X95202281Y-50524976D01*
X95587095Y-50782100D01*
X96014676Y-50959210D01*
X96468594Y-51049500D01*
X96931406Y-51049500D01*
X97385324Y-50959210D01*
X97812905Y-50782100D01*
X98197719Y-50524976D01*
X98234020Y-50488675D01*
X108249700Y-50488675D01*
X108249700Y-50711325D01*
X108293137Y-50929696D01*
X108378341Y-51135398D01*
X108502039Y-51320524D01*
X108659476Y-51477961D01*
X108844602Y-51601659D01*
X109050304Y-51686863D01*
X109268675Y-51730300D01*
X109491325Y-51730300D01*
X109709696Y-51686863D01*
X109915398Y-51601659D01*
X110100524Y-51477961D01*
X110257961Y-51320524D01*
X110381659Y-51135398D01*
X110466863Y-50929696D01*
X110510300Y-50711325D01*
X110510300Y-50488675D01*
X118689700Y-50488675D01*
X118689700Y-50711325D01*
X118733137Y-50929696D01*
X118818341Y-51135398D01*
X118942039Y-51320524D01*
X119099476Y-51477961D01*
X119284602Y-51601659D01*
X119490304Y-51686863D01*
X119708675Y-51730300D01*
X119931325Y-51730300D01*
X120149696Y-51686863D01*
X120355398Y-51601659D01*
X120540524Y-51477961D01*
X120697961Y-51320524D01*
X120821659Y-51135398D01*
X120906863Y-50929696D01*
X120950300Y-50711325D01*
X120950300Y-50488675D01*
X120906863Y-50270304D01*
X120821659Y-50064602D01*
X120697961Y-49879476D01*
X120540524Y-49722039D01*
X120355398Y-49598341D01*
X120149696Y-49513137D01*
X119931325Y-49469700D01*
X119708675Y-49469700D01*
X119490304Y-49513137D01*
X119284602Y-49598341D01*
X119099476Y-49722039D01*
X118942039Y-49879476D01*
X118818341Y-50064602D01*
X118733137Y-50270304D01*
X118689700Y-50488675D01*
X110510300Y-50488675D01*
X110466863Y-50270304D01*
X110381659Y-50064602D01*
X110257961Y-49879476D01*
X110100524Y-49722039D01*
X109915398Y-49598341D01*
X109709696Y-49513137D01*
X109491325Y-49469700D01*
X109268675Y-49469700D01*
X109050304Y-49513137D01*
X108844602Y-49598341D01*
X108659476Y-49722039D01*
X108502039Y-49879476D01*
X108378341Y-50064602D01*
X108293137Y-50270304D01*
X108249700Y-50488675D01*
X98234020Y-50488675D01*
X98524976Y-50197719D01*
X98782100Y-49812905D01*
X98959210Y-49385324D01*
X99049500Y-48931406D01*
X99049500Y-48553652D01*
X100714100Y-48553652D01*
X100714100Y-48846348D01*
X100771202Y-49133421D01*
X100883212Y-49403838D01*
X101045826Y-49647206D01*
X101252794Y-49854174D01*
X101496162Y-50016788D01*
X101766579Y-50128798D01*
X102053652Y-50185900D01*
X102346348Y-50185900D01*
X102633421Y-50128798D01*
X102903838Y-50016788D01*
X103147206Y-49854174D01*
X103354174Y-49647206D01*
X103516788Y-49403838D01*
X103628798Y-49133421D01*
X103685900Y-48846348D01*
X103685900Y-48553652D01*
X103628798Y-48266579D01*
X103516788Y-47996162D01*
X103354174Y-47752794D01*
X103147206Y-47545826D01*
X102903838Y-47383212D01*
X102633421Y-47271202D01*
X102346348Y-47214100D01*
X102053652Y-47214100D01*
X101766579Y-47271202D01*
X101496162Y-47383212D01*
X101252794Y-47545826D01*
X101045826Y-47752794D01*
X100883212Y-47996162D01*
X100771202Y-48266579D01*
X100714100Y-48553652D01*
X99049500Y-48553652D01*
X99049500Y-48468594D01*
X98959210Y-48014676D01*
X98782100Y-47587095D01*
X98524976Y-47202281D01*
X98197719Y-46875024D01*
X97812905Y-46617900D01*
X97385324Y-46440790D01*
X96931406Y-46350500D01*
X96468594Y-46350500D01*
X96014676Y-46440790D01*
X95587095Y-46617900D01*
X95202281Y-46875024D01*
X94875024Y-47202281D01*
X94617900Y-47587095D01*
X94440790Y-48014676D01*
X94350500Y-48468594D01*
X92668982Y-48468594D01*
X92628798Y-48266579D01*
X92516788Y-47996162D01*
X92354174Y-47752794D01*
X92147206Y-47545826D01*
X91903838Y-47383212D01*
X91633421Y-47271202D01*
X91346348Y-47214100D01*
X91053652Y-47214100D01*
X90766579Y-47271202D01*
X90496162Y-47383212D01*
X90252794Y-47545826D01*
X90045826Y-47752794D01*
X89883212Y-47996162D01*
X89771202Y-48266579D01*
X89714100Y-48553652D01*
X84842643Y-48553652D01*
X84921659Y-48435398D01*
X85006863Y-48229696D01*
X85050300Y-48011325D01*
X85050300Y-47788675D01*
X85006863Y-47570304D01*
X84921659Y-47364602D01*
X84797961Y-47179476D01*
X84640524Y-47022039D01*
X84455398Y-46898341D01*
X84249696Y-46813137D01*
X84031325Y-46769700D01*
X83808675Y-46769700D01*
X83590304Y-46813137D01*
X83384602Y-46898341D01*
X83199476Y-47022039D01*
X83042039Y-47179476D01*
X82918341Y-47364602D01*
X82833137Y-47570304D01*
X82789700Y-47788675D01*
X74610300Y-47788675D01*
X74566863Y-47570304D01*
X74481659Y-47364602D01*
X74357961Y-47179476D01*
X74200524Y-47022039D01*
X74015398Y-46898341D01*
X73809696Y-46813137D01*
X73591325Y-46769700D01*
X73368675Y-46769700D01*
X73150304Y-46813137D01*
X72944602Y-46898341D01*
X72759476Y-47022039D01*
X72602039Y-47179476D01*
X72478341Y-47364602D01*
X72393137Y-47570304D01*
X72349700Y-47788675D01*
X52267164Y-47788675D01*
X52331999Y-47422849D01*
X52692022Y-46226623D01*
X53189152Y-45080569D01*
X53591035Y-44388675D01*
X90349700Y-44388675D01*
X90349700Y-44611325D01*
X90393137Y-44829696D01*
X90478341Y-45035398D01*
X90602039Y-45220524D01*
X90759476Y-45377961D01*
X90944602Y-45501659D01*
X91150304Y-45586863D01*
X91368675Y-45630300D01*
X91591325Y-45630300D01*
X91809696Y-45586863D01*
X92015398Y-45501659D01*
X92200524Y-45377961D01*
X92357961Y-45220524D01*
X92481659Y-45035398D01*
X92566863Y-44829696D01*
X92610300Y-44611325D01*
X92610300Y-44388675D01*
X100789700Y-44388675D01*
X100789700Y-44611325D01*
X100833137Y-44829696D01*
X100918341Y-45035398D01*
X101042039Y-45220524D01*
X101199476Y-45377961D01*
X101384602Y-45501659D01*
X101590304Y-45586863D01*
X101808675Y-45630300D01*
X102031325Y-45630300D01*
X102249696Y-45586863D01*
X102455398Y-45501659D01*
X102640524Y-45377961D01*
X102797961Y-45220524D01*
X102921659Y-45035398D01*
X103006863Y-44829696D01*
X103050300Y-44611325D01*
X103050300Y-44388675D01*
X103006863Y-44170304D01*
X102921659Y-43964602D01*
X102797961Y-43779476D01*
X102640524Y-43622039D01*
X102455398Y-43498341D01*
X102249696Y-43413137D01*
X102031325Y-43369700D01*
X101808675Y-43369700D01*
X101590304Y-43413137D01*
X101384602Y-43498341D01*
X101199476Y-43622039D01*
X101042039Y-43779476D01*
X100918341Y-43964602D01*
X100833137Y-44170304D01*
X100789700Y-44388675D01*
X92610300Y-44388675D01*
X92566863Y-44170304D01*
X92481659Y-43964602D01*
X92357961Y-43779476D01*
X92200524Y-43622039D01*
X92015398Y-43498341D01*
X91809696Y-43413137D01*
X91591325Y-43369700D01*
X91368675Y-43369700D01*
X91150304Y-43413137D01*
X90944602Y-43498341D01*
X90759476Y-43622039D01*
X90602039Y-43779476D01*
X90478341Y-43964602D01*
X90393137Y-44170304D01*
X90349700Y-44388675D01*
X53591035Y-44388675D01*
X53816594Y-44000347D01*
X54565786Y-43000701D01*
X55426488Y-42095295D01*
X56386952Y-41296486D01*
X57434036Y-40615202D01*
X58553470Y-40060726D01*
X59729955Y-39640641D01*
X60947411Y-39360688D01*
X62199864Y-39223523D01*
X62807876Y-39210000D01*
X235649218Y-39209785D01*
X236920591Y-39284205D01*
G37*
X236920591Y-39284205D02*
X238154106Y-39502817D01*
X239353690Y-39863851D01*
X240502953Y-40362372D01*
X241586208Y-40991577D01*
X242588662Y-41742873D01*
X243496606Y-42605987D01*
X244297656Y-43569144D01*
X244980856Y-44619172D01*
X245536889Y-45741753D01*
X245958151Y-46921530D01*
X246238891Y-48142407D01*
X246376438Y-49398349D01*
X246389995Y-50007644D01*
X246369975Y-76684344D01*
X246370289Y-76687558D01*
X246390562Y-79115998D01*
X246257806Y-81550208D01*
X245972462Y-83971314D01*
X245535663Y-86369699D01*
X244949128Y-88735934D01*
X244215174Y-91060670D01*
X243336700Y-93334724D01*
X242317165Y-95549141D01*
X241160609Y-97695152D01*
X239871570Y-99764335D01*
X238455155Y-101748486D01*
X236916957Y-103639776D01*
X235263021Y-105430768D01*
X233499917Y-107114349D01*
X231634557Y-108683922D01*
X229674338Y-110133260D01*
X227626973Y-111456661D01*
X225500545Y-112648898D01*
X223303460Y-113705259D01*
X221044392Y-114621576D01*
X218732234Y-115394239D01*
X216376122Y-116020197D01*
X213985357Y-116496978D01*
X211559709Y-116824004D01*
X211298256Y-116849885D01*
X92174405Y-116946424D01*
X92171739Y-116946689D01*
X89743858Y-116966957D01*
X87309649Y-116834201D01*
X84888543Y-116548857D01*
X82490158Y-116112058D01*
X80123923Y-115525523D01*
X77799187Y-114791569D01*
X75525133Y-113913095D01*
X73310716Y-112893560D01*
X71164705Y-111737004D01*
X69095522Y-110447965D01*
X67779741Y-109508675D01*
X118569700Y-109508675D01*
X118569700Y-109731325D01*
X118613137Y-109949696D01*
X118698341Y-110155398D01*
X118822039Y-110340524D01*
X118979476Y-110497961D01*
X119164602Y-110621659D01*
X119370304Y-110706863D01*
X119588675Y-110750300D01*
X119811325Y-110750300D01*
X120029696Y-110706863D01*
X120235398Y-110621659D01*
X120420524Y-110497961D01*
X120577961Y-110340524D01*
X120701659Y-110155398D01*
X120786863Y-109949696D01*
X120825858Y-109753652D01*
X122414100Y-109753652D01*
X122414100Y-110046348D01*
X122471202Y-110333421D01*
X122583212Y-110603838D01*
X122745826Y-110847206D01*
X122952794Y-111054174D01*
X123196162Y-111216788D01*
X123466579Y-111328798D01*
X123753652Y-111385900D01*
X124046348Y-111385900D01*
X124333421Y-111328798D01*
X124603838Y-111216788D01*
X124847206Y-111054174D01*
X125054174Y-110847206D01*
X125216788Y-110603838D01*
X125328798Y-110333421D01*
X125385900Y-110046348D01*
X125385900Y-109753652D01*
X125328798Y-109466579D01*
X125233866Y-109237391D01*
X126049000Y-109237391D01*
X126049000Y-109562609D01*
X126112447Y-109881579D01*
X126236903Y-110182042D01*
X126417585Y-110452451D01*
X126647549Y-110682415D01*
X126917958Y-110863097D01*
X127218421Y-110987553D01*
X127537391Y-111051000D01*
X127862609Y-111051000D01*
X128181579Y-110987553D01*
X128482042Y-110863097D01*
X128752451Y-110682415D01*
X128982415Y-110452451D01*
X129163097Y-110182042D01*
X129287553Y-109881579D01*
X129351000Y-109562609D01*
X129351000Y-109237391D01*
X168949000Y-109237391D01*
X168949000Y-109562609D01*
X169012447Y-109881579D01*
X169136903Y-110182042D01*
X169317585Y-110452451D01*
X169547549Y-110682415D01*
X169817958Y-110863097D01*
X170118421Y-110987553D01*
X170437391Y-111051000D01*
X170762609Y-111051000D01*
X171081579Y-110987553D01*
X171382042Y-110863097D01*
X171652451Y-110682415D01*
X171882415Y-110452451D01*
X172063097Y-110182042D01*
X172187553Y-109881579D01*
X172212999Y-109753652D01*
X172914100Y-109753652D01*
X172914100Y-110046348D01*
X172971202Y-110333421D01*
X173083212Y-110603838D01*
X173245826Y-110847206D01*
X173452794Y-111054174D01*
X173696162Y-111216788D01*
X173966579Y-111328798D01*
X174253652Y-111385900D01*
X174546348Y-111385900D01*
X174833421Y-111328798D01*
X175103838Y-111216788D01*
X175347206Y-111054174D01*
X175554174Y-110847206D01*
X175716788Y-110603838D01*
X175828798Y-110333421D01*
X175885900Y-110046348D01*
X175885900Y-109753652D01*
X175837172Y-109508675D01*
X177469700Y-109508675D01*
X177469700Y-109731325D01*
X177513137Y-109949696D01*
X177598341Y-110155398D01*
X177722039Y-110340524D01*
X177879476Y-110497961D01*
X178064602Y-110621659D01*
X178270304Y-110706863D01*
X178488675Y-110750300D01*
X178711325Y-110750300D01*
X178929696Y-110706863D01*
X179135398Y-110621659D01*
X179320524Y-110497961D01*
X179477961Y-110340524D01*
X179601659Y-110155398D01*
X179686863Y-109949696D01*
X179730300Y-109731325D01*
X179730300Y-109508675D01*
X179686863Y-109290304D01*
X179601659Y-109084602D01*
X179477961Y-108899476D01*
X179320524Y-108742039D01*
X179135398Y-108618341D01*
X178929696Y-108533137D01*
X178711325Y-108489700D01*
X178488675Y-108489700D01*
X178270304Y-108533137D01*
X178064602Y-108618341D01*
X177879476Y-108742039D01*
X177722039Y-108899476D01*
X177598341Y-109084602D01*
X177513137Y-109290304D01*
X177469700Y-109508675D01*
X175837172Y-109508675D01*
X175828798Y-109466579D01*
X175716788Y-109196162D01*
X175554174Y-108952794D01*
X175347206Y-108745826D01*
X175103838Y-108583212D01*
X174833421Y-108471202D01*
X174546348Y-108414100D01*
X174253652Y-108414100D01*
X173966579Y-108471202D01*
X173696162Y-108583212D01*
X173452794Y-108745826D01*
X173245826Y-108952794D01*
X173083212Y-109196162D01*
X172971202Y-109466579D01*
X172914100Y-109753652D01*
X172212999Y-109753652D01*
X172251000Y-109562609D01*
X172251000Y-109237391D01*
X172187553Y-108918421D01*
X172063097Y-108617958D01*
X171882415Y-108347549D01*
X171652451Y-108117585D01*
X171382042Y-107936903D01*
X171081579Y-107812447D01*
X170762609Y-107749000D01*
X170437391Y-107749000D01*
X170118421Y-107812447D01*
X169817958Y-107936903D01*
X169547549Y-108117585D01*
X169317585Y-108347549D01*
X169136903Y-108617958D01*
X169012447Y-108918421D01*
X168949000Y-109237391D01*
X129351000Y-109237391D01*
X129287553Y-108918421D01*
X129163097Y-108617958D01*
X128982415Y-108347549D01*
X128752451Y-108117585D01*
X128482042Y-107936903D01*
X128181579Y-107812447D01*
X127862609Y-107749000D01*
X127537391Y-107749000D01*
X127218421Y-107812447D01*
X126917958Y-107936903D01*
X126647549Y-108117585D01*
X126417585Y-108347549D01*
X126236903Y-108617958D01*
X126112447Y-108918421D01*
X126049000Y-109237391D01*
X125233866Y-109237391D01*
X125216788Y-109196162D01*
X125054174Y-108952794D01*
X124847206Y-108745826D01*
X124603838Y-108583212D01*
X124333421Y-108471202D01*
X124046348Y-108414100D01*
X123753652Y-108414100D01*
X123466579Y-108471202D01*
X123196162Y-108583212D01*
X122952794Y-108745826D01*
X122745826Y-108952794D01*
X122583212Y-109196162D01*
X122471202Y-109466579D01*
X122414100Y-109753652D01*
X120825858Y-109753652D01*
X120830300Y-109731325D01*
X120830300Y-109508675D01*
X120786863Y-109290304D01*
X120701659Y-109084602D01*
X120577961Y-108899476D01*
X120420524Y-108742039D01*
X120235398Y-108618341D01*
X120029696Y-108533137D01*
X119811325Y-108489700D01*
X119588675Y-108489700D01*
X119370304Y-108533137D01*
X119164602Y-108618341D01*
X118979476Y-108742039D01*
X118822039Y-108899476D01*
X118698341Y-109084602D01*
X118613137Y-109290304D01*
X118569700Y-109508675D01*
X67779741Y-109508675D01*
X67111371Y-109031550D01*
X65220081Y-107493352D01*
X63429089Y-105839416D01*
X61833628Y-104168594D01*
X121550500Y-104168594D01*
X121550500Y-104631406D01*
X121640790Y-105085324D01*
X121817900Y-105512905D01*
X122075024Y-105897719D01*
X122402281Y-106224976D01*
X122787095Y-106482100D01*
X123214676Y-106659210D01*
X123668594Y-106749500D01*
X124131406Y-106749500D01*
X124585324Y-106659210D01*
X125012905Y-106482100D01*
X125397719Y-106224976D01*
X125724976Y-105897719D01*
X125982100Y-105512905D01*
X126159210Y-105085324D01*
X126249500Y-104631406D01*
X126249500Y-104168594D01*
X126159210Y-103714676D01*
X125982100Y-103287095D01*
X125724976Y-102902281D01*
X125397719Y-102575024D01*
X125012905Y-102317900D01*
X124585324Y-102140790D01*
X124131406Y-102050500D01*
X123668594Y-102050500D01*
X123214676Y-102140790D01*
X122787095Y-102317900D01*
X122402281Y-102575024D01*
X122075024Y-102902281D01*
X121817900Y-103287095D01*
X121640790Y-103714676D01*
X121550500Y-104168594D01*
X61833628Y-104168594D01*
X61745508Y-104076312D01*
X60175935Y-102210952D01*
X58726597Y-100250733D01*
X57962524Y-99068675D01*
X118569700Y-99068675D01*
X118569700Y-99291325D01*
X118613137Y-99509696D01*
X118698341Y-99715398D01*
X118822039Y-99900524D01*
X118979476Y-100057961D01*
X119164602Y-100181659D01*
X119370304Y-100266863D01*
X119588675Y-100310300D01*
X119811325Y-100310300D01*
X120029696Y-100266863D01*
X120235398Y-100181659D01*
X120420524Y-100057961D01*
X120577961Y-99900524D01*
X120701659Y-99715398D01*
X120786863Y-99509696D01*
X120830300Y-99291325D01*
X120830300Y-99068675D01*
X120786863Y-98850304D01*
X120746829Y-98753652D01*
X122414100Y-98753652D01*
X122414100Y-99046348D01*
X122471202Y-99333421D01*
X122583212Y-99603838D01*
X122745826Y-99847206D01*
X122952794Y-100054174D01*
X123196162Y-100216788D01*
X123466579Y-100328798D01*
X123753652Y-100385900D01*
X124046348Y-100385900D01*
X124333421Y-100328798D01*
X124603838Y-100216788D01*
X124847206Y-100054174D01*
X125054174Y-99847206D01*
X125216788Y-99603838D01*
X125328798Y-99333421D01*
X125347899Y-99237391D01*
X126049000Y-99237391D01*
X126049000Y-99562609D01*
X126112447Y-99881579D01*
X126236903Y-100182042D01*
X126417585Y-100452451D01*
X126647549Y-100682415D01*
X126917958Y-100863097D01*
X127218421Y-100987553D01*
X127537391Y-101051000D01*
X127862609Y-101051000D01*
X128181579Y-100987553D01*
X128482042Y-100863097D01*
X128752451Y-100682415D01*
X128982415Y-100452451D01*
X129163097Y-100182042D01*
X129287553Y-99881579D01*
X129351000Y-99562609D01*
X129351000Y-99237391D01*
X129287553Y-98918421D01*
X129163097Y-98617958D01*
X128982415Y-98347549D01*
X128752451Y-98117585D01*
X128482042Y-97936903D01*
X128181579Y-97812447D01*
X127862609Y-97749000D01*
X127537391Y-97749000D01*
X127218421Y-97812447D01*
X126917958Y-97936903D01*
X126647549Y-98117585D01*
X126417585Y-98347549D01*
X126236903Y-98617958D01*
X126112447Y-98918421D01*
X126049000Y-99237391D01*
X125347899Y-99237391D01*
X125385900Y-99046348D01*
X125385900Y-98753652D01*
X125328798Y-98466579D01*
X125216788Y-98196162D01*
X125054174Y-97952794D01*
X124847206Y-97745826D01*
X124603838Y-97583212D01*
X124333421Y-97471202D01*
X124046348Y-97414100D01*
X123753652Y-97414100D01*
X123466579Y-97471202D01*
X123196162Y-97583212D01*
X122952794Y-97745826D01*
X122745826Y-97952794D01*
X122583212Y-98196162D01*
X122471202Y-98466579D01*
X122414100Y-98753652D01*
X120746829Y-98753652D01*
X120701659Y-98644602D01*
X120577961Y-98459476D01*
X120420524Y-98302039D01*
X120235398Y-98178341D01*
X120029696Y-98093137D01*
X119811325Y-98049700D01*
X119588675Y-98049700D01*
X119370304Y-98093137D01*
X119164602Y-98178341D01*
X118979476Y-98302039D01*
X118822039Y-98459476D01*
X118698341Y-98644602D01*
X118613137Y-98850304D01*
X118569700Y-99068675D01*
X57962524Y-99068675D01*
X57403196Y-98203368D01*
X56210959Y-96076940D01*
X55154598Y-93879855D01*
X54238281Y-91620787D01*
X53465618Y-89308629D01*
X52839660Y-86952517D01*
X52362879Y-84561752D01*
X52035853Y-82136104D01*
X52010032Y-81875266D01*
X52020209Y-70937391D01*
X59049000Y-70937391D01*
X59049000Y-71262609D01*
X59112447Y-71581579D01*
X59236903Y-71882042D01*
X59417585Y-72152451D01*
X59647549Y-72382415D01*
X59917958Y-72563097D01*
X60218421Y-72687553D01*
X60537391Y-72751000D01*
X60862609Y-72751000D01*
X61181579Y-72687553D01*
X61203621Y-72678423D01*
X62136201Y-73611003D01*
X62159999Y-73640001D01*
X62188997Y-73663799D01*
X62275723Y-73734974D01*
X62385050Y-73793411D01*
X62407753Y-73805546D01*
X62551014Y-73849003D01*
X62662667Y-73860000D01*
X62662676Y-73860000D01*
X62699999Y-73863676D01*
X62737322Y-73860000D01*
X136672678Y-73860000D01*
X136710000Y-73863676D01*
X136747322Y-73860000D01*
X136747333Y-73860000D01*
X136858986Y-73849003D01*
X137002247Y-73805546D01*
X137134276Y-73734974D01*
X137250001Y-73640001D01*
X137273804Y-73610997D01*
X140315000Y-70569802D01*
X140315000Y-70696260D01*
X140372068Y-70983158D01*
X140484010Y-71253411D01*
X140646525Y-71496632D01*
X140853368Y-71703475D01*
X141027760Y-71820000D01*
X140853368Y-71936525D01*
X140646525Y-72143368D01*
X140484010Y-72386589D01*
X140372068Y-72656842D01*
X140315000Y-72943740D01*
X140315000Y-73236260D01*
X140372068Y-73523158D01*
X140484010Y-73793411D01*
X140646525Y-74036632D01*
X140853368Y-74243475D01*
X141040000Y-74368179D01*
X141040001Y-92085197D01*
X130303622Y-102821577D01*
X130281579Y-102812447D01*
X129962609Y-102749000D01*
X129637391Y-102749000D01*
X129318421Y-102812447D01*
X129017958Y-102936903D01*
X128747549Y-103117585D01*
X128517585Y-103347549D01*
X128336903Y-103617958D01*
X128212447Y-103918421D01*
X128149000Y-104237391D01*
X128149000Y-104562609D01*
X128212447Y-104881579D01*
X128336903Y-105182042D01*
X128517585Y-105452451D01*
X128747549Y-105682415D01*
X129017958Y-105863097D01*
X129318421Y-105987553D01*
X129637391Y-106051000D01*
X129962609Y-106051000D01*
X130281579Y-105987553D01*
X130582042Y-105863097D01*
X130852451Y-105682415D01*
X131082415Y-105452451D01*
X131263097Y-105182042D01*
X131387553Y-104881579D01*
X131451000Y-104562609D01*
X131451000Y-104237391D01*
X131387553Y-103918421D01*
X131378423Y-103896378D01*
X142311003Y-92963799D01*
X142340001Y-92940001D01*
X142434974Y-92824276D01*
X142505546Y-92692247D01*
X142549003Y-92548986D01*
X142560000Y-92437333D01*
X142560000Y-92437325D01*
X142563676Y-92400000D01*
X142560000Y-92362675D01*
X142560000Y-74368178D01*
X142746632Y-74243475D01*
X142953475Y-74036632D01*
X143115990Y-73793411D01*
X143227932Y-73523158D01*
X143285000Y-73236260D01*
X143285000Y-72943740D01*
X143227932Y-72656842D01*
X143115990Y-72386589D01*
X142953475Y-72143368D01*
X142746632Y-71936525D01*
X142572240Y-71820000D01*
X142746632Y-71703475D01*
X142953475Y-71496632D01*
X143115990Y-71253411D01*
X143227932Y-70983158D01*
X143285000Y-70696260D01*
X143285000Y-70403740D01*
X143227932Y-70116842D01*
X143115990Y-69846589D01*
X142953475Y-69603368D01*
X142746632Y-69396525D01*
X142572240Y-69280000D01*
X142746632Y-69163475D01*
X142953475Y-68956632D01*
X143115990Y-68713411D01*
X143227932Y-68443158D01*
X143285000Y-68156260D01*
X143285000Y-67863740D01*
X143227932Y-67576842D01*
X143115990Y-67306589D01*
X142953475Y-67063368D01*
X142746632Y-66856525D01*
X142572240Y-66740000D01*
X142746632Y-66623475D01*
X142953475Y-66416632D01*
X143115990Y-66173411D01*
X143227932Y-65903158D01*
X143285000Y-65616260D01*
X143285000Y-65323740D01*
X143227932Y-65036842D01*
X143115990Y-64766589D01*
X142953475Y-64523368D01*
X142746632Y-64316525D01*
X142572240Y-64200000D01*
X142746632Y-64083475D01*
X142953475Y-63876632D01*
X143115990Y-63633411D01*
X143227932Y-63363158D01*
X143285000Y-63076260D01*
X143285000Y-62783740D01*
X143227932Y-62496842D01*
X143115990Y-62226589D01*
X142953475Y-61983368D01*
X142746632Y-61776525D01*
X142572240Y-61660000D01*
X142746632Y-61543475D01*
X142953475Y-61336632D01*
X143115990Y-61093411D01*
X143227932Y-60823158D01*
X143285000Y-60536260D01*
X143285000Y-60243740D01*
X143227932Y-59956842D01*
X143115990Y-59686589D01*
X142953475Y-59443368D01*
X142746632Y-59236525D01*
X142572240Y-59120000D01*
X142746632Y-59003475D01*
X142953475Y-58796632D01*
X143115990Y-58553411D01*
X143227932Y-58283158D01*
X143285000Y-57996260D01*
X143285000Y-57703740D01*
X143227932Y-57416842D01*
X143115990Y-57146589D01*
X142953475Y-56903368D01*
X142746632Y-56696525D01*
X142572240Y-56580000D01*
X142746632Y-56463475D01*
X142953475Y-56256632D01*
X143115990Y-56013411D01*
X143227932Y-55743158D01*
X143285000Y-55456260D01*
X143285000Y-55163740D01*
X143227932Y-54876842D01*
X143115990Y-54606589D01*
X142953475Y-54363368D01*
X142746632Y-54156525D01*
X142572240Y-54040000D01*
X142746632Y-53923475D01*
X142953475Y-53716632D01*
X143115990Y-53473411D01*
X143227932Y-53203158D01*
X143285000Y-52916260D01*
X143285000Y-52623740D01*
X143227932Y-52336842D01*
X143115990Y-52066589D01*
X142953475Y-51823368D01*
X142746632Y-51616525D01*
X142572240Y-51500000D01*
X142746632Y-51383475D01*
X142953475Y-51176632D01*
X143070000Y-51002240D01*
X143186525Y-51176632D01*
X143393368Y-51383475D01*
X143636589Y-51545990D01*
X143906842Y-51657932D01*
X144193740Y-51715000D01*
X144486260Y-51715000D01*
X144773158Y-51657932D01*
X145043411Y-51545990D01*
X145286632Y-51383475D01*
X145493475Y-51176632D01*
X145610000Y-51002240D01*
X145726525Y-51176632D01*
X145933368Y-51383475D01*
X146176589Y-51545990D01*
X146446842Y-51657932D01*
X146733740Y-51715000D01*
X147026260Y-51715000D01*
X147313158Y-51657932D01*
X147583411Y-51545990D01*
X147826632Y-51383475D01*
X148033475Y-51176632D01*
X148150000Y-51002240D01*
X148266525Y-51176632D01*
X148473368Y-51383475D01*
X148716589Y-51545990D01*
X148986842Y-51657932D01*
X149273740Y-51715000D01*
X149566260Y-51715000D01*
X149853158Y-51657932D01*
X150123411Y-51545990D01*
X150366632Y-51383475D01*
X150573475Y-51176632D01*
X150735990Y-50933411D01*
X150847932Y-50663158D01*
X150905000Y-50376260D01*
X150905000Y-50083740D01*
X152990000Y-50083740D01*
X152990000Y-50376260D01*
X153047068Y-50663158D01*
X153159010Y-50933411D01*
X153321525Y-51176632D01*
X153528368Y-51383475D01*
X153771589Y-51545990D01*
X154041842Y-51657932D01*
X154328740Y-51715000D01*
X154621260Y-51715000D01*
X154908158Y-51657932D01*
X155178411Y-51545990D01*
X155421632Y-51383475D01*
X155628475Y-51176632D01*
X155745000Y-51002240D01*
X155861525Y-51176632D01*
X156068368Y-51383475D01*
X156242760Y-51500000D01*
X156068368Y-51616525D01*
X155861525Y-51823368D01*
X155734091Y-52014087D01*
X155663933Y-52020997D01*
X155520672Y-52064454D01*
X155388643Y-52135026D01*
X155272918Y-52229999D01*
X155177945Y-52345724D01*
X155107373Y-52477753D01*
X155063916Y-52621014D01*
X155049242Y-52770000D01*
X155063916Y-52918986D01*
X155107373Y-53062247D01*
X155177945Y-53194276D01*
X155272918Y-53310001D01*
X155388643Y-53404974D01*
X155520672Y-53475546D01*
X155663933Y-53519003D01*
X155734091Y-53525913D01*
X155861525Y-53716632D01*
X156068368Y-53923475D01*
X156242760Y-54040000D01*
X156068368Y-54156525D01*
X155861525Y-54363368D01*
X155699010Y-54606589D01*
X155587068Y-54876842D01*
X155530000Y-55163740D01*
X155530000Y-55456260D01*
X155587068Y-55743158D01*
X155699010Y-56013411D01*
X155861525Y-56256632D01*
X156068368Y-56463475D01*
X156242760Y-56580000D01*
X156068368Y-56696525D01*
X155861525Y-56903368D01*
X155699010Y-57146589D01*
X155587068Y-57416842D01*
X155530000Y-57703740D01*
X155530000Y-57996260D01*
X155587068Y-58283158D01*
X155699010Y-58553411D01*
X155861525Y-58796632D01*
X156068368Y-59003475D01*
X156242760Y-59120000D01*
X156068368Y-59236525D01*
X155861525Y-59443368D01*
X155699010Y-59686589D01*
X155587068Y-59956842D01*
X155530000Y-60243740D01*
X155530000Y-60536260D01*
X155587068Y-60823158D01*
X155699010Y-61093411D01*
X155861525Y-61336632D01*
X156068368Y-61543475D01*
X156242760Y-61660000D01*
X156068368Y-61776525D01*
X155861525Y-61983368D01*
X155699010Y-62226589D01*
X155587068Y-62496842D01*
X155530000Y-62783740D01*
X155530000Y-63076260D01*
X155587068Y-63363158D01*
X155699010Y-63633411D01*
X155861525Y-63876632D01*
X156068368Y-64083475D01*
X156242760Y-64200000D01*
X156068368Y-64316525D01*
X155861525Y-64523368D01*
X155699010Y-64766589D01*
X155587068Y-65036842D01*
X155530000Y-65323740D01*
X155530000Y-65616260D01*
X155587068Y-65903158D01*
X155699010Y-66173411D01*
X155861525Y-66416632D01*
X156068368Y-66623475D01*
X156242760Y-66740000D01*
X156068368Y-66856525D01*
X155861525Y-67063368D01*
X155699010Y-67306589D01*
X155587068Y-67576842D01*
X155530000Y-67863740D01*
X155530000Y-68156260D01*
X155587068Y-68443158D01*
X155699010Y-68713411D01*
X155861525Y-68956632D01*
X156068368Y-69163475D01*
X156242760Y-69280000D01*
X156068368Y-69396525D01*
X155861525Y-69603368D01*
X155699010Y-69846589D01*
X155587068Y-70116842D01*
X155530000Y-70403740D01*
X155530000Y-70696260D01*
X155587068Y-70983158D01*
X155699010Y-71253411D01*
X155861525Y-71496632D01*
X156068368Y-71703475D01*
X156242760Y-71820000D01*
X156068368Y-71936525D01*
X155861525Y-72143368D01*
X155699010Y-72386589D01*
X155587068Y-72656842D01*
X155530000Y-72943740D01*
X155530000Y-73236260D01*
X155587068Y-73523158D01*
X155699010Y-73793411D01*
X155861525Y-74036632D01*
X156068368Y-74243475D01*
X156255000Y-74368179D01*
X156255001Y-92877667D01*
X156251324Y-92915000D01*
X156255001Y-92952333D01*
X156265998Y-93063986D01*
X156276284Y-93097895D01*
X156309454Y-93207246D01*
X156380026Y-93339276D01*
X156427916Y-93397629D01*
X156475000Y-93455001D01*
X156503998Y-93478799D01*
X166921577Y-103896379D01*
X166912447Y-103918421D01*
X166849000Y-104237391D01*
X166849000Y-104562609D01*
X166912447Y-104881579D01*
X167036903Y-105182042D01*
X167217585Y-105452451D01*
X167447549Y-105682415D01*
X167717958Y-105863097D01*
X168018421Y-105987553D01*
X168337391Y-106051000D01*
X168662609Y-106051000D01*
X168981579Y-105987553D01*
X169282042Y-105863097D01*
X169552451Y-105682415D01*
X169782415Y-105452451D01*
X169963097Y-105182042D01*
X170087553Y-104881579D01*
X170151000Y-104562609D01*
X170151000Y-104237391D01*
X170137316Y-104168594D01*
X172050500Y-104168594D01*
X172050500Y-104631406D01*
X172140790Y-105085324D01*
X172317900Y-105512905D01*
X172575024Y-105897719D01*
X172902281Y-106224976D01*
X173287095Y-106482100D01*
X173714676Y-106659210D01*
X174168594Y-106749500D01*
X174631406Y-106749500D01*
X175085324Y-106659210D01*
X175512905Y-106482100D01*
X175897719Y-106224976D01*
X176224976Y-105897719D01*
X176482100Y-105512905D01*
X176659210Y-105085324D01*
X176749500Y-104631406D01*
X176749500Y-104168594D01*
X176659210Y-103714676D01*
X176482100Y-103287095D01*
X176224976Y-102902281D01*
X175897719Y-102575024D01*
X175512905Y-102317900D01*
X175085324Y-102140790D01*
X174631406Y-102050500D01*
X174168594Y-102050500D01*
X173714676Y-102140790D01*
X173287095Y-102317900D01*
X172902281Y-102575024D01*
X172575024Y-102902281D01*
X172317900Y-103287095D01*
X172140790Y-103714676D01*
X172050500Y-104168594D01*
X170137316Y-104168594D01*
X170087553Y-103918421D01*
X169963097Y-103617958D01*
X169782415Y-103347549D01*
X169552451Y-103117585D01*
X169282042Y-102936903D01*
X168981579Y-102812447D01*
X168662609Y-102749000D01*
X168337391Y-102749000D01*
X168018421Y-102812447D01*
X167996379Y-102821577D01*
X164412193Y-99237391D01*
X168949000Y-99237391D01*
X168949000Y-99562609D01*
X169012447Y-99881579D01*
X169136903Y-100182042D01*
X169317585Y-100452451D01*
X169547549Y-100682415D01*
X169817958Y-100863097D01*
X170118421Y-100987553D01*
X170437391Y-101051000D01*
X170762609Y-101051000D01*
X171081579Y-100987553D01*
X171382042Y-100863097D01*
X171652451Y-100682415D01*
X171882415Y-100452451D01*
X172063097Y-100182042D01*
X172187553Y-99881579D01*
X172251000Y-99562609D01*
X172251000Y-99237391D01*
X172187553Y-98918421D01*
X172119304Y-98753652D01*
X172914100Y-98753652D01*
X172914100Y-99046348D01*
X172971202Y-99333421D01*
X173083212Y-99603838D01*
X173245826Y-99847206D01*
X173452794Y-100054174D01*
X173696162Y-100216788D01*
X173966579Y-100328798D01*
X174253652Y-100385900D01*
X174546348Y-100385900D01*
X174833421Y-100328798D01*
X175103838Y-100216788D01*
X175347206Y-100054174D01*
X175554174Y-99847206D01*
X175716788Y-99603838D01*
X175828798Y-99333421D01*
X175881458Y-99068675D01*
X177469700Y-99068675D01*
X177469700Y-99291325D01*
X177513137Y-99509696D01*
X177598341Y-99715398D01*
X177722039Y-99900524D01*
X177879476Y-100057961D01*
X178064602Y-100181659D01*
X178270304Y-100266863D01*
X178488675Y-100310300D01*
X178711325Y-100310300D01*
X178929696Y-100266863D01*
X179135398Y-100181659D01*
X179320524Y-100057961D01*
X179477961Y-99900524D01*
X179601659Y-99715398D01*
X179686863Y-99509696D01*
X179730300Y-99291325D01*
X179730300Y-99068675D01*
X179686863Y-98850304D01*
X179601659Y-98644602D01*
X179477961Y-98459476D01*
X179320524Y-98302039D01*
X179135398Y-98178341D01*
X178929696Y-98093137D01*
X178711325Y-98049700D01*
X178488675Y-98049700D01*
X178270304Y-98093137D01*
X178064602Y-98178341D01*
X177879476Y-98302039D01*
X177722039Y-98459476D01*
X177598341Y-98644602D01*
X177513137Y-98850304D01*
X177469700Y-99068675D01*
X175881458Y-99068675D01*
X175885900Y-99046348D01*
X175885900Y-98753652D01*
X175828798Y-98466579D01*
X175716788Y-98196162D01*
X175554174Y-97952794D01*
X175347206Y-97745826D01*
X175103838Y-97583212D01*
X174833421Y-97471202D01*
X174546348Y-97414100D01*
X174253652Y-97414100D01*
X173966579Y-97471202D01*
X173696162Y-97583212D01*
X173452794Y-97745826D01*
X173245826Y-97952794D01*
X173083212Y-98196162D01*
X172971202Y-98466579D01*
X172914100Y-98753652D01*
X172119304Y-98753652D01*
X172063097Y-98617958D01*
X171882415Y-98347549D01*
X171652451Y-98117585D01*
X171382042Y-97936903D01*
X171081579Y-97812447D01*
X170762609Y-97749000D01*
X170437391Y-97749000D01*
X170118421Y-97812447D01*
X169817958Y-97936903D01*
X169547549Y-98117585D01*
X169317585Y-98347549D01*
X169136903Y-98617958D01*
X169012447Y-98918421D01*
X168949000Y-99237391D01*
X164412193Y-99237391D01*
X157775000Y-92600199D01*
X157775000Y-74368178D01*
X157961632Y-74243475D01*
X158168475Y-74036632D01*
X158330990Y-73793411D01*
X158442932Y-73523158D01*
X158500000Y-73236260D01*
X158500000Y-72943740D01*
X158442932Y-72656842D01*
X158330990Y-72386589D01*
X158168475Y-72143368D01*
X157961632Y-71936525D01*
X157787240Y-71820000D01*
X157961632Y-71703475D01*
X158168475Y-71496632D01*
X158330990Y-71253411D01*
X158442932Y-70983158D01*
X158500000Y-70696260D01*
X158500000Y-70569801D01*
X161541201Y-73611003D01*
X161564999Y-73640001D01*
X161593997Y-73663799D01*
X161680723Y-73734974D01*
X161790050Y-73793411D01*
X161812753Y-73805546D01*
X161956014Y-73849003D01*
X162067667Y-73860000D01*
X162067676Y-73860000D01*
X162104999Y-73863676D01*
X162142322Y-73860000D01*
X234962678Y-73860000D01*
X235000000Y-73863676D01*
X235037322Y-73860000D01*
X235037333Y-73860000D01*
X235148986Y-73849003D01*
X235292247Y-73805546D01*
X235424276Y-73734974D01*
X235540001Y-73640001D01*
X235563804Y-73610997D01*
X236496379Y-72678423D01*
X236518421Y-72687553D01*
X236837391Y-72751000D01*
X237162609Y-72751000D01*
X237481579Y-72687553D01*
X237782042Y-72563097D01*
X238052451Y-72382415D01*
X238282415Y-72152451D01*
X238463097Y-71882042D01*
X238587553Y-71581579D01*
X238651000Y-71262609D01*
X238651000Y-70937391D01*
X238587553Y-70618421D01*
X238463097Y-70317958D01*
X238282415Y-70047549D01*
X238052451Y-69817585D01*
X237782042Y-69636903D01*
X237481579Y-69512447D01*
X237162609Y-69449000D01*
X236837391Y-69449000D01*
X236518421Y-69512447D01*
X236217958Y-69636903D01*
X235947549Y-69817585D01*
X235717585Y-70047549D01*
X235536903Y-70317958D01*
X235412447Y-70618421D01*
X235349000Y-70937391D01*
X235349000Y-71262609D01*
X235412447Y-71581579D01*
X235421577Y-71603621D01*
X234685199Y-72340000D01*
X162419802Y-72340000D01*
X158917193Y-68837391D01*
X230349000Y-68837391D01*
X230349000Y-69162609D01*
X230412447Y-69481579D01*
X230536903Y-69782042D01*
X230717585Y-70052451D01*
X230947549Y-70282415D01*
X231217958Y-70463097D01*
X231518421Y-70587553D01*
X231837391Y-70651000D01*
X232162609Y-70651000D01*
X232481579Y-70587553D01*
X232782042Y-70463097D01*
X233052451Y-70282415D01*
X233282415Y-70052451D01*
X233463097Y-69782042D01*
X233587553Y-69481579D01*
X233651000Y-69162609D01*
X233651000Y-68837391D01*
X240349000Y-68837391D01*
X240349000Y-69162609D01*
X240412447Y-69481579D01*
X240536903Y-69782042D01*
X240717585Y-70052451D01*
X240947549Y-70282415D01*
X241217958Y-70463097D01*
X241518421Y-70587553D01*
X241837391Y-70651000D01*
X242162609Y-70651000D01*
X242481579Y-70587553D01*
X242782042Y-70463097D01*
X243052451Y-70282415D01*
X243282415Y-70052451D01*
X243463097Y-69782042D01*
X243587553Y-69481579D01*
X243651000Y-69162609D01*
X243651000Y-68837391D01*
X243587553Y-68518421D01*
X243463097Y-68217958D01*
X243282415Y-67947549D01*
X243052451Y-67717585D01*
X242782042Y-67536903D01*
X242481579Y-67412447D01*
X242162609Y-67349000D01*
X241837391Y-67349000D01*
X241518421Y-67412447D01*
X241217958Y-67536903D01*
X240947549Y-67717585D01*
X240717585Y-67947549D01*
X240536903Y-68217958D01*
X240412447Y-68518421D01*
X240349000Y-68837391D01*
X233651000Y-68837391D01*
X233587553Y-68518421D01*
X233463097Y-68217958D01*
X233282415Y-67947549D01*
X233052451Y-67717585D01*
X232782042Y-67536903D01*
X232481579Y-67412447D01*
X232162609Y-67349000D01*
X231837391Y-67349000D01*
X231518421Y-67412447D01*
X231217958Y-67536903D01*
X230947549Y-67717585D01*
X230717585Y-67947549D01*
X230536903Y-68217958D01*
X230412447Y-68518421D01*
X230349000Y-68837391D01*
X158917193Y-68837391D01*
X158456209Y-68376408D01*
X158500000Y-68156260D01*
X158500000Y-67863740D01*
X158442932Y-67576842D01*
X158330990Y-67306589D01*
X158168475Y-67063368D01*
X157961632Y-66856525D01*
X157787240Y-66740000D01*
X157961632Y-66623475D01*
X158168475Y-66416632D01*
X158293178Y-66230000D01*
X213492678Y-66230000D01*
X213530000Y-66233676D01*
X213567322Y-66230000D01*
X213567333Y-66230000D01*
X213678986Y-66219003D01*
X213822247Y-66175546D01*
X213954276Y-66104974D01*
X214070001Y-66010001D01*
X214093804Y-65980997D01*
X215021149Y-65053652D01*
X230014100Y-65053652D01*
X230014100Y-65346348D01*
X230071202Y-65633421D01*
X230183212Y-65903838D01*
X230345826Y-66147206D01*
X230552794Y-66354174D01*
X230796162Y-66516788D01*
X231066579Y-66628798D01*
X231353652Y-66685900D01*
X231646348Y-66685900D01*
X231933421Y-66628798D01*
X232203838Y-66516788D01*
X232447206Y-66354174D01*
X232654174Y-66147206D01*
X232816788Y-65903838D01*
X232928798Y-65633421D01*
X232985900Y-65346348D01*
X232985900Y-65053652D01*
X232968982Y-64968594D01*
X234650500Y-64968594D01*
X234650500Y-65431406D01*
X234740790Y-65885324D01*
X234917900Y-66312905D01*
X235175024Y-66697719D01*
X235502281Y-67024976D01*
X235887095Y-67282100D01*
X236314676Y-67459210D01*
X236768594Y-67549500D01*
X237231406Y-67549500D01*
X237685324Y-67459210D01*
X238112905Y-67282100D01*
X238497719Y-67024976D01*
X238824976Y-66697719D01*
X239082100Y-66312905D01*
X239259210Y-65885324D01*
X239349500Y-65431406D01*
X239349500Y-65053652D01*
X241014100Y-65053652D01*
X241014100Y-65346348D01*
X241071202Y-65633421D01*
X241183212Y-65903838D01*
X241345826Y-66147206D01*
X241552794Y-66354174D01*
X241796162Y-66516788D01*
X242066579Y-66628798D01*
X242353652Y-66685900D01*
X242646348Y-66685900D01*
X242933421Y-66628798D01*
X243203838Y-66516788D01*
X243447206Y-66354174D01*
X243654174Y-66147206D01*
X243816788Y-65903838D01*
X243928798Y-65633421D01*
X243985900Y-65346348D01*
X243985900Y-65053652D01*
X243928798Y-64766579D01*
X243816788Y-64496162D01*
X243654174Y-64252794D01*
X243447206Y-64045826D01*
X243203838Y-63883212D01*
X242933421Y-63771202D01*
X242646348Y-63714100D01*
X242353652Y-63714100D01*
X242066579Y-63771202D01*
X241796162Y-63883212D01*
X241552794Y-64045826D01*
X241345826Y-64252794D01*
X241183212Y-64496162D01*
X241071202Y-64766579D01*
X241014100Y-65053652D01*
X239349500Y-65053652D01*
X239349500Y-64968594D01*
X239259210Y-64514676D01*
X239082100Y-64087095D01*
X238824976Y-63702281D01*
X238497719Y-63375024D01*
X238112905Y-63117900D01*
X237685324Y-62940790D01*
X237231406Y-62850500D01*
X236768594Y-62850500D01*
X236314676Y-62940790D01*
X235887095Y-63117900D01*
X235502281Y-63375024D01*
X235175024Y-63702281D01*
X234917900Y-64087095D01*
X234740790Y-64514676D01*
X234650500Y-64968594D01*
X232968982Y-64968594D01*
X232928798Y-64766579D01*
X232816788Y-64496162D01*
X232654174Y-64252794D01*
X232447206Y-64045826D01*
X232203838Y-63883212D01*
X231933421Y-63771202D01*
X231646348Y-63714100D01*
X231353652Y-63714100D01*
X231066579Y-63771202D01*
X230796162Y-63883212D01*
X230552794Y-64045826D01*
X230345826Y-64252794D01*
X230183212Y-64496162D01*
X230071202Y-64766579D01*
X230014100Y-65053652D01*
X215021149Y-65053652D01*
X219186126Y-60888675D01*
X230649700Y-60888675D01*
X230649700Y-61111325D01*
X230693137Y-61329696D01*
X230778341Y-61535398D01*
X230902039Y-61720524D01*
X231059476Y-61877961D01*
X231244602Y-62001659D01*
X231450304Y-62086863D01*
X231668675Y-62130300D01*
X231891325Y-62130300D01*
X232109696Y-62086863D01*
X232315398Y-62001659D01*
X232500524Y-61877961D01*
X232657961Y-61720524D01*
X232781659Y-61535398D01*
X232866863Y-61329696D01*
X232910300Y-61111325D01*
X232910300Y-60888675D01*
X241089700Y-60888675D01*
X241089700Y-61111325D01*
X241133137Y-61329696D01*
X241218341Y-61535398D01*
X241342039Y-61720524D01*
X241499476Y-61877961D01*
X241684602Y-62001659D01*
X241890304Y-62086863D01*
X242108675Y-62130300D01*
X242331325Y-62130300D01*
X242549696Y-62086863D01*
X242755398Y-62001659D01*
X242940524Y-61877961D01*
X243097961Y-61720524D01*
X243221659Y-61535398D01*
X243306863Y-61329696D01*
X243350300Y-61111325D01*
X243350300Y-60888675D01*
X243306863Y-60670304D01*
X243221659Y-60464602D01*
X243097961Y-60279476D01*
X242940524Y-60122039D01*
X242755398Y-59998341D01*
X242549696Y-59913137D01*
X242331325Y-59869700D01*
X242108675Y-59869700D01*
X241890304Y-59913137D01*
X241684602Y-59998341D01*
X241499476Y-60122039D01*
X241342039Y-60279476D01*
X241218341Y-60464602D01*
X241133137Y-60670304D01*
X241089700Y-60888675D01*
X232910300Y-60888675D01*
X232866863Y-60670304D01*
X232781659Y-60464602D01*
X232657961Y-60279476D01*
X232500524Y-60122039D01*
X232315398Y-59998341D01*
X232109696Y-59913137D01*
X231891325Y-59869700D01*
X231668675Y-59869700D01*
X231450304Y-59913137D01*
X231244602Y-59998341D01*
X231059476Y-60122039D01*
X230902039Y-60279476D01*
X230778341Y-60464602D01*
X230693137Y-60670304D01*
X230649700Y-60888675D01*
X219186126Y-60888675D01*
X219511003Y-60563799D01*
X219540001Y-60540001D01*
X219634974Y-60424276D01*
X219705546Y-60292247D01*
X219749003Y-60148986D01*
X219760000Y-60037333D01*
X219760000Y-60037324D01*
X219763676Y-60000001D01*
X219760000Y-59962678D01*
X219760000Y-59472227D01*
X219782042Y-59463097D01*
X220052451Y-59282415D01*
X220282415Y-59052451D01*
X220463097Y-58782042D01*
X220587553Y-58481579D01*
X220651000Y-58162609D01*
X220651000Y-57837391D01*
X220587553Y-57518421D01*
X220463097Y-57217958D01*
X220282415Y-56947549D01*
X220052451Y-56717585D01*
X219782042Y-56536903D01*
X219481579Y-56412447D01*
X219162609Y-56349000D01*
X218837391Y-56349000D01*
X218518421Y-56412447D01*
X218217958Y-56536903D01*
X217947549Y-56717585D01*
X217717585Y-56947549D01*
X217536903Y-57217958D01*
X217412447Y-57518421D01*
X217349000Y-57837391D01*
X217349000Y-58162609D01*
X217412447Y-58481579D01*
X217536903Y-58782042D01*
X217717585Y-59052451D01*
X217947549Y-59282415D01*
X218217958Y-59463097D01*
X218240001Y-59472227D01*
X218240001Y-59685197D01*
X213215199Y-64710000D01*
X158293178Y-64710000D01*
X158168475Y-64523368D01*
X157961632Y-64316525D01*
X157787240Y-64200000D01*
X157961632Y-64083475D01*
X158168475Y-63876632D01*
X158293178Y-63690000D01*
X192632678Y-63690000D01*
X192670000Y-63693676D01*
X192707322Y-63690000D01*
X192707333Y-63690000D01*
X192818986Y-63679003D01*
X192962247Y-63635546D01*
X193094276Y-63564974D01*
X193210001Y-63470001D01*
X193233804Y-63440997D01*
X200496379Y-56178423D01*
X200518421Y-56187553D01*
X200837391Y-56251000D01*
X201162609Y-56251000D01*
X201481579Y-56187553D01*
X201782042Y-56063097D01*
X202052451Y-55882415D01*
X202197475Y-55737391D01*
X212349000Y-55737391D01*
X212349000Y-56062609D01*
X212412447Y-56381579D01*
X212536903Y-56682042D01*
X212717585Y-56952451D01*
X212947549Y-57182415D01*
X213217958Y-57363097D01*
X213518421Y-57487553D01*
X213837391Y-57551000D01*
X214162609Y-57551000D01*
X214481579Y-57487553D01*
X214782042Y-57363097D01*
X215052451Y-57182415D01*
X215282415Y-56952451D01*
X215463097Y-56682042D01*
X215587553Y-56381579D01*
X215651000Y-56062609D01*
X215651000Y-55737391D01*
X222349000Y-55737391D01*
X222349000Y-56062609D01*
X222412447Y-56381579D01*
X222536903Y-56682042D01*
X222717585Y-56952451D01*
X222947549Y-57182415D01*
X223217958Y-57363097D01*
X223518421Y-57487553D01*
X223837391Y-57551000D01*
X224162609Y-57551000D01*
X224481579Y-57487553D01*
X224782042Y-57363097D01*
X225052451Y-57182415D01*
X225282415Y-56952451D01*
X225463097Y-56682042D01*
X225587553Y-56381579D01*
X225651000Y-56062609D01*
X225651000Y-55737391D01*
X225587553Y-55418421D01*
X225463097Y-55117958D01*
X225282415Y-54847549D01*
X225052451Y-54617585D01*
X224782042Y-54436903D01*
X224481579Y-54312447D01*
X224162609Y-54249000D01*
X223837391Y-54249000D01*
X223518421Y-54312447D01*
X223217958Y-54436903D01*
X222947549Y-54617585D01*
X222717585Y-54847549D01*
X222536903Y-55117958D01*
X222412447Y-55418421D01*
X222349000Y-55737391D01*
X215651000Y-55737391D01*
X215587553Y-55418421D01*
X215463097Y-55117958D01*
X215282415Y-54847549D01*
X215052451Y-54617585D01*
X214782042Y-54436903D01*
X214481579Y-54312447D01*
X214162609Y-54249000D01*
X213837391Y-54249000D01*
X213518421Y-54312447D01*
X213217958Y-54436903D01*
X212947549Y-54617585D01*
X212717585Y-54847549D01*
X212536903Y-55117958D01*
X212412447Y-55418421D01*
X212349000Y-55737391D01*
X202197475Y-55737391D01*
X202282415Y-55652451D01*
X202463097Y-55382042D01*
X202587553Y-55081579D01*
X202651000Y-54762609D01*
X202651000Y-54437391D01*
X202587553Y-54118421D01*
X202463097Y-53817958D01*
X202282415Y-53547549D01*
X202052451Y-53317585D01*
X201782042Y-53136903D01*
X201481579Y-53012447D01*
X201162609Y-52949000D01*
X200837391Y-52949000D01*
X200518421Y-53012447D01*
X200217958Y-53136903D01*
X199947549Y-53317585D01*
X199717585Y-53547549D01*
X199536903Y-53817958D01*
X199412447Y-54118421D01*
X199349000Y-54437391D01*
X199349000Y-54762609D01*
X199412447Y-55081579D01*
X199421577Y-55103621D01*
X192355199Y-62170000D01*
X183765377Y-62170000D01*
X183782042Y-62163097D01*
X184052451Y-61982415D01*
X184282415Y-61752451D01*
X184463097Y-61482042D01*
X184587553Y-61181579D01*
X184651000Y-60862609D01*
X184651000Y-60537391D01*
X184587553Y-60218421D01*
X184463097Y-59917958D01*
X184282415Y-59647549D01*
X184052451Y-59417585D01*
X183782042Y-59236903D01*
X183481579Y-59112447D01*
X183162609Y-59049000D01*
X182837391Y-59049000D01*
X182518421Y-59112447D01*
X182217958Y-59236903D01*
X181947549Y-59417585D01*
X181735134Y-59630000D01*
X179297416Y-59630000D01*
X179463097Y-59382042D01*
X179587553Y-59081579D01*
X179651000Y-58762609D01*
X179651000Y-58437391D01*
X186349000Y-58437391D01*
X186349000Y-58762609D01*
X186412447Y-59081579D01*
X186536903Y-59382042D01*
X186717585Y-59652451D01*
X186947549Y-59882415D01*
X187217958Y-60063097D01*
X187518421Y-60187553D01*
X187837391Y-60251000D01*
X188162609Y-60251000D01*
X188481579Y-60187553D01*
X188782042Y-60063097D01*
X189052451Y-59882415D01*
X189282415Y-59652451D01*
X189463097Y-59382042D01*
X189587553Y-59081579D01*
X189651000Y-58762609D01*
X189651000Y-58437391D01*
X189587553Y-58118421D01*
X189463097Y-57817958D01*
X189282415Y-57547549D01*
X189052451Y-57317585D01*
X188782042Y-57136903D01*
X188481579Y-57012447D01*
X188162609Y-56949000D01*
X187837391Y-56949000D01*
X187518421Y-57012447D01*
X187217958Y-57136903D01*
X186947549Y-57317585D01*
X186717585Y-57547549D01*
X186536903Y-57817958D01*
X186412447Y-58118421D01*
X186349000Y-58437391D01*
X179651000Y-58437391D01*
X179587553Y-58118421D01*
X179463097Y-57817958D01*
X179282415Y-57547549D01*
X179052451Y-57317585D01*
X178782042Y-57136903D01*
X178481579Y-57012447D01*
X178162609Y-56949000D01*
X177837391Y-56949000D01*
X177518421Y-57012447D01*
X177217958Y-57136903D01*
X176947549Y-57317585D01*
X176717585Y-57547549D01*
X176536903Y-57817958D01*
X176412447Y-58118421D01*
X176349000Y-58437391D01*
X176349000Y-58762609D01*
X176412447Y-59081579D01*
X176536903Y-59382042D01*
X176702584Y-59630000D01*
X158293178Y-59630000D01*
X158168475Y-59443368D01*
X157961632Y-59236525D01*
X157787240Y-59120000D01*
X157961632Y-59003475D01*
X158168475Y-58796632D01*
X158330990Y-58553411D01*
X158442932Y-58283158D01*
X158500000Y-57996260D01*
X158500000Y-57703740D01*
X158442932Y-57416842D01*
X158330990Y-57146589D01*
X158168475Y-56903368D01*
X157961632Y-56696525D01*
X157787240Y-56580000D01*
X157961632Y-56463475D01*
X158168475Y-56256632D01*
X158330990Y-56013411D01*
X158442932Y-55743158D01*
X158500000Y-55456260D01*
X158500000Y-55163740D01*
X158442932Y-54876842D01*
X158350485Y-54653652D01*
X176014100Y-54653652D01*
X176014100Y-54946348D01*
X176071202Y-55233421D01*
X176183212Y-55503838D01*
X176345826Y-55747206D01*
X176552794Y-55954174D01*
X176796162Y-56116788D01*
X177066579Y-56228798D01*
X177353652Y-56285900D01*
X177646348Y-56285900D01*
X177933421Y-56228798D01*
X178203838Y-56116788D01*
X178447206Y-55954174D01*
X178654174Y-55747206D01*
X178816788Y-55503838D01*
X178928798Y-55233421D01*
X178985900Y-54946348D01*
X178985900Y-54653652D01*
X178968982Y-54568594D01*
X180650500Y-54568594D01*
X180650500Y-55031406D01*
X180740790Y-55485324D01*
X180917900Y-55912905D01*
X181175024Y-56297719D01*
X181502281Y-56624976D01*
X181887095Y-56882100D01*
X182314676Y-57059210D01*
X182768594Y-57149500D01*
X183231406Y-57149500D01*
X183685324Y-57059210D01*
X184112905Y-56882100D01*
X184497719Y-56624976D01*
X184824976Y-56297719D01*
X185082100Y-55912905D01*
X185259210Y-55485324D01*
X185349500Y-55031406D01*
X185349500Y-54653652D01*
X187014100Y-54653652D01*
X187014100Y-54946348D01*
X187071202Y-55233421D01*
X187183212Y-55503838D01*
X187345826Y-55747206D01*
X187552794Y-55954174D01*
X187796162Y-56116788D01*
X188066579Y-56228798D01*
X188353652Y-56285900D01*
X188646348Y-56285900D01*
X188933421Y-56228798D01*
X189203838Y-56116788D01*
X189447206Y-55954174D01*
X189654174Y-55747206D01*
X189816788Y-55503838D01*
X189928798Y-55233421D01*
X189985900Y-54946348D01*
X189985900Y-54653652D01*
X189928798Y-54366579D01*
X189816788Y-54096162D01*
X189654174Y-53852794D01*
X189447206Y-53645826D01*
X189203838Y-53483212D01*
X188933421Y-53371202D01*
X188646348Y-53314100D01*
X188353652Y-53314100D01*
X188066579Y-53371202D01*
X187796162Y-53483212D01*
X187552794Y-53645826D01*
X187345826Y-53852794D01*
X187183212Y-54096162D01*
X187071202Y-54366579D01*
X187014100Y-54653652D01*
X185349500Y-54653652D01*
X185349500Y-54568594D01*
X185259210Y-54114676D01*
X185082100Y-53687095D01*
X184824976Y-53302281D01*
X184497719Y-52975024D01*
X184112905Y-52717900D01*
X183685324Y-52540790D01*
X183231406Y-52450500D01*
X182768594Y-52450500D01*
X182314676Y-52540790D01*
X181887095Y-52717900D01*
X181502281Y-52975024D01*
X181175024Y-53302281D01*
X180917900Y-53687095D01*
X180740790Y-54114676D01*
X180650500Y-54568594D01*
X178968982Y-54568594D01*
X178928798Y-54366579D01*
X178816788Y-54096162D01*
X178654174Y-53852794D01*
X178447206Y-53645826D01*
X178203838Y-53483212D01*
X177933421Y-53371202D01*
X177646348Y-53314100D01*
X177353652Y-53314100D01*
X177066579Y-53371202D01*
X176796162Y-53483212D01*
X176552794Y-53645826D01*
X176345826Y-53852794D01*
X176183212Y-54096162D01*
X176071202Y-54366579D01*
X176014100Y-54653652D01*
X158350485Y-54653652D01*
X158330990Y-54606589D01*
X158168475Y-54363368D01*
X157961632Y-54156525D01*
X157787240Y-54040000D01*
X157961632Y-53923475D01*
X158168475Y-53716632D01*
X158330990Y-53473411D01*
X158442932Y-53203158D01*
X158500000Y-52916260D01*
X158500000Y-52623740D01*
X158443042Y-52337391D01*
X194349000Y-52337391D01*
X194349000Y-52662609D01*
X194412447Y-52981579D01*
X194536903Y-53282042D01*
X194717585Y-53552451D01*
X194947549Y-53782415D01*
X195217958Y-53963097D01*
X195518421Y-54087553D01*
X195837391Y-54151000D01*
X196162609Y-54151000D01*
X196481579Y-54087553D01*
X196782042Y-53963097D01*
X197052451Y-53782415D01*
X197282415Y-53552451D01*
X197463097Y-53282042D01*
X197587553Y-52981579D01*
X197651000Y-52662609D01*
X197651000Y-52337391D01*
X204349000Y-52337391D01*
X204349000Y-52662609D01*
X204412447Y-52981579D01*
X204536903Y-53282042D01*
X204717585Y-53552451D01*
X204947549Y-53782415D01*
X205217958Y-53963097D01*
X205518421Y-54087553D01*
X205837391Y-54151000D01*
X206162609Y-54151000D01*
X206481579Y-54087553D01*
X206782042Y-53963097D01*
X207052451Y-53782415D01*
X207282415Y-53552451D01*
X207463097Y-53282042D01*
X207587553Y-52981579D01*
X207651000Y-52662609D01*
X207651000Y-52337391D01*
X207587553Y-52018421D01*
X207560725Y-51953652D01*
X212014100Y-51953652D01*
X212014100Y-52246348D01*
X212071202Y-52533421D01*
X212183212Y-52803838D01*
X212345826Y-53047206D01*
X212552794Y-53254174D01*
X212796162Y-53416788D01*
X213066579Y-53528798D01*
X213353652Y-53585900D01*
X213646348Y-53585900D01*
X213933421Y-53528798D01*
X214203838Y-53416788D01*
X214447206Y-53254174D01*
X214654174Y-53047206D01*
X214816788Y-52803838D01*
X214928798Y-52533421D01*
X214985900Y-52246348D01*
X214985900Y-51953652D01*
X214968982Y-51868594D01*
X216650500Y-51868594D01*
X216650500Y-52331406D01*
X216740790Y-52785324D01*
X216917900Y-53212905D01*
X217175024Y-53597719D01*
X217502281Y-53924976D01*
X217887095Y-54182100D01*
X218314676Y-54359210D01*
X218768594Y-54449500D01*
X219231406Y-54449500D01*
X219685324Y-54359210D01*
X220112905Y-54182100D01*
X220497719Y-53924976D01*
X220824976Y-53597719D01*
X221082100Y-53212905D01*
X221259210Y-52785324D01*
X221349500Y-52331406D01*
X221349500Y-51953652D01*
X223014100Y-51953652D01*
X223014100Y-52246348D01*
X223071202Y-52533421D01*
X223183212Y-52803838D01*
X223345826Y-53047206D01*
X223552794Y-53254174D01*
X223796162Y-53416788D01*
X224066579Y-53528798D01*
X224353652Y-53585900D01*
X224646348Y-53585900D01*
X224933421Y-53528798D01*
X225203838Y-53416788D01*
X225447206Y-53254174D01*
X225654174Y-53047206D01*
X225816788Y-52803838D01*
X225928798Y-52533421D01*
X225985900Y-52246348D01*
X225985900Y-51953652D01*
X225928798Y-51666579D01*
X225816788Y-51396162D01*
X225654174Y-51152794D01*
X225447206Y-50945826D01*
X225203838Y-50783212D01*
X224933421Y-50671202D01*
X224646348Y-50614100D01*
X224353652Y-50614100D01*
X224066579Y-50671202D01*
X223796162Y-50783212D01*
X223552794Y-50945826D01*
X223345826Y-51152794D01*
X223183212Y-51396162D01*
X223071202Y-51666579D01*
X223014100Y-51953652D01*
X221349500Y-51953652D01*
X221349500Y-51868594D01*
X221259210Y-51414676D01*
X221082100Y-50987095D01*
X220824976Y-50602281D01*
X220497719Y-50275024D01*
X220112905Y-50017900D01*
X219685324Y-49840790D01*
X219231406Y-49750500D01*
X218768594Y-49750500D01*
X218314676Y-49840790D01*
X217887095Y-50017900D01*
X217502281Y-50275024D01*
X217175024Y-50602281D01*
X216917900Y-50987095D01*
X216740790Y-51414676D01*
X216650500Y-51868594D01*
X214968982Y-51868594D01*
X214928798Y-51666579D01*
X214816788Y-51396162D01*
X214654174Y-51152794D01*
X214447206Y-50945826D01*
X214203838Y-50783212D01*
X213933421Y-50671202D01*
X213646348Y-50614100D01*
X213353652Y-50614100D01*
X213066579Y-50671202D01*
X212796162Y-50783212D01*
X212552794Y-50945826D01*
X212345826Y-51152794D01*
X212183212Y-51396162D01*
X212071202Y-51666579D01*
X212014100Y-51953652D01*
X207560725Y-51953652D01*
X207463097Y-51717958D01*
X207282415Y-51447549D01*
X207052451Y-51217585D01*
X206782042Y-51036903D01*
X206481579Y-50912447D01*
X206162609Y-50849000D01*
X205837391Y-50849000D01*
X205518421Y-50912447D01*
X205217958Y-51036903D01*
X204947549Y-51217585D01*
X204717585Y-51447549D01*
X204536903Y-51717958D01*
X204412447Y-52018421D01*
X204349000Y-52337391D01*
X197651000Y-52337391D01*
X197587553Y-52018421D01*
X197463097Y-51717958D01*
X197282415Y-51447549D01*
X197052451Y-51217585D01*
X196782042Y-51036903D01*
X196481579Y-50912447D01*
X196162609Y-50849000D01*
X195837391Y-50849000D01*
X195518421Y-50912447D01*
X195217958Y-51036903D01*
X194947549Y-51217585D01*
X194717585Y-51447549D01*
X194536903Y-51717958D01*
X194412447Y-52018421D01*
X194349000Y-52337391D01*
X158443042Y-52337391D01*
X158442932Y-52336842D01*
X158330990Y-52066589D01*
X158168475Y-51823368D01*
X157961632Y-51616525D01*
X157787240Y-51500000D01*
X157961632Y-51383475D01*
X158168475Y-51176632D01*
X158330990Y-50933411D01*
X158442932Y-50663158D01*
X158477639Y-50488675D01*
X176649700Y-50488675D01*
X176649700Y-50711325D01*
X176693137Y-50929696D01*
X176778341Y-51135398D01*
X176902039Y-51320524D01*
X177059476Y-51477961D01*
X177244602Y-51601659D01*
X177450304Y-51686863D01*
X177668675Y-51730300D01*
X177891325Y-51730300D01*
X178109696Y-51686863D01*
X178315398Y-51601659D01*
X178500524Y-51477961D01*
X178657961Y-51320524D01*
X178781659Y-51135398D01*
X178866863Y-50929696D01*
X178910300Y-50711325D01*
X178910300Y-50488675D01*
X187089700Y-50488675D01*
X187089700Y-50711325D01*
X187133137Y-50929696D01*
X187218341Y-51135398D01*
X187342039Y-51320524D01*
X187499476Y-51477961D01*
X187684602Y-51601659D01*
X187890304Y-51686863D01*
X188108675Y-51730300D01*
X188331325Y-51730300D01*
X188549696Y-51686863D01*
X188755398Y-51601659D01*
X188940524Y-51477961D01*
X189097961Y-51320524D01*
X189221659Y-51135398D01*
X189306863Y-50929696D01*
X189350300Y-50711325D01*
X189350300Y-50488675D01*
X189306863Y-50270304D01*
X189221659Y-50064602D01*
X189097961Y-49879476D01*
X188940524Y-49722039D01*
X188755398Y-49598341D01*
X188549696Y-49513137D01*
X188331325Y-49469700D01*
X188108675Y-49469700D01*
X187890304Y-49513137D01*
X187684602Y-49598341D01*
X187499476Y-49722039D01*
X187342039Y-49879476D01*
X187218341Y-50064602D01*
X187133137Y-50270304D01*
X187089700Y-50488675D01*
X178910300Y-50488675D01*
X178866863Y-50270304D01*
X178781659Y-50064602D01*
X178657961Y-49879476D01*
X178500524Y-49722039D01*
X178315398Y-49598341D01*
X178109696Y-49513137D01*
X177891325Y-49469700D01*
X177668675Y-49469700D01*
X177450304Y-49513137D01*
X177244602Y-49598341D01*
X177059476Y-49722039D01*
X176902039Y-49879476D01*
X176778341Y-50064602D01*
X176693137Y-50270304D01*
X176649700Y-50488675D01*
X158477639Y-50488675D01*
X158500000Y-50376260D01*
X158500000Y-50083740D01*
X158442932Y-49796842D01*
X158330990Y-49526589D01*
X158168475Y-49283368D01*
X157961632Y-49076525D01*
X157787240Y-48960000D01*
X157961632Y-48843475D01*
X158168475Y-48636632D01*
X158223920Y-48553652D01*
X194014100Y-48553652D01*
X194014100Y-48846348D01*
X194071202Y-49133421D01*
X194183212Y-49403838D01*
X194345826Y-49647206D01*
X194552794Y-49854174D01*
X194796162Y-50016788D01*
X195066579Y-50128798D01*
X195353652Y-50185900D01*
X195646348Y-50185900D01*
X195933421Y-50128798D01*
X196203838Y-50016788D01*
X196447206Y-49854174D01*
X196654174Y-49647206D01*
X196816788Y-49403838D01*
X196928798Y-49133421D01*
X196985900Y-48846348D01*
X196985900Y-48553652D01*
X196968982Y-48468594D01*
X198650500Y-48468594D01*
X198650500Y-48931406D01*
X198740790Y-49385324D01*
X198917900Y-49812905D01*
X199175024Y-50197719D01*
X199502281Y-50524976D01*
X199887095Y-50782100D01*
X200314676Y-50959210D01*
X200768594Y-51049500D01*
X201231406Y-51049500D01*
X201685324Y-50959210D01*
X202112905Y-50782100D01*
X202497719Y-50524976D01*
X202824976Y-50197719D01*
X203082100Y-49812905D01*
X203259210Y-49385324D01*
X203349500Y-48931406D01*
X203349500Y-48553652D01*
X205014100Y-48553652D01*
X205014100Y-48846348D01*
X205071202Y-49133421D01*
X205183212Y-49403838D01*
X205345826Y-49647206D01*
X205552794Y-49854174D01*
X205796162Y-50016788D01*
X206066579Y-50128798D01*
X206353652Y-50185900D01*
X206646348Y-50185900D01*
X206933421Y-50128798D01*
X207203838Y-50016788D01*
X207447206Y-49854174D01*
X207654174Y-49647206D01*
X207816788Y-49403838D01*
X207928798Y-49133421D01*
X207985900Y-48846348D01*
X207985900Y-48553652D01*
X207928798Y-48266579D01*
X207816788Y-47996162D01*
X207678150Y-47788675D01*
X212649700Y-47788675D01*
X212649700Y-48011325D01*
X212693137Y-48229696D01*
X212778341Y-48435398D01*
X212902039Y-48620524D01*
X213059476Y-48777961D01*
X213244602Y-48901659D01*
X213450304Y-48986863D01*
X213668675Y-49030300D01*
X213891325Y-49030300D01*
X214109696Y-48986863D01*
X214315398Y-48901659D01*
X214500524Y-48777961D01*
X214657961Y-48620524D01*
X214781659Y-48435398D01*
X214866863Y-48229696D01*
X214910300Y-48011325D01*
X214910300Y-47788675D01*
X223089700Y-47788675D01*
X223089700Y-48011325D01*
X223133137Y-48229696D01*
X223218341Y-48435398D01*
X223342039Y-48620524D01*
X223499476Y-48777961D01*
X223684602Y-48901659D01*
X223890304Y-48986863D01*
X224108675Y-49030300D01*
X224331325Y-49030300D01*
X224549696Y-48986863D01*
X224755398Y-48901659D01*
X224940524Y-48777961D01*
X225097961Y-48620524D01*
X225221659Y-48435398D01*
X225306863Y-48229696D01*
X225350300Y-48011325D01*
X225350300Y-47788675D01*
X225306863Y-47570304D01*
X225221659Y-47364602D01*
X225097961Y-47179476D01*
X224940524Y-47022039D01*
X224755398Y-46898341D01*
X224549696Y-46813137D01*
X224331325Y-46769700D01*
X224108675Y-46769700D01*
X223890304Y-46813137D01*
X223684602Y-46898341D01*
X223499476Y-47022039D01*
X223342039Y-47179476D01*
X223218341Y-47364602D01*
X223133137Y-47570304D01*
X223089700Y-47788675D01*
X214910300Y-47788675D01*
X214866863Y-47570304D01*
X214781659Y-47364602D01*
X214657961Y-47179476D01*
X214500524Y-47022039D01*
X214315398Y-46898341D01*
X214109696Y-46813137D01*
X213891325Y-46769700D01*
X213668675Y-46769700D01*
X213450304Y-46813137D01*
X213244602Y-46898341D01*
X213059476Y-47022039D01*
X212902039Y-47179476D01*
X212778341Y-47364602D01*
X212693137Y-47570304D01*
X212649700Y-47788675D01*
X207678150Y-47788675D01*
X207654174Y-47752794D01*
X207447206Y-47545826D01*
X207203838Y-47383212D01*
X206933421Y-47271202D01*
X206646348Y-47214100D01*
X206353652Y-47214100D01*
X206066579Y-47271202D01*
X205796162Y-47383212D01*
X205552794Y-47545826D01*
X205345826Y-47752794D01*
X205183212Y-47996162D01*
X205071202Y-48266579D01*
X205014100Y-48553652D01*
X203349500Y-48553652D01*
X203349500Y-48468594D01*
X203259210Y-48014676D01*
X203082100Y-47587095D01*
X202824976Y-47202281D01*
X202497719Y-46875024D01*
X202112905Y-46617900D01*
X201685324Y-46440790D01*
X201231406Y-46350500D01*
X200768594Y-46350500D01*
X200314676Y-46440790D01*
X199887095Y-46617900D01*
X199502281Y-46875024D01*
X199175024Y-47202281D01*
X198917900Y-47587095D01*
X198740790Y-48014676D01*
X198650500Y-48468594D01*
X196968982Y-48468594D01*
X196928798Y-48266579D01*
X196816788Y-47996162D01*
X196654174Y-47752794D01*
X196447206Y-47545826D01*
X196203838Y-47383212D01*
X195933421Y-47271202D01*
X195646348Y-47214100D01*
X195353652Y-47214100D01*
X195066579Y-47271202D01*
X194796162Y-47383212D01*
X194552794Y-47545826D01*
X194345826Y-47752794D01*
X194183212Y-47996162D01*
X194071202Y-48266579D01*
X194014100Y-48553652D01*
X158223920Y-48553652D01*
X158330990Y-48393411D01*
X158442932Y-48123158D01*
X158500000Y-47836260D01*
X158500000Y-47543740D01*
X158442932Y-47256842D01*
X158330990Y-46986589D01*
X158168475Y-46743368D01*
X157961632Y-46536525D01*
X157787240Y-46420000D01*
X157961632Y-46303475D01*
X158168475Y-46096632D01*
X158330990Y-45853411D01*
X158442932Y-45583158D01*
X158500000Y-45296260D01*
X158500000Y-45003740D01*
X158442932Y-44716842D01*
X158330990Y-44446589D01*
X158292294Y-44388675D01*
X194649700Y-44388675D01*
X194649700Y-44611325D01*
X194693137Y-44829696D01*
X194778341Y-45035398D01*
X194902039Y-45220524D01*
X195059476Y-45377961D01*
X195244602Y-45501659D01*
X195450304Y-45586863D01*
X195668675Y-45630300D01*
X195891325Y-45630300D01*
X196109696Y-45586863D01*
X196315398Y-45501659D01*
X196500524Y-45377961D01*
X196657961Y-45220524D01*
X196781659Y-45035398D01*
X196866863Y-44829696D01*
X196910300Y-44611325D01*
X196910300Y-44388675D01*
X205089700Y-44388675D01*
X205089700Y-44611325D01*
X205133137Y-44829696D01*
X205218341Y-45035398D01*
X205342039Y-45220524D01*
X205499476Y-45377961D01*
X205684602Y-45501659D01*
X205890304Y-45586863D01*
X206108675Y-45630300D01*
X206331325Y-45630300D01*
X206549696Y-45586863D01*
X206755398Y-45501659D01*
X206940524Y-45377961D01*
X207097961Y-45220524D01*
X207221659Y-45035398D01*
X207306863Y-44829696D01*
X207350300Y-44611325D01*
X207350300Y-44388675D01*
X207306863Y-44170304D01*
X207221659Y-43964602D01*
X207097961Y-43779476D01*
X206940524Y-43622039D01*
X206755398Y-43498341D01*
X206549696Y-43413137D01*
X206331325Y-43369700D01*
X206108675Y-43369700D01*
X205890304Y-43413137D01*
X205684602Y-43498341D01*
X205499476Y-43622039D01*
X205342039Y-43779476D01*
X205218341Y-43964602D01*
X205133137Y-44170304D01*
X205089700Y-44388675D01*
X196910300Y-44388675D01*
X196866863Y-44170304D01*
X196781659Y-43964602D01*
X196657961Y-43779476D01*
X196500524Y-43622039D01*
X196315398Y-43498341D01*
X196109696Y-43413137D01*
X195891325Y-43369700D01*
X195668675Y-43369700D01*
X195450304Y-43413137D01*
X195244602Y-43498341D01*
X195059476Y-43622039D01*
X194902039Y-43779476D01*
X194778341Y-43964602D01*
X194693137Y-44170304D01*
X194649700Y-44388675D01*
X158292294Y-44388675D01*
X158168475Y-44203368D01*
X157961632Y-43996525D01*
X157718411Y-43834010D01*
X157448158Y-43722068D01*
X157439835Y-43720412D01*
X157510998Y-43672863D01*
X157752663Y-43431198D01*
X157942537Y-43147031D01*
X158073325Y-42831281D01*
X158140000Y-42496083D01*
X158140000Y-42154317D01*
X158073325Y-41819119D01*
X157942537Y-41503369D01*
X157752663Y-41219202D01*
X157510998Y-40977537D01*
X157226831Y-40787663D01*
X156911081Y-40656875D01*
X156575883Y-40590200D01*
X156234117Y-40590200D01*
X155898919Y-40656875D01*
X155583169Y-40787663D01*
X155299002Y-40977537D01*
X155057337Y-41219202D01*
X154867463Y-41503369D01*
X154736675Y-41819119D01*
X154670000Y-42154317D01*
X154670000Y-42496083D01*
X154736675Y-42831281D01*
X154867463Y-43147031D01*
X155057337Y-43431198D01*
X155299002Y-43672863D01*
X155583169Y-43862737D01*
X155898919Y-43993525D01*
X156042757Y-44022136D01*
X155861525Y-44203368D01*
X155699010Y-44446589D01*
X155587068Y-44716842D01*
X155530000Y-45003740D01*
X155530000Y-45296260D01*
X155587068Y-45583158D01*
X155699010Y-45853411D01*
X155861525Y-46096632D01*
X156068368Y-46303475D01*
X156242760Y-46420000D01*
X156068368Y-46536525D01*
X155861525Y-46743368D01*
X155699010Y-46986589D01*
X155587068Y-47256842D01*
X155530000Y-47543740D01*
X155530000Y-47836260D01*
X155587068Y-48123158D01*
X155699010Y-48393411D01*
X155861525Y-48636632D01*
X156068368Y-48843475D01*
X156242760Y-48960000D01*
X156068368Y-49076525D01*
X155861525Y-49283368D01*
X155745000Y-49457760D01*
X155628475Y-49283368D01*
X155421632Y-49076525D01*
X155178411Y-48914010D01*
X154908158Y-48802068D01*
X154621260Y-48745000D01*
X154328740Y-48745000D01*
X154041842Y-48802068D01*
X153771589Y-48914010D01*
X153528368Y-49076525D01*
X153321525Y-49283368D01*
X153159010Y-49526589D01*
X153047068Y-49796842D01*
X152990000Y-50083740D01*
X150905000Y-50083740D01*
X150847932Y-49796842D01*
X150735990Y-49526589D01*
X150573475Y-49283368D01*
X150366632Y-49076525D01*
X150123411Y-48914010D01*
X149853158Y-48802068D01*
X149566260Y-48745000D01*
X149273740Y-48745000D01*
X148986842Y-48802068D01*
X148716589Y-48914010D01*
X148473368Y-49076525D01*
X148266525Y-49283368D01*
X148150000Y-49457760D01*
X148033475Y-49283368D01*
X147826632Y-49076525D01*
X147583411Y-48914010D01*
X147313158Y-48802068D01*
X147026260Y-48745000D01*
X146733740Y-48745000D01*
X146446842Y-48802068D01*
X146176589Y-48914010D01*
X145933368Y-49076525D01*
X145726525Y-49283368D01*
X145610000Y-49457760D01*
X145493475Y-49283368D01*
X145286632Y-49076525D01*
X145043411Y-48914010D01*
X144773158Y-48802068D01*
X144486260Y-48745000D01*
X144193740Y-48745000D01*
X143906842Y-48802068D01*
X143636589Y-48914010D01*
X143393368Y-49076525D01*
X143186525Y-49283368D01*
X143070000Y-49457760D01*
X142953475Y-49283368D01*
X142746632Y-49076525D01*
X142572240Y-48960000D01*
X142746632Y-48843475D01*
X142953475Y-48636632D01*
X143115990Y-48393411D01*
X143227932Y-48123158D01*
X143285000Y-47836260D01*
X143285000Y-47543740D01*
X143227932Y-47256842D01*
X143115990Y-46986589D01*
X142953475Y-46743368D01*
X142746632Y-46536525D01*
X142572240Y-46420000D01*
X142746632Y-46303475D01*
X142953475Y-46096632D01*
X143115990Y-45853411D01*
X143227932Y-45583158D01*
X143285000Y-45296260D01*
X143285000Y-45003740D01*
X143227932Y-44716842D01*
X143115990Y-44446589D01*
X142953475Y-44203368D01*
X142772177Y-44022070D01*
X142915681Y-43993525D01*
X143231431Y-43862737D01*
X143515598Y-43672863D01*
X143757263Y-43431198D01*
X143947137Y-43147031D01*
X144077925Y-42831281D01*
X144144600Y-42496083D01*
X144144600Y-42154317D01*
X144077925Y-41819119D01*
X143947137Y-41503369D01*
X143757263Y-41219202D01*
X143515598Y-40977537D01*
X143231431Y-40787663D01*
X142915681Y-40656875D01*
X142580483Y-40590200D01*
X142238717Y-40590200D01*
X141903519Y-40656875D01*
X141587769Y-40787663D01*
X141303602Y-40977537D01*
X141061937Y-41219202D01*
X140872063Y-41503369D01*
X140741275Y-41819119D01*
X140674600Y-42154317D01*
X140674600Y-42496083D01*
X140741275Y-42831281D01*
X140872063Y-43147031D01*
X141061937Y-43431198D01*
X141303602Y-43672863D01*
X141374857Y-43720474D01*
X141366842Y-43722068D01*
X141096589Y-43834010D01*
X140853368Y-43996525D01*
X140646525Y-44203368D01*
X140484010Y-44446589D01*
X140372068Y-44716842D01*
X140315000Y-45003740D01*
X140315000Y-45296260D01*
X140372068Y-45583158D01*
X140484010Y-45853411D01*
X140646525Y-46096632D01*
X140853368Y-46303475D01*
X141027760Y-46420000D01*
X140853368Y-46536525D01*
X140646525Y-46743368D01*
X140484010Y-46986589D01*
X140372068Y-47256842D01*
X140315000Y-47543740D01*
X140315000Y-47836260D01*
X140372068Y-48123158D01*
X140484010Y-48393411D01*
X140646525Y-48636632D01*
X140853368Y-48843475D01*
X141027760Y-48960000D01*
X140853368Y-49076525D01*
X140646525Y-49283368D01*
X140484010Y-49526589D01*
X140372068Y-49796842D01*
X140315000Y-50083740D01*
X140315000Y-50376260D01*
X140372068Y-50663158D01*
X140484010Y-50933411D01*
X140646525Y-51176632D01*
X140853368Y-51383475D01*
X141027760Y-51500000D01*
X140853368Y-51616525D01*
X140646525Y-51823368D01*
X140484010Y-52066589D01*
X140372068Y-52336842D01*
X140315000Y-52623740D01*
X140315000Y-52916260D01*
X140372068Y-53203158D01*
X140484010Y-53473411D01*
X140646525Y-53716632D01*
X140853368Y-53923475D01*
X141027760Y-54040000D01*
X140853368Y-54156525D01*
X140646525Y-54363368D01*
X140484010Y-54606589D01*
X140372068Y-54876842D01*
X140315000Y-55163740D01*
X140315000Y-55456260D01*
X140372068Y-55743158D01*
X140484010Y-56013411D01*
X140646525Y-56256632D01*
X140853368Y-56463475D01*
X141027760Y-56580000D01*
X140853368Y-56696525D01*
X140646525Y-56903368D01*
X140484010Y-57146589D01*
X140372068Y-57416842D01*
X140315000Y-57703740D01*
X140315000Y-57996260D01*
X140372068Y-58283158D01*
X140484010Y-58553411D01*
X140646525Y-58796632D01*
X140853368Y-59003475D01*
X141027760Y-59120000D01*
X140853368Y-59236525D01*
X140646525Y-59443368D01*
X140521822Y-59630000D01*
X120897416Y-59630000D01*
X121063097Y-59382042D01*
X121187553Y-59081579D01*
X121251000Y-58762609D01*
X121251000Y-58437391D01*
X121187553Y-58118421D01*
X121063097Y-57817958D01*
X120882415Y-57547549D01*
X120652451Y-57317585D01*
X120382042Y-57136903D01*
X120081579Y-57012447D01*
X119762609Y-56949000D01*
X119437391Y-56949000D01*
X119118421Y-57012447D01*
X118817958Y-57136903D01*
X118547549Y-57317585D01*
X118317585Y-57547549D01*
X118136903Y-57817958D01*
X118012447Y-58118421D01*
X117949000Y-58437391D01*
X117949000Y-58762609D01*
X118012447Y-59081579D01*
X118136903Y-59382042D01*
X118302584Y-59630000D01*
X115864866Y-59630000D01*
X115652451Y-59417585D01*
X115382042Y-59236903D01*
X115081579Y-59112447D01*
X114762609Y-59049000D01*
X114437391Y-59049000D01*
X114118421Y-59112447D01*
X113817958Y-59236903D01*
X113547549Y-59417585D01*
X113317585Y-59647549D01*
X113136903Y-59917958D01*
X113012447Y-60218421D01*
X112949000Y-60537391D01*
X112949000Y-60862609D01*
X113012447Y-61181579D01*
X113136903Y-61482042D01*
X113317585Y-61752451D01*
X113547549Y-61982415D01*
X113817958Y-62163097D01*
X113834623Y-62170000D01*
X105344802Y-62170000D01*
X101612193Y-58437391D01*
X107949000Y-58437391D01*
X107949000Y-58762609D01*
X108012447Y-59081579D01*
X108136903Y-59382042D01*
X108317585Y-59652451D01*
X108547549Y-59882415D01*
X108817958Y-60063097D01*
X109118421Y-60187553D01*
X109437391Y-60251000D01*
X109762609Y-60251000D01*
X110081579Y-60187553D01*
X110382042Y-60063097D01*
X110652451Y-59882415D01*
X110882415Y-59652451D01*
X111063097Y-59382042D01*
X111187553Y-59081579D01*
X111251000Y-58762609D01*
X111251000Y-58437391D01*
X111187553Y-58118421D01*
X111063097Y-57817958D01*
X110882415Y-57547549D01*
X110652451Y-57317585D01*
X110382042Y-57136903D01*
X110081579Y-57012447D01*
X109762609Y-56949000D01*
X109437391Y-56949000D01*
X109118421Y-57012447D01*
X108817958Y-57136903D01*
X108547549Y-57317585D01*
X108317585Y-57547549D01*
X108136903Y-57817958D01*
X108012447Y-58118421D01*
X107949000Y-58437391D01*
X101612193Y-58437391D01*
X98278423Y-55103622D01*
X98287553Y-55081579D01*
X98351000Y-54762609D01*
X98351000Y-54653652D01*
X107614100Y-54653652D01*
X107614100Y-54946348D01*
X107671202Y-55233421D01*
X107783212Y-55503838D01*
X107945826Y-55747206D01*
X108152794Y-55954174D01*
X108396162Y-56116788D01*
X108666579Y-56228798D01*
X108953652Y-56285900D01*
X109246348Y-56285900D01*
X109533421Y-56228798D01*
X109803838Y-56116788D01*
X110047206Y-55954174D01*
X110254174Y-55747206D01*
X110416788Y-55503838D01*
X110528798Y-55233421D01*
X110585900Y-54946348D01*
X110585900Y-54653652D01*
X110568982Y-54568594D01*
X112250500Y-54568594D01*
X112250500Y-55031406D01*
X112340790Y-55485324D01*
X112517900Y-55912905D01*
X112775024Y-56297719D01*
X113102281Y-56624976D01*
X113487095Y-56882100D01*
X113914676Y-57059210D01*
X114368594Y-57149500D01*
X114831406Y-57149500D01*
X115285324Y-57059210D01*
X115712905Y-56882100D01*
X116097719Y-56624976D01*
X116424976Y-56297719D01*
X116682100Y-55912905D01*
X116859210Y-55485324D01*
X116949500Y-55031406D01*
X116949500Y-54653652D01*
X118614100Y-54653652D01*
X118614100Y-54946348D01*
X118671202Y-55233421D01*
X118783212Y-55503838D01*
X118945826Y-55747206D01*
X119152794Y-55954174D01*
X119396162Y-56116788D01*
X119666579Y-56228798D01*
X119953652Y-56285900D01*
X120246348Y-56285900D01*
X120533421Y-56228798D01*
X120803838Y-56116788D01*
X121047206Y-55954174D01*
X121254174Y-55747206D01*
X121416788Y-55503838D01*
X121528798Y-55233421D01*
X121585900Y-54946348D01*
X121585900Y-54653652D01*
X121528798Y-54366579D01*
X121416788Y-54096162D01*
X121254174Y-53852794D01*
X121047206Y-53645826D01*
X120803838Y-53483212D01*
X120533421Y-53371202D01*
X120246348Y-53314100D01*
X119953652Y-53314100D01*
X119666579Y-53371202D01*
X119396162Y-53483212D01*
X119152794Y-53645826D01*
X118945826Y-53852794D01*
X118783212Y-54096162D01*
X118671202Y-54366579D01*
X118614100Y-54653652D01*
X116949500Y-54653652D01*
X116949500Y-54568594D01*
X116859210Y-54114676D01*
X116682100Y-53687095D01*
X116424976Y-53302281D01*
X116097719Y-52975024D01*
X115712905Y-52717900D01*
X115285324Y-52540790D01*
X114831406Y-52450500D01*
X114368594Y-52450500D01*
X113914676Y-52540790D01*
X113487095Y-52717900D01*
X113102281Y-52975024D01*
X112775024Y-53302281D01*
X112517900Y-53687095D01*
X112340790Y-54114676D01*
X112250500Y-54568594D01*
X110568982Y-54568594D01*
X110528798Y-54366579D01*
X110416788Y-54096162D01*
X110254174Y-53852794D01*
X110047206Y-53645826D01*
X109803838Y-53483212D01*
X109533421Y-53371202D01*
X109246348Y-53314100D01*
X108953652Y-53314100D01*
X108666579Y-53371202D01*
X108396162Y-53483212D01*
X108152794Y-53645826D01*
X107945826Y-53852794D01*
X107783212Y-54096162D01*
X107671202Y-54366579D01*
X107614100Y-54653652D01*
X98351000Y-54653652D01*
X98351000Y-54437391D01*
X98287553Y-54118421D01*
X98163097Y-53817958D01*
X97982415Y-53547549D01*
X97752451Y-53317585D01*
X97482042Y-53136903D01*
X97181579Y-53012447D01*
X96862609Y-52949000D01*
X96537391Y-52949000D01*
X96218421Y-53012447D01*
X95917958Y-53136903D01*
X95647549Y-53317585D01*
X95417585Y-53547549D01*
X95236903Y-53817958D01*
X95112447Y-54118421D01*
X95049000Y-54437391D01*
X95049000Y-54762609D01*
X95112447Y-55081579D01*
X95236903Y-55382042D01*
X95417585Y-55652451D01*
X95647549Y-55882415D01*
X95917958Y-56063097D01*
X96218421Y-56187553D01*
X96537391Y-56251000D01*
X96862609Y-56251000D01*
X97181579Y-56187553D01*
X97203622Y-56178423D01*
X104466201Y-63441003D01*
X104489999Y-63470001D01*
X104518997Y-63493799D01*
X104605723Y-63564974D01*
X104733759Y-63633411D01*
X104737753Y-63635546D01*
X104881014Y-63679003D01*
X104992667Y-63690000D01*
X104992677Y-63690000D01*
X105030000Y-63693676D01*
X105067323Y-63690000D01*
X140521822Y-63690000D01*
X140646525Y-63876632D01*
X140853368Y-64083475D01*
X141027760Y-64200000D01*
X140853368Y-64316525D01*
X140646525Y-64523368D01*
X140521822Y-64710000D01*
X84484802Y-64710000D01*
X79460000Y-59685199D01*
X79460000Y-59472227D01*
X79482042Y-59463097D01*
X79752451Y-59282415D01*
X79982415Y-59052451D01*
X80163097Y-58782042D01*
X80287553Y-58481579D01*
X80351000Y-58162609D01*
X80351000Y-57837391D01*
X80287553Y-57518421D01*
X80163097Y-57217958D01*
X79982415Y-56947549D01*
X79752451Y-56717585D01*
X79482042Y-56536903D01*
X79181579Y-56412447D01*
X78862609Y-56349000D01*
X78537391Y-56349000D01*
X78218421Y-56412447D01*
X77917958Y-56536903D01*
X77647549Y-56717585D01*
X77417585Y-56947549D01*
X77236903Y-57217958D01*
X77112447Y-57518421D01*
X77049000Y-57837391D01*
X77049000Y-58162609D01*
X77112447Y-58481579D01*
X77236903Y-58782042D01*
X77417585Y-59052451D01*
X77647549Y-59282415D01*
X77917958Y-59463097D01*
X77940001Y-59472227D01*
X77940001Y-59962668D01*
X77936324Y-60000000D01*
X77940001Y-60037333D01*
X77950998Y-60148986D01*
X77962697Y-60187553D01*
X77994454Y-60292246D01*
X78065026Y-60424276D01*
X78136201Y-60511002D01*
X78160000Y-60540001D01*
X78188998Y-60563799D01*
X83606201Y-65981003D01*
X83629999Y-66010001D01*
X83745724Y-66104974D01*
X83877753Y-66175546D01*
X84021014Y-66219003D01*
X84132667Y-66230000D01*
X84132676Y-66230000D01*
X84169999Y-66233676D01*
X84207322Y-66230000D01*
X140521822Y-66230000D01*
X140646525Y-66416632D01*
X140853368Y-66623475D01*
X141027760Y-66740000D01*
X140853368Y-66856525D01*
X140646525Y-67063368D01*
X140484010Y-67306589D01*
X140372068Y-67576842D01*
X140315000Y-67863740D01*
X140315000Y-68156260D01*
X140358790Y-68376408D01*
X136395199Y-72340000D01*
X63014802Y-72340000D01*
X62278423Y-71603621D01*
X62287553Y-71581579D01*
X62351000Y-71262609D01*
X62351000Y-70937391D01*
X62287553Y-70618421D01*
X62163097Y-70317958D01*
X61982415Y-70047549D01*
X61752451Y-69817585D01*
X61482042Y-69636903D01*
X61181579Y-69512447D01*
X60862609Y-69449000D01*
X60537391Y-69449000D01*
X60218421Y-69512447D01*
X59917958Y-69636903D01*
X59647549Y-69817585D01*
X59417585Y-70047549D01*
X59236903Y-70317958D01*
X59112447Y-70618421D01*
X59049000Y-70937391D01*
X52020209Y-70937391D01*
X52022163Y-68837391D01*
X54049000Y-68837391D01*
X54049000Y-69162609D01*
X54112447Y-69481579D01*
X54236903Y-69782042D01*
X54417585Y-70052451D01*
X54647549Y-70282415D01*
X54917958Y-70463097D01*
X55218421Y-70587553D01*
X55537391Y-70651000D01*
X55862609Y-70651000D01*
X56181579Y-70587553D01*
X56482042Y-70463097D01*
X56752451Y-70282415D01*
X56982415Y-70052451D01*
X57163097Y-69782042D01*
X57287553Y-69481579D01*
X57351000Y-69162609D01*
X57351000Y-68837391D01*
X64049000Y-68837391D01*
X64049000Y-69162609D01*
X64112447Y-69481579D01*
X64236903Y-69782042D01*
X64417585Y-70052451D01*
X64647549Y-70282415D01*
X64917958Y-70463097D01*
X65218421Y-70587553D01*
X65537391Y-70651000D01*
X65862609Y-70651000D01*
X66181579Y-70587553D01*
X66482042Y-70463097D01*
X66752451Y-70282415D01*
X66982415Y-70052451D01*
X67163097Y-69782042D01*
X67287553Y-69481579D01*
X67351000Y-69162609D01*
X67351000Y-68837391D01*
X67287553Y-68518421D01*
X67163097Y-68217958D01*
X66982415Y-67947549D01*
X66752451Y-67717585D01*
X66482042Y-67536903D01*
X66181579Y-67412447D01*
X65862609Y-67349000D01*
X65537391Y-67349000D01*
X65218421Y-67412447D01*
X64917958Y-67536903D01*
X64647549Y-67717585D01*
X64417585Y-67947549D01*
X64236903Y-68217958D01*
X64112447Y-68518421D01*
X64049000Y-68837391D01*
X57351000Y-68837391D01*
X57287553Y-68518421D01*
X57163097Y-68217958D01*
X56982415Y-67947549D01*
X56752451Y-67717585D01*
X56482042Y-67536903D01*
X56181579Y-67412447D01*
X55862609Y-67349000D01*
X55537391Y-67349000D01*
X55218421Y-67412447D01*
X54917958Y-67536903D01*
X54647549Y-67717585D01*
X54417585Y-67947549D01*
X54236903Y-68217958D01*
X54112447Y-68518421D01*
X54049000Y-68837391D01*
X52022163Y-68837391D01*
X52025684Y-65053652D01*
X53714100Y-65053652D01*
X53714100Y-65346348D01*
X53771202Y-65633421D01*
X53883212Y-65903838D01*
X54045826Y-66147206D01*
X54252794Y-66354174D01*
X54496162Y-66516788D01*
X54766579Y-66628798D01*
X55053652Y-66685900D01*
X55346348Y-66685900D01*
X55633421Y-66628798D01*
X55903838Y-66516788D01*
X56147206Y-66354174D01*
X56354174Y-66147206D01*
X56516788Y-65903838D01*
X56628798Y-65633421D01*
X56685900Y-65346348D01*
X56685900Y-65053652D01*
X56668982Y-64968594D01*
X58350500Y-64968594D01*
X58350500Y-65431406D01*
X58440790Y-65885324D01*
X58617900Y-66312905D01*
X58875024Y-66697719D01*
X59202281Y-67024976D01*
X59587095Y-67282100D01*
X60014676Y-67459210D01*
X60468594Y-67549500D01*
X60931406Y-67549500D01*
X61385324Y-67459210D01*
X61812905Y-67282100D01*
X62197719Y-67024976D01*
X62524976Y-66697719D01*
X62782100Y-66312905D01*
X62959210Y-65885324D01*
X63049500Y-65431406D01*
X63049500Y-65053652D01*
X64714100Y-65053652D01*
X64714100Y-65346348D01*
X64771202Y-65633421D01*
X64883212Y-65903838D01*
X65045826Y-66147206D01*
X65252794Y-66354174D01*
X65496162Y-66516788D01*
X65766579Y-66628798D01*
X66053652Y-66685900D01*
X66346348Y-66685900D01*
X66633421Y-66628798D01*
X66903838Y-66516788D01*
X67147206Y-66354174D01*
X67354174Y-66147206D01*
X67516788Y-65903838D01*
X67628798Y-65633421D01*
X67685900Y-65346348D01*
X67685900Y-65053652D01*
X67628798Y-64766579D01*
X67516788Y-64496162D01*
X67354174Y-64252794D01*
X67147206Y-64045826D01*
X66903838Y-63883212D01*
X66633421Y-63771202D01*
X66346348Y-63714100D01*
X66053652Y-63714100D01*
X65766579Y-63771202D01*
X65496162Y-63883212D01*
X65252794Y-64045826D01*
X65045826Y-64252794D01*
X64883212Y-64496162D01*
X64771202Y-64766579D01*
X64714100Y-65053652D01*
X63049500Y-65053652D01*
X63049500Y-64968594D01*
X62959210Y-64514676D01*
X62782100Y-64087095D01*
X62524976Y-63702281D01*
X62197719Y-63375024D01*
X61812905Y-63117900D01*
X61385324Y-62940790D01*
X60931406Y-62850500D01*
X60468594Y-62850500D01*
X60014676Y-62940790D01*
X59587095Y-63117900D01*
X59202281Y-63375024D01*
X58875024Y-63702281D01*
X58617900Y-64087095D01*
X58440790Y-64514676D01*
X58350500Y-64968594D01*
X56668982Y-64968594D01*
X56628798Y-64766579D01*
X56516788Y-64496162D01*
X56354174Y-64252794D01*
X56147206Y-64045826D01*
X55903838Y-63883212D01*
X55633421Y-63771202D01*
X55346348Y-63714100D01*
X55053652Y-63714100D01*
X54766579Y-63771202D01*
X54496162Y-63883212D01*
X54252794Y-64045826D01*
X54045826Y-64252794D01*
X53883212Y-64496162D01*
X53771202Y-64766579D01*
X53714100Y-65053652D01*
X52025684Y-65053652D01*
X52029559Y-60888675D01*
X54349700Y-60888675D01*
X54349700Y-61111325D01*
X54393137Y-61329696D01*
X54478341Y-61535398D01*
X54602039Y-61720524D01*
X54759476Y-61877961D01*
X54944602Y-62001659D01*
X55150304Y-62086863D01*
X55368675Y-62130300D01*
X55591325Y-62130300D01*
X55809696Y-62086863D01*
X56015398Y-62001659D01*
X56200524Y-61877961D01*
X56357961Y-61720524D01*
X56481659Y-61535398D01*
X56566863Y-61329696D01*
X56610300Y-61111325D01*
X56610300Y-60888675D01*
X64789700Y-60888675D01*
X64789700Y-61111325D01*
X64833137Y-61329696D01*
X64918341Y-61535398D01*
X65042039Y-61720524D01*
X65199476Y-61877961D01*
X65384602Y-62001659D01*
X65590304Y-62086863D01*
X65808675Y-62130300D01*
X66031325Y-62130300D01*
X66249696Y-62086863D01*
X66455398Y-62001659D01*
X66640524Y-61877961D01*
X66797961Y-61720524D01*
X66921659Y-61535398D01*
X67006863Y-61329696D01*
X67050300Y-61111325D01*
X67050300Y-60888675D01*
X67006863Y-60670304D01*
X66921659Y-60464602D01*
X66797961Y-60279476D01*
X66640524Y-60122039D01*
X66455398Y-59998341D01*
X66249696Y-59913137D01*
X66031325Y-59869700D01*
X65808675Y-59869700D01*
X65590304Y-59913137D01*
X65384602Y-59998341D01*
X65199476Y-60122039D01*
X65042039Y-60279476D01*
X64918341Y-60464602D01*
X64833137Y-60670304D01*
X64789700Y-60888675D01*
X56610300Y-60888675D01*
X56566863Y-60670304D01*
X56481659Y-60464602D01*
X56357961Y-60279476D01*
X56200524Y-60122039D01*
X56015398Y-59998341D01*
X55809696Y-59913137D01*
X55591325Y-59869700D01*
X55368675Y-59869700D01*
X55150304Y-59913137D01*
X54944602Y-59998341D01*
X54759476Y-60122039D01*
X54602039Y-60279476D01*
X54478341Y-60464602D01*
X54393137Y-60670304D01*
X54349700Y-60888675D01*
X52029559Y-60888675D01*
X52034352Y-55737391D01*
X72049000Y-55737391D01*
X72049000Y-56062609D01*
X72112447Y-56381579D01*
X72236903Y-56682042D01*
X72417585Y-56952451D01*
X72647549Y-57182415D01*
X72917958Y-57363097D01*
X73218421Y-57487553D01*
X73537391Y-57551000D01*
X73862609Y-57551000D01*
X74181579Y-57487553D01*
X74482042Y-57363097D01*
X74752451Y-57182415D01*
X74982415Y-56952451D01*
X75163097Y-56682042D01*
X75287553Y-56381579D01*
X75351000Y-56062609D01*
X75351000Y-55737391D01*
X82049000Y-55737391D01*
X82049000Y-56062609D01*
X82112447Y-56381579D01*
X82236903Y-56682042D01*
X82417585Y-56952451D01*
X82647549Y-57182415D01*
X82917958Y-57363097D01*
X83218421Y-57487553D01*
X83537391Y-57551000D01*
X83862609Y-57551000D01*
X84181579Y-57487553D01*
X84482042Y-57363097D01*
X84752451Y-57182415D01*
X84982415Y-56952451D01*
X85163097Y-56682042D01*
X85287553Y-56381579D01*
X85351000Y-56062609D01*
X85351000Y-55737391D01*
X85287553Y-55418421D01*
X85163097Y-55117958D01*
X84982415Y-54847549D01*
X84752451Y-54617585D01*
X84482042Y-54436903D01*
X84181579Y-54312447D01*
X83862609Y-54249000D01*
X83537391Y-54249000D01*
X83218421Y-54312447D01*
X82917958Y-54436903D01*
X82647549Y-54617585D01*
X82417585Y-54847549D01*
X82236903Y-55117958D01*
X82112447Y-55418421D01*
X82049000Y-55737391D01*
X75351000Y-55737391D01*
X75287553Y-55418421D01*
X75163097Y-55117958D01*
X74982415Y-54847549D01*
X74752451Y-54617585D01*
X74482042Y-54436903D01*
X74181579Y-54312447D01*
X73862609Y-54249000D01*
X73537391Y-54249000D01*
X73218421Y-54312447D01*
X72917958Y-54436903D01*
X72647549Y-54617585D01*
X72417585Y-54847549D01*
X72236903Y-55117958D01*
X72112447Y-55418421D01*
X72049000Y-55737391D01*
X52034352Y-55737391D01*
X52037874Y-51953652D01*
X71714100Y-51953652D01*
X71714100Y-52246348D01*
X71771202Y-52533421D01*
X71883212Y-52803838D01*
X72045826Y-53047206D01*
X72252794Y-53254174D01*
X72496162Y-53416788D01*
X72766579Y-53528798D01*
X73053652Y-53585900D01*
X73346348Y-53585900D01*
X73633421Y-53528798D01*
X73903838Y-53416788D01*
X74147206Y-53254174D01*
X74354174Y-53047206D01*
X74516788Y-52803838D01*
X74628798Y-52533421D01*
X74685900Y-52246348D01*
X74685900Y-51953652D01*
X74668982Y-51868594D01*
X76350500Y-51868594D01*
X76350500Y-52331406D01*
X76440790Y-52785324D01*
X76617900Y-53212905D01*
X76875024Y-53597719D01*
X77202281Y-53924976D01*
X77587095Y-54182100D01*
X78014676Y-54359210D01*
X78468594Y-54449500D01*
X78931406Y-54449500D01*
X79385324Y-54359210D01*
X79812905Y-54182100D01*
X80197719Y-53924976D01*
X80524976Y-53597719D01*
X80782100Y-53212905D01*
X80959210Y-52785324D01*
X81049500Y-52331406D01*
X81049500Y-51953652D01*
X82714100Y-51953652D01*
X82714100Y-52246348D01*
X82771202Y-52533421D01*
X82883212Y-52803838D01*
X83045826Y-53047206D01*
X83252794Y-53254174D01*
X83496162Y-53416788D01*
X83766579Y-53528798D01*
X84053652Y-53585900D01*
X84346348Y-53585900D01*
X84633421Y-53528798D01*
X84903838Y-53416788D01*
X85147206Y-53254174D01*
X85354174Y-53047206D01*
X85516788Y-52803838D01*
X85628798Y-52533421D01*
X85667790Y-52337391D01*
X90049000Y-52337391D01*
X90049000Y-52662609D01*
X90112447Y-52981579D01*
X90236903Y-53282042D01*
X90417585Y-53552451D01*
X90647549Y-53782415D01*
X90917958Y-53963097D01*
X91218421Y-54087553D01*
X91537391Y-54151000D01*
X91862609Y-54151000D01*
X92181579Y-54087553D01*
X92482042Y-53963097D01*
X92752451Y-53782415D01*
X92982415Y-53552451D01*
X93163097Y-53282042D01*
X93287553Y-52981579D01*
X93351000Y-52662609D01*
X93351000Y-52337391D01*
X100049000Y-52337391D01*
X100049000Y-52662609D01*
X100112447Y-52981579D01*
X100236903Y-53282042D01*
X100417585Y-53552451D01*
X100647549Y-53782415D01*
X100917958Y-53963097D01*
X101218421Y-54087553D01*
X101537391Y-54151000D01*
X101862609Y-54151000D01*
X102181579Y-54087553D01*
X102482042Y-53963097D01*
X102752451Y-53782415D01*
X102982415Y-53552451D01*
X103163097Y-53282042D01*
X103287553Y-52981579D01*
X103351000Y-52662609D01*
X103351000Y-52337391D01*
X103287553Y-52018421D01*
X103163097Y-51717958D01*
X102982415Y-51447549D01*
X102752451Y-51217585D01*
X102482042Y-51036903D01*
X102181579Y-50912447D01*
X101862609Y-50849000D01*
X101537391Y-50849000D01*
X101218421Y-50912447D01*
X100917958Y-51036903D01*
X100647549Y-51217585D01*
X100417585Y-51447549D01*
X100236903Y-51717958D01*
X100112447Y-52018421D01*
X100049000Y-52337391D01*
X93351000Y-52337391D01*
X93287553Y-52018421D01*
X93163097Y-51717958D01*
X92982415Y-51447549D01*
X92752451Y-51217585D01*
X92482042Y-51036903D01*
X92181579Y-50912447D01*
X91862609Y-50849000D01*
X91537391Y-50849000D01*
X91218421Y-50912447D01*
X90917958Y-51036903D01*
X90647549Y-51217585D01*
X90417585Y-51447549D01*
X90236903Y-51717958D01*
X90112447Y-52018421D01*
X90049000Y-52337391D01*
X85667790Y-52337391D01*
X85685900Y-52246348D01*
X85685900Y-51953652D01*
X85628798Y-51666579D01*
X85516788Y-51396162D01*
X85354174Y-51152794D01*
X85147206Y-50945826D01*
X84903838Y-50783212D01*
X84633421Y-50671202D01*
X84346348Y-50614100D01*
X84053652Y-50614100D01*
X83766579Y-50671202D01*
X83496162Y-50783212D01*
X83252794Y-50945826D01*
X83045826Y-51152794D01*
X82883212Y-51396162D01*
X82771202Y-51666579D01*
X82714100Y-51953652D01*
X81049500Y-51953652D01*
X81049500Y-51868594D01*
X80959210Y-51414676D01*
X80782100Y-50987095D01*
X80524976Y-50602281D01*
X80197719Y-50275024D01*
X79812905Y-50017900D01*
X79385324Y-49840790D01*
X78931406Y-49750500D01*
X78468594Y-49750500D01*
X78014676Y-49840790D01*
X77587095Y-50017900D01*
X77202281Y-50275024D01*
X76875024Y-50602281D01*
X76617900Y-50987095D01*
X76440790Y-51414676D01*
X76350500Y-51868594D01*
X74668982Y-51868594D01*
X74628798Y-51666579D01*
X74516788Y-51396162D01*
X74354174Y-51152794D01*
X74147206Y-50945826D01*
X73903838Y-50783212D01*
X73633421Y-50671202D01*
X73346348Y-50614100D01*
X73053652Y-50614100D01*
X72766579Y-50671202D01*
X72496162Y-50783212D01*
X72252794Y-50945826D01*
X72045826Y-51152794D01*
X71883212Y-51396162D01*
X71771202Y-51666579D01*
X71714100Y-51953652D01*
X52037874Y-51953652D01*
X52039766Y-49921099D01*
X52113999Y-48652907D01*
X52267164Y-47788675D01*
X72349700Y-47788675D01*
X72349700Y-48011325D01*
X72393137Y-48229696D01*
X72478341Y-48435398D01*
X72602039Y-48620524D01*
X72759476Y-48777961D01*
X72944602Y-48901659D01*
X73150304Y-48986863D01*
X73368675Y-49030300D01*
X73591325Y-49030300D01*
X73809696Y-48986863D01*
X74015398Y-48901659D01*
X74200524Y-48777961D01*
X74357961Y-48620524D01*
X74481659Y-48435398D01*
X74566863Y-48229696D01*
X74610300Y-48011325D01*
X74610300Y-47788675D01*
X82789700Y-47788675D01*
X82789700Y-48011325D01*
X82833137Y-48229696D01*
X82918341Y-48435398D01*
X83042039Y-48620524D01*
X83199476Y-48777961D01*
X83384602Y-48901659D01*
X83590304Y-48986863D01*
X83808675Y-49030300D01*
X84031325Y-49030300D01*
X84249696Y-48986863D01*
X84455398Y-48901659D01*
X84640524Y-48777961D01*
X84797961Y-48620524D01*
X84842643Y-48553652D01*
X89714100Y-48553652D01*
X89714100Y-48846348D01*
X89771202Y-49133421D01*
X89883212Y-49403838D01*
X90045826Y-49647206D01*
X90252794Y-49854174D01*
X90496162Y-50016788D01*
X90766579Y-50128798D01*
X91053652Y-50185900D01*
X91346348Y-50185900D01*
X91633421Y-50128798D01*
X91903838Y-50016788D01*
X92147206Y-49854174D01*
X92354174Y-49647206D01*
X92516788Y-49403838D01*
X92628798Y-49133421D01*
X92685900Y-48846348D01*
X92685900Y-48553652D01*
X92668982Y-48468594D01*
X94350500Y-48468594D01*
X94350500Y-48931406D01*
X94440790Y-49385324D01*
X94617900Y-49812905D01*
X94875024Y-50197719D01*
X95202281Y-50524976D01*
X95587095Y-50782100D01*
X96014676Y-50959210D01*
X96468594Y-51049500D01*
X96931406Y-51049500D01*
X97385324Y-50959210D01*
X97812905Y-50782100D01*
X98197719Y-50524976D01*
X98234020Y-50488675D01*
X108249700Y-50488675D01*
X108249700Y-50711325D01*
X108293137Y-50929696D01*
X108378341Y-51135398D01*
X108502039Y-51320524D01*
X108659476Y-51477961D01*
X108844602Y-51601659D01*
X109050304Y-51686863D01*
X109268675Y-51730300D01*
X109491325Y-51730300D01*
X109709696Y-51686863D01*
X109915398Y-51601659D01*
X110100524Y-51477961D01*
X110257961Y-51320524D01*
X110381659Y-51135398D01*
X110466863Y-50929696D01*
X110510300Y-50711325D01*
X110510300Y-50488675D01*
X118689700Y-50488675D01*
X118689700Y-50711325D01*
X118733137Y-50929696D01*
X118818341Y-51135398D01*
X118942039Y-51320524D01*
X119099476Y-51477961D01*
X119284602Y-51601659D01*
X119490304Y-51686863D01*
X119708675Y-51730300D01*
X119931325Y-51730300D01*
X120149696Y-51686863D01*
X120355398Y-51601659D01*
X120540524Y-51477961D01*
X120697961Y-51320524D01*
X120821659Y-51135398D01*
X120906863Y-50929696D01*
X120950300Y-50711325D01*
X120950300Y-50488675D01*
X120906863Y-50270304D01*
X120821659Y-50064602D01*
X120697961Y-49879476D01*
X120540524Y-49722039D01*
X120355398Y-49598341D01*
X120149696Y-49513137D01*
X119931325Y-49469700D01*
X119708675Y-49469700D01*
X119490304Y-49513137D01*
X119284602Y-49598341D01*
X119099476Y-49722039D01*
X118942039Y-49879476D01*
X118818341Y-50064602D01*
X118733137Y-50270304D01*
X118689700Y-50488675D01*
X110510300Y-50488675D01*
X110466863Y-50270304D01*
X110381659Y-50064602D01*
X110257961Y-49879476D01*
X110100524Y-49722039D01*
X109915398Y-49598341D01*
X109709696Y-49513137D01*
X109491325Y-49469700D01*
X109268675Y-49469700D01*
X109050304Y-49513137D01*
X108844602Y-49598341D01*
X108659476Y-49722039D01*
X108502039Y-49879476D01*
X108378341Y-50064602D01*
X108293137Y-50270304D01*
X108249700Y-50488675D01*
X98234020Y-50488675D01*
X98524976Y-50197719D01*
X98782100Y-49812905D01*
X98959210Y-49385324D01*
X99049500Y-48931406D01*
X99049500Y-48553652D01*
X100714100Y-48553652D01*
X100714100Y-48846348D01*
X100771202Y-49133421D01*
X100883212Y-49403838D01*
X101045826Y-49647206D01*
X101252794Y-49854174D01*
X101496162Y-50016788D01*
X101766579Y-50128798D01*
X102053652Y-50185900D01*
X102346348Y-50185900D01*
X102633421Y-50128798D01*
X102903838Y-50016788D01*
X103147206Y-49854174D01*
X103354174Y-49647206D01*
X103516788Y-49403838D01*
X103628798Y-49133421D01*
X103685900Y-48846348D01*
X103685900Y-48553652D01*
X103628798Y-48266579D01*
X103516788Y-47996162D01*
X103354174Y-47752794D01*
X103147206Y-47545826D01*
X102903838Y-47383212D01*
X102633421Y-47271202D01*
X102346348Y-47214100D01*
X102053652Y-47214100D01*
X101766579Y-47271202D01*
X101496162Y-47383212D01*
X101252794Y-47545826D01*
X101045826Y-47752794D01*
X100883212Y-47996162D01*
X100771202Y-48266579D01*
X100714100Y-48553652D01*
X99049500Y-48553652D01*
X99049500Y-48468594D01*
X98959210Y-48014676D01*
X98782100Y-47587095D01*
X98524976Y-47202281D01*
X98197719Y-46875024D01*
X97812905Y-46617900D01*
X97385324Y-46440790D01*
X96931406Y-46350500D01*
X96468594Y-46350500D01*
X96014676Y-46440790D01*
X95587095Y-46617900D01*
X95202281Y-46875024D01*
X94875024Y-47202281D01*
X94617900Y-47587095D01*
X94440790Y-48014676D01*
X94350500Y-48468594D01*
X92668982Y-48468594D01*
X92628798Y-48266579D01*
X92516788Y-47996162D01*
X92354174Y-47752794D01*
X92147206Y-47545826D01*
X91903838Y-47383212D01*
X91633421Y-47271202D01*
X91346348Y-47214100D01*
X91053652Y-47214100D01*
X90766579Y-47271202D01*
X90496162Y-47383212D01*
X90252794Y-47545826D01*
X90045826Y-47752794D01*
X89883212Y-47996162D01*
X89771202Y-48266579D01*
X89714100Y-48553652D01*
X84842643Y-48553652D01*
X84921659Y-48435398D01*
X85006863Y-48229696D01*
X85050300Y-48011325D01*
X85050300Y-47788675D01*
X85006863Y-47570304D01*
X84921659Y-47364602D01*
X84797961Y-47179476D01*
X84640524Y-47022039D01*
X84455398Y-46898341D01*
X84249696Y-46813137D01*
X84031325Y-46769700D01*
X83808675Y-46769700D01*
X83590304Y-46813137D01*
X83384602Y-46898341D01*
X83199476Y-47022039D01*
X83042039Y-47179476D01*
X82918341Y-47364602D01*
X82833137Y-47570304D01*
X82789700Y-47788675D01*
X74610300Y-47788675D01*
X74566863Y-47570304D01*
X74481659Y-47364602D01*
X74357961Y-47179476D01*
X74200524Y-47022039D01*
X74015398Y-46898341D01*
X73809696Y-46813137D01*
X73591325Y-46769700D01*
X73368675Y-46769700D01*
X73150304Y-46813137D01*
X72944602Y-46898341D01*
X72759476Y-47022039D01*
X72602039Y-47179476D01*
X72478341Y-47364602D01*
X72393137Y-47570304D01*
X72349700Y-47788675D01*
X52267164Y-47788675D01*
X52331999Y-47422849D01*
X52692022Y-46226623D01*
X53189152Y-45080569D01*
X53591035Y-44388675D01*
X90349700Y-44388675D01*
X90349700Y-44611325D01*
X90393137Y-44829696D01*
X90478341Y-45035398D01*
X90602039Y-45220524D01*
X90759476Y-45377961D01*
X90944602Y-45501659D01*
X91150304Y-45586863D01*
X91368675Y-45630300D01*
X91591325Y-45630300D01*
X91809696Y-45586863D01*
X92015398Y-45501659D01*
X92200524Y-45377961D01*
X92357961Y-45220524D01*
X92481659Y-45035398D01*
X92566863Y-44829696D01*
X92610300Y-44611325D01*
X92610300Y-44388675D01*
X100789700Y-44388675D01*
X100789700Y-44611325D01*
X100833137Y-44829696D01*
X100918341Y-45035398D01*
X101042039Y-45220524D01*
X101199476Y-45377961D01*
X101384602Y-45501659D01*
X101590304Y-45586863D01*
X101808675Y-45630300D01*
X102031325Y-45630300D01*
X102249696Y-45586863D01*
X102455398Y-45501659D01*
X102640524Y-45377961D01*
X102797961Y-45220524D01*
X102921659Y-45035398D01*
X103006863Y-44829696D01*
X103050300Y-44611325D01*
X103050300Y-44388675D01*
X103006863Y-44170304D01*
X102921659Y-43964602D01*
X102797961Y-43779476D01*
X102640524Y-43622039D01*
X102455398Y-43498341D01*
X102249696Y-43413137D01*
X102031325Y-43369700D01*
X101808675Y-43369700D01*
X101590304Y-43413137D01*
X101384602Y-43498341D01*
X101199476Y-43622039D01*
X101042039Y-43779476D01*
X100918341Y-43964602D01*
X100833137Y-44170304D01*
X100789700Y-44388675D01*
X92610300Y-44388675D01*
X92566863Y-44170304D01*
X92481659Y-43964602D01*
X92357961Y-43779476D01*
X92200524Y-43622039D01*
X92015398Y-43498341D01*
X91809696Y-43413137D01*
X91591325Y-43369700D01*
X91368675Y-43369700D01*
X91150304Y-43413137D01*
X90944602Y-43498341D01*
X90759476Y-43622039D01*
X90602039Y-43779476D01*
X90478341Y-43964602D01*
X90393137Y-44170304D01*
X90349700Y-44388675D01*
X53591035Y-44388675D01*
X53816594Y-44000347D01*
X54565786Y-43000701D01*
X55426488Y-42095295D01*
X56386952Y-41296486D01*
X57434036Y-40615202D01*
X58553470Y-40060726D01*
X59729955Y-39640641D01*
X60947411Y-39360688D01*
X62199864Y-39223523D01*
X62807876Y-39210000D01*
X235649218Y-39209785D01*
X236920591Y-39284205D01*
G36*
X140646525Y-61336632D02*
G01*
X140853368Y-61543475D01*
X141027760Y-61660000D01*
X140853368Y-61776525D01*
X140646525Y-61983368D01*
X140521822Y-62170000D01*
X115365377Y-62170000D01*
X115382042Y-62163097D01*
X115652451Y-61982415D01*
X115882415Y-61752451D01*
X116063097Y-61482042D01*
X116187553Y-61181579D01*
X116193834Y-61150000D01*
X140521822Y-61150000D01*
X140646525Y-61336632D01*
G37*
X140646525Y-61336632D02*
X140853368Y-61543475D01*
X141027760Y-61660000D01*
X140853368Y-61776525D01*
X140646525Y-61983368D01*
X140521822Y-62170000D01*
X115365377Y-62170000D01*
X115382042Y-62163097D01*
X115652451Y-61982415D01*
X115882415Y-61752451D01*
X116063097Y-61482042D01*
X116187553Y-61181579D01*
X116193834Y-61150000D01*
X140521822Y-61150000D01*
X140646525Y-61336632D01*
G36*
X181412447Y-61181579D02*
G01*
X181536903Y-61482042D01*
X181717585Y-61752451D01*
X181947549Y-61982415D01*
X182217958Y-62163097D01*
X182234623Y-62170000D01*
X158293178Y-62170000D01*
X158168475Y-61983368D01*
X157961632Y-61776525D01*
X157787240Y-61660000D01*
X157961632Y-61543475D01*
X158168475Y-61336632D01*
X158293178Y-61150000D01*
X181406166Y-61150000D01*
X181412447Y-61181579D01*
G37*
X181412447Y-61181579D02*
X181536903Y-61482042D01*
X181717585Y-61752451D01*
X181947549Y-61982415D01*
X182217958Y-62163097D01*
X182234623Y-62170000D01*
X158293178Y-62170000D01*
X158168475Y-61983368D01*
X157961632Y-61776525D01*
X157787240Y-61660000D01*
X157961632Y-61543475D01*
X158168475Y-61336632D01*
X158293178Y-61150000D01*
X181406166Y-61150000D01*
X181412447Y-61181579D01*
M02*
