M48
; DRILL file {KiCad (5.1.5-0-10_14)} date Wednesday, 22 April 2020 at 10:58:24
; FORMAT={-:-/ absolute / inch / decimal}
; #@! TF.CreationDate,2020-04-22T10:58:24+01:00
; #@! TF.GenerationSoftware,Kicad,Pcbnew,(5.1.5-0-10_14)
; #@! TF.FileFunction,Plated,1,2,PTH
FMAT,2
INCH
T1C0.0320
T2C0.0394
T3C0.0500
T4C0.0512
T5C0.0591
%
G90
G05
T1
X3.3503Y-2.48
X3.3503Y-2.58
X3.3503Y-2.68
X3.3503Y-2.78
X3.3503Y-2.88
X3.3503Y-2.98
X3.3503Y-3.08
X3.3503Y-3.18
X3.3503Y-3.28
X3.3503Y-3.38
X3.3503Y-3.48
X3.3503Y-3.58
X3.9496Y-2.48
X3.9496Y-2.58
X3.9496Y-2.68
X3.9496Y-2.78
X3.9496Y-2.88
X3.9496Y-2.98
X3.9496Y-3.08
X3.9496Y-3.18
X3.9496Y-3.28
X3.9496Y-3.38
X3.9496Y-3.48
X3.9496Y-3.58
T2
X2.8031Y-2.4
X2.8031Y-2.9709
X2.9016Y-2.4
X3.0Y-2.4
X3.0Y-2.9709
T3
X1.2858Y-2.8496
X1.4827Y-2.9323
X1.6795Y-2.8496
X1.9945Y-3.5189
X2.1913Y-3.6016
X2.3882Y-3.5189
X1.2858Y-3.5189
X1.4827Y-3.6016
X1.6795Y-3.5189
X1.9945Y-2.8496
X2.1913Y-2.9323
X2.3882Y-2.8496
X2.7031Y-3.5189
X2.9Y-3.6016
X3.0969Y-3.5189
T4
X3.522Y-3.75
X3.778Y-3.75
T5
G00X2.6811Y-2.6697
M15
G01X2.6811Y-2.7209
M16
G05
G00X3.122Y-2.6697
M15
G01X3.122Y-2.7209
M16
G05
T0
M30
