M48
; DRILL file {KiCad (5.1.5-0-10_14)} date Friday, 01 May 2020 at 17:12:51
; FORMAT={-:-/ absolute / inch / decimal}
; #@! TF.CreationDate,2020-05-01T17:12:51+01:00
; #@! TF.GenerationSoftware,Kicad,Pcbnew,(5.1.5-0-10_14)
; #@! TF.FileFunction,NonPlated,1,2,NPTH
FMAT,2
INCH
T1C0.0390
T2C0.0670
T3C0.1350
%
G90
G05
T1
X1.2772Y-2.5346
X1.6882Y-2.5346
X1.9858Y-2.5346
X2.3969Y-2.5346
X2.6945Y-3.2039
X3.1055Y-3.2039
X1.9858Y-3.2039
X2.3969Y-3.2039
X1.2772Y-3.2039
X1.6882Y-3.2039
T2
X1.2661Y-2.7
X1.6992Y-2.7
X1.9748Y-2.7
X2.4079Y-2.7
X2.6835Y-3.3693
X3.1165Y-3.3693
X1.9748Y-3.3693
X2.4079Y-3.3693
X1.2661Y-3.3693
X1.6992Y-3.3693
T3
X1.4827Y-2.7
X2.1913Y-2.7
X2.9Y-3.3693
X2.1913Y-3.3693
X1.4827Y-3.3693
T0
M30
