G04 #@! TF.GenerationSoftware,KiCad,Pcbnew,(5.1.5-0-10_14)*
G04 #@! TF.CreationDate,2020-04-22T10:58:21+01:00*
G04 #@! TF.ProjectId,macro1,6d616372-6f31-42e6-9b69-6361645f7063,0.1*
G04 #@! TF.SameCoordinates,Original*
G04 #@! TF.FileFunction,Copper,L2,Bot*
G04 #@! TF.FilePolarity,Positive*
%FSLAX46Y46*%
G04 Gerber Fmt 4.6, Leading zero omitted, Abs format (unit mm)*
G04 Created by KiCad (PCBNEW (5.1.5-0-10_14)) date 2020-04-22 10:58:21*
%MOMM*%
%LPD*%
G04 APERTURE LIST*
%ADD10R,2.000000X2.000000*%
%ADD11C,2.000000*%
%ADD12R,2.000000X3.200000*%
%ADD13C,1.500000*%
%ADD14C,2.032000*%
%ADD15C,1.524000*%
%ADD16C,0.250000*%
G04 APERTURE END LIST*
D10*
X76200000Y-60960000D03*
D11*
X73700000Y-60960000D03*
X71200000Y-60960000D03*
D12*
X79300000Y-68460000D03*
X68100000Y-68460000D03*
D13*
X76200000Y-75460000D03*
X71200000Y-75460000D03*
D11*
X89460000Y-95250000D03*
X95960000Y-95250000D03*
D14*
X37660000Y-74480000D03*
X32660000Y-72380000D03*
X42660000Y-72380000D03*
X55660000Y-74480000D03*
X50660000Y-72380000D03*
X60660000Y-72380000D03*
X73660000Y-91480000D03*
X68660000Y-89380000D03*
X78660000Y-89380000D03*
X55660000Y-91480000D03*
X50660000Y-89380000D03*
X60660000Y-89380000D03*
X37660000Y-91480000D03*
X32660000Y-89380000D03*
X42660000Y-89380000D03*
D15*
X100318600Y-62992000D03*
X100318600Y-65532000D03*
X100318600Y-68072000D03*
X100318600Y-70612000D03*
X100318600Y-73152000D03*
X100318600Y-75692000D03*
X100318600Y-78232000D03*
X100318600Y-80772000D03*
X100318600Y-83312000D03*
X100318600Y-85852000D03*
X100318600Y-88392000D03*
X100318600Y-90932000D03*
X85098600Y-90932000D03*
X85098600Y-88392000D03*
X85098600Y-85852000D03*
X85098600Y-83312000D03*
X85098600Y-80772000D03*
X85098600Y-78232000D03*
X85098600Y-75692000D03*
X85098600Y-73152000D03*
X85098600Y-70612000D03*
X85098600Y-68072000D03*
X85098600Y-65532000D03*
X85098600Y-62992000D03*
D16*
X60660000Y-72380000D02*
X50660000Y-72380000D01*
X50660000Y-72380000D02*
X42660000Y-72380000D01*
X42660000Y-72380000D02*
X32660000Y-72380000D01*
X33675999Y-73395999D02*
X33675999Y-88364001D01*
X33675999Y-88364001D02*
X32660000Y-89380000D01*
X32660000Y-72380000D02*
X33675999Y-73395999D01*
X34096840Y-89380000D02*
X42660000Y-89380000D01*
X32660000Y-89380000D02*
X34096840Y-89380000D01*
X49644001Y-88364001D02*
X50660000Y-89380000D01*
X43675999Y-88364001D02*
X49644001Y-88364001D01*
X42660000Y-89380000D02*
X43675999Y-88364001D01*
X50660000Y-89380000D02*
X60660000Y-89380000D01*
X62096840Y-89380000D02*
X68660000Y-89380000D01*
X60660000Y-89380000D02*
X62096840Y-89380000D01*
X78660000Y-89380000D02*
X68660000Y-89380000D01*
X71120000Y-75460000D02*
X70059340Y-75460000D01*
X66989340Y-72390000D02*
X62230000Y-72390000D01*
X70059340Y-75460000D02*
X66989340Y-72390000D01*
X62230000Y-72390000D02*
X60660000Y-72380000D01*
X84530000Y-95250000D02*
X89460000Y-95250000D01*
X78660000Y-89380000D02*
X84530000Y-95250000D01*
X71949999Y-74710001D02*
X71200000Y-75460000D01*
X75286001Y-71373999D02*
X71949999Y-74710001D01*
X84336601Y-71373999D02*
X75286001Y-71373999D01*
X85098600Y-70612000D02*
X84336601Y-71373999D01*
X75025001Y-59634999D02*
X94421599Y-59634999D01*
X94421599Y-59634999D02*
X100318600Y-65532000D01*
X73700000Y-60960000D02*
X75025001Y-59634999D01*
X40650000Y-77470000D02*
X37660000Y-74480000D01*
X85098600Y-78232000D02*
X83312000Y-78232000D01*
X83312000Y-78232000D02*
X82550000Y-77470000D01*
X82550000Y-77470000D02*
X40650000Y-77470000D01*
X76200000Y-62210000D02*
X76200000Y-60960000D01*
X85098600Y-62992000D02*
X76962000Y-62992000D01*
X76200000Y-62230000D02*
X76200000Y-60960000D01*
X76962000Y-62992000D02*
X76200000Y-62230000D01*
X72199999Y-61959999D02*
X71200000Y-60960000D01*
X76533999Y-66293999D02*
X72199999Y-61959999D01*
X84336601Y-66293999D02*
X76533999Y-66293999D01*
X85098600Y-65532000D02*
X84336601Y-66293999D01*
M02*
