M48
; DRILL file {KiCad (5.1.6-0-10_14)} date Monday, July 13, 2020 at 09:24:32 AM
; FORMAT={-:-/ absolute / inch / decimal}
; #@! TF.CreationDate,2020-07-13T09:24:32+01:00
; #@! TF.GenerationSoftware,Kicad,Pcbnew,(5.1.6-0-10_14)
; #@! TF.FileFunction,NonPlated,1,2,NPTH
FMAT,2
INCH
T1C0.0118
T2C0.0394
T3C0.0472
T4C0.2323
%
G90
G05
T3
X5.2917Y-2.7898
X5.2917Y-2.8587
X5.5673Y-2.7898
X5.5673Y-2.8587
T1
G00X1.5Y-2.9136
M15
G01X1.5Y-2.6852
M16
G05
G00X1.6457Y-2.9549
M15
G01X1.6457Y-2.9195
M16
G05
G00X1.5Y-2.6852
M15
G01X1.9646Y-2.6852
M16
G05
G00X1.5Y-2.9136
M15
G01X1.9646Y-2.9136
M16
G05
G00X1.6457Y-2.9549
M15
G01X1.8189Y-2.9549
M16
G05
G00X1.8189Y-2.9549
M15
G01X1.8189Y-2.9195
M16
G05
G00X1.9646Y-2.9136
M15
G01X1.9646Y-2.6852
M16
G05
G00X4.3346Y-3.4732
M15
G01X4.3346Y-3.2449
M16
G05
G00X4.4803Y-3.5146
M15
G01X4.4803Y-3.4791
M16
G05
G00X4.3346Y-3.2449
M15
G01X4.7992Y-3.2449
M16
G05
G00X4.3346Y-3.4732
M15
G01X4.7992Y-3.4732
M16
G05
G00X4.4803Y-3.5146
M15
G01X4.6535Y-3.5146
M16
G05
G00X4.6535Y-3.5146
M15
G01X4.6535Y-3.4791
M16
G05
G00X4.7992Y-3.4732
M15
G01X4.7992Y-3.2449
M16
G05
G00X3.626Y-1.2378
M15
G01X3.626Y-1.0094
M16
G05
G00X3.7717Y-1.2791
M15
G01X3.7717Y-1.2437
M16
G05
G00X3.626Y-1.0094
M15
G01X4.0906Y-1.0094
M16
G05
G00X3.626Y-1.2378
M15
G01X4.0906Y-1.2378
M16
G05
G00X3.7717Y-1.2791
M15
G01X3.9449Y-1.2791
M16
G05
G00X3.9449Y-1.2791
M15
G01X3.9449Y-1.2437
M16
G05
G00X4.0906Y-1.2378
M15
G01X4.0906Y-1.0094
M16
G05
G00X2.9173Y-1.1449
M15
G01X2.9173Y-0.9165
M16
G05
G00X3.063Y-1.1862
M15
G01X3.063Y-1.1508
M16
G05
G00X2.9173Y-0.9165
M15
G01X3.3819Y-0.9165
M16
G05
G00X2.9173Y-1.1449
M15
G01X3.3819Y-1.1449
M16
G05
G00X3.063Y-1.1862
M15
G01X3.2362Y-1.1862
M16
G05
G00X3.2362Y-1.1862
M15
G01X3.2362Y-1.1508
M16
G05
G00X3.3819Y-1.1449
M15
G01X3.3819Y-0.9165
M16
G05
G00X4.3346Y-2.0008
M15
G01X4.3346Y-1.7724
M16
G05
G00X4.4803Y-2.0421
M15
G01X4.4803Y-2.0067
M16
G05
G00X4.3346Y-1.7724
M15
G01X4.7992Y-1.7724
M16
G05
G00X4.3346Y-2.0008
M15
G01X4.7992Y-2.0008
M16
G05
G00X4.4803Y-2.0421
M15
G01X4.6535Y-2.0421
M16
G05
G00X4.6535Y-2.0421
M15
G01X4.6535Y-2.0067
M16
G05
G00X4.7992Y-2.0008
M15
G01X4.7992Y-1.7724
M16
G05
G00X1.5Y-2.2441
M15
G01X1.5Y-2.0157
M16
G05
G00X1.6457Y-2.2854
M15
G01X1.6457Y-2.25
M16
G05
G00X1.5Y-2.0157
M15
G01X1.9646Y-2.0157
M16
G05
G00X1.5Y-2.2441
M15
G01X1.9646Y-2.2441
M16
G05
G00X1.6457Y-2.2854
M15
G01X1.8189Y-2.2854
M16
G05
G00X1.8189Y-2.2854
M15
G01X1.8189Y-2.25
M16
G05
G00X1.9646Y-2.2441
M15
G01X1.9646Y-2.0157
M16
G05
G00X4.3346Y-2.6701
M15
G01X4.3346Y-2.4417
M16
G05
G00X4.4803Y-2.7114
M15
G01X4.4803Y-2.676
M16
G05
G00X4.3346Y-2.4417
M15
G01X4.7992Y-2.4417
M16
G05
G00X4.3346Y-2.6701
M15
G01X4.7992Y-2.6701
M16
G05
G00X4.4803Y-2.7114
M15
G01X4.6535Y-2.7114
M16
G05
G00X4.6535Y-2.7114
M15
G01X4.6535Y-2.676
M16
G05
G00X4.7992Y-2.6701
M15
G01X4.7992Y-2.4417
M16
G05
G00X2.2087Y-2.5766
M15
G01X2.2087Y-2.3482
M16
G05
G00X2.3543Y-2.6179
M15
G01X2.3543Y-2.5825
M16
G05
G00X2.2087Y-2.3482
M15
G01X2.6732Y-2.3482
M16
G05
G00X2.2087Y-2.5766
M15
G01X2.6732Y-2.5766
M16
G05
G00X2.3543Y-2.6179
M15
G01X2.5276Y-2.6179
M16
G05
G00X2.5276Y-2.6179
M15
G01X2.5276Y-2.5825
M16
G05
G00X2.6732Y-2.5766
M15
G01X2.6732Y-2.3482
M16
G05
G00X2.2087Y-1.2378
M15
G01X2.2087Y-1.0094
M16
G05
G00X2.3543Y-1.2791
M15
G01X2.3543Y-1.2437
M16
G05
G00X2.2087Y-1.0094
M15
G01X2.6732Y-1.0094
M16
G05
G00X2.2087Y-1.2378
M15
G01X2.6732Y-1.2378
M16
G05
G00X2.3543Y-1.2791
M15
G01X2.5276Y-1.2791
M16
G05
G00X2.5276Y-1.2791
M15
G01X2.5276Y-1.2437
M16
G05
G00X2.6732Y-1.2378
M15
G01X2.6732Y-1.0094
M16
G05
G00X4.3346Y-1.3315
M15
G01X4.3346Y-1.1031
M16
G05
G00X4.4803Y-1.3728
M15
G01X4.4803Y-1.3374
M16
G05
G00X4.3346Y-1.1031
M15
G01X4.7992Y-1.1031
M16
G05
G00X4.3346Y-1.3315
M15
G01X4.7992Y-1.3315
M16
G05
G00X4.4803Y-1.3728
M15
G01X4.6535Y-1.3728
M16
G05
G00X4.6535Y-1.3728
M15
G01X4.6535Y-1.3374
M16
G05
G00X4.7992Y-1.3315
M15
G01X4.7992Y-1.1031
M16
G05
G00X5.0433Y-3.5787
M15
G01X5.0433Y-3.3504
M16
G05
G00X5.189Y-3.6201
M15
G01X5.189Y-3.5846
M16
G05
G00X5.0433Y-3.3504
M15
G01X5.5079Y-3.3504
M16
G05
G00X5.0433Y-3.5787
M15
G01X5.5079Y-3.5787
M16
G05
G00X5.189Y-3.6201
M15
G01X5.3622Y-3.6201
M16
G05
G00X5.3622Y-3.6201
M15
G01X5.3622Y-3.5846
M16
G05
G00X5.5079Y-3.5787
M15
G01X5.5079Y-3.3504
M16
G05
G00X3.626Y-1.9071
M15
G01X3.626Y-1.6787
M16
G05
G00X3.7717Y-1.9484
M15
G01X3.7717Y-1.913
M16
G05
G00X3.626Y-1.6787
M15
G01X4.0906Y-1.6787
M16
G05
G00X3.626Y-1.9071
M15
G01X4.0906Y-1.9071
M16
G05
G00X3.7717Y-1.9484
M15
G01X3.9449Y-1.9484
M16
G05
G00X3.9449Y-1.9484
M15
G01X3.9449Y-1.913
M16
G05
G00X4.0906Y-1.9071
M15
G01X4.0906Y-1.6787
M16
G05
G00X2.9173Y-1.8138
M15
G01X2.9173Y-1.5854
M16
G05
G00X3.063Y-1.8551
M15
G01X3.063Y-1.8197
M16
G05
G00X2.9173Y-1.5854
M15
G01X3.3819Y-1.5854
M16
G05
G00X2.9173Y-1.8138
M15
G01X3.3819Y-1.8138
M16
G05
G00X3.063Y-1.8551
M15
G01X3.2362Y-1.8551
M16
G05
G00X3.2362Y-1.8551
M15
G01X3.2362Y-1.8197
M16
G05
G00X3.3819Y-1.8138
M15
G01X3.3819Y-1.5854
M16
G05
G00X2.9173Y-2.4831
M15
G01X2.9173Y-2.2547
M16
G05
G00X3.063Y-2.5244
M15
G01X3.063Y-2.489
M16
G05
G00X2.9173Y-2.2547
M15
G01X3.3819Y-2.2547
M16
G05
G00X2.9173Y-2.4831
M15
G01X3.3819Y-2.4831
M16
G05
G00X3.063Y-2.5244
M15
G01X3.2362Y-2.5244
M16
G05
G00X3.2362Y-2.5244
M15
G01X3.2362Y-2.489
M16
G05
G00X3.3819Y-2.4831
M15
G01X3.3819Y-2.2547
M16
G05
G00X3.626Y-3.3732
M15
G01X3.626Y-3.1449
M16
G05
G00X3.7717Y-3.4146
M15
G01X3.7717Y-3.3791
M16
G05
G00X3.626Y-3.1449
M15
G01X4.0906Y-3.1449
M16
G05
G00X3.626Y-3.3732
M15
G01X4.0906Y-3.3732
M16
G05
G00X3.7717Y-3.4146
M15
G01X3.9449Y-3.4146
M16
G05
G00X3.9449Y-3.4146
M15
G01X3.9449Y-3.3791
M16
G05
G00X4.0906Y-3.3732
M15
G01X4.0906Y-3.1449
M16
G05
G00X1.5Y-1.5748
M15
G01X1.5Y-1.3465
M16
G05
G00X1.6457Y-1.6161
M15
G01X1.6457Y-1.5807
M16
G05
G00X1.5Y-1.3465
M15
G01X1.9646Y-1.3465
M16
G05
G00X1.5Y-1.5748
M15
G01X1.9646Y-1.5748
M16
G05
G00X1.6457Y-1.6161
M15
G01X1.8189Y-1.6161
M16
G05
G00X1.8189Y-1.6161
M15
G01X1.8189Y-1.5807
M16
G05
G00X1.9646Y-1.5748
M15
G01X1.9646Y-1.3465
M16
G05
G00X2.2087Y-1.9071
M15
G01X2.2087Y-1.6787
M16
G05
G00X2.3543Y-1.9484
M15
G01X2.3543Y-1.913
M16
G05
G00X2.2087Y-1.6787
M15
G01X2.6732Y-1.6787
M16
G05
G00X2.2087Y-1.9071
M15
G01X2.6732Y-1.9071
M16
G05
G00X2.3543Y-1.9484
M15
G01X2.5276Y-1.9484
M16
G05
G00X2.5276Y-1.9484
M15
G01X2.5276Y-1.913
M16
G05
G00X2.6732Y-1.9071
M15
G01X2.6732Y-1.6787
M16
G05
G00X3.626Y-2.5766
M15
G01X3.626Y-2.3482
M16
G05
G00X3.7717Y-2.6179
M15
G01X3.7717Y-2.5825
M16
G05
G00X3.626Y-2.3482
M15
G01X4.0906Y-2.3482
M16
G05
G00X3.626Y-2.5766
M15
G01X4.0906Y-2.5766
M16
G05
G00X3.7717Y-2.6179
M15
G01X3.9449Y-2.6179
M16
G05
G00X3.9449Y-2.6179
M15
G01X3.9449Y-2.5825
M16
G05
G00X4.0906Y-2.5766
M15
G01X4.0906Y-2.3482
M16
G05
T2
G00X3.6472Y-1.6965
M15
G01X3.6472Y-1.8894
M16
G05
G00X3.6776Y-1.6965
M15
G01X3.6776Y-1.8894
M16
G05
G00X3.6929Y-1.6965
M15
G01X3.6929Y-1.8894
M16
G05
G00X3.7854Y-1.9307
M15
G01X3.9311Y-1.9307
M16
G05
G00X4.0236Y-1.6965
M15
G01X4.0236Y-1.8894
M16
G05
G00X4.039Y-1.6965
M15
G01X4.039Y-1.8894
M16
G05
G00X4.0693Y-1.6965
M15
G01X4.0693Y-1.8894
M16
G05
G00X2.9386Y-1.6031
M15
G01X2.9386Y-1.7961
M16
G05
G00X2.9689Y-1.6031
M15
G01X2.9689Y-1.7961
M16
G05
G00X2.9843Y-1.6031
M15
G01X2.9843Y-1.7961
M16
G05
G00X3.0768Y-1.8374
M15
G01X3.2224Y-1.8374
M16
G05
G00X3.315Y-1.6031
M15
G01X3.315Y-1.7961
M16
G05
G00X3.3303Y-1.6031
M15
G01X3.3303Y-1.7961
M16
G05
G00X3.3606Y-1.6031
M15
G01X3.3606Y-1.7961
M16
G05
G00X2.9386Y-2.2724
M15
G01X2.9386Y-2.4654
M16
G05
G00X2.9689Y-2.2724
M15
G01X2.9689Y-2.4654
M16
G05
G00X2.9843Y-2.2724
M15
G01X2.9843Y-2.4654
M16
G05
G00X3.0768Y-2.5067
M15
G01X3.2224Y-2.5067
M16
G05
G00X3.315Y-2.2724
M15
G01X3.315Y-2.4654
M16
G05
G00X3.3303Y-2.2724
M15
G01X3.3303Y-2.4654
M16
G05
G00X3.3606Y-2.2724
M15
G01X3.3606Y-2.4654
M16
G05
G00X3.6472Y-3.1626
M15
G01X3.6472Y-3.3555
M16
G05
G00X3.6776Y-3.1626
M15
G01X3.6776Y-3.3555
M16
G05
G00X3.6929Y-3.1626
M15
G01X3.6929Y-3.3555
M16
G05
G00X3.7854Y-3.3969
M15
G01X3.9311Y-3.3969
M16
G05
G00X4.0236Y-3.1626
M15
G01X4.0236Y-3.3555
M16
G05
G00X4.039Y-3.1626
M15
G01X4.039Y-3.3555
M16
G05
G00X4.0693Y-3.1626
M15
G01X4.0693Y-3.3555
M16
G05
G00X1.5213Y-1.3642
M15
G01X1.5213Y-1.5571
M16
G05
G00X1.5516Y-1.3642
M15
G01X1.5516Y-1.5571
M16
G05
G00X1.5669Y-1.3642
M15
G01X1.5669Y-1.5571
M16
G05
G00X1.6594Y-1.5984
M15
G01X1.8051Y-1.5984
M16
G05
G00X1.8976Y-1.3642
M15
G01X1.8976Y-1.5571
M16
G05
G00X1.913Y-1.3642
M15
G01X1.913Y-1.5571
M16
G05
G00X1.9433Y-1.3642
M15
G01X1.9433Y-1.5571
M16
G05
G00X2.2299Y-1.6965
M15
G01X2.2299Y-1.8894
M16
G05
G00X2.2602Y-1.6965
M15
G01X2.2602Y-1.8894
M16
G05
G00X2.2756Y-1.6965
M15
G01X2.2756Y-1.8894
M16
G05
G00X2.3681Y-1.9307
M15
G01X2.5138Y-1.9307
M16
G05
G00X2.6063Y-1.6965
M15
G01X2.6063Y-1.8894
M16
G05
G00X2.6217Y-1.6965
M15
G01X2.6217Y-1.8894
M16
G05
G00X2.652Y-1.6965
M15
G01X2.652Y-1.8894
M16
G05
G00X3.6472Y-2.3659
M15
G01X3.6472Y-2.5589
M16
G05
G00X3.6776Y-2.3659
M15
G01X3.6776Y-2.5589
M16
G05
G00X3.6929Y-2.3659
M15
G01X3.6929Y-2.5589
M16
G05
G00X3.7854Y-2.6002
M15
G01X3.9311Y-2.6002
M16
G05
G00X4.0236Y-2.3659
M15
G01X4.0236Y-2.5589
M16
G05
G00X4.039Y-2.3659
M15
G01X4.039Y-2.5589
M16
G05
G00X4.0693Y-2.3659
M15
G01X4.0693Y-2.5589
M16
G05
G00X1.5213Y-2.703
M15
G01X1.5213Y-2.8959
M16
G05
G00X1.5516Y-2.703
M15
G01X1.5516Y-2.8959
M16
G05
G00X1.5669Y-2.703
M15
G01X1.5669Y-2.8959
M16
G05
G00X1.6594Y-2.9372
M15
G01X1.8051Y-2.9372
M16
G05
G00X1.8976Y-2.703
M15
G01X1.8976Y-2.8959
M16
G05
G00X1.913Y-2.703
M15
G01X1.913Y-2.8959
M16
G05
G00X1.9433Y-2.703
M15
G01X1.9433Y-2.8959
M16
G05
G00X4.3559Y-3.2626
M15
G01X4.3559Y-3.4555
M16
G05
G00X4.3862Y-3.2626
M15
G01X4.3862Y-3.4555
M16
G05
G00X4.4016Y-3.2626
M15
G01X4.4016Y-3.4555
M16
G05
G00X4.4941Y-3.4969
M15
G01X4.6398Y-3.4969
M16
G05
G00X4.7323Y-3.2626
M15
G01X4.7323Y-3.4555
M16
G05
G00X4.7476Y-3.2626
M15
G01X4.7476Y-3.4555
M16
G05
G00X4.778Y-3.2626
M15
G01X4.778Y-3.4555
M16
G05
G00X3.6472Y-1.0272
M15
G01X3.6472Y-1.2201
M16
G05
G00X3.6776Y-1.0272
M15
G01X3.6776Y-1.2201
M16
G05
G00X3.6929Y-1.0272
M15
G01X3.6929Y-1.2201
M16
G05
G00X3.7854Y-1.2614
M15
G01X3.9311Y-1.2614
M16
G05
G00X4.0236Y-1.0272
M15
G01X4.0236Y-1.2201
M16
G05
G00X4.039Y-1.0272
M15
G01X4.039Y-1.2201
M16
G05
G00X4.0693Y-1.0272
M15
G01X4.0693Y-1.2201
M16
G05
G00X2.9386Y-0.9343
M15
G01X2.9386Y-1.1272
M16
G05
G00X2.9689Y-0.9343
M15
G01X2.9689Y-1.1272
M16
G05
G00X2.9843Y-0.9343
M15
G01X2.9843Y-1.1272
M16
G05
G00X3.0768Y-1.1685
M15
G01X3.2224Y-1.1685
M16
G05
G00X3.315Y-0.9343
M15
G01X3.315Y-1.1272
M16
G05
G00X3.3303Y-0.9343
M15
G01X3.3303Y-1.1272
M16
G05
G00X3.3606Y-0.9343
M15
G01X3.3606Y-1.1272
M16
G05
G00X4.3559Y-1.7902
M15
G01X4.3559Y-1.9831
M16
G05
G00X4.3862Y-1.7902
M15
G01X4.3862Y-1.9831
M16
G05
G00X4.4016Y-1.7902
M15
G01X4.4016Y-1.9831
M16
G05
G00X4.4941Y-2.0244
M15
G01X4.6398Y-2.0244
M16
G05
G00X4.7323Y-1.7902
M15
G01X4.7323Y-1.9831
M16
G05
G00X4.7476Y-1.7902
M15
G01X4.7476Y-1.9831
M16
G05
G00X4.778Y-1.7902
M15
G01X4.778Y-1.9831
M16
G05
G00X1.5213Y-2.0335
M15
G01X1.5213Y-2.2264
M16
G05
G00X1.5516Y-2.0335
M15
G01X1.5516Y-2.2264
M16
G05
G00X1.5669Y-2.0335
M15
G01X1.5669Y-2.2264
M16
G05
G00X1.6594Y-2.2677
M15
G01X1.8051Y-2.2677
M16
G05
G00X1.8976Y-2.0335
M15
G01X1.8976Y-2.2264
M16
G05
G00X1.913Y-2.0335
M15
G01X1.913Y-2.2264
M16
G05
G00X1.9433Y-2.0335
M15
G01X1.9433Y-2.2264
M16
G05
G00X4.3559Y-2.4594
M15
G01X4.3559Y-2.6524
M16
G05
G00X4.3862Y-2.4594
M15
G01X4.3862Y-2.6524
M16
G05
G00X4.4016Y-2.4594
M15
G01X4.4016Y-2.6524
M16
G05
G00X4.4941Y-2.6937
M15
G01X4.6398Y-2.6937
M16
G05
G00X4.7323Y-2.4594
M15
G01X4.7323Y-2.6524
M16
G05
G00X4.7476Y-2.4594
M15
G01X4.7476Y-2.6524
M16
G05
G00X4.778Y-2.4594
M15
G01X4.778Y-2.6524
M16
G05
G00X2.2299Y-2.3659
M15
G01X2.2299Y-2.5589
M16
G05
G00X2.2602Y-2.3659
M15
G01X2.2602Y-2.5589
M16
G05
G00X2.2756Y-2.3659
M15
G01X2.2756Y-2.5589
M16
G05
G00X2.3681Y-2.6002
M15
G01X2.5138Y-2.6002
M16
G05
G00X2.6063Y-2.3659
M15
G01X2.6063Y-2.5589
M16
G05
G00X2.6217Y-2.3659
M15
G01X2.6217Y-2.5589
M16
G05
G00X2.652Y-2.3659
M15
G01X2.652Y-2.5589
M16
G05
G00X2.2299Y-1.0272
M15
G01X2.2299Y-1.2201
M16
G05
G00X2.2602Y-1.0272
M15
G01X2.2602Y-1.2201
M16
G05
G00X2.2756Y-1.0272
M15
G01X2.2756Y-1.2201
M16
G05
G00X2.3681Y-1.2614
M15
G01X2.5138Y-1.2614
M16
G05
G00X2.6063Y-1.0272
M15
G01X2.6063Y-1.2201
M16
G05
G00X2.6217Y-1.0272
M15
G01X2.6217Y-1.2201
M16
G05
G00X2.652Y-1.0272
M15
G01X2.652Y-1.2201
M16
G05
G00X4.3559Y-1.1209
M15
G01X4.3559Y-1.3138
M16
G05
G00X4.3862Y-1.1209
M15
G01X4.3862Y-1.3138
M16
G05
G00X4.4016Y-1.1209
M15
G01X4.4016Y-1.3138
M16
G05
G00X4.4941Y-1.3551
M15
G01X4.6398Y-1.3551
M16
G05
G00X4.7323Y-1.1209
M15
G01X4.7323Y-1.3138
M16
G05
G00X4.7476Y-1.1209
M15
G01X4.7476Y-1.3138
M16
G05
G00X4.778Y-1.1209
M15
G01X4.778Y-1.3138
M16
G05
G00X5.0646Y-3.3681
M15
G01X5.0646Y-3.561
M16
G05
G00X5.0949Y-3.3681
M15
G01X5.0949Y-3.561
M16
G05
G00X5.1102Y-3.3681
M15
G01X5.1102Y-3.561
M16
G05
G00X5.2028Y-3.6024
M15
G01X5.3484Y-3.6024
M16
G05
G00X5.4409Y-3.3681
M15
G01X5.4409Y-3.561
M16
G05
G00X5.4563Y-3.3681
M15
G01X5.4563Y-3.561
M16
G05
G00X5.4866Y-3.3681
M15
G01X5.4866Y-3.561
M16
G05
T4
G00X1.6152Y-2.1299
M15
G01X1.8494Y-2.1299
M16
G05
G00X3.7411Y-1.7929
M15
G01X3.9754Y-1.7929
M16
G05
G00X3.0325Y-1.6996
M15
G01X3.2667Y-1.6996
M16
G05
G00X1.6152Y-1.4606
M15
G01X1.8494Y-1.4606
M16
G05
G00X2.3238Y-1.7929
M15
G01X2.5581Y-1.7929
M16
G05
G00X1.6152Y-2.7994
M15
G01X1.8494Y-2.7994
M16
G05
G00X3.7411Y-1.1236
M15
G01X3.9754Y-1.1236
M16
G05
G00X3.0325Y-1.0307
M15
G01X3.2667Y-1.0307
M16
G05
G00X4.4498Y-1.8866
M15
G01X4.6841Y-1.8866
M16
G05
G00X4.4498Y-2.5559
M15
G01X4.6841Y-2.5559
M16
G05
G00X2.3238Y-2.4624
M15
G01X2.5581Y-2.4624
M16
G05
G00X4.4498Y-1.2173
M15
G01X4.6841Y-1.2173
M16
G05
G00X5.1585Y-3.4646
M15
G01X5.3927Y-3.4646
M16
G05
G00X3.0325Y-2.3689
M15
G01X3.2667Y-2.3689
M16
G05
G00X3.7411Y-3.2591
M15
G01X3.9754Y-3.2591
M16
G05
G00X3.7411Y-2.4624
M15
G01X3.9754Y-2.4624
M16
G05
G00X4.4498Y-3.3591
M15
G01X4.6841Y-3.3591
M16
G05
G00X2.3238Y-1.1236
M15
G01X2.5581Y-1.1236
M16
G05
T0
M30
