G04 #@! TF.GenerationSoftware,KiCad,Pcbnew,(5.1.6-0-10_14)*
G04 #@! TF.CreationDate,2020-07-13T09:24:30+01:00*
G04 #@! TF.ProjectId,crabby,63726162-6279-42e6-9b69-6361645f7063,2.1*
G04 #@! TF.SameCoordinates,Original*
G04 #@! TF.FileFunction,Soldermask,Top*
G04 #@! TF.FilePolarity,Negative*
%FSLAX46Y46*%
G04 Gerber Fmt 4.6, Leading zero omitted, Abs format (unit mm)*
G04 Created by KiCad (PCBNEW (5.1.6-0-10_14)) date 2020-07-13 09:24:30*
%MOMM*%
%LPD*%
G01*
G04 APERTURE LIST*
%ADD10C,2.000000*%
%ADD11O,12.250000X6.300000*%
%ADD12O,1.400000X6.300000*%
%ADD13O,12.500000X0.700000*%
%ADD14O,0.700000X6.500000*%
%ADD15O,5.100000X0.700000*%
%ADD16O,0.700000X1.600000*%
%ADD17O,5.100000X1.400000*%
%ADD18C,1.924000*%
%ADD19C,2.400000*%
%ADD20C,1.797000*%
%ADD21R,1.797000X1.797000*%
%ADD22C,1.600000*%
%ADD23O,2.900000X2.100000*%
G04 APERTURE END LIST*
D10*
X56700000Y-23790000D03*
X67300000Y-23790000D03*
X64000000Y-33940000D03*
X57420000Y-33640000D03*
X60000000Y-33940000D03*
X66580000Y-33640000D03*
D11*
X62000000Y-28540000D03*
D12*
X56640000Y-28540000D03*
D13*
X62000000Y-25640000D03*
X62000000Y-31440000D03*
D14*
X67900000Y-28540000D03*
X56100000Y-28540000D03*
D12*
X57410000Y-28540000D03*
X57800000Y-28540000D03*
X66200000Y-28540000D03*
X66590000Y-28540000D03*
X67360000Y-28540000D03*
D15*
X62000000Y-32490000D03*
D16*
X64200000Y-32040000D03*
X59800000Y-32040000D03*
D17*
X62000000Y-32040000D03*
D10*
X110700000Y-80570000D03*
X121300000Y-80570000D03*
X118000000Y-90720000D03*
X111420000Y-90420000D03*
X114000000Y-90720000D03*
X120580000Y-90420000D03*
D11*
X116000000Y-85320000D03*
D12*
X110640000Y-85320000D03*
D13*
X116000000Y-82420000D03*
X116000000Y-88220000D03*
D14*
X121900000Y-85320000D03*
X110100000Y-85320000D03*
D12*
X111410000Y-85320000D03*
X111800000Y-85320000D03*
X120200000Y-85320000D03*
X120590000Y-85320000D03*
X121360000Y-85320000D03*
D15*
X116000000Y-89270000D03*
D16*
X118200000Y-88820000D03*
X113800000Y-88820000D03*
D17*
X116000000Y-88820000D03*
D10*
X74700000Y-55420000D03*
X85300000Y-55420000D03*
X82000000Y-65570000D03*
X75420000Y-65270000D03*
X78000000Y-65570000D03*
X84580000Y-65270000D03*
D11*
X80000000Y-60170000D03*
D12*
X74640000Y-60170000D03*
D13*
X80000000Y-57270000D03*
X80000000Y-63070000D03*
D14*
X85900000Y-60170000D03*
X74100000Y-60170000D03*
D12*
X75410000Y-60170000D03*
X75800000Y-60170000D03*
X84200000Y-60170000D03*
X84590000Y-60170000D03*
X85360000Y-60170000D03*
D15*
X80000000Y-64120000D03*
D16*
X82200000Y-63670000D03*
X77800000Y-63670000D03*
D17*
X80000000Y-63670000D03*
D10*
X110700000Y-26170000D03*
X121300000Y-26170000D03*
X118000000Y-36320000D03*
X111420000Y-36020000D03*
X114000000Y-36320000D03*
X120580000Y-36020000D03*
D11*
X116000000Y-30920000D03*
D12*
X110640000Y-30920000D03*
D13*
X116000000Y-28020000D03*
X116000000Y-33820000D03*
D14*
X121900000Y-30920000D03*
X110100000Y-30920000D03*
D12*
X111410000Y-30920000D03*
X111800000Y-30920000D03*
X120200000Y-30920000D03*
X120590000Y-30920000D03*
X121360000Y-30920000D03*
D15*
X116000000Y-34870000D03*
D16*
X118200000Y-34420000D03*
X113800000Y-34420000D03*
D17*
X116000000Y-34420000D03*
D10*
X110700000Y-60170000D03*
X121300000Y-60170000D03*
X118000000Y-70320000D03*
X111420000Y-70020000D03*
X114000000Y-70320000D03*
X120580000Y-70020000D03*
D11*
X116000000Y-64920000D03*
D12*
X110640000Y-64920000D03*
D13*
X116000000Y-62020000D03*
X116000000Y-67820000D03*
D14*
X121900000Y-64920000D03*
X110100000Y-64920000D03*
D12*
X111410000Y-64920000D03*
X111800000Y-64920000D03*
X120200000Y-64920000D03*
X120590000Y-64920000D03*
X121360000Y-64920000D03*
D15*
X116000000Y-68870000D03*
D16*
X118200000Y-68420000D03*
X113800000Y-68420000D03*
D17*
X116000000Y-68420000D03*
D10*
X92700000Y-78030000D03*
X103300000Y-78030000D03*
X100000000Y-88180000D03*
X93420000Y-87880000D03*
X96000000Y-88180000D03*
X102580000Y-87880000D03*
D11*
X98000000Y-82780000D03*
D12*
X92640000Y-82780000D03*
D13*
X98000000Y-79880000D03*
X98000000Y-85680000D03*
D14*
X103900000Y-82780000D03*
X92100000Y-82780000D03*
D12*
X93410000Y-82780000D03*
X93800000Y-82780000D03*
X102200000Y-82780000D03*
X102590000Y-82780000D03*
X103360000Y-82780000D03*
D15*
X98000000Y-86730000D03*
D16*
X100200000Y-86280000D03*
X95800000Y-86280000D03*
D17*
X98000000Y-86280000D03*
D10*
X128700000Y-83250000D03*
X139300000Y-83250000D03*
X136000000Y-93400000D03*
X129420000Y-93100000D03*
X132000000Y-93400000D03*
X138580000Y-93100000D03*
D11*
X134000000Y-88000000D03*
D12*
X128640000Y-88000000D03*
D13*
X134000000Y-85100000D03*
X134000000Y-90900000D03*
D14*
X139900000Y-88000000D03*
X128100000Y-88000000D03*
D12*
X129410000Y-88000000D03*
X129800000Y-88000000D03*
X138200000Y-88000000D03*
X138590000Y-88000000D03*
X139360000Y-88000000D03*
D15*
X134000000Y-91950000D03*
D16*
X136200000Y-91500000D03*
X131800000Y-91500000D03*
D17*
X134000000Y-91500000D03*
D10*
X92700000Y-57795000D03*
X103300000Y-57795000D03*
X100000000Y-67945000D03*
X93420000Y-67645000D03*
X96000000Y-67945000D03*
X102580000Y-67645000D03*
D11*
X98000000Y-62545000D03*
D12*
X92640000Y-62545000D03*
D13*
X98000000Y-59645000D03*
X98000000Y-65445000D03*
D14*
X103900000Y-62545000D03*
X92100000Y-62545000D03*
D12*
X93410000Y-62545000D03*
X93800000Y-62545000D03*
X102200000Y-62545000D03*
X102590000Y-62545000D03*
X103360000Y-62545000D03*
D15*
X98000000Y-66495000D03*
D16*
X100200000Y-66045000D03*
X95800000Y-66045000D03*
D17*
X98000000Y-66045000D03*
D10*
X56700000Y-57795000D03*
X67300000Y-57795000D03*
X64000000Y-67945000D03*
X57420000Y-67645000D03*
X60000000Y-67945000D03*
X66580000Y-67645000D03*
D11*
X62000000Y-62545000D03*
D12*
X56640000Y-62545000D03*
D13*
X62000000Y-59645000D03*
X62000000Y-65445000D03*
D14*
X67900000Y-62545000D03*
X56100000Y-62545000D03*
D12*
X57410000Y-62545000D03*
X57800000Y-62545000D03*
X66200000Y-62545000D03*
X66590000Y-62545000D03*
X67360000Y-62545000D03*
D15*
X62000000Y-66495000D03*
D16*
X64200000Y-66045000D03*
X59800000Y-66045000D03*
D17*
X62000000Y-66045000D03*
D10*
X38700000Y-66355000D03*
X49300000Y-66355000D03*
X46000000Y-76505000D03*
X39420000Y-76205000D03*
X42000000Y-76505000D03*
X48580000Y-76205000D03*
D11*
X44000000Y-71105000D03*
D12*
X38640000Y-71105000D03*
D13*
X44000000Y-68205000D03*
X44000000Y-74005000D03*
D14*
X49900000Y-71105000D03*
X38100000Y-71105000D03*
D12*
X39410000Y-71105000D03*
X39800000Y-71105000D03*
X48200000Y-71105000D03*
X48590000Y-71105000D03*
X49360000Y-71105000D03*
D15*
X44000000Y-75055000D03*
D16*
X46200000Y-74605000D03*
X41800000Y-74605000D03*
D17*
X44000000Y-74605000D03*
D10*
X110700000Y-43170000D03*
X121300000Y-43170000D03*
X118000000Y-53320000D03*
X111420000Y-53020000D03*
X114000000Y-53320000D03*
X120580000Y-53020000D03*
D11*
X116000000Y-47920000D03*
D12*
X110640000Y-47920000D03*
D13*
X116000000Y-45020000D03*
X116000000Y-50820000D03*
D14*
X121900000Y-47920000D03*
X110100000Y-47920000D03*
D12*
X111410000Y-47920000D03*
X111800000Y-47920000D03*
X120200000Y-47920000D03*
X120590000Y-47920000D03*
X121360000Y-47920000D03*
D15*
X116000000Y-51870000D03*
D16*
X118200000Y-51420000D03*
X113800000Y-51420000D03*
D17*
X116000000Y-51420000D03*
D10*
X92700000Y-40790000D03*
X103300000Y-40790000D03*
X100000000Y-50940000D03*
X93420000Y-50640000D03*
X96000000Y-50940000D03*
X102580000Y-50640000D03*
D11*
X98000000Y-45540000D03*
D12*
X92640000Y-45540000D03*
D13*
X98000000Y-42640000D03*
X98000000Y-48440000D03*
D14*
X103900000Y-45540000D03*
X92100000Y-45540000D03*
D12*
X93410000Y-45540000D03*
X93800000Y-45540000D03*
X102200000Y-45540000D03*
X102590000Y-45540000D03*
X103360000Y-45540000D03*
D15*
X98000000Y-49490000D03*
D16*
X100200000Y-49040000D03*
X95800000Y-49040000D03*
D17*
X98000000Y-49040000D03*
D10*
X74700000Y-38420000D03*
X85300000Y-38420000D03*
X82000000Y-48570000D03*
X75420000Y-48270000D03*
X78000000Y-48570000D03*
X84580000Y-48270000D03*
D11*
X80000000Y-43170000D03*
D12*
X74640000Y-43170000D03*
D13*
X80000000Y-40270000D03*
X80000000Y-46070000D03*
D14*
X85900000Y-43170000D03*
X74100000Y-43170000D03*
D12*
X75410000Y-43170000D03*
X75800000Y-43170000D03*
X84200000Y-43170000D03*
X84590000Y-43170000D03*
X85360000Y-43170000D03*
D15*
X80000000Y-47120000D03*
D16*
X82200000Y-46670000D03*
X77800000Y-46670000D03*
D17*
X80000000Y-46670000D03*
D10*
X56700000Y-40790000D03*
X67300000Y-40790000D03*
X64000000Y-50940000D03*
X57420000Y-50640000D03*
X60000000Y-50940000D03*
X66580000Y-50640000D03*
D11*
X62000000Y-45540000D03*
D12*
X56640000Y-45540000D03*
D13*
X62000000Y-42640000D03*
X62000000Y-48440000D03*
D14*
X67900000Y-45540000D03*
X56100000Y-45540000D03*
D12*
X57410000Y-45540000D03*
X57800000Y-45540000D03*
X66200000Y-45540000D03*
X66590000Y-45540000D03*
X67360000Y-45540000D03*
D15*
X62000000Y-49490000D03*
D16*
X64200000Y-49040000D03*
X59800000Y-49040000D03*
D17*
X62000000Y-49040000D03*
D10*
X38700000Y-49350000D03*
X49300000Y-49350000D03*
X46000000Y-59500000D03*
X39420000Y-59200000D03*
X42000000Y-59500000D03*
X48580000Y-59200000D03*
D11*
X44000000Y-54100000D03*
D12*
X38640000Y-54100000D03*
D13*
X44000000Y-51200000D03*
X44000000Y-57000000D03*
D14*
X49900000Y-54100000D03*
X38100000Y-54100000D03*
D12*
X39410000Y-54100000D03*
X39800000Y-54100000D03*
X48200000Y-54100000D03*
X48590000Y-54100000D03*
X49360000Y-54100000D03*
D15*
X44000000Y-58050000D03*
D16*
X46200000Y-57600000D03*
X41800000Y-57600000D03*
D17*
X44000000Y-57600000D03*
D10*
X92700000Y-23790000D03*
X103300000Y-23790000D03*
X100000000Y-33940000D03*
X93420000Y-33640000D03*
X96000000Y-33940000D03*
X102580000Y-33640000D03*
D11*
X98000000Y-28540000D03*
D12*
X92640000Y-28540000D03*
D13*
X98000000Y-25640000D03*
X98000000Y-31440000D03*
D14*
X103900000Y-28540000D03*
X92100000Y-28540000D03*
D12*
X93410000Y-28540000D03*
X93800000Y-28540000D03*
X102200000Y-28540000D03*
X102590000Y-28540000D03*
X103360000Y-28540000D03*
D15*
X98000000Y-32490000D03*
D16*
X100200000Y-32040000D03*
X95800000Y-32040000D03*
D17*
X98000000Y-32040000D03*
D10*
X74700000Y-21430000D03*
X85300000Y-21430000D03*
X82000000Y-31580000D03*
X75420000Y-31280000D03*
X78000000Y-31580000D03*
X84580000Y-31280000D03*
D11*
X80000000Y-26180000D03*
D12*
X74640000Y-26180000D03*
D13*
X80000000Y-23280000D03*
X80000000Y-29080000D03*
D14*
X85900000Y-26180000D03*
X74100000Y-26180000D03*
D12*
X75410000Y-26180000D03*
X75800000Y-26180000D03*
X84200000Y-26180000D03*
X84590000Y-26180000D03*
X85360000Y-26180000D03*
D15*
X80000000Y-30130000D03*
D16*
X82200000Y-29680000D03*
X77800000Y-29680000D03*
D17*
X80000000Y-29680000D03*
D10*
X38700000Y-32350000D03*
X49300000Y-32350000D03*
X46000000Y-42500000D03*
X39420000Y-42200000D03*
X42000000Y-42500000D03*
X48580000Y-42200000D03*
D11*
X44000000Y-37100000D03*
D12*
X38640000Y-37100000D03*
D13*
X44000000Y-34200000D03*
X44000000Y-40000000D03*
D14*
X49900000Y-37100000D03*
X38100000Y-37100000D03*
D12*
X39410000Y-37100000D03*
X39800000Y-37100000D03*
X48200000Y-37100000D03*
X48590000Y-37100000D03*
X49360000Y-37100000D03*
D15*
X44000000Y-41050000D03*
D16*
X46200000Y-40600000D03*
X41800000Y-40600000D03*
D17*
X44000000Y-40600000D03*
D18*
X128286400Y-36402000D03*
X128286400Y-38942000D03*
X128286400Y-41482000D03*
X128286400Y-44022000D03*
X128286400Y-46562000D03*
X128286400Y-49102000D03*
X128286400Y-51642000D03*
X128286400Y-54182000D03*
X128286400Y-56722000D03*
X128286400Y-59262000D03*
X128286400Y-61802000D03*
X128286400Y-64342000D03*
X143506400Y-64342000D03*
X143506400Y-61802000D03*
X143506400Y-59262000D03*
X143506400Y-56722000D03*
X143506400Y-54182000D03*
X143506400Y-51642000D03*
X143506400Y-49102000D03*
X143506400Y-46562000D03*
X143506400Y-44022000D03*
X143506400Y-41482000D03*
X143506400Y-38942000D03*
X143506400Y-36402000D03*
X126960000Y-37672000D03*
X126960000Y-40212000D03*
X126960000Y-42752000D03*
X126960000Y-45292000D03*
X126960000Y-47832000D03*
X126960000Y-50372000D03*
X126960000Y-52912000D03*
X126960000Y-55452000D03*
X126960000Y-57992000D03*
X126960000Y-60532000D03*
X126960000Y-63072000D03*
X126960000Y-65612000D03*
X142200000Y-65612000D03*
X142200000Y-63072000D03*
X142200000Y-60532000D03*
X142200000Y-57992000D03*
X142200000Y-55452000D03*
X142200000Y-52912000D03*
X142200000Y-50372000D03*
X142200000Y-47832000D03*
X142200000Y-45292000D03*
X142200000Y-42752000D03*
X142200000Y-40212000D03*
X142200000Y-37672000D03*
D19*
X127580000Y-68580000D03*
X127580000Y-75080000D03*
D20*
X108000000Y-65545000D03*
D21*
X108000000Y-59545000D03*
D22*
X134410000Y-70860000D03*
X141410000Y-70860000D03*
D23*
X132610000Y-68760000D03*
X131110000Y-72960000D03*
X139610000Y-68760000D03*
X136610000Y-68760000D03*
D22*
X141410000Y-72610000D03*
X134410000Y-72610000D03*
D23*
X139610000Y-74710000D03*
X136610000Y-74710000D03*
X132610000Y-74710000D03*
X131110000Y-70510000D03*
D20*
X52840000Y-38560000D03*
D21*
X52840000Y-32560000D03*
X71120000Y-22400000D03*
D20*
X71120000Y-28400000D03*
X88900000Y-28400000D03*
D21*
X88900000Y-22400000D03*
D20*
X105680000Y-32670000D03*
D21*
X106000000Y-26670000D03*
D20*
X107950000Y-30130000D03*
D21*
X107950000Y-24130000D03*
D20*
X53070000Y-51060000D03*
D21*
X53070000Y-45060000D03*
X71120000Y-40545000D03*
D20*
X71120000Y-46545000D03*
X88900000Y-44170000D03*
D21*
X88900000Y-38170000D03*
D20*
X106000000Y-50450000D03*
D21*
X106000000Y-44450000D03*
D20*
X108000000Y-46545000D03*
D21*
X108000000Y-40545000D03*
D20*
X52570000Y-68995000D03*
D21*
X52570000Y-62995000D03*
D20*
X71120000Y-65545000D03*
D21*
X71120000Y-59545000D03*
X89000000Y-53680000D03*
D20*
X89000000Y-59680000D03*
X106000000Y-68230000D03*
D21*
X106000000Y-62230000D03*
D20*
X89000000Y-68350000D03*
D21*
X89000000Y-62350000D03*
D20*
X106680000Y-87050000D03*
D21*
X106680000Y-81050000D03*
D20*
X124460000Y-88780000D03*
D21*
X124460000Y-82780000D03*
M02*
