M48
; DRILL file {KiCad (5.1.6-0-10_14)} date Monday, July 13, 2020 at 09:24:32 AM
; FORMAT={-:-/ absolute / inch / decimal}
; #@! TF.CreationDate,2020-07-13T09:24:32+01:00
; #@! TF.GenerationSoftware,Kicad,Pcbnew,(5.1.6-0-10_14)
; #@! TF.FileFunction,Plated,1,2,PTH
FMAT,2
INCH
T1C0.0157
T2C0.0320
T3C0.0394
T4C0.0433
T5C0.0512
%
G90
G05
T1
X3.7046Y-2.1844
X5.3921Y-1.95
X5.413Y-2.05
X5.453Y-1.8606
X5.4989Y-2.2331
X5.5164Y-2.1495
T2
X2.8Y-0.8819
X2.8Y-1.1181
X4.252Y-1.5963
X4.252Y-1.8325
X3.5039Y-2.4547
X3.5039Y-2.6909
X4.1732Y-1.75
X4.1732Y-1.9862
X3.5Y-1.5028
X3.5Y-1.739
X2.0803Y-1.2819
X2.0803Y-1.5181
X4.1732Y-2.45
X4.1732Y-2.6862
X2.8Y-1.5963
X2.8Y-1.8325
X4.9Y-3.2591
X4.9Y-3.4953
X3.5039Y-2.1134
X3.5039Y-2.3496
X2.0894Y-1.774
X2.0894Y-2.0102
X2.8Y-2.3443
X2.8Y-2.5805
X4.252Y-2.3443
X4.252Y-2.5805
X4.25Y-0.95
X4.25Y-1.1862
X4.2Y-3.1909
X4.2Y-3.4272
X4.1606Y-1.2862
X4.1732Y-1.05
X4.9984Y-1.4831
X4.9984Y-1.5831
X4.9984Y-1.6831
X4.9984Y-1.7831
X4.9984Y-1.8831
X4.9984Y-1.9831
X4.9984Y-2.0831
X4.9984Y-2.1831
X4.9984Y-2.2831
X4.9984Y-2.3831
X4.9984Y-2.4831
X4.9984Y-2.5831
X5.0506Y-1.4331
X5.0506Y-1.5331
X5.0506Y-1.6331
X5.0506Y-1.7331
X5.0506Y-1.8331
X5.0506Y-1.9331
X5.0506Y-2.0331
X5.0506Y-2.1331
X5.0506Y-2.2331
X5.0506Y-2.3331
X5.0506Y-2.4331
X5.0506Y-2.5331
X5.5984Y-1.4831
X5.5984Y-1.5831
X5.5984Y-1.6831
X5.5984Y-1.7831
X5.5984Y-1.8831
X5.5984Y-1.9831
X5.5984Y-2.0831
X5.5984Y-2.1831
X5.5984Y-2.2831
X5.5984Y-2.3831
X5.5984Y-2.4831
X5.5984Y-2.5831
X5.6499Y-1.4331
X5.6499Y-1.5331
X5.6499Y-1.6331
X5.6499Y-1.7331
X5.6499Y-1.8331
X5.6499Y-1.9331
X5.6499Y-2.0331
X5.6499Y-2.1331
X5.6499Y-2.2331
X5.6499Y-2.3331
X5.6499Y-2.4331
X5.6499Y-2.5331
X3.5Y-0.8819
X3.5Y-1.1181
X2.0697Y-2.4801
X2.0697Y-2.7163
T4
X1.5236Y-2.6124
X1.552Y-3.0002
X1.6535Y-3.012
X1.811Y-3.012
X1.9126Y-3.0002
X1.9409Y-2.6124
X4.3583Y-3.172
X4.3866Y-3.5598
X4.4882Y-3.5717
X4.6457Y-3.5717
X4.7472Y-3.5598
X4.7756Y-3.172
X3.6496Y-0.9366
X3.678Y-1.3244
X3.7795Y-1.3362
X3.937Y-1.3362
X4.0386Y-1.3244
X4.0669Y-0.9366
X2.9409Y-0.8437
X2.9693Y-1.2315
X3.0709Y-1.2433
X3.2283Y-1.2433
X3.3299Y-1.2315
X3.3583Y-0.8437
X4.3583Y-1.6996
X4.3866Y-2.0874
X4.4882Y-2.0992
X4.6457Y-2.0992
X4.7472Y-2.0874
X4.7756Y-1.6996
X1.5236Y-1.9429
X1.552Y-2.3307
X1.6535Y-2.3425
X1.811Y-2.3425
X1.9126Y-2.3307
X1.9409Y-1.9429
X4.3583Y-2.3689
X4.3866Y-2.7567
X4.4882Y-2.7685
X4.6457Y-2.7685
X4.7472Y-2.7567
X4.7756Y-2.3689
X2.2323Y-2.2754
X2.2606Y-2.6632
X2.3622Y-2.675
X2.5197Y-2.675
X2.6213Y-2.6632
X2.6496Y-2.2754
X2.2323Y-0.9366
X2.2606Y-1.3244
X2.3622Y-1.3362
X2.5197Y-1.3362
X2.6213Y-1.3244
X2.6496Y-0.9366
X4.3583Y-1.0303
X4.3866Y-1.4181
X4.4882Y-1.4299
X4.6457Y-1.4299
X4.7472Y-1.4181
X4.7756Y-1.0303
X5.0669Y-3.2776
X5.0953Y-3.6654
X5.1969Y-3.6772
X5.3543Y-3.6772
X5.4559Y-3.6654
X5.4843Y-3.2776
X3.6496Y-1.6059
X3.678Y-1.9937
X3.7795Y-2.0055
X3.937Y-2.0055
X4.0386Y-1.9937
X4.0669Y-1.6059
X2.9409Y-1.5126
X2.9693Y-1.9004
X3.0709Y-1.9122
X3.2283Y-1.9122
X3.3299Y-1.9004
X3.3583Y-1.5126
X2.9409Y-2.1819
X2.9693Y-2.5697
X3.0709Y-2.5815
X3.2283Y-2.5815
X3.3299Y-2.5697
X3.3583Y-2.1819
X3.6496Y-3.072
X3.678Y-3.4598
X3.7795Y-3.4717
X3.937Y-3.4717
X4.0386Y-3.4598
X4.0669Y-3.072
X1.5236Y-1.2736
X1.552Y-1.6614
X1.6535Y-1.6732
X1.811Y-1.6732
X1.9126Y-1.6614
X1.9409Y-1.2736
X2.2323Y-1.6059
X2.2606Y-1.9937
X2.3622Y-2.0055
X2.5197Y-2.0055
X2.6213Y-1.9937
X2.6496Y-1.6059
X3.6496Y-2.2754
X3.678Y-2.6632
X3.7795Y-2.675
X3.937Y-2.675
X4.0386Y-2.6632
X4.0669Y-2.2754
T5
X5.0228Y-2.7
X5.0228Y-2.9559
T3
G00X5.1717Y-2.776
M15
G01X5.152Y-2.776
M16
G05
G00X5.1717Y-2.8724
M15
G01X5.152Y-2.8724
M16
G05
G00X5.2307Y-2.7071
M15
G01X5.211Y-2.7071
M16
G05
G00X5.2307Y-2.9413
M15
G01X5.211Y-2.9413
M16
G05
G00X5.3882Y-2.7071
M15
G01X5.3685Y-2.7071
M16
G05
G00X5.3882Y-2.9413
M15
G01X5.3685Y-2.9413
M16
G05
G00X5.5063Y-2.7071
M15
G01X5.4866Y-2.7071
M16
G05
G00X5.5063Y-2.9413
M15
G01X5.4866Y-2.9413
M16
G05
T0
M30
