G04 #@! TF.GenerationSoftware,KiCad,Pcbnew,5.1.6*
G04 #@! TF.CreationDate,2020-07-27T10:41:18+01:00*
G04 #@! TF.ProjectId,cradio10,63726164-696f-4313-902e-6b696361645f,1.0*
G04 #@! TF.SameCoordinates,Original*
G04 #@! TF.FileFunction,Copper,L1,Top*
G04 #@! TF.FilePolarity,Positive*
%FSLAX46Y46*%
G04 Gerber Fmt 4.6, Leading zero omitted, Abs format (unit mm)*
G04 Created by KiCad (PCBNEW 5.1.6) date 2020-07-27 10:41:18*
%MOMM*%
%LPD*%
G01*
G04 APERTURE LIST*
G04 #@! TA.AperFunction,ComponentPad*
%ADD10C,2.032000*%
G04 #@! TD*
G04 #@! TA.AperFunction,ComponentPad*
%ADD11C,2.000000*%
G04 #@! TD*
G04 #@! TA.AperFunction,ComponentPad*
%ADD12C,1.524000*%
G04 #@! TD*
G04 #@! TA.AperFunction,ComponentPad*
%ADD13O,1.700000X2.500000*%
G04 #@! TD*
G04 #@! TA.AperFunction,ViaPad*
%ADD14C,0.600000*%
G04 #@! TD*
G04 #@! TA.AperFunction,Conductor*
%ADD15C,0.250000*%
G04 #@! TD*
G04 APERTURE END LIST*
D10*
X109445142Y-80427577D03*
X99785883Y-77839387D03*
X105159032Y-77105038D03*
X121000000Y-68720000D03*
X111000000Y-68720000D03*
X116000000Y-70820000D03*
X129810127Y-88119103D03*
X121149873Y-83119103D03*
X126530000Y-83800450D03*
X103000000Y-66345000D03*
X93000000Y-66345000D03*
X98000000Y-68445000D03*
X85000000Y-62970000D03*
X75000000Y-62970000D03*
X80000000Y-65070000D03*
X67000000Y-66345000D03*
X57000000Y-66345000D03*
X62000000Y-68445000D03*
X49000000Y-67305000D03*
X39000000Y-67305000D03*
X44000000Y-65205000D03*
X121000000Y-51720000D03*
X111000000Y-51720000D03*
X116000000Y-53820000D03*
X103000000Y-49340000D03*
X93000000Y-49340000D03*
X98000000Y-51440000D03*
X85000000Y-45970000D03*
X75000000Y-45970000D03*
X80000000Y-48070000D03*
X67000000Y-49340000D03*
X57000000Y-49340000D03*
X62000000Y-51440000D03*
X49000000Y-57900000D03*
X39000000Y-57900000D03*
X44000000Y-60000000D03*
X121000000Y-34720000D03*
X111000000Y-34720000D03*
X116000000Y-36820000D03*
X103000000Y-32340000D03*
X93000000Y-32340000D03*
X98000000Y-34440000D03*
X85000000Y-28980000D03*
X75000000Y-28980000D03*
X80000000Y-31080000D03*
X49000000Y-40900000D03*
X39000000Y-40900000D03*
X44000000Y-43000000D03*
X67000000Y-32340000D03*
X57000000Y-32340000D03*
X62000000Y-34440000D03*
D11*
X124512000Y-72136000D03*
X131012000Y-72136000D03*
D12*
X40062000Y-97838600D03*
X42602000Y-97838600D03*
X45142000Y-97838600D03*
X47682000Y-97838600D03*
X50222000Y-97838600D03*
X52762000Y-97838600D03*
X55302000Y-97838600D03*
X57842000Y-97838600D03*
X60382000Y-97838600D03*
X62922000Y-97838600D03*
X65462000Y-97838600D03*
X68002000Y-97838600D03*
X68002000Y-82618600D03*
X65462000Y-82618600D03*
X62922000Y-82618600D03*
X60382000Y-82618600D03*
X57842000Y-82618600D03*
X55302000Y-82618600D03*
X52762000Y-82618600D03*
X50222000Y-82618600D03*
X47682000Y-82618600D03*
X45142000Y-82618600D03*
X42602000Y-82618600D03*
X40062000Y-82618600D03*
D13*
X128710000Y-63362000D03*
X132910000Y-61862000D03*
X132910000Y-57862000D03*
X132910000Y-54862000D03*
X126960000Y-57862000D03*
X126960000Y-54862000D03*
X131160000Y-63362000D03*
X126960000Y-61862000D03*
D14*
X80673200Y-87400800D03*
X68617400Y-84513500D03*
D15*
X80000000Y-65070000D02*
X67713200Y-77356800D01*
X67713200Y-77356800D02*
X60563800Y-77356800D01*
X60563800Y-77356800D02*
X55302000Y-82618600D01*
X57842000Y-82618600D02*
X61532700Y-78927900D01*
X61532700Y-78927900D02*
X87517100Y-78927900D01*
X87517100Y-78927900D02*
X98000000Y-68445000D01*
X116000000Y-70820000D02*
X104245000Y-70820000D01*
X104245000Y-70820000D02*
X94884600Y-80180400D01*
X94884600Y-80180400D02*
X62820200Y-80180400D01*
X62820200Y-80180400D02*
X60382000Y-82618600D01*
X50222000Y-97838600D02*
X51324100Y-98940700D01*
X51324100Y-98940700D02*
X55755100Y-98940700D01*
X55755100Y-98940700D02*
X56572000Y-98123800D01*
X56572000Y-98123800D02*
X56572000Y-97528500D01*
X56572000Y-97528500D02*
X66699700Y-87400800D01*
X66699700Y-87400800D02*
X80673200Y-87400800D01*
X121000000Y-68720000D02*
X121096000Y-68720000D01*
X121096000Y-68720000D02*
X124512000Y-72136000D01*
X111000000Y-68720000D02*
X121000000Y-68720000D01*
X93000000Y-32340000D02*
X103000000Y-32340000D01*
X85000000Y-28980000D02*
X88360000Y-32340000D01*
X88360000Y-32340000D02*
X93000000Y-32340000D01*
X75000000Y-45970000D02*
X71630000Y-49340000D01*
X71630000Y-49340000D02*
X67000000Y-49340000D01*
X75000000Y-45970000D02*
X85000000Y-45970000D01*
X67000000Y-66345000D02*
X57000000Y-66345000D01*
X75000000Y-62970000D02*
X71625000Y-66345000D01*
X71625000Y-66345000D02*
X67000000Y-66345000D01*
X57000000Y-32340000D02*
X57000000Y-32900000D01*
X57000000Y-32900000D02*
X49000000Y-40900000D01*
X57000000Y-32340000D02*
X67000000Y-32340000D01*
X126960000Y-57862000D02*
X132910000Y-57862000D01*
X93000000Y-66345000D02*
X88375000Y-66345000D01*
X88375000Y-66345000D02*
X85000000Y-62970000D01*
X93000000Y-66345000D02*
X103000000Y-66345000D01*
X75000000Y-62970000D02*
X85000000Y-62970000D01*
X49000000Y-67305000D02*
X56040000Y-67305000D01*
X56040000Y-67305000D02*
X57000000Y-66345000D01*
X39000000Y-57900000D02*
X49000000Y-57900000D01*
X111000000Y-51720000D02*
X121000000Y-51720000D01*
X103000000Y-49340000D02*
X108620000Y-49340000D01*
X108620000Y-49340000D02*
X111000000Y-51720000D01*
X93000000Y-49340000D02*
X103000000Y-49340000D01*
X85000000Y-45970000D02*
X88370000Y-49340000D01*
X88370000Y-49340000D02*
X93000000Y-49340000D01*
X57000000Y-49340000D02*
X67000000Y-49340000D01*
X111000000Y-34720000D02*
X121000000Y-34720000D01*
X103000000Y-32340000D02*
X108620000Y-32340000D01*
X108620000Y-32340000D02*
X111000000Y-34720000D01*
X75000000Y-28980000D02*
X85000000Y-28980000D01*
X39000000Y-40900000D02*
X49000000Y-40900000D01*
X45142000Y-82618600D02*
X47682000Y-82618600D01*
X125784700Y-61862000D02*
X125334400Y-62312300D01*
X125334400Y-62312300D02*
X110587900Y-62312300D01*
X110587900Y-62312300D02*
X93170100Y-79730100D01*
X93170100Y-79730100D02*
X61730600Y-79730100D01*
X61730600Y-79730100D02*
X59112000Y-82348700D01*
X59112000Y-82348700D02*
X59112000Y-86408600D01*
X59112000Y-86408600D02*
X47682000Y-97838600D01*
X126960000Y-61862000D02*
X125784700Y-61862000D01*
X127360000Y-61862000D02*
X126960000Y-61862000D01*
X127360000Y-61862000D02*
X128135300Y-61862000D01*
X132910000Y-61862000D02*
X131734700Y-61862000D01*
X128135300Y-61862000D02*
X128247400Y-61749900D01*
X128247400Y-61749900D02*
X131622600Y-61749900D01*
X131622600Y-61749900D02*
X131734700Y-61862000D01*
X55302000Y-97838600D02*
X68617400Y-84523200D01*
X68617400Y-84523200D02*
X68617400Y-84513500D01*
X40062000Y-82618600D02*
X46838200Y-75842400D01*
X46838200Y-75842400D02*
X46838200Y-67488800D01*
X46838200Y-67488800D02*
X49323400Y-65003600D01*
X49323400Y-65003600D02*
X70330000Y-65003600D01*
X70330000Y-65003600D02*
X81513600Y-53820000D01*
X81513600Y-53820000D02*
X116000000Y-53820000D01*
X126960000Y-54862000D02*
X117851500Y-54862000D01*
X117851500Y-54862000D02*
X111076600Y-61636900D01*
X111076600Y-61636900D02*
X110138100Y-61636900D01*
X110138100Y-61636900D02*
X104063100Y-67711900D01*
X104063100Y-67711900D02*
X102266900Y-67711900D01*
X102266900Y-67711900D02*
X101636800Y-67081800D01*
X101636800Y-67081800D02*
X94617000Y-67081800D01*
X94617000Y-67081800D02*
X93969900Y-67728900D01*
X93969900Y-67728900D02*
X87658900Y-67728900D01*
X87658900Y-67728900D02*
X83645700Y-63715700D01*
X83645700Y-63715700D02*
X77285000Y-63715700D01*
X77285000Y-63715700D02*
X64875000Y-76125700D01*
X64875000Y-76125700D02*
X49094900Y-76125700D01*
X49094900Y-76125700D02*
X42602000Y-82618600D01*
X132910000Y-54862000D02*
X126960000Y-54862000D01*
X45142000Y-97838600D02*
X46244100Y-98940700D01*
X46244100Y-98940700D02*
X48135100Y-98940700D01*
X48135100Y-98940700D02*
X48952000Y-98123800D01*
X48952000Y-98123800D02*
X48952000Y-97549900D01*
X48952000Y-97549900D02*
X61283200Y-85218700D01*
X61283200Y-85218700D02*
X64408800Y-85218700D01*
X64408800Y-85218700D02*
X66732000Y-82895500D01*
X66732000Y-82895500D02*
X66732000Y-82350000D01*
X66732000Y-82350000D02*
X68001000Y-81081000D01*
X68001000Y-81081000D02*
X95921200Y-81081000D01*
X95921200Y-81081000D02*
X96865500Y-80136700D01*
X96865500Y-80136700D02*
X106714000Y-80136700D01*
X106714000Y-80136700D02*
X110819500Y-76031200D01*
X110819500Y-76031200D02*
X127116800Y-76031200D01*
X127116800Y-76031200D02*
X131012000Y-72136000D01*
X68002000Y-82618600D02*
X71760100Y-86376700D01*
X71760100Y-86376700D02*
X116864800Y-86376700D01*
X116864800Y-86376700D02*
X118258200Y-84983300D01*
X118258200Y-84983300D02*
X125347200Y-84983300D01*
X125347200Y-84983300D02*
X126530000Y-83800500D01*
X105159000Y-77105000D02*
X102687600Y-79576400D01*
X102687600Y-79576400D02*
X96762400Y-79576400D01*
X96762400Y-79576400D02*
X95708100Y-80630700D01*
X95708100Y-80630700D02*
X67449900Y-80630700D01*
X67449900Y-80630700D02*
X65462000Y-82618600D01*
X131160000Y-63362000D02*
X128710000Y-63362000D01*
M02*
