G04 #@! TF.GenerationSoftware,KiCad,Pcbnew,5.1.6*
G04 #@! TF.CreationDate,2020-07-27T10:41:18+01:00*
G04 #@! TF.ProjectId,cradio10,63726164-696f-4313-902e-6b696361645f,1.0*
G04 #@! TF.SameCoordinates,Original*
G04 #@! TF.FileFunction,Soldermask,Bot*
G04 #@! TF.FilePolarity,Negative*
%FSLAX46Y46*%
G04 Gerber Fmt 4.6, Leading zero omitted, Abs format (unit mm)*
G04 Created by KiCad (PCBNEW 5.1.6) date 2020-07-27 10:41:18*
%MOMM*%
%LPD*%
G01*
G04 APERTURE LIST*
%ADD10C,1.390600*%
%ADD11C,2.432000*%
%ADD12C,3.829000*%
%ADD13C,2.101800*%
%ADD14C,2.400000*%
%ADD15C,1.924000*%
%ADD16O,2.100000X2.900000*%
%ADD17C,1.600000*%
G04 APERTURE END LIST*
D10*
X97502827Y-85509853D03*
D11*
X109445142Y-80427577D03*
D12*
X103632000Y-82804000D03*
D11*
X99785883Y-77839387D03*
X105159032Y-77105038D03*
D10*
X107587093Y-88211924D03*
D13*
X108944592Y-84227505D03*
X98319408Y-81380495D03*
D10*
X110780000Y-60720000D03*
D11*
X121000000Y-68720000D03*
D12*
X116000000Y-64920000D03*
D11*
X111000000Y-68720000D03*
X116000000Y-70820000D03*
D10*
X121220000Y-60720000D03*
D13*
X121500000Y-64920000D03*
X110500000Y-64920000D03*
D10*
X116959347Y-89937307D03*
D11*
X129810127Y-88119103D03*
D12*
X123580000Y-88910000D03*
D11*
X121149873Y-83119103D03*
X126530000Y-83800450D03*
D10*
X126000653Y-95157307D03*
D13*
X128343140Y-91660000D03*
X118816860Y-86160000D03*
D10*
X92780000Y-58345000D03*
D11*
X103000000Y-66345000D03*
D12*
X98000000Y-62545000D03*
D11*
X93000000Y-66345000D03*
X98000000Y-68445000D03*
D10*
X103220000Y-58345000D03*
D13*
X103500000Y-62545000D03*
X92500000Y-62545000D03*
D10*
X74780000Y-54970000D03*
D11*
X85000000Y-62970000D03*
D12*
X80000000Y-59170000D03*
D11*
X75000000Y-62970000D03*
X80000000Y-65070000D03*
D10*
X85220000Y-54970000D03*
D13*
X85500000Y-59170000D03*
X74500000Y-59170000D03*
D10*
X56780000Y-58345000D03*
D11*
X67000000Y-66345000D03*
D12*
X62000000Y-62545000D03*
D11*
X57000000Y-66345000D03*
X62000000Y-68445000D03*
D10*
X67220000Y-58345000D03*
D13*
X67500000Y-62545000D03*
X56500000Y-62545000D03*
D10*
X38780000Y-75305000D03*
D11*
X49000000Y-67305000D03*
D12*
X44000000Y-71105000D03*
D11*
X39000000Y-67305000D03*
X44000000Y-65205000D03*
D10*
X49220000Y-75305000D03*
D13*
X49500000Y-71105000D03*
X38500000Y-71105000D03*
D10*
X110780000Y-43720000D03*
D11*
X121000000Y-51720000D03*
D12*
X116000000Y-47920000D03*
D11*
X111000000Y-51720000D03*
X116000000Y-53820000D03*
D10*
X121220000Y-43720000D03*
D13*
X121500000Y-47920000D03*
X110500000Y-47920000D03*
D10*
X92780000Y-41340000D03*
D11*
X103000000Y-49340000D03*
D12*
X98000000Y-45540000D03*
D11*
X93000000Y-49340000D03*
X98000000Y-51440000D03*
D10*
X103220000Y-41340000D03*
D13*
X103500000Y-45540000D03*
X92500000Y-45540000D03*
D10*
X74780000Y-37970000D03*
D11*
X85000000Y-45970000D03*
D12*
X80000000Y-42170000D03*
D11*
X75000000Y-45970000D03*
X80000000Y-48070000D03*
D10*
X85220000Y-37970000D03*
D13*
X85500000Y-42170000D03*
X74500000Y-42170000D03*
D10*
X56780000Y-41340000D03*
D11*
X67000000Y-49340000D03*
D12*
X62000000Y-45540000D03*
D11*
X57000000Y-49340000D03*
X62000000Y-51440000D03*
D10*
X67220000Y-41340000D03*
D13*
X67500000Y-45540000D03*
X56500000Y-45540000D03*
D10*
X38780000Y-49900000D03*
D11*
X49000000Y-57900000D03*
D12*
X44000000Y-54100000D03*
D11*
X39000000Y-57900000D03*
X44000000Y-60000000D03*
D10*
X49220000Y-49900000D03*
D13*
X49500000Y-54100000D03*
X38500000Y-54100000D03*
D10*
X110780000Y-26720000D03*
D11*
X121000000Y-34720000D03*
D12*
X116000000Y-30920000D03*
D11*
X111000000Y-34720000D03*
X116000000Y-36820000D03*
D10*
X121220000Y-26720000D03*
D13*
X121500000Y-30920000D03*
X110500000Y-30920000D03*
D10*
X92780000Y-24340000D03*
D11*
X103000000Y-32340000D03*
D12*
X98000000Y-28540000D03*
D11*
X93000000Y-32340000D03*
X98000000Y-34440000D03*
D10*
X103220000Y-24340000D03*
D13*
X103500000Y-28540000D03*
X92500000Y-28540000D03*
D10*
X74780000Y-20980000D03*
D11*
X85000000Y-28980000D03*
D12*
X80000000Y-25180000D03*
D11*
X75000000Y-28980000D03*
X80000000Y-31080000D03*
D10*
X85220000Y-20980000D03*
D13*
X85500000Y-25180000D03*
X74500000Y-25180000D03*
D10*
X38780000Y-32900000D03*
D11*
X49000000Y-40900000D03*
D12*
X44000000Y-37100000D03*
D11*
X39000000Y-40900000D03*
X44000000Y-43000000D03*
D10*
X49220000Y-32900000D03*
D13*
X49500000Y-37100000D03*
X38500000Y-37100000D03*
D10*
X56780000Y-24340000D03*
D11*
X67000000Y-32340000D03*
D12*
X62000000Y-28540000D03*
D11*
X57000000Y-32340000D03*
X62000000Y-34440000D03*
D10*
X67220000Y-24340000D03*
D13*
X67500000Y-28540000D03*
X56500000Y-28540000D03*
D14*
X124512000Y-72136000D03*
X131012000Y-72136000D03*
D15*
X40062000Y-97838600D03*
X42602000Y-97838600D03*
X45142000Y-97838600D03*
X47682000Y-97838600D03*
X50222000Y-97838600D03*
X52762000Y-97838600D03*
X55302000Y-97838600D03*
X57842000Y-97838600D03*
X60382000Y-97838600D03*
X62922000Y-97838600D03*
X65462000Y-97838600D03*
X68002000Y-97838600D03*
X68002000Y-82618600D03*
X65462000Y-82618600D03*
X62922000Y-82618600D03*
X60382000Y-82618600D03*
X57842000Y-82618600D03*
X55302000Y-82618600D03*
X52762000Y-82618600D03*
X50222000Y-82618600D03*
X47682000Y-82618600D03*
X45142000Y-82618600D03*
X42602000Y-82618600D03*
X40062000Y-82618600D03*
D16*
X128710000Y-63362000D03*
X132910000Y-61862000D03*
X132910000Y-57862000D03*
X132910000Y-54862000D03*
D17*
X130810000Y-60062000D03*
X130810000Y-53062000D03*
D16*
X126960000Y-57862000D03*
X126960000Y-54862000D03*
X131160000Y-63362000D03*
X126960000Y-61862000D03*
D17*
X129060000Y-53062000D03*
X129060000Y-60062000D03*
M02*
