M48
; DRILL file {KiCad 5.1.6} date Mon Jul 27 10:41:22 2020
; FORMAT={-:-/ absolute / inch / decimal}
; #@! TF.CreationDate,2020-07-27T10:41:22+01:00
; #@! TF.GenerationSoftware,Kicad,Pcbnew,5.1.6
; #@! TF.FileFunction,Plated,1,2,PTH
FMAT,2
INCH
T1C0.0157
T2C0.0320
T3C0.0394
T4C0.0500
T5C0.0512
%
G90
G05
T1
X2.7015Y-3.3273
X3.1761Y-3.441
T2
X1.5772Y-3.2527
X1.5772Y-3.8519
X1.6772Y-3.2527
X1.6772Y-3.8519
X1.7772Y-3.2527
X1.7772Y-3.8519
X1.8772Y-3.2527
X1.8772Y-3.8519
X1.9772Y-3.2527
X1.9772Y-3.8519
X2.0772Y-3.2527
X2.0772Y-3.8519
X2.1772Y-3.2527
X2.1772Y-3.8519
X2.2772Y-3.2527
X2.2772Y-3.8519
X2.3772Y-3.2527
X2.3772Y-3.8519
X2.4772Y-3.2527
X2.4772Y-3.8519
X2.5772Y-3.2527
X2.5772Y-3.8519
X2.6772Y-3.2527
X2.6772Y-3.8519
T4
X3.9286Y-3.0645
X4.1401Y-3.0356
X4.3089Y-3.1664
X3.6614Y-1.9425
X3.8583Y-2.0252
X4.0551Y-1.9425
X2.2441Y-1.9425
X2.4409Y-2.0252
X2.6378Y-1.9425
X4.3701Y-2.7055
X4.5669Y-2.7882
X4.7638Y-2.7055
X4.7697Y-3.2724
X4.9815Y-3.2992
X5.1106Y-3.4693
X3.6614Y-1.2732
X3.8583Y-1.3559
X4.0551Y-1.2732
X2.2441Y-1.2732
X2.4409Y-1.3559
X2.6378Y-1.2732
X4.3701Y-2.0362
X4.5669Y-2.1189
X4.7638Y-2.0362
X3.6614Y-2.612
X3.8583Y-2.6947
X4.0551Y-2.612
X1.5354Y-1.6102
X1.7323Y-1.6929
X1.9291Y-1.6102
X2.9528Y-1.8098
X3.1496Y-1.8925
X3.3465Y-1.8098
X2.2441Y-2.612
X2.4409Y-2.6947
X2.6378Y-2.612
X1.5354Y-2.2795
X1.7323Y-2.3622
X1.9291Y-2.2795
X1.5354Y-2.6498
X1.7323Y-2.5671
X1.9291Y-2.6498
X4.3701Y-1.3669
X4.5669Y-1.4496
X4.7638Y-1.3669
X2.9528Y-2.4791
X3.1496Y-2.5618
X3.3465Y-2.4791
X2.9528Y-1.1409
X3.1496Y-1.2236
X3.3465Y-1.1409
T5
X4.902Y-2.84
X5.158Y-2.84
T3
G00X4.9984Y-2.1501
M15
G01X4.9984Y-2.1698
M16
G05
G00X4.9984Y-2.2682
M15
G01X4.9984Y-2.2879
M16
G05
G00X4.9984Y-2.4257
M15
G01X4.9984Y-2.4454
M16
G05
G00X5.0673Y-2.4847
M15
G01X5.0673Y-2.5044
M16
G05
G00X5.1638Y-2.4847
M15
G01X5.1638Y-2.5044
M16
G05
G00X5.2327Y-2.1501
M15
G01X5.2327Y-2.1698
M16
G05
G00X5.2327Y-2.2682
M15
G01X5.2327Y-2.2879
M16
G05
G00X5.2327Y-2.4257
M15
G01X5.2327Y-2.4454
M16
G05
T0
M30
